<svg xmlns="http://www.w3.org/2000/svg" width="70" height="70" viewBox="0 0 70 70">
    <g fill="none" fill-rule="nonzero">
        <path fill="#D4E1F4" d="M50.204 32.112c.056-.029.11-.063.162-.101-1.108-.917-1.283-4.598-2.577-6.662a33.267 33.267 0 0 1-2.404-5.221h-.011l-5.752 1.4c-.887 0-1.734-.407-2.334-1.12-.63-.688-2.333-1.643-2.333-2.7 0 2.114-2.73 3.82-4.666 3.82l-5.752-1.387a35.267 35.267 0 0 1-2.415 5.208c-1.26 2.115-1.342 5.872-2.392 6.776-.012.013-.023.026-.035.026-.315 1.732-.945 8.457 6.253 15.347-.326 4.216-.373 9.552.84 13.513.216.711.485 1.402.805 2.063.172.384.366.754.584 1.109l5.705-2.675 1.073-.497 1.074.497 5.704 2.675a9.57 9.57 0 0 0 .584-1.109c.32-.661.59-1.352.805-2.063 1.213-3.961 1.166-9.297.84-13.513 7.245-6.941 6.556-13.704 6.242-15.386zM24.455 35.54c-.004-1.483.785-2.832 2.018-3.452 1.122.292 2.082 1.081 2.649 2.178.384 1.01 1.31 1.647 2.31 1.592-.206 1.993-1.789 3.474-3.625 3.39-1.836-.083-3.3-1.703-3.352-3.708zm17.5 3.82c-1.82.006-3.336-1.521-3.477-3.502 1.001.055 1.926-.582 2.31-1.592.567-1.097 1.527-1.886 2.649-2.178 1.475.765 2.27 2.541 1.915 4.281-.354 1.74-1.764 2.981-3.397 2.991z"/>
        <path fill="#E3E7F2" d="M45.455 35.539c-.052 2.005-1.516 3.625-3.353 3.708-1.836.084-3.418-1.397-3.624-3.39 1.001.055 1.926-.582 2.31-1.592.567-1.097 1.527-1.886 2.649-2.178 1.233.62 2.022 1.97 2.018 3.452zM31.431 35.857c-.134 1.854-1.471 3.333-3.168 3.503-1.696.17-3.258-1.018-3.7-2.814-.442-1.796.364-3.678 1.91-4.459 1.122.292 2.082 1.081 2.649 2.178.384 1.01 1.31 1.647 2.31 1.592z"/>
        <path fill="#A4C2F7" d="M30.778 9.162l-.805-.917c-.233-.28-.502-.56-.77-.866l-.07-.077a20.863 20.863 0 0 0-2.193-2.101 17.367 17.367 0 0 0-1.902-1.389c-.338-.216-.676-.42-1.026-.611a12.912 12.912 0 0 0-1.272-.611 14.591 14.591 0 0 0-7.105-1.248 14.27 14.27 0 0 0-1.307.178c-.381.072-.759.166-1.131.28v.013c-.587.173-1.16.394-1.715.662-3.183 1.586-5.787 4.29-7.397 7.68-.186.37-.362.752-.537 1.133-.261.581-.495 1.176-.7 1.784a28.623 28.623 0 0 0-1.633 11.462c.012.204.035.42.058.625.07.942.187 1.859.339 2.789.356 3.026 1.748 5.792 3.896 7.743 1.694 1.34 3.72 2.091 5.81 2.153a6.401 6.401 0 0 0 4.072-1.172c-.128.102-1.505-1.197-1.633-1.299-2.485-2.011-4.39-4.756-5.495-7.91a8.28 8.28 0 0 1 .35-5.87 7.995 7.995 0 0 1 2.065-2.726c-.385-2.293 3.278 2.662 3.278 2.662s5.833-7.642 11.667 1.133l.081.026 5.752 1.388c1.933 0 3.5-1.71 3.5-3.821V15.02s0-1.032-4.177-5.858z"/>
        <path fill="#D4E1F4" d="M34.955 19.975v.28c0 2.11-1.567 3.82-3.5 3.82l-5.752-1.387-.081-.026c-5.834-8.775-11.667-1.133-11.667-1.133s-3.663-4.955-3.278-2.662a7.995 7.995 0 0 0-2.065 2.725 8.28 8.28 0 0 0-.35 5.872c1.104 3.153 3.01 5.898 5.495 7.91.128.1 1.505 1.4 1.633 1.298a6.401 6.401 0 0 1-4.072 1.172c-2.09-.062-4.116-.812-5.81-2.153-2.148-1.95-3.54-4.717-3.896-7.743a31.876 31.876 0 0 1-.339-2.79 29.076 29.076 0 0 1 1.575-7.132c.205-.608.439-1.202.7-1.783.175-.382.35-.764.537-1.133 1.61-3.39 4.214-6.095 7.397-7.68.555-.269 1.128-.49 1.715-.663v-.013c.372-.114.75-.207 1.131-.28.42-.076.864-.14 1.307-.178 2.425-.187 4.856.24 7.105 1.248.433.18.858.384 1.272.611.35.192.688.395 1.026.612.661.417 1.297.88 1.902 1.388.777.642 1.51 1.345 2.193 2.101l.07.077c.268.306.537.586.77.866l.805.917c4.177 4.827 4.177 5.859 4.177 5.859z"/>
        <path fill="#A4C2F7" d="M67.062 13.072a19.136 19.136 0 0 0-.7-1.784 32.54 32.54 0 0 0-.537-1.133c-1.612-3.38-4.204-6.081-7.373-7.68h-.012c-.558-.26-1.13-.482-1.715-.662-.006 0-.012-.006-.012-.013a14.8 14.8 0 0 0-1.12-.28c-.431-.076-.863-.14-1.318-.178A14.59 14.59 0 0 0 47.17 2.59c-.433.18-.858.383-1.271.61-.35.192-.689.396-1.027.612-.662.417-1.297.88-1.902 1.389a20.863 20.863 0 0 0-2.193 2.101l-.07.077c-.269.305-.537.586-.77.866l-.806.917c-4.176 4.826-4.176 5.858-4.176 5.858v5.235c0 2.11 1.567 3.82 3.5 3.82l5.752-1.4h.011l.07-.013c7-7.502 9.334-1.133 9.334-1.133s5.996-4.955 5.611-2.662a8.002 8.002 0 0 1 2.066 2.725 8.287 8.287 0 0 1 .35 5.872c-1.105 3.153-3.012 5.898-5.496 7.91-.128.1-1.504 1.4-1.633 1.298a6.403 6.403 0 0 0 4.071 1.172c2.092-.062 4.117-.812 5.81-2.153 2.149-1.95 3.54-4.717 3.897-7.743.152-.93.269-1.847.339-2.79v-.012c.023-.204.047-.408.058-.612.24-3.906-.317-7.82-1.633-11.462z"/>
        <path fill="#D4E1F4" d="M68.637 25.146v.013c-.07.942-.187 1.859-.339 2.789-.356 3.026-1.748 5.792-3.897 7.743-1.693 1.34-3.718 2.091-5.81 2.153a6.403 6.403 0 0 1-4.071-1.172c.129.102 1.505-1.197 1.633-1.299 2.484-2.011 4.391-4.756 5.495-7.91a8.287 8.287 0 0 0-.35-5.87 8.002 8.002 0 0 0-2.065-2.726c.385-2.293-5.611 2.662-5.611 2.662s-2.334-6.369-9.334 1.133l-.07.013h-.011l-5.752 1.4c-1.933 0-3.5-1.71-3.5-3.82v-.28s0-1.032 4.176-5.859l.806-.917c.233-.28.501-.56.77-.866l.07-.077a20.916 20.916 0 0 1 2.193-2.1c.605-.509 1.24-.972 1.902-1.39.338-.216.676-.42 1.027-.61.413-.228.838-.432 1.271-.612a14.59 14.59 0 0 1 7.105-1.248c.455.038.887.102 1.318.178.385.077.759.178 1.12.28 0 .007.006.013.012.013.584.18 1.157.402 1.715.662h.012c3.169 1.6 5.761 4.3 7.373 7.68.187.37.362.752.536 1.134.263.58.497 1.175.7 1.783a28.97 28.97 0 0 1 1.576 7.12z"/>
        <path fill="#E3E7F2" d="M25.703 22.688a32.636 32.636 0 0 1-2.426 5.043c-.158-.294-4.25-1.852-6.989-4.929-2.113-2.374-2.388-6.168-5.833-7.782 0 0 10.5-3.82 15.167 7.642l.081.026z"/>
        <path fill="#7FABFA" d="M23.277 27.73a17.622 17.622 0 0 1-3.547 4.395c-.012 0-.012 0-.023-.013-4.696-2.69-8.018-7.563-9.03-13.245a15.67 15.67 0 0 1-.222-3.847c7.91 3.707 12.542 12.19 12.822 12.71z"/>
        <path fill="#E3E7F2" d="M59.455 15.02c-2.743 1.287-3.924 5.88-5.833 7.782-3.42 3.407-6.598 4.215-6.942 4.853a29.653 29.653 0 0 1-2.462-4.98l.07-.013C48.955 11.2 59.455 15.02 59.455 15.02z"/>
        <path fill="#7FABFA" d="M59.233 18.867c-1 5.611-4.254 10.436-8.867 13.144a18.004 18.004 0 0 1-3.686-4.356c.537-.994 5.121-9.056 12.775-12.635.084 1.288.01 2.581-.222 3.847z"/>
        <path fill="#E3E7F2" d="M41.733 64.183c-1.473 2.589-3.993 4.251-6.778 4.47-2.785-.219-5.305-1.881-6.778-4.47l5.705-2.675 1.073-.497 1.074.497 5.704 2.675z"/>
        <path fill="#FFF" d="M26.788 61.011c.216.711.485 1.402.805 2.063.172.384.366.754.584 1.109 1.473 2.589 3.993 4.251 6.778 4.47a6.549 6.549 0 0 0 1.75-.333c-2.078-.671-3.864-2.141-5.028-4.137a9.57 9.57 0 0 1-.584-1.109c-.32-.661-.59-1.352-.804-2.063-1.214-3.961-1.167-9.297-.84-13.513-7.2-6.89-6.569-13.615-6.254-15.347.012 0 .023-.013.035-.026-.012 0-.012 0-.023-.013a21.889 21.889 0 0 1-2.039-1.445 14.51 14.51 0 0 1-1.438 1.458c-.012.013-.023.026-.035.026-.315 1.732-.945 8.457 6.253 15.347-.326 4.216-.373 9.552.84 13.513zM3.548 11.288c-.261.581-.495 1.176-.7 1.784a28.623 28.623 0 0 0-1.633 11.462c.012.204.035.42.058.625.07.942.187 1.859.339 2.789.356 3.026 1.748 5.792 3.896 7.743 1.694 1.34 3.72 2.091 5.81 2.153a7.167 7.167 0 0 0 1.867-.189 9.943 9.943 0 0 1-4.177-1.964c-2.147-1.95-3.54-4.717-3.897-7.743a31.875 31.875 0 0 1-.338-2.79c-.023-.203-.046-.42-.058-.624-.24-3.906.318-7.82 1.633-11.462.205-.608.438-1.203.7-1.784a31.6 31.6 0 0 1 .537-1.133c1.61-3.39 4.214-6.094 7.397-7.68.555-.268 1.128-.49 1.715-.662V1.8c.373-.114.75-.208 1.131-.28.214-.04.444-.06.666-.09a13.252 13.252 0 0 0-2.859-.088 14.27 14.27 0 0 0-1.307.178c-.381.072-.759.166-1.131.28v.013c-.587.173-1.16.394-1.715.662-3.183 1.586-5.787 4.29-7.397 7.68-.186.37-.362.752-.537 1.133z"/>
        <path fill="#FFF" d="M20.85 32.367c-.344 2.483 0 5.022.99 7.289a19.86 19.86 0 0 0 4.22 6.21l.658.674-1.54 1.91-.723-.733a22.39 22.39 0 0 1-4.742-7.013 16.28 16.28 0 0 1-1.15-8.846l2.287.51z"/>
        <g fill="#6663FF">
            <path d="M21.913 40.666l-.214-.043a.783.783 0 0 0-.233 0 .713.713 0 0 0-.218.036 1.516 1.516 0 0 0-.22.09 1.265 1.265 0 0 0-.583.751c-.042.169-.049.345-.018.516.068.536.424.975.903 1.116.154.034.312.034.466 0 .151-.03.294-.093.421-.186.25-.192.428-.475.502-.799a1.517 1.517 0 0 0-.117-.92 1.223 1.223 0 0 0-.69-.56z"/>
            <path d="M55.466 34.344a8.72 8.72 0 0 0-.266.234c-.497.45-.836.743-1.013.874-.425.14-.74.53-.814 1.006a1.331 1.331 0 0 0 .555 1.31 7.49 7.49 0 0 0 4.458 1.373c2.416-.03 4.763-.879 6.717-2.43 2.392-2.135 3.947-5.188 4.347-8.533.192-1.171.33-2.352.412-3.54.272-4.718-.555-9.435-2.404-13.71a1.296 1.296 0 0 0-.177-.382c-2.127-4.696-5.555-8.61-10.334-9.99l-.035-.01A13.583 13.583 0 0 0 54.37.073c-3.019-.22-6.037.433-8.75 1.892a1.245 1.245 0 0 0-.18.09 18.85 18.85 0 0 0-3.17 2.13 23.388 23.388 0 0 0-2.391 2.3 57.521 57.521 0 0 0-4.924 6.038 57.822 57.822 0 0 0-4.927-6.044 23.438 23.438 0 0 0-2.38-2.292 18.895 18.895 0 0 0-2.946-2.017 1.128 1.128 0 0 0-.414-.208C21.573.505 18.556-.148 15.538.066c-.859.076-1.71.235-2.543.476-.014 0-.026.007-.04.011-4.783 1.38-8.205 5.294-10.33 9.983a1.31 1.31 0 0 0-.178.382C.601 15.195-.223 19.914.052 24.633c.082 1.187.22 2.369.412 3.54.4 3.345 1.954 6.398 4.347 8.534 1.953 1.552 4.301 2.403 6.717 2.434a7.497 7.497 0 0 0 4.46-1.372 1.33 1.33 0 0 0 .553-1.31c-.074-.478-.39-.868-.814-1.007-.177-.127-.517-.424-1.014-.874a3.115 3.115 0 0 0-.233-.202c-3.605-3.128-6.767-7.98-4.83-12.208.129-.272.274-.534.436-.783 1.412 4.793 4.39 8.85 8.368 11.399a15.204 15.204 0 0 0 .254 4.664c.06.345.253.645.528.826.276.181.609.225.916.123.586-.202.942-.848.832-1.507a12.765 12.765 0 0 1-.272-2.802c.077.018.155.029.234.03.534-.006.996-.407 1.122-.974.125-.567-.119-1.155-.591-1.426-7-3.822-9.08-9.498-9.668-13.119a16.94 16.94 0 0 1-.183-1.54c4.347 2.769 8.004 6.661 10.65 11.336.322.604 1.03.812 1.587.464.556-.347.752-1.12.438-1.73-2.574-4.606-6.063-8.522-10.21-11.46 3.15-.096 7.816 1.007 10.464 7.515.17.416.53.702.944.75a1.13 1.13 0 0 0 1.067-.518c.245-.369.291-.851.122-1.267-5.033-12.38-16.485-8.377-16.602-8.337-.013 0-.023.014-.035.018-.034.015-.063.037-.095.053a1.32 1.32 0 0 0-.343.27 1.28 1.28 0 0 0-.22.35l-.01.015a1.397 1.397 0 0 0-.087.357 17.008 17.008 0 0 0 .154 3.47 9.352 9.352 0 0 0-1.882 2.674c-3.226 7.045 3.365 13.529 5.483 15.365l.018.018c-2.41.489-4.897-.14-6.865-1.735-1.897-1.77-3.126-4.244-3.449-6.945a35.505 35.505 0 0 1-.382-3.288 27.388 27.388 0 0 1 1.128-9.56 8.657 8.657 0 0 0 1.458 2.46c.293.332.727.465 1.135.348.408-.117.726-.465.833-.91a1.353 1.353 0 0 0-.319-1.239 10.825 10.825 0 0 1-1.803-4.108c1.302-2.994 3.39-5.499 6-7.193a12.74 12.74 0 0 0-.327 6.089c.111.593.59 1.019 1.144 1.019.078 0 .156-.008.233-.026a1.17 1.17 0 0 0 .74-.546c.171-.281.232-.626.17-.957-.452-2.378-.034-4.855 1.166-6.9.594-.15 1.196-.252 1.803-.306 2.03-.151 4.065.167 5.975.932-1.601 1.687-2.674 3.883-3.064 6.274-.062.331-.001.676.17.957.17.282.437.479.74.546.077.018.155.026.233.026.554 0 1.032-.427 1.143-1.02.341-2.246 1.464-4.263 3.133-5.629.76.448 1.486.96 2.174 1.529.66.554 1.289 1.153 1.882 1.793-1.238 1.09-2.106 2.6-2.463 4.29-.076.328-.03.675.13.965.159.29.417.5.717.582.093.025.188.037.284.037.535 0 1-.398 1.13-.963.257-1.235.922-2.323 1.867-3.057 3.15 3.633 3.868 5.023 4.008 5.35v5.038c0 1.407-1.045 2.547-2.333 2.547-.645 0-1.167.57-1.167 1.274 0 .703.522 1.273 1.167 1.273 1.345-.004 2.622-.646 3.5-1.76.876 1.112 2.151 1.754 3.495 1.76.644 0 1.167-.57 1.167-1.273 0-.704-.523-1.274-1.167-1.274-1.289 0-2.333-1.14-2.333-2.547v-5.042c.142-.334.861-1.726 4.007-5.35.944.735 1.607 1.823 1.861 3.057.129.568.596.966 1.132.967.096 0 .192-.013.286-.038.3-.083.558-.292.716-.582.16-.29.206-.637.13-.965-.357-1.69-1.224-3.2-2.461-4.289a20.402 20.402 0 0 1 1.887-1.8c.685-.569 1.41-1.08 2.166-1.528 1.67 1.367 2.793 3.386 3.132 5.636.112.593.589 1.019 1.144 1.019.078 0 .156-.008.233-.026.303-.067.57-.264.74-.546.17-.281.232-.626.17-.957-.39-2.391-1.46-4.588-3.061-6.275a13.285 13.285 0 0 1 5.979-.929c.606.053 1.208.155 1.8.305 1.2 2.045 1.619 4.522 1.167 6.9-.129.688.276 1.36.905 1.502.077.018.155.026.233.026.554 0 1.032-.427 1.142-1.02a12.746 12.746 0 0 0-.325-6.09c2.606 1.697 4.692 4.201 5.993 7.195a10.826 10.826 0 0 1-1.804 4.108c-.303.32-.424.794-.317 1.24.106.444.425.792.833.909.408.117.841-.016 1.134-.348a8.643 8.643 0 0 0 1.459-2.46 27.4 27.4 0 0 1 1.126 9.562 35.614 35.614 0 0 1-.38 3.286c-.322 2.702-1.55 5.179-3.447 6.95-1.968 1.594-4.455 2.223-6.865 1.734l.04-.036c2.1-1.818 8.69-8.303 5.46-15.353a9.314 9.314 0 0 0-1.878-2.675c.169-1.146.22-2.309.153-3.467a1.375 1.375 0 0 0-.086-.357l-.01-.016a1.264 1.264 0 0 0-.571-.624c-.03-.014-.054-.033-.084-.046-.013 0-.025-.016-.039-.02-.116-.042-11.563-4.044-16.601 8.332-.17.415-.123.899.122 1.267.246.368.652.565 1.067.517.415-.047.774-.333.944-.749 2.647-6.503 7.312-7.605 10.465-7.508-4.147 2.935-7.636 6.85-10.211 11.454-.314.61-.118 1.382.438 1.729.556.347 1.265.14 1.587-.464 2.644-4.666 6.296-8.553 10.635-11.32-.26 3.328-1.803 10.26-9.834 14.648-.528.288-.776.962-.577 1.57.2.606.784.954 1.36.81.033 2.674-.807 7.45-6.075 12.497-.24.228-.49.466-.75.692a1.31 1.31 0 0 0-.43.854c-.035.336.055.673.248.936.18.233.432.385.708.428.31 3.733.004 7.495-.904 11.11a13.371 13.371 0 0 1-.77 1.96l-5.122-2.403v-4.255h1.166c.645 0 1.167.57 1.167 1.273 0 .704.522 1.274 1.167 1.274.644 0 1.166-.57 1.166-1.274 0-2.11-1.567-3.82-3.5-3.82h-4.666c-1.933 0-3.5 1.71-3.5 3.82 0 .704.522 1.274 1.167 1.274.644 0 1.166-.57 1.166-1.274 0-.703.522-1.273 1.167-1.273h1.166v4.255l-5.122 2.397a13.46 13.46 0 0 1-.77-1.96 34.166 34.166 0 0 1-.904-11.109c.277-.043.53-.195.709-.428.193-.264.283-.6.248-.937a1.31 1.31 0 0 0-.43-.854c-.258-.225-.507-.46-.8-.738l-.66-.675c-.267-.28-.552-.546-.793-.849a1.123 1.123 0 0 0-1.633-.05c-.235.229-.373.553-.382.896-.009.344.112.676.334.92.27.337.577.628.871.935l.29.295a38.46 38.46 0 0 0 .934 13.4c2.571 8.415 9.003 8.512 9.275 8.512.272 0 6.704-.097 9.272-8.512a38.448 38.448 0 0 0 .934-13.403c6.328-6.33 6.598-12.503 6.311-15.242 3.969-2.549 6.939-6.602 8.347-11.386a6.8 6.8 0 0 1 .434.778c1.941 4.234-1.22 9.086-4.787 12.182zM34.956 67.38c-1.897-.164-3.661-1.122-4.924-2.675l4.923-2.307 4.924 2.307c-1.264 1.552-3.028 2.51-4.924 2.675z"/>
            <path d="M27.955 40.633c2.07-.01 3.886-1.504 4.467-3.672a3.75 3.75 0 0 0 .721-.282c.577-.315.81-1.08.523-1.71-.288-.63-.99-.885-1.566-.57a1.7 1.7 0 0 1-.568.19h-.01c-.02 0-.038.01-.057.008-.57.052-1.1-.315-1.3-.899-1.473-3.217-5.537-3.254-5.71-3.254-.548.006-1.018.428-1.13 1.013-.112.585.164 1.177.663 1.422a5.488 5.488 0 0 0-.104 5.15c.824 1.61 2.381 2.607 4.071 2.604zm.123-5.799c.377.898 1.045 1.611 1.875 2.004-.414.776-1.176 1.251-1.998 1.248-1.288 0-2.333-1.14-2.333-2.547.006-.821.379-1.587.998-2.053a2.82 2.82 0 0 1 1.458 1.348zM46.622 31.718c0-.704-.523-1.274-1.167-1.274-.173 0-4.238.037-5.717 3.252-.192.565-.695.93-1.247.905-.02 0-.037-.007-.056-.007a1.807 1.807 0 0 1-.631-.195c-.576-.315-1.278-.06-1.566.57-.288.63-.053 1.395.523 1.71.232.119.473.213.72.282.505 1.905 1.977 3.317 3.772 3.617 1.795.3 3.586-.566 4.59-2.22a5.481 5.481 0 0 0 .078-5.479c.424-.202.698-.657.7-1.161zm-4.667 6.368c-.822.003-1.583-.472-1.997-1.248.832-.392 1.502-1.105 1.88-2.004A2.817 2.817 0 0 1 43.3 33.49c.615.467.984 1.232.988 2.05 0 1.407-1.044 2.547-2.333 2.547zM33.788 43.18c0-.703-.522-1.274-1.166-1.274-.645 0-1.167.57-1.167 1.274v2.548c0 .703.522 1.273 1.167 1.273.644 0 1.166-.57 1.166-1.273V43.18zM32.179 48.377a1.184 1.184 0 0 0-.385.267 1.406 1.406 0 0 0-.34.905c.003.166.035.33.094.484.06.154.142.296.246.42.111.115.241.206.385.267.14.065.29.1.443.102.309-.005.604-.137.828-.369a1.49 1.49 0 0 0 .245-.42 1.37 1.37 0 0 0 .093-.484 1.402 1.402 0 0 0-.338-.905 1.095 1.095 0 0 0-1.271-.267zM36.122 45.728c0 .703.522 1.273 1.166 1.273.645 0 1.167-.57 1.167-1.273V43.18c0-.703-.522-1.274-1.167-1.274-.644 0-1.166.57-1.166 1.274v2.548zM36.215 50.033c.06.154.142.296.245.42.112.115.242.206.385.267.14.065.29.1.443.102.31-.005.605-.137.829-.369.103-.124.186-.266.245-.42a1.37 1.37 0 0 0 .093-.484 1.402 1.402 0 0 0-.338-.905 1.095 1.095 0 0 0-1.272-.267 1.184 1.184 0 0 0-.385.267 1.406 1.406 0 0 0-.338.905c.002.166.033.33.093.484z"/>
        </g>
    </g>
</svg>
