<svg xmlns="http://www.w3.org/2000/svg" width="70" height="70" viewBox="0 0 70 70">
    <g fill="none" fill-rule="nonzero">
        <path fill="#7FABFA" d="M68.703 39.595s-1.164 15.137-16.302 8.15H17.47c-15.138 6.987-16.302-8.15-16.302-8.15a3.47 3.47 0 0 0 2.259 1.06c1.326.193 2.669.244 4.005.15 2.783-5.868 10.038-5.868 10.038-5.868H52.4s7.254 0 10.037 5.869c1.337.093 2.68.042 4.006-.152a3.47 3.47 0 0 0 2.259-1.06z"/>
        <path fill="#E3E7F2" d="M66.444 40.654c-2.131 3.074-6.218 5.368-14.043 1.759H17.47c-7.825 3.61-11.912 1.315-14.043-1.759 1.326.194 2.669.245 4.005.152 2.783-5.869 10.038-5.869 10.038-5.869H52.4s7.254 0 10.037 5.869c1.337.093 2.68.042 4.006-.152z"/>
        <path fill="#E3E7F2" d="M67.852 24.295a10.072 10.072 0 0 1-2.048 4.646 14.592 14.592 0 0 1-5.986 4.296 24.566 24.566 0 0 1-9.163 1.7H19.67a24.568 24.568 0 0 1-9.164-1.7 14.587 14.587 0 0 1-5.984-4.296 10.072 10.072 0 0 1-2.05-4.646A12.665 12.665 0 0 1 7.27 12.65c2.387-1.887 5.484-2.655 8.058-4.25a13.298 13.298 0 0 0 5.508-7.231c.518 2.215.687 4.498.5 6.765a12.95 12.95 0 0 1-2.83 7.394c-2.456 2.864-2.642 5.135-1.932 6.625a3.664 3.664 0 0 0 2.736 2.073h31.707a3.664 3.664 0 0 0 2.736-2.073c.71-1.49.524-3.76-1.933-6.625a12.95 12.95 0 0 1-2.83-7.394 21.809 21.809 0 0 1 .501-6.765 13.298 13.298 0 0 0 5.508 7.23c2.573 1.596 5.67 2.364 8.057 4.25a12.665 12.665 0 0 1 4.797 11.645z"/>
        <path fill="#D4E1F4" d="M67.852 24.295a10.072 10.072 0 0 1-2.048 4.646 14.592 14.592 0 0 1-5.986 4.296 24.566 24.566 0 0 1-9.163 1.7H19.67a24.568 24.568 0 0 1-9.164-1.7 14.587 14.587 0 0 1-5.984-4.296 10.072 10.072 0 0 1-2.05-4.646 13.04 13.04 0 0 1 4.797-8.151c2.387-1.886 5.484-2.655 8.058-4.25a13.298 13.298 0 0 0 5.508-7.231c.262 1.074.43 2.169.5 3.272a12.95 12.95 0 0 1-2.83 7.394c-2.456 2.864-2.642 5.135-1.932 6.625-1.223 3.319.943 5.322 2.736 5.566h31.707c1.793-.244 3.958-2.247 2.736-5.566.71-1.49.524-3.76-1.933-6.625a12.95 12.95 0 0 1-2.83-7.394c.071-1.103.239-2.198.501-3.272a13.298 13.298 0 0 0 5.508 7.23c2.573 1.596 5.67 2.365 8.057 4.251a13.04 13.04 0 0 1 4.797 8.15z"/>
        <path fill="#A4C2F7" d="M50.073 56.886c-2.015 1.828-5.194 2.597-7.523 3.831H27.32c-2.328-1.234-5.507-2.003-7.522-3.83-2.993-2.702-1.13-10.061-.698-12.1.081-.384.14-.779.186-1.163l1.676-15.091h28.074l1.549 15.09c.046.397.104.78.186 1.165.431 2.038 2.294 9.397-.698 12.098z"/>
        <path fill="#D4E1F4" d="M47.08 56.886c-2.015 1.828-5.193 2.597-7.522 3.831H27.32c-2.328-1.234-5.507-2.003-7.522-3.83-2.993-2.702-1.13-10.061-.698-12.1.081-.384.14-.779.186-1.163l1.676-15.091h25.082l1.56 15.09c.035.397.105.78.175 1.165.43 2.038 2.294 9.397-.7 12.098z"/>
        <path fill="#D4E1F4" d="M31.419 44.544a3.493 3.493 0 1 1-4.949-3.447l4.949 3.447zM43.4 41.097a3.493 3.493 0 1 1-4.948 3.447l4.948-3.447z"/>
        <path fill="#A4C2F7" d="M42.76 62.01l-.454 3.632a3.506 3.506 0 0 1-3.47 3.063h-7.802a3.506 3.506 0 0 1-3.47-3.063l-.453-3.632a2.33 2.33 0 0 1 2.317-2.62h11.015a2.33 2.33 0 0 1 2.317 2.62z"/>
        <path fill="#E3E7F2" d="M38.952 62.01l-.454 3.632a3.485 3.485 0 0 1-3.458 3.063h-4.006a3.506 3.506 0 0 1-3.47-3.063l-.453-3.632a2.33 2.33 0 0 1 2.317-2.62h7.219a2.33 2.33 0 0 1 2.305 2.62z"/>
        <path fill="#E3E7F2" d="M40.757 59.39v-5.27a1.92 1.92 0 0 0-.682-1.44 5.825 5.825 0 0 0-3.835-1.441h-2.61c-1.41 0-2.773.512-3.834 1.44a1.922 1.922 0 0 0-.683 1.441v5.27h11.644z"/>
        <path fill="#7FABFA" d="M31.151 19.882c.097.013.194.02.291.023h-4.471a1.033 1.033 0 0 1-.186-.012 26.08 26.08 0 0 1 4.366-.011z"/>
        <path fill="#7FABFA" d="M50.597 23.037c-2.644-3.12-7.674-3.447-11.75-3.155-.034 0-.069.011-.104.011a.952.952 0 0 1-.187.012H26.971a1.033 1.033 0 0 1-.186-.012c-2.853.245-5.636 1.083-7.383 3.144-1.735 2.038-1.735 4.565-1.513 6.986a22.195 22.195 0 0 0 1.164 5.252c.221.675.466 1.339.745 1.99 0 0 2.33 0 4.658-3.061 2.329-3.063 4.657-3.063 6.986-3.063h6.986c2.33 0 4.658 0 6.987 3.063.313.415.66.805 1.036 1.164a5.728 5.728 0 0 0 3.622 1.898h.128a24.41 24.41 0 0 0 1.909-7.243c.222-2.421.222-4.948-1.513-6.986z"/>
        <path fill="#E3E7F2" d="M47.639 30.023a22.312 22.312 0 0 1-1.188 5.345 9.551 9.551 0 0 1-1.036-1.164c-2.33-3.063-4.658-3.063-6.987-3.063h-6.986c-2.329 0-4.657 0-6.986 3.063-2.329 3.062-4.658 3.062-4.658 3.062a23.87 23.87 0 0 1-.745-1.991c-.6-1.697-.99-3.46-1.164-5.252-.222-2.421-.222-4.948 1.513-6.986 1.747-2.06 4.53-2.9 7.383-3.144.06.01.123.014.186.012h11.585a.952.952 0 0 0 .187-.012c2.864.245 5.635 1.083 7.382 3.144 1.735 2.038 1.735 4.565 1.514 6.986z"/>
        <path fill="#E3E7F2" d="M38.743 19.893a.952.952 0 0 1-.187.012h-4.47c.097-.002.194-.01.29-.023a26.08 26.08 0 0 1 4.367.011z"/>
        <path fill="#FFF" d="M12.152 49.437c-5.228-.944-6.841-6.21-7.31-8.627a12.874 12.874 0 0 1-1.415-.156 3.47 3.47 0 0 1-2.26-1.06s.884 11.372 10.985 9.843zM14 33.237a14.592 14.592 0 0 1-5.986-4.296 10.078 10.078 0 0 1-2.049-4.646 12.666 12.666 0 0 1 4.798-11.644c2.387-1.887 5.484-2.655 8.057-4.25a12.053 12.053 0 0 0 2.589-2.167 21.706 21.706 0 0 0-.574-5.064 13.298 13.298 0 0 1-5.508 7.23c-2.574 1.596-5.67 2.364-8.058 4.25a12.665 12.665 0 0 0-4.797 11.645c.275 1.698.98 3.297 2.05 4.646a14.587 14.587 0 0 0 5.984 4.296 24.27 24.27 0 0 0 8.43 1.669l.01.031H17.47s-7.19 0-9.998 5.798M27.11 62.01l.454 3.632a3.506 3.506 0 0 0 3.47 3.063h3.494a3.505 3.505 0 0 1-3.47-3.063l-.454-3.632a2.302 2.302 0 0 1 .219-1.293h-.01c-2.329-1.234-5.508-2.003-7.522-3.83-2.106-1.903-1.806-6.105-1.293-9.142h-1.036c-.851.397-1.725.743-2.617 1.04-.39 2.893-.42 6.404 1.453 8.101 2.015 1.828 5.194 2.597 7.522 3.831h.01c-.197.4-.273.85-.22 1.293zM37.87 19.882c.102-.008.215 0 .319-.013a26.724 26.724 0 0 0-3.679.007h.134c.096.014.194.021.292.023h2.642c.098 0 .195-.005.292-.017zM54.86 47.745c.056.336.116.68.159 1.04 1.978.73 4.106.955 6.193.652a19.925 19.925 0 0 1-5.318-1.692H54.86zM68.703 39.595a3.47 3.47 0 0 1-2.26 1.06c-.178.03-.364.057-.551.08.013.025.028.045.04.07.862.052 1.726.052 2.589 0 .08-.4.141-.804.182-1.21z"/>
        <path fill="#6663FF" d="M40.333 19.81c.633.006 1.268.024 1.903.083.035 0 .07-.011.105-.011.125-.01.26-.01.388-.02a26.19 26.19 0 0 0-2.396-.052zM6.954 13.566a12.072 12.072 0 0 0-3.906 5.563 9.935 9.935 0 0 0-.01 6.644 9.383 9.383 0 0 0 1.36 2.445l-1.826 1.44a11.677 11.677 0 0 1-1.718-3.076 12.253 12.253 0 0 1-.013-8.193 14.4 14.4 0 0 1 4.671-6.654l1.442 1.83z"/>
        <g fill="#6663FF">
            <path d="M.883 19.436a1.224 1.224 0 0 0-.336.349c-.278.423-.274.972.012 1.39.093.123.213.223.35.295.134.074.283.12.436.134.305.016.606-.07.857-.242.233-.166.392-.417.441-.7a1.14 1.14 0 0 0-.157-.814l-.139-.172a.967.967 0 0 0-.179-.154.804.804 0 0 0-.186-.116 1.775 1.775 0 0 0-.218-.087 1.103 1.103 0 0 0-.881.117z"/>
            <path d="M5.476 49.5a9.416 9.416 0 0 0 4.855 1.254c2.208-.07 4.381-.56 6.405-1.445-.159 3.028.192 6.551 2.282 8.44a17.359 17.359 0 0 0 5.223 2.868c.605.248 1.172.49 1.716.74-.031.263-.031.53 0 .794l.455 3.642a4.663 4.663 0 0 0 4.62 4.076h7.801a4.663 4.663 0 0 0 4.621-4.076l.455-3.637c.031-.264.031-.531 0-.795.544-.25 1.111-.492 1.717-.74a17.349 17.349 0 0 0 5.22-2.867c2.095-1.888 2.445-5.414 2.284-8.44a17.353 17.353 0 0 0 6.404 1.445 9.44 9.44 0 0 0 4.856-1.255c4.89-2.868 5.452-9.533 5.472-9.815a1.164 1.164 0 0 0-2.13-.736c-.248.372-1.839.807-4.606.716a10.83 10.83 0 0 0-4.875-4.462c.923-.238 1.83-.534 2.717-.886a15.721 15.721 0 0 0 6.459-4.658 11.527 11.527 0 0 0 2.353-8.57 14.118 14.118 0 0 0-5.292-9.352 22.034 22.034 0 0 0-4.843-2.667 27.538 27.538 0 0 1-3.323-1.663 12.057 12.057 0 0 1-5.007-6.6A1.176 1.176 0 0 0 50.17.004c-.515.015-.96.366-1.093.864-.102.38-2.43 9.374 2.569 15.218 1.707 1.997 2.362 3.842 1.847 5.206a2.494 2.494 0 0 1-1.641 1.496c-.117-.168-.233-.338-.367-.5-2.373-2.795-6.648-4-12.715-3.566l-7.228.026-.311-.026c-6.055-.43-10.343.766-12.718 3.566-.138.162-.246.332-.366.5a2.487 2.487 0 0 1-1.64-1.496c-.518-1.36.138-3.21 1.846-5.206 5-5.844 2.671-14.838 2.569-15.218A1.164 1.164 0 0 0 18.691.81a12.063 12.063 0 0 1-5.007 6.602 27.857 27.857 0 0 1-3.33 1.657 22.056 22.056 0 0 0-4.843 2.667 14.309 14.309 0 0 0-3.342 3.779 1.145 1.145 0 0 0 .432 1.63 1.199 1.199 0 0 0 1.557-.413 11.95 11.95 0 0 1 2.795-3.162 20.042 20.042 0 0 1 4.345-2.373 29.908 29.908 0 0 0 3.61-1.803 13.705 13.705 0 0 0 4.281-4.235c.142 2.795-.214 6.625-2.599 9.414-2.93 3.43-2.843 5.997-2.253 7.548a4.874 4.874 0 0 0 2.75 2.775 13.199 13.199 0 0 0-.357 5.24c.115 1.21.328 2.408.637 3.584a22.918 22.918 0 0 1-7.452-1.556 13.373 13.373 0 0 1-5.51-3.946 9.365 9.365 0 0 1-1.36-2.445 7.61 7.61 0 0 1-.302-.982 1.228 1.228 0 0 0-1.343-.869 1.122 1.122 0 0 0-.93 1.42c.099.42.226.835.38 1.24a11.676 11.676 0 0 0 1.715 3.073 15.714 15.714 0 0 0 6.46 4.658c.86.342 1.738.631 2.632.867-2.07.94-3.791 2.509-4.92 4.482-2.773.093-4.357-.349-4.606-.717a1.165 1.165 0 0 0-2.127.74c.024.281.59 6.946 5.472 9.814zm35.672 16a2.328 2.328 0 0 1-2.31 2.04h-7.801a2.328 2.328 0 0 1-2.31-2.04l-.456-3.638a1.166 1.166 0 0 1 1.152-1.308h11.024a1.163 1.163 0 0 1 1.157 1.308l-.456 3.638zM55.67 22.12c.589-1.55.677-4.118-2.255-7.547-2.385-2.789-2.74-6.615-2.597-9.414a13.687 13.687 0 0 0 4.28 4.234 29.77 29.77 0 0 0 3.602 1.804 20.032 20.032 0 0 1 4.347 2.369 11.925 11.925 0 0 1 4.425 7.793 9.136 9.136 0 0 1-1.863 6.855 13.374 13.374 0 0 1-5.523 3.945 22.927 22.927 0 0 1-7.452 1.557 22.29 22.29 0 0 0 .637-3.586 13.218 13.218 0 0 0-.356-5.24 4.877 4.877 0 0 0 2.755-2.77zM5.825 42.01a1.165 1.165 0 0 0 2.264.282c2.034-6.088 9.084-6.19 9.38-6.19.072-.008.142-.022.211-.043.14 0 .276.016.416.018.192.54.392 1.083.625 1.638.182.435.607.717 1.077.715.298 0 2.982-.099 5.589-3.522 1.98-2.603 3.78-2.603 6.055-2.603a1.165 1.165 0 0 0 0-2.33c-2.453 0-5.24 0-7.918 3.523a6.822 6.822 0 0 1-3.012 2.433 22.327 22.327 0 0 1-1.472-6.011c-.233-2.525-.106-4.532 1.246-6.125 1.863-2.202 5.49-3.123 10.778-2.749l.373.027h7.22l.276-.023c5.287-.38 8.908.548 10.774 2.75 1.353 1.593 1.476 3.6 1.247 6.125a22.415 22.415 0 0 1-1.487 6.047 6.652 6.652 0 0 1-3.12-2.474c-2.679-3.522-5.46-3.522-7.919-3.522a1.164 1.164 0 0 0 0 2.329c2.28 0 4.076 0 6.055 2.602 2.607 3.424 5.291 3.523 5.59 3.523h.129c.47 0 .893-.281 1.074-.715.233-.555.434-1.098.627-1.638.103 0 .206-.01.31-.014.061.018.124.031.188.039.3 0 7.349.102 9.378 6.19a1.164 1.164 0 0 0 2.266-.282 14.245 14.245 0 0 0 3.078-.296 9.482 9.482 0 0 1-3.907 5.778c-2.506 1.47-5.98 1.201-10.322-.803h-.01a29.84 29.84 0 0 0-.512-2.712 1.164 1.164 0 0 0-2.261.556c.561 2.283 1.616 9.296-.815 11.492a15.676 15.676 0 0 1-4.541 2.439c-.619.253-1.24.52-1.846.797a3.478 3.478 0 0 0-.984-.698V54.12a3.091 3.091 0 0 0-1.08-2.317l-1.647-1.44a1.165 1.165 0 1 0-1.532 1.747l1.646 1.441a.762.762 0 0 1 .284.565v4.11h-9.319V54.12a.763.763 0 0 1 .285-.564l1.646-1.442a1.164 1.164 0 1 0-1.532-1.746l-1.646 1.44a3.094 3.094 0 0 0-1.081 2.312v4.436c-.366.173-.7.41-.984.698a47.877 47.877 0 0 0-1.846-.797 15.698 15.698 0 0 1-4.54-2.445c-2.437-2.201-1.414-9.042-.816-11.493a1.165 1.165 0 0 0-2.262-.555 29.854 29.854 0 0 0-.511 2.711h-.01c-4.338 2.003-7.802 2.274-10.314.816a9.502 9.502 0 0 1-3.91-5.783c1.01.212 2.038.313 3.07.302z"/>
            <path d="M9.319 46.581a8.666 8.666 0 0 0 6.79-4.011 1.164 1.164 0 1 0-1.937-1.293 6.35 6.35 0 0 1-4.86 2.975 1.164 1.164 0 0 0 .007 2.33zM60.552 46.581a1.165 1.165 0 0 0 0-2.329 6.337 6.337 0 0 1-4.853-2.975 1.164 1.164 0 1 0-1.938 1.293 8.666 8.666 0 0 0 6.79 4.011zM27.949 48.91a4.67 4.67 0 0 0 4.46-3.357 4.04 4.04 0 0 0 .718-.258 1.164 1.164 0 1 0-1.041-2.085c-.178.09-.37.148-.567.175h-.008c-.02 0-.039.008-.058.007a1.272 1.272 0 0 1-1.298-.822c-1.47-2.941-5.528-2.975-5.7-2.975a1.164 1.164 0 0 0-.465 2.226 4.647 4.647 0 0 0 3.959 7.09zm.122-5.302a3.665 3.665 0 0 0 1.871 1.832 2.29 2.29 0 0 1-1.993 1.141 2.33 2.33 0 0 1-2.329-2.329c.006-.75.378-1.45.997-1.876a2.74 2.74 0 0 1 1.454 1.232zM36.222 43.732a1.167 1.167 0 0 0 .521 1.563c.231.108.472.195.719.258a4.649 4.649 0 1 0 8.423-3.726 1.164 1.164 0 0 0-.47-2.232c-.171 0-4.23.034-5.706 2.972-.19.519-.695.854-1.247.83-.024 0-.046-.011-.07-.01a1.92 1.92 0 0 1-.613-.177 1.165 1.165 0 0 0-1.557.522zm5.577-.124a2.735 2.735 0 0 1 1.46-1.228 2.3 2.3 0 0 1 .992 1.872 2.33 2.33 0 0 1-2.33 2.33 2.294 2.294 0 0 1-1.993-1.142 3.662 3.662 0 0 0 1.877-1.832h-.006zM32.607 62.883h-1.165a1.164 1.164 0 1 0 0 2.328h1.165a1.164 1.164 0 0 0 0-2.328zM38.428 62.883h-1.164a1.164 1.164 0 1 0 0 2.328h1.164a1.164 1.164 0 1 0 0-2.328zM39.593 24.457c0-.642-.521-1.164-1.165-1.164h-6.986a1.164 1.164 0 1 0 0 2.33h6.986c.644 0 1.165-.522 1.165-1.166z"/>
        </g>
    </g>
</svg>
