<svg xmlns="http://www.w3.org/2000/svg" width="70" height="70" viewBox="0 0 70 70">
    <g fill="none" fill-rule="nonzero">
        <path fill="#A4C2F7" d="M21.041 20.382c.467-7.654-6.346-13.965-9.788-16.648-1.155-.91-1.925-1.4-1.925-1.4a28.674 28.674 0 0 1 12.961 2.624c.744.362 1.462.775 2.147 1.237 1.297.873 2.46 1.93 3.454 3.138.426.527.812 1.084 1.155 1.669A10.535 10.535 0 0 1 30.328 14l-9.334 7c.024-.21.036-.42.047-.618z"/>
        <path fill="#D4E1F4" d="M21.041 20.382c.467-7.654-6.346-13.965-9.788-16.648a25.257 25.257 0 0 1 8.703 2.391 17.58 17.58 0 0 1 2.147 1.236c1.297.874 2.46 1.931 3.453 3.14.426.526.813 1.083 1.155 1.668.58.926 1.014 1.938 1.284 2.998l-6.954 5.215z"/>
        <path fill="#A4C2F7" d="M60.66 2.333a30.58 30.58 0 0 0-3.382 2.59c-3.71 3.22-9.054 9.136-8.284 16.077l-7.793-5.845L39.66 14a10.52 10.52 0 0 1 1.284-2.998c.342-.585.729-1.142 1.155-1.669a16.136 16.136 0 0 1 3.453-3.138c.683-.46 1.396-.873 2.135-1.237h.011a28.676 28.676 0 0 1 12.962-2.625z"/>
        <path fill="#D4E1F4" d="M48.994 21l-7.793-5.845c.25-.631.555-1.24.91-1.82.343-.584.729-1.142 1.155-1.669a16.161 16.161 0 0 1 3.453-3.138c.683-.46 1.397-.872 2.136-1.237h.011a25.381 25.381 0 0 1 8.412-2.368c-3.71 3.22-9.054 9.136-8.284 16.077z"/>
        <path fill="#A4C2F7" d="M30.328 57.167v9.091a.582.582 0 0 0 .996.412l.834-.834a.583.583 0 0 1 .897.089l1.454 2.648a.584.584 0 0 0 .97 0l1.454-2.648a.587.587 0 0 1 .898-.089l.834.834a.583.583 0 0 0 .996-.412v-9.091h-9.333z"/>
        <path fill="#E3E7F2" d="M67.661 22.167s-10.99 0-15.902 6.393a17.515 17.515 0 0 1-1.598-.56H19.828a17.58 17.58 0 0 1-1.598.56c-4.912-6.393-15.902-6.393-15.902-6.393 8.167-9.334 18.666 0 18.666 0h28s10.5-9.334 18.667 0z"/>
        <path fill="#7FABFA" d="M18.23 28.56C7.625 31.71 2.328 22.167 2.328 22.167s10.99 0 15.902 6.393zM67.661 22.167S62.365 31.71 51.76 28.56c4.912-6.393 15.902-6.393 15.902-6.393z"/>
        <path fill="#A4C2F7" d="M51.211 27.215a16.294 16.294 0 0 1-4.46 13.281 12.251 12.251 0 0 0-3.59 8.474v3.193a8.39 8.39 0 0 1-7.925 8.504 8.167 8.167 0 0 1-8.408-8.167v-3.36a11.763 11.763 0 0 0-3.338-8.383 16.333 16.333 0 1 1 27.721-13.542z"/>
        <path fill="#E3E7F2" d="M46.58 27.215a20.623 20.623 0 0 1-3.186 13.281 15.026 15.026 0 0 0-2.566 8.474v3.193c0 4.474-2.467 8.372-5.66 8.5-3.305.133-6.007-3.567-6.007-8.163v-3.36a14.58 14.58 0 0 0-2.384-8.383 19.968 19.968 0 0 1-3.45-11.59c0-9.649 5.981-17.347 13.034-16.225 5.306.845 9.606 6.846 10.22 14.273z"/>
        <path fill="#805333" d="M32.661 56c-.095 0-2.333-.04-2.333-3.5a1.167 1.167 0 0 1 2.333 0c-.04.409.037.82.218 1.188A1.166 1.166 0 0 1 32.661 56zM37.328 56a1.167 1.167 0 0 1-.22-2.312 2.19 2.19 0 0 0 .22-1.188 1.167 1.167 0 0 1 2.333 0c0 3.46-2.237 3.5-2.333 3.5zM34.995 46.666a1.167 1.167 0 0 1-1.167-1.166v-4.666a1.167 1.167 0 1 1 2.333 0V45.5c0 .644-.522 1.166-1.166 1.166z"/>
        <path fill="#ECF0F1" d="M30.328 35a2.333 2.333 0 1 1-4.666 0 2.333 2.333 0 0 1 4.666 0zM44.328 35a2.333 2.333 0 1 1-4.667 0 2.333 2.333 0 0 1 4.667 0z"/>
        <path fill="#805333" d="M30.328 36.167A1.167 1.167 0 0 1 29.161 35c0-4.614-5.6-4.667-5.833-4.667a1.167 1.167 0 0 1 0-2.333c2.824 0 8.166 1.463 8.166 7 0 .645-.522 1.167-1.166 1.167zM39.661 36.167A1.167 1.167 0 0 1 38.494 35c0-5.537 5.343-7 8.167-7a1.167 1.167 0 1 1 0 2.333c-.233 0-5.833.082-5.833 4.667 0 .645-.523 1.167-1.167 1.167z"/>
        <path fill="#FFF" d="M34.824 66.67a.583.583 0 0 1-.996-.412v-7.063a8.146 8.146 0 0 1-3.5-6.695v-3.36a11.763 11.763 0 0 0-3.338-8.383 16.261 16.261 0 0 1-4.829-11.59c0-.262.03-.515.042-.773-.156.052-.322.117-.473.166-1 .3-2.028.495-3.068.584v.022a16.265 16.265 0 0 0 4.83 11.59 11.761 11.761 0 0 1 3.336 8.384v3.36a8.146 8.146 0 0 0 3.5 6.695v7.063a.582.582 0 0 0 .996.412l.834-.834a.583.583 0 0 1 .897.089l1.454 2.648M15.809 29.074c-6.654-.925-9.981-6.907-9.981-6.907a11.31 11.31 0 0 1 6.775-4.005c-3.9-.639-7.837.896-10.275 4.005 0 0 4.492 8.08 13.48 6.907zM11.253 3.734c3.363 2.622 9.927 8.712 9.79 16.13a20.396 20.396 0 0 1 2.927 1.876c.173-.34.35-.68.544-1.005.01-.117.02-.24.027-.35.467-7.653-6.347-13.965-9.788-16.648a29.656 29.656 0 0 0-1.659-1.226 39.574 39.574 0 0 0-3.766-.178s.77.49 1.925 1.4z"/>
        <path fill="#FFF" d="M19.89 20.325a13.057 13.057 0 0 0-1.22-6.774 24.174 24.174 0 0 0-4-5.995A37.59 37.59 0 0 0 8.671 2.13L9.985.203a39.69 39.69 0 0 1 6.434 5.809A26.487 26.487 0 0 1 20.8 12.6a15.38 15.38 0 0 1 1.41 7.988l-2.32-.263z"/>
        <g fill="#6663FF">
            <path d="M18.58 12.622l.219.042c.077.01.156.01.233 0a.826.826 0 0 0 .22-.031c.074-.023.148-.05.22-.082.277-.137.487-.38.583-.674.042-.152.054-.31.035-.467a1.129 1.129 0 0 0-1.324-1.05 1.136 1.136 0 0 0-.427.154 1.272 1.272 0 0 0-.53.716c-.06.289-.018.588.117.85.14.259.375.453.655.542z"/>
            <path d="M.283 21.398l-.012.02c-.02.022-.03.05-.047.073a1.155 1.155 0 0 0-.152.284.888.888 0 0 0-.033.127c-.024.098-.034.199-.03.3 0 .028-.011.053-.008.082.002.027.01.028.013.044.017.121.053.24.107.35.009.017.011.038.02.055.052.092 4.355 7.627 12.755 7.627a15.81 15.81 0 0 0 4.622-.727 17.336 17.336 0 0 0 5.15 11.95 10.645 10.645 0 0 1 2.993 7.557v3.36a9.256 9.256 0 0 0 2.828 6.695c.216.21.44.407.672.594v6.47a1.75 1.75 0 0 0 2.988 1.237l.283-.284 1.106 2.01c.326.486.872.778 1.457.778a1.788 1.788 0 0 0 1.508-.865l1.05-1.924.284.285a1.75 1.75 0 0 0 2.99-1.238v-6.584a9.818 9.818 0 0 0 3.5-7.512V48.97a11.084 11.084 0 0 1 3.268-7.663 17.448 17.448 0 0 0 4.87-11.674c1.497.472 3.057.718 4.627.73 8.4 0 12.704-7.536 12.755-7.628.009-.017.01-.035.019-.05.054-.11.09-.228.107-.35 0-.017.013-.028.015-.045 0-.016-.009-.052-.009-.08a1.16 1.16 0 0 0-.03-.303 1.059 1.059 0 0 0-.033-.123 1.179 1.179 0 0 0-.156-.291c-.016-.022-.025-.046-.042-.066-.017-.02-.007-.014-.013-.02a12.268 12.268 0 0 0-8.596-4.524c-4.85-.3-9.108 2.42-10.866 3.733-.065-.117-.117-.233-.186-.34.08-.177.113-.372.096-.565C49.08 10.065 61.165 2.234 61.286 2.156A1.167 1.167 0 0 0 60.661 0c-17.298 0-21.27 9.606-22 12.053a16.047 16.047 0 0 0-1.621-.27 17.656 17.656 0 0 0-5.706.287C30.616 9.65 26.667 0 9.328 0 8.684 0 8.16.522 8.16 1.167c.005.382.2.737.522.946l-.012.017a37.59 37.59 0 0 1 5.999 5.426l.722.861c.413.475 1.121.55 1.625.175a1.138 1.138 0 0 0 .179-1.654l-.777-.926a41.689 41.689 0 0 0-3.571-3.521c2.907.21 5.756.916 8.425 2.086-.54.558-.987 1.2-1.323 1.902a1.167 1.167 0 0 0 2.088 1.043c.7-1.4 1.304-1.66 1.4-1.693.031 0 .056-.02.085-.025a14.922 14.922 0 0 1 2.99 2.522 5.49 5.49 0 0 0-2.844 1.349 1.168 1.168 0 0 0 .516 1.968c.408.107.841-.015 1.134-.318a4.58 4.58 0 0 1 2.676-.825c.034 0 .064-.018.099-.02.42.706.754 1.458.997 2.242a17.393 17.393 0 0 0-5.749 3.384c-.425.379-.822.781-1.205 1.196a9.262 9.262 0 0 0-.333-1.76 1.113 1.113 0 0 0-1.435-.843c-.59.195-.944.797-.828 1.408.352 1.375.47 2.8.35 4.214h.01c-.054.092-.101.189-.154.283-1.75-1.32-6.013-4.047-10.867-3.733a12.266 12.266 0 0 0-8.597 4.527zm3.08 1.867c3.14.033 9.067.641 12.395 4.403a12.164 12.164 0 0 1-12.396-4.401v-.002zm35.131 41.602a1.758 1.758 0 0 0-1.248-.362 1.788 1.788 0 0 0-1.335.856l-.916 1.677-.97-1.76a1.733 1.733 0 0 0-2.532-.396v-3.723a9.307 9.307 0 0 0 3.502.674h.276a8.855 8.855 0 0 0 3.223-.723v3.757zM54.232 27.67c3.321-3.75 9.25-4.363 12.392-4.402a12.17 12.17 0 0 1-12.392 4.402zm6.732-8.468a9.188 9.188 0 0 1 4.799 1.74c-3.744.141-9.886 1.09-13.502 5.434a17.135 17.135 0 0 0-.979-3.623c1.164-.924 5.186-3.824 9.682-3.55zm-19.07-8.724c.032.009.066.016.1.021a4.579 4.579 0 0 1 2.684.825 1.167 1.167 0 0 0 1.65-1.65 5.483 5.483 0 0 0-2.845-1.349 14.968 14.968 0 0 1 2.99-2.523c.03 0 .056.022.087.026.095.032.7.29 1.4 1.693a1.167 1.167 0 0 0 2.088-1.043 7.24 7.24 0 0 0-1.333-1.904 25.415 25.415 0 0 1 8.219-2.071c-3.44 2.884-8.562 8.225-9.125 14.783a17.607 17.607 0 0 0-6.908-4.587 10.44 10.44 0 0 1 .992-2.22zm-16.995 7.37c6.088-5.389 15.343-5.019 20.982.84 5.638 5.858 5.653 15.12.035 20.997a13.405 13.405 0 0 0-3.921 9.284v3.192a7.233 7.233 0 0 1-6.792 7.338 6.998 6.998 0 0 1-7.208-7v-3.36a12.99 12.99 0 0 0-3.684-9.217 15.158 15.158 0 0 1 .584-22.076l.004.003zM9.012 19.206c4.493-.283 8.58 2.668 9.719 3.57a17.505 17.505 0 0 0-.99 3.618c-3.617-4.358-9.766-5.309-13.515-5.45a9.185 9.185 0 0 1 4.786-1.738z"/>
            <path d="M23.328 30.333c1.461.02 2.889.443 4.125 1.222A3.494 3.494 0 1 0 31.494 35c0-5.537-5.342-7-8.166-7a1.167 1.167 0 0 0 0 2.333zm4.667 5.834a1.167 1.167 0 1 1 0-2.334 1.167 1.167 0 0 1 0 2.334zM41.995 38.5a3.495 3.495 0 0 0 .556-6.944 8.038 8.038 0 0 1 4.11-1.223 1.167 1.167 0 1 0 0-2.333c-2.824 0-8.167 1.463-8.167 7a3.5 3.5 0 0 0 3.5 3.5zM43.16 35a1.167 1.167 0 1 1-2.333 0 1.167 1.167 0 0 1 2.333 0zM30.328 52.5c0 3.46 2.238 3.5 2.333 3.5a1.167 1.167 0 0 0 .22-2.312 2.185 2.185 0 0 1-.22-1.188 1.167 1.167 0 0 0-2.333 0zM37.328 56c.096 0 2.333-.04 2.333-3.5a1.167 1.167 0 0 0-2.333 0c.039.409-.036.82-.218 1.188A1.166 1.166 0 0 0 37.328 56zM34.995 46.666c.644 0 1.166-.522 1.166-1.166v-4.666a1.167 1.167 0 1 0-2.333 0V45.5c0 .644.522 1.166 1.167 1.166z"/>
        </g>
    </g>
</svg>
