<svg xmlns="http://www.w3.org/2000/svg" width="70" height="70" viewBox="0 0 70 70">
    <g fill="none" fill-rule="nonzero">
        <path fill="#A4C2F7" d="M25.034 60.661c-1.935 0-3.925.073-5.721.142-1.847-2.444-3.45-6.61-1.249-12.975 3.953-11.427-4.137-26.705-4.137-26.705l-4.451-.788a.203.203 0 0 0-.012.081C9.2 21.677 5.962 37.632 9.315 47.97c2.12 6.533 1.246 11.094.233 13.672-5.135.747-8.383 1.867-8.383 3.104 0 2.251 10.689 4.083 23.87 4.083 13.18 0 23.87-1.832 23.87-4.083 0-2.252-10.69-4.084-23.87-4.084z"/>
        <path fill="#A4C2F7" d="M63.483 57.593l-1.63 1.633a4.633 4.633 0 0 1-5.019 1.027c-6.066-2.426-20.04-8.236-25.128-12.063a18.403 18.403 0 0 1-5.088-6.779 66.074 66.074 0 0 1-4.308-12.355c-.932-3.523-2.003-7.256-6.195-7.84a12.707 12.707 0 0 0-2.492-.104c1.374-.607 3.797-2.964 5.52-4.282.62.002 1.237.045 1.85.128 4.193.584 5.264 4.317 6.196 7.84a66.09 66.09 0 0 0 4.308 12.355 18.399 18.399 0 0 0 5.088 6.779c5.088 3.826 19.061 9.636 25.128 12.063.826.338.92 1.762 1.77 1.598z"/>
        <path fill="#D4E1F4" d="M67.337 53.732l-3.854 3.861a4.542 4.542 0 0 1-2.574-.257C54.843 54.91 40.87 49.1 35.782 45.273a18.406 18.406 0 0 1-5.089-6.778 66.074 66.074 0 0 1-4.308-12.355c-.931-3.523-3.69-7.257-7.883-7.84a14.026 14.026 0 0 0-1.851-.128c.36-.28.733-.572 1.094-.887a42.425 42.425 0 0 0 3.214-2.917c3.132-3.138 7.196-6.37 8.337-8.843-.035.795 0 1.591.105 2.38.023.175.058.338.093.502.792 3.791 4.355 4.806 7.732 5.704a65.521 65.521 0 0 1 12.33 4.317 18.343 18.343 0 0 1 6.766 5.087c3.819 5.11 9.617 19.11 12.04 25.177a4.673 4.673 0 0 1-1.025 5.04z"/>
        <path fill="#A4C2F7" d="M29.296 5.513v.012a33.99 33.99 0 0 1-6.649 8.843 33.51 33.51 0 0 1-9.024 6.744c-1.735.77-3.085.921-3.737.268-1.595-1.599 1.537-7.327 6.998-12.786 5.46-5.46 11.166-8.61 12.761-7.013.676.677.501 2.1-.349 3.932z"/>
        <path fill="#E3E7F2" d="M40.754 64.745c0-2.255-8.602-4.084-19.213-4.084-10.61 0-19.212 1.829-19.212 4.084s8.602 4.083 19.212 4.083c10.611 0 19.213-1.828 19.213-4.083z"/>
        <g fill="#FFF">
            <path d="M13.287 21.25c.028.044.059.088.092.13.239.221.544.356.869.383-.2-.412-.32-.638-.32-.638l-.081-.015h-.224c-.116.053-.225.094-.336.14zM12.957 20.418a.213.213 0 0 1 .012-.082h.012c-.152-2.345 2.786-7.136 7.396-11.745a32.15 32.15 0 0 1 9.357-6.892 1.097 1.097 0 0 0-.089-.116c-1.595-1.6-7.3 1.539-12.761 7.01-4.61 4.61-7.548 9.4-7.396 11.745l3.365.596c.047-.244.084-.423.104-.516zM12.808 47.969c-2.957-9.117-.792-22.597-.056-26.518-1.31.452-2.328.467-2.866-.071a1.574 1.574 0 0 1-.398-1.042h-.012a.203.203 0 0 0-.012.082c-.265 1.257-3.502 17.212-.149 27.549 2.096 6.462 1.265 10.99.265 13.584 1.127-.191 2.36-.35 3.672-.488.91-2.656 1.526-7.023-.444-13.096zM9.58 61.553c-.874.148-1.68.311-2.419.491a51.688 51.688 0 0 1 2.387-.403c.012-.027.022-.06.032-.088zM7.103 67.429c-2.966-.716-4.774-1.654-4.774-2.684 0-1.03 1.834-1.984 4.832-2.7-3.73.716-5.996 1.669-5.996 2.7 0 1.031 2.25 1.968 5.938 2.684z"/>
            <path d="M10.442 21.319A78.87 78.87 0 0 0 8.93 36.142c-.08 3.875.421 7.74 1.489 11.465l-2.213.722a40.935 40.935 0 0 1-1.6-12.188 80.97 80.97 0 0 1 1.56-15.307l2.277.485z"/>
        </g>
        <path fill="#6663FF" d="M51.97 54.466c2.26.96 4.384 1.831 6.16 2.541a1.165 1.165 0 0 0 1.577-.862 1.166 1.166 0 0 0-.713-1.304 333.622 333.622 0 0 1-6.114-2.522 1.167 1.167 0 0 0-.91 2.147zM28.695 30.328a115.33 115.33 0 0 1-.757-2.759 1.164 1.164 0 0 0-2.251.596c.238.907.493 1.85.771 2.813.279.964.582 1.957.912 2.952.361 1.082.717 2.063 1.088 2.996.416 1.05.852 2.037 1.3 2.948.2.412.431.866.691 1.337.26.471.56.977.887 1.465.335.506.704.988 1.103 1.445.408.464.861.885 1.354 1.257a37.35 37.35 0 0 0 4.748 2.867c1.79.945 3.968 2.007 6.473 3.157a1.164 1.164 0 0 0 1.527-.582 1.168 1.168 0 0 0-.557-1.54c-2.466-1.132-4.605-2.175-6.356-3.1a35.137 35.137 0 0 1-4.439-2.668 6.945 6.945 0 0 1-1.006-.945c-.33-.38-.635-.78-.913-1.2a17.967 17.967 0 0 1-.784-1.293 26.854 26.854 0 0 1-.638-1.236 39.319 39.319 0 0 1-1.227-2.783 54.247 54.247 0 0 1-1.04-2.87 77.794 77.794 0 0 1-.886-2.857zM7.126 31.08c.104.115.23.208.368.275a1.165 1.165 0 0 0 1.686-.944 1.217 1.217 0 0 0-.268-.845l-.161-.153a.907.907 0 0 0-.2-.125.744.744 0 0 0-.203-.089 1.191 1.191 0 0 0-1.086.215 1.222 1.222 0 0 0-.14 1.667h.004zM12.808 34.995c.643 0 1.164-.523 1.164-1.167v-3.5a1.165 1.165 0 1 0-2.328 0v3.5c0 .644.521 1.167 1.164 1.167zM11.644 46.662a1.165 1.165 0 1 0 2.328 0v-7a1.165 1.165 0 1 0-2.328 0v7z"/>
        <path fill="#6663FF" d="M25.034 69.995c2.562 0 25.035-.147 25.035-5.25s-22.473-5.25-25.035-5.25c-1.63 0-3.33.033-5.154.097-1.497-2.26-2.608-5.912-.715-11.38 3.308-9.567-1.31-21.398-3.343-25.85.044 0 .09 0 .135.012 3.26.456 4.223 3.181 5.226 6.98a67.925 67.925 0 0 0 4.395 12.573 19.665 19.665 0 0 0 5.427 7.193c5.231 3.932 19.5 9.853 25.393 12.217a5.814 5.814 0 0 0 6.288-1.29l5.473-5.483a5.843 5.843 0 0 0 1.289-6.3c-2.678-6.708-7.49-18.182-11.186-23.962a15.115 15.115 0 0 1-.022-5.25c.116-1.03.232-2.1.251-3.211a16.194 16.194 0 0 0-5.356-12.127 9.877 9.877 0 0 0-8.306-2.329c-3.034.674-5 3.202-5.257 6.759-.056.995-.044 1.992.035 2.986.06.81.077 1.622.05 2.433-.727-.204-1.443-.401-2.133-.583-3.797-1.007-6.521-1.972-6.967-5.25a12.251 12.251 0 0 1-.104-1.977c1.016-2.302 1.029-3.988.013-5.007-2.545-2.548-9.25 1.852-14.407 7.018a38.1 38.1 0 0 0-6.339 8.11 8.952 8.952 0 0 0-1.41 4.555c-.011.02-.031.033-.042.055-.048.111-.082.23-.1.35a74.523 74.523 0 0 0-.79 4.683 1.165 1.165 0 0 0 2.307.321 83.2 83.2 0 0 1 .482-3.007c.296.088.603.132.911.133a6.748 6.748 0 0 0 2.229-.473c1.55 3.255 6.895 15.605 3.66 24.956-4.232 12.238 4.821 17.143 4.913 17.19a1.163 1.163 0 0 0 1.548-.502 1.168 1.168 0 0 0-.465-1.563c-.358-.205-.7-.44-1.02-.7 1.062-.024 2.096-.04 3.095-.04 13.672 0 21.207 1.832 22.572 2.918-1.369 1.08-8.903 2.911-22.576 2.911-13.623 0-21.15-1.817-22.556-2.903.494-.36 2.15-1.222 7.238-1.961.023 0 .041-.02.065-.025.105-.02.206-.057.3-.107.03-.015.062-.026.09-.044a1.13 1.13 0 0 0 .297-.27c.019-.023.028-.05.044-.075a1.26 1.26 0 0 0 .116-.207c1.12-2.85 1.993-7.674-.21-14.467A38.707 38.707 0 0 1 8.93 36.136c0-.381-.01-.763.007-1.145a1.165 1.165 0 1 0-2.33-.044c-.017.394 0 .792-.006 1.188a40.91 40.91 0 0 0 1.607 12.192c1.837 5.666 1.33 9.715.466 12.27C1.024 61.798 0 63.437 0 64.744c0 5.103 22.473 5.25 25.034 5.25zm16.9-58.998a20.042 20.042 0 0 1-.037-2.684c.106-1.477.699-4.045 3.434-4.653a7.6 7.6 0 0 1 6.28 1.818 13.762 13.762 0 0 1 4.55 10.312c-.017 1.007-.13 2.019-.233 2.998a42.415 42.415 0 0 0-.212 2.324 22.82 22.82 0 0 0-5.634-3.734 55.365 55.365 0 0 0-8.137-3.15 20.699 20.699 0 0 0-.01-3.231zm-5.007 4.238a65.647 65.647 0 0 1 12.123 4.243 16.943 16.943 0 0 1 6.34 4.743c.256.343.524.735.798 1.156l.019.03c3.732 5.76 8.913 18.309 11.076 23.722a3.505 3.505 0 0 1-.772 3.779l-5.473 5.483a3.488 3.488 0 0 1-3.77.774c-5.806-2.334-19.852-8.153-24.863-11.92a17.502 17.502 0 0 1-4.732-6.352 65.78 65.78 0 0 1-4.234-12.14c-.82-3.11-1.93-7.272-6.055-8.455a42.58 42.58 0 0 0 6.089-5.115 42.726 42.726 0 0 0 5.03-5.992c1.18 4.113 5.327 5.223 8.428 6.044h-.004zm-26.214 5.316c-.117-.117-.286-1.108 1.053-3.555a35.728 35.728 0 0 1 5.946-7.584c5.158-5.168 9.357-7.124 10.712-7.124a.563.563 0 0 1 .398.117c.099.098.233.853-.582 2.616l-.007.016c-.131.284-.282.583-.466.923a35.727 35.727 0 0 1-5.945 7.583 35.642 35.642 0 0 1-7.569 5.95c-2.44 1.345-3.432 1.172-3.54 1.058z"/>
    </g>
</svg>
