<svg xmlns="http://www.w3.org/2000/svg" width="70" height="70" viewBox="0 0 70 70">
    <g fill="none" fill-rule="nonzero">
        <path fill="#A4C2F7" d="M51.467 68.571c-.655.035-2.902.058-5.397-.035h-.046c-3.868-.174-8.345-.664-8.625-1.98 8.671-2.887 10.371-13.145 9.405-21.145-.874-7.16 3.103-7.93 6.987-9.373 2.524-.775 4.518-2.285 5.52-4.18.453 6.439 1.42 12.808 6.597 18.223 7.362 7.673-3.322 17.978-14.441 18.49z"/>
        <path fill="#E3E7F2" d="M46.07 68.536h-.046c-3.868-.174-8.345-.664-8.625-1.98 8.671-2.887 10.371-13.145 9.405-21.145-.874-7.16 3.103-7.93 6.987-9.373.654 4.983 2.12 9.804 6.175 14.043 7.238 7.545-2.978 17.64-13.896 18.455z"/>
        <path fill="#A4C2F7" d="M26.528 62.877c-6.05 1.805-9.341-.477-11.042-2.375 7.673-3.54 4.741-14.776 4.741-14.776s13.788-9.595 17.219-10.794c.062.07 1.481 8.08 1.56 8.15 6.238 5.822 3.118 15.138-12.478 19.795z"/>
        <path fill="#D4E1F4" d="M34.061 42.023c-3.431 1.2-13.834 3.703-13.834 3.703-3.071.525-6.207.81-9.357.85-4.679 0-4.305-2.33-4.305-3.493.028-.314-.132-.622-.437-.839-.541-.354-.7-.935-.39-1.42l.827-1.235c-.416.007-.818-.113-1.113-.333-.294-.22-.455-.52-.447-.83 0-1.165 3.12-2.33-1.559-3.494-4.585-1.141.53-4.425 1.81-6.102.725-.84.977-1.861.701-2.84-.562-1.503-1.326-2.178-1.045-3.855.499-3.086 2.854-5.39 5.303-7.848 1.08-1.064 2.362-2.006 3.805-2.795 9.95-.85 17.421.443 21.866 5.974 4.616 5.752-7.61 18.642-1.825 24.557z"/>
        <path fill="#A4C2F7" d="M60.777 28.26a18.578 18.578 0 0 1-1.465 3.598c-3.556 6.707-9.25 6.974-7.892 18.083.966 7.999-5.35 13.728-14.021 16.616-5.183 1.69-10.848 2.394-16.485 2.05-.234 0-.453-.024-.687-.036-10.527-.78-13.24-5.81-11.478-10.433.89-2.314 2.722-4.364 5.24-5.868 0 0-1.17 5.228 1.497 8.232.683.795 1.696 1.4 2.886 1.723 1.87.524 4.475.443 8.094-.64 15.596-4.658 14.036-13.53 7.798-19.352a2.604 2.604 0 0 1-.203-.21c-5.786-5.915 4.82-18.49.203-24.243-4.18-5.193-9.592-6.928-18.497-6.404a.092.092 0 0 0-.078 0c-.546.024-1.092.07-1.669.116-.514.036-1.294.501-1.59.152-.094-.116-.203-.233-.297-.35C9.138 7.86 4.413 1.725 27.823 1.2h.078c1.013-.023 2.105-.034 3.244-.034 28.073 0 32.752 16.615 29.632 27.095z"/>
        <path fill="#E3E7F2" d="M55.319 28.26a18.578 18.578 0 0 1-1.466 3.598c-3.556 6.707-9.248 6.974-7.892 18.083.967 7.999-5.35 13.728-14.02 16.616-3.495 1.143-7.223 1.835-11.027 2.05-.234 0-.453-.024-.687-.036-10.527-.78-13.24-5.81-11.478-10.433.226.84.66 1.642 1.279 2.364 1.434 1.607 3.96 2.561 8.344 1.723 1.87.524 4.475.443 8.094-.64 15.596-4.658 14.036-13.53 7.798-19.352a2.604 2.604 0 0 1-.203-.21c-5.786-5.915 4.82-18.49.203-24.243-4.18-5.193-9.592-6.928-18.497-6.404a.092.092 0 0 0-.078 0c-1.181-.093-2.37-.12-3.556-.081-2.995-3.435-7.72-9.572 15.69-10.096h.078c26.108.85 30.459 16.86 27.418 27.061z"/>
        <path fill="#F9EAB0" d="M46.804 29.11c-.54 0-1.043-.21-1.326-.553-.284-.343-.31-.771-.069-1.132 7.101-10.603-5.18-16.884-5.708-17.141-.717-.357-.91-1.08-.432-1.615.478-.535 1.446-.68 2.163-.322.156.075 15.086 7.7 6.769 20.119-.264.395-.806.645-1.397.644z"/>
        <g fill="#FFF">
            <path d="M20.165 60.502c7.674-3.54 4.741-14.776 4.741-14.776s-1.93.349-4.546.6c.371 1.84 1.23 7.605-1.586 11.496.232.95.705 1.86 1.391 2.68zM20.227 68.571c.234.012.453.035.687.035 1.691.1 3.391.105 5.084.015-.136-.007-.271-.007-.406-.015-.234 0-.451-.023-.686-.035-10.527-.78-13.241-5.81-11.478-10.433.139-.365.305-.724.495-1.076a13.53 13.53 0 0 1 .066-4.792c-2.518 1.504-4.35 3.554-5.24 5.868-1.762 4.623.951 9.653 11.478 10.433zM13.975 46.46c-3.012-.467-2.731-2.365-2.731-3.377.028-.314-.132-.622-.436-.839-.543-.354-.702-.935-.39-1.42l.826-1.235c-.416.007-.818-.113-1.113-.333-.294-.22-.456-.52-.446-.83 0-1.165 3.119-2.33-1.56-3.494-4.585-1.141.53-4.425 1.809-6.102.726-.84.979-1.861.702-2.84-.562-1.503-1.326-2.178-1.045-3.855.5-3.086 2.854-5.39 5.302-7.848 1.08-1.064 2.363-2.006 3.806-2.795-.514.036-1.295.501-1.591.152-.093-.116-.203-.233-.296-.35-2.994-3.434-7.72-9.57 15.69-10.095h.306a51.215 51.215 0 0 0-1.663-.034c-1.139 0-2.23.01-3.244.034h-.078c-23.41.524-18.685 6.66-15.69 10.096.094.116.203.233.297.349.296.35 1.076-.116 1.59-.152-1.443.79-2.725 1.73-3.805 2.795-2.449 2.457-4.804 4.762-5.303 7.848-.28 1.677.483 2.352 1.045 3.854.276.98.024 2-.702 2.841-1.278 1.677-6.394 4.96-1.809 6.102 4.679 1.164 1.56 2.329 1.56 3.493-.01.31.152.611.446.83.295.22.697.341 1.113.334l-.826 1.235c-.312.485-.152 1.066.39 1.42.304.217.464.525.436.839 0 1.164-.374 3.493 4.305 3.493 1.054 0 2.105-.045 3.105-.117z"/>
            <path d="M14.966 53.181c-2.374 1.438-4.061 3.41-4.814 5.62a6.992 6.992 0 0 0-.327 1.637 5.402 5.402 0 0 0 .204 1.6c.141.515.367 1.016.672 1.49.167.233.386.436.568.658.177.227.403.432.67.604 1.057.81 2.338 1.436 3.755 1.837.76.166 1.515.349 2.288.497l2.408.286-.312 2.317-2.764-.328c-.916-.172-1.83-.389-2.738-.598-1.86-.527-3.54-1.354-4.92-2.421a4.54 4.54 0 0 1-.935-.85c-.267-.31-.56-.612-.794-.93a7.311 7.311 0 0 1-.952-2.08 7.141 7.141 0 0 1-.27-2.155 8.71 8.71 0 0 1 .412-2.097c.912-2.718 2.984-5.141 5.904-6.903l1.945 1.816z"/>
        </g>
        <path fill="#6663FF" d="M7.72 61.364c.19.05.395.07.597.058.405-.038.784-.17 1.082-.379.25-.2.406-.455.441-.727.024-.28-.103-.555-.35-.765l-.216-.154a1.544 1.544 0 0 0-.265-.132 1.34 1.34 0 0 0-.259-.101 2.888 2.888 0 0 0-.3-.063 1.783 1.783 0 0 0-1.154.219c-.162.11-.292.244-.383.392-.148.232-.21.489-.18.744.064.25.222.483.458.668.15.107.331.19.528.24z"/>
        <path fill="#6663FF" d="M61.02 31.788c.527-1.067.955-2.16 1.283-3.27 1.754-5.9 1.247-14.428-5.459-20.666C51.25 2.64 42.604 0 31.146 0 19.761 0 12.743 1.728 10.301 5.136c-2.06 2.875-.157 5.869.574 6.833a16.268 16.268 0 0 0-1.908 1.622l-.156.153c-2.414 2.42-4.91 4.921-5.448 8.246-.19 1.114.026 2.246.624 3.276.156.309.312.64.46 1.034.144.68-.053 1.374-.555 1.95-.352.412-.739.808-1.155 1.185-1.524 1.45-3.247 3.092-2.591 4.721.449.941 1.505 1.648 2.807 1.878.511.108.999.272 1.448.485a4.476 4.476 0 0 1-.24.326c-.424.47-.671 1.015-.715 1.58-.024.658.34 1.292.995 1.732l-.098.146c-.603.93-.331 2.045.674 2.755-.01 0-.012 0-.012.025v.226c-.18 1.187.305 2.377 1.342 3.288 1.238.822 2.87 1.235 4.523 1.143a59.84 59.84 0 0 0 8.08-.623c.468 2.551 1.057 8.656-2.924 11.55-.773-2.016-.943-4.134-.5-6.204.141-.635-.433-1.234-1.283-1.34a1.914 1.914 0 0 0-1.22.248l-.009-.008c-1.77 1.085-3.246 2.413-4.35 3.912-.227.275-.282.61-.15.919.132.308.437.558.835.684.752.233 1.62.027 2.053-.488.24-.324.504-.638.78-.943.091 2.347.817 5.342 3.597 7.015 2.635 1.582 6.423 1.652 11.26.207 8.808-2.63 11.806-6.437 12.77-9.165 1.342-3.803-.238-8.175-4.333-11.993-2.823-2.637-1.416-7.401-.056-12.01 1.393-4.714 2.706-9.166.175-12.315-4.737-5.908-11.047-7.85-22.312-6.802-.935-1.281-1.021-2.814-.233-4.149 1.279-1.782 5.454-3.906 18.096-3.906 10.464 0 18.29 2.346 23.264 6.974 6.012 5.596 6.445 13.33 4.845 18.704-.849 2.984-2.557 5.794-5.007 8.235-2.75 3.006-5.348 5.846-4.38 13.806.639 4.338-1.438 8.654-5.629 11.697-5.64 4.175-14.783 6.35-23.862 5.67l-2.408-.286c-.772-.15-1.526-.331-2.288-.498-1.416-.4-2.697-1.027-3.755-1.836-.147-.117-.32-.224-.45-.35l-.346-.404c-.495-.448-1.328-.601-2.046-.375-.41.134-.712.403-.822.727-.108.324-.01.668.265.93l.509.569c.185.178.41.33.616.495 1.38 1.068 3.06 1.894 4.919 2.42.91.21 1.823.427 2.738.599l2.764.329c1.193.088 2.388.132 3.576.132 4.518 0 8.994-.64 13.192-1.888 2.376 1.563 8.401 1.811 11.965 1.811 1.61 0 2.72-.05 2.76-.052 7.223-.587 13.525-3.923 16.657-8.817 2.563-3.68 2.162-8.12-1.04-11.51-4.94-5.153-5.72-11.034-6.162-17.623zM32.923 18.38c1.892 2.354.65 6.555-.546 10.615-1.52 5.143-3.09 10.46.665 13.965 3.473 3.24 4.835 6.87 3.752 9.95-1.136 3.217-4.806 5.773-10.916 7.595-3.71 1.106-6.445 1.154-8.13.15 5.534-3.573 4.834-10.911 4.282-13.885a21.406 21.406 0 0 0 5.123-1.164c.77-.288 1.084-.987.699-1.563-.385-.575-1.322-.809-2.093-.522a18.068 18.068 0 0 1-5.546 1.048 1.835 1.835 0 0 0-.181.028 2.074 2.074 0 0 0-.182 0 58.312 58.312 0 0 1-8.99.815c-.817.068-1.637-.092-2.305-.449-.402-.483-.56-1.057-.443-1.619v-.26c.023-.66-.34-1.294-.992-1.739l.828-1.234c.241-.355.215-.779-.07-1.116-.288-.339-.791-.541-1.329-.534a2.53 2.53 0 0 1 .312-.455c.653-.654.853-1.5.54-2.283-.417-.815-1.488-1.397-3.47-1.895-.612-.153-.787-.305-.799-.338-.19-.472 1.387-1.98 2.059-2.614.515-.465.987-.957 1.412-1.47.944-1.107 1.248-2.45.846-3.726-.17-.456-.357-.842-.532-1.201-.431-.684-.593-1.445-.468-2.195.439-2.714 2.485-4.763 4.85-7.138l.156-.154a15.37 15.37 0 0 1 3.175-2.371c9.33-.744 14.395.894 18.293 5.759zm32.486 41.539c-2.627 4.142-7.937 6.976-14.037 7.492a61.143 61.143 0 0 1-11.206-.606c2.297-.909 4.41-2.055 6.275-3.406 4.861-3.528 7.272-8.532 6.535-13.563-.87-7.128 1.213-9.402 3.849-12.284.468-.513.953-1.048 1.436-1.615.624 5.364 2.028 10.279 6.385 14.824 2.528 2.706 2.822 6.238.763 9.158z"/>
        <path fill="#6663FF" d="M46.106 28.993c.37.138.799.161 1.192.063.392-.097.716-.308.901-.584 8.318-12.42-6.617-20.044-6.769-20.12-.716-.357-1.684-.212-2.163.323-.477.535-.285 1.258.432 1.615.528.262 12.81 6.538 5.709 17.14a.9.9 0 0 0-.085.89c.131.293.413.535.783.673z"/>
    </g>
</svg>
