<svg xmlns="http://www.w3.org/2000/svg" width="70" height="70" viewBox="0 0 70 70">
    <g fill="none" fill-rule="nonzero">
        <path fill="#E3E7F2" d="M34.967 16.197c-18.1-10.52-27.15 7.014-27.15 7.014-3.88 0-6.466 3.507-6.466 3.507 0-16.365 21.98-19.872 21.98-19.872s11.636-1.17 11.636 9.351zM68.584 26.718s-2.586-3.507-6.465-3.507c0 0-9.05-17.534-27.152-7.014 0-10.52 11.637-9.351 11.637-9.351s21.98 3.507 21.98 19.872z"/>
        <path fill="#A4C2F7" d="M58.24 4.508s-9.05-1.17-11.636 2.338c0 0-11.637 2.337-11.637 9.351 0-7.014-11.635-9.351-11.635-9.351-2.587-3.507-11.637-2.338-11.637-2.338 11.637-8.183 23.272 1.169 23.272 1.169s11.637-9.352 23.273-1.17z"/>
        <path fill="#E3E7F2" d="M58.24 47.759s-1.422 2.256-3.879 5.33c.105-5.302-2.042-10.44-5.999-14.355l6-8.51c.457-.543.723-1.199.762-1.881 3.323 5.283 3.116 19.416 3.116 19.416zM21.663 38.734c-3.984 3.943-6.132 9.122-5.999 14.46-2.508-3.132-3.969-5.435-3.969-5.435s-.285-14.32 3.103-19.545c.017.728.288 1.432.776 2.01l6.09 8.51z"/>
        <g fill="#A4C2F7">
            <path d="M48.078 52.657c-.052.386-.103.794-.18 1.24.064 1.019.064 2.042 0 3.061-.156.608.219 1.24 0 1.882-.104.374-1.048.737-1.19 1.123a2.81 2.81 0 0 1-.104.303c-.336.878.453-.151 0 .912-.259.62-1.616 1.24-1.927 1.86-.051.046-.103.08-.155.128-2.805 2.358-6.037 4.263-9.555 5.634-3.517-1.37-6.75-3.276-9.554-5.634-1.94-3.846-4.06-7.774-4.41-10.427l-.258-3.168v-.035l.375-10.346-.375-.456-5.171-7.34c-.492-.597-2.056-.246-2.069-.97-.008-.16-.004-.32.013-.48.504-4.15 5.495-18.002 21.45-16.085 15.954-1.917 20.855 11.935 21.359 16.085.017.16.021.32.013.48.025.046.051.081.077.128a3.21 3.21 0 0 1-.762 1.882l-6.465 6.3-.375.456-.491 10.077-.246 3.39z"/>
            <path d="M48.078 52.657c-.052.386-.103.794-.18 1.24.064 1.019.064 2.042 0 3.061-.156.608.219 1.24 0 1.882-.104.374-1.048.737-1.19 1.123a2.81 2.81 0 0 1-.104.303c-.336.878.453-.151 0 .912-.259.62-1.616 1.24-1.927 1.86-.051.046-.103.08-.155.128-2.805 2.358-6.037 4.263-9.555 5.634-3.517-1.37-6.75-3.276-9.554-5.634-1.94-3.846-4.06-7.774-4.41-10.427l-.258-3.168v-.035l.375-10.346-.375-.456-5.171-7.34c-.492-.597-2.056-.246-2.069-.97-.008-.16-.004-.32.013-.48.504-4.15 5.495-18.002 21.45-16.085 15.954-1.917 20.855 11.935 21.359 16.085.017.16.021.32.013.48.025.046.051.081.077.128a3.21 3.21 0 0 1-.762 1.882l-6.465 6.3-.375.456-.491 10.077-.246 3.39z"/>
            <path d="M47.742 52.657c-.052.386-.104.794-.181 1.24a36.002 36.002 0 0 1-.647 3.061c-.155.608-.336 1.24-.556 1.882-.103.374-.232.737-.374 1.123a2.945 2.945 0 0 1-.104.303c-.117.304-.233.608-.362.912-.259.62-.53 1.24-.84 1.86a66.886 66.886 0 0 0 9.683-9.949c.105-5.302-2.042-10.44-5.999-14.355l-.374.456v10.077l-.246 3.39zM22.297 52.739a33.23 33.23 0 0 0 3.116 10.427 66.633 66.633 0 0 1-9.749-9.96v-.011c-.133-5.34 2.015-10.518 6-14.46l.374.455v10.38l.259 3.169zM34.967 16.197c-15.954-1.917-18.786 9.597-19.29 13.747-.017.16-.021.32-.013.48-3.387 5.225-3.969 17.335-3.969 17.335-2.586 1.169-3.879 4.676-3.879 4.676-6.465-11.69 0-29.224 0-29.224s9.05-17.534 27.151-7.014z"/>
            <path d="M62.12 52.435a10.804 10.804 0 0 0-2.548-3.8 5.42 5.42 0 0 0-1.332-.876s-.568-11.924-3.892-17.207c-.025-.047-.051-.082-.077-.129.009-.16.005-.32-.013-.48-.491-4.043-3.193-15.067-18.062-13.863-.401.024-.802.07-1.229.117.104-.07.208-.128.311-.187 2.424-1.567 5.216-2.607 8.158-3.04C55.19 11.452 62.12 23.212 62.12 23.212s6.465 17.534 0 29.224z"/>
        </g>
        <path fill="#E3E7F2" d="M59.572 48.635a5.42 5.42 0 0 0-1.332-.876s-.568-11.924-3.892-17.207c-.025-.047-.051-.082-.077-.129.009-.16.005-.32-.013-.48-.491-4.043-3.193-15.067-18.062-13.863a11.572 11.572 0 0 0-.918-.07c2.424-1.567 5.216-2.607 8.158-3.04 9.206 1.228 14.52 10.241 14.52 10.241s5.197 14.086 1.616 25.424z"/>
        <path fill="#D4E1F4" d="M50.483 34.9c0 2.917-1.742 8.025-2.55 10.521-.402 1.243.534 4.754-.035 5.845-.676 1.296-2.888.137-3.763 1.169-2.478 2.922-5.676 4.675-9.168 4.675-3.49 0-6.689-1.753-9.165-4.675-.604-.714-3.252-.327-3.764-1.17-.835-1.374.546-4.078 0-5.736-.83-2.524-2.585-7.67-2.585-10.629 0-10.975 7.661-17.534 15.514-17.534 7.854 0 15.516 6.559 15.516 17.534z"/>
        <path fill="#7FABFA" d="M35.058 43.083c2.036.215 3.642 1.667 3.879 3.507 0 1.286-1.732 1.169-3.879 1.169h-.09c-2.147 0-3.879.117-3.879-1.17.237-1.84 1.843-3.291 3.878-3.506h.091z"/>
        <path fill="#D4E1F4" d="M31.063 34.023c-.15 1.702-1.632 3.06-3.512 3.215-1.88.157-3.611-.933-4.1-2.582-.49-1.648.404-3.376 2.117-4.093 1.243.27 2.307.993 2.935 2 .426.926 1.45 1.511 2.56 1.46zM46.604 33.731c-.058 1.841-1.68 3.328-3.715 3.405-2.035.077-3.79-1.283-4.016-3.113 1.108.051 2.133-.534 2.56-1.46.627-1.007 1.69-1.73 2.934-2 1.367.57 2.242 1.808 2.237 3.168z"/>
        <path fill="#7FABFA" d="M41.523 54.773L40.85 57.8c-.363 1.638-1.953 2.816-3.801 2.818h-4.073c-1.847-.002-3.438-1.18-3.8-2.818l-.673-3.027 5.508-1.988c.304-.111.629-.167.956-.164h.091c.328-.003.653.053.957.164l5.508 1.988z"/>
        <path fill="#FFF" d="M25.413 63.166c2.805 2.358 6.037 4.263 9.554 5.634a25.355 25.355 0 0 0 1.94-.807 36.494 36.494 0 0 1-7.615-4.827 66.63 66.63 0 0 1-9.749-9.96v-.011a27.911 27.911 0 0 0-3.97-4.267c-1.012.458-.677.35-1.292 1.169.646.907.347 1.804 1.383 3.098v.011a66.633 66.633 0 0 0 9.75 9.96zM23.332 6.846s-21.98 3.507-21.98 19.872c1.059-1.345 2.495-2.41 4.161-3.085C8.055 9.907 27.21 6.846 27.21 6.846M10.143 48.84c-3.7-11.368 1.552-25.629 1.552-25.629-1.61.047-3.155.586-4.382 1.53-1.383 4.509-4.816 18.075.503 27.694.52-1.32 1.31-2.54 2.327-3.595z"/>
        <path fill="#FFF" d="M6.66 52.957a26.02 26.02 0 0 1-2.55-7.59 38.172 38.172 0 0 1-.398-7.806 55.47 55.47 0 0 1 2.877-14.72l2.457.74a53.371 53.371 0 0 0-2.75 14.084 36.024 36.024 0 0 0 .37 7.349 23.882 23.882 0 0 0 2.306 6.897L6.66 52.957z"/>
        <path fill="#6663FF" d="M5.312 44.61c.337-.046.645-.202.865-.439.101-.12.177-.255.221-.4.125-.442-.034-.909-.411-1.21a1.397 1.397 0 0 0-.439-.213 1.437 1.437 0 0 0-.496-.063c-.344.026-.665.169-.896.4a1.07 1.07 0 0 0-.286.88c.045.315.218.604.485.811l.212.117c.077.037.159.063.244.08a.914.914 0 0 0 .241.041c.086.004.173.003.26-.004z"/>
        <path fill="#6663FF" d="M.059 26.718c-.001.514.371.97.916 1.12.545.149 1.134-.042 1.451-.47.92-1.158 2.163-2.077 3.6-2.664a55.01 55.01 0 0 0-2.314 12.858c-.035.398-.033.797-.037 1.197-.009.313.122.615.363.84.241.224.572.35.918.351.705-.002 1.282-.508 1.305-1.145 0-.38 0-.76.035-1.14a53.424 53.424 0 0 1 2.73-14.026c.38-.693 4.19-7.345 11.19-9.165a15.96 15.96 0 0 1 9.06.456c-2.996.227-5.858 1.225-8.247 2.876-4.858 3.435-6.23 8.862-6.62 11.88-3.498 4.442-3.947 14.693-4.007 17.417a8.758 8.758 0 0 0-2.498 2.489c-.216-.607-.413-1.22-.624-1.83-.183-.606-.856-.976-1.534-.846-.342.07-.639.26-.822.532-.183.27-.236.597-.148.903.267.78.518 1.567.802 2.338l1.072 2.268c.233.424.726.678 1.248.645.522-.033.971-.348 1.136-.797a9.233 9.233 0 0 1 2.273-3.355c2.613 3.83 11.813 16.326 23.177 20.436.016 0 .031 0 .047.008.14.047.287.073.436.075.147-.003.292-.028.43-.075.016-.006.03 0 .046-.008 11.37-4.11 20.577-16.615 23.185-20.444a9.338 9.338 0 0 1 2.262 3.365c.166.447.614.76 1.136.793.523.04 1.019-.216 1.246-.643 5.438-9.834 2.181-23.312.687-28.238 1.416.59 2.637 1.502 3.545 2.648.315.432.906.625 1.454.475.548-.15.921-.607.919-1.124 0-13.62-14.397-18.845-20.429-20.436 2.647-1.03 6.951-.83 8.617-.617.58.076 1.144-.212 1.373-.7.23-.489.066-1.056-.397-1.38-10.483-7.368-21.044-1.415-24.074.606-3.029-2.028-13.59-7.974-24.066-.607-.464.325-.627.892-.398 1.38.23.489.793.777 1.374.701 1.665-.214 5.969-.412 8.616.617C14.455 7.873.059 13.097.059 26.718zm16.908 3.354c.319-2.625 1.477-7.47 5.657-10.431 3.002-2.128 7.098-2.898 12.173-2.285.03 0 .057-.007.086 0 .03.006.055.01.084.01.03 0 .056-.014.084-.015.029-.001.057.008.087 0 5.076-.612 9.17.158 12.173 2.285 4.18 2.961 5.339 7.807 5.657 10.43a2.177 2.177 0 0 1-.503 1.66l-6.896 8.318c-.293.354-.34.828-.122 1.224.22.396.667.646 1.157.646v7.622l-5.39 3.898-4.806-1.738c-.048-.018-.098-.023-.147-.039v-2.73a4.772 4.772 0 0 0 3.205-.79c.45-.41.693-.97.673-1.547-.245-2.485-2.423-4.454-5.172-4.676-2.748.222-4.926 2.191-5.171 4.676a2.003 2.003 0 0 0 .673 1.544 4.77 4.77 0 0 0 3.206.794v2.734c-.05.015-.1.022-.148.04l-4.805 1.737-5.39-3.903v-7.622c.489 0 .936-.25 1.155-.646.22-.396.173-.87-.121-1.224l-6.896-8.312a2.18 2.18 0 0 1-.503-1.66zm37.567 3.062c.02-.023.032-.051.051-.076 2.088 4.752 2.327 12.723 2.359 14.387-.244.37-.745 1.112-1.47 2.104-.918-7.686-5.3-10.77-5.508-10.911l4.568-5.504zM34.967 67.526a33.005 33.005 0 0 1-8.486-5.07 32.036 32.036 0 0 1-2.93-9.768l3.777 2.731.576 2.61c.49 2.181 2.609 3.752 5.071 3.757h3.985c2.463-.005 4.582-1.576 5.07-3.758l.578-2.609 3.779-2.733a31.966 31.966 0 0 1-2.932 9.77 32.998 32.998 0 0 1-8.488 5.07zM15.402 33.134l4.568 5.507c-.209.142-4.59 3.225-5.51 10.912a60.84 60.84 0 0 1-1.468-2.104c.03-3.092.517-10.107 2.37-14.37.015.015.024.036.04.055zM35.485 46.59H34.45a12.263 12.263 0 0 1-2.06-.095c.095-.764 1.293-2.244 2.586-2.244s2.483 1.48 2.586 2.244a11.88 11.88 0 0 1-2.078.095zm-1.001 7.279c.308-.112.652-.112.96 0l4.507 1.63-.458 2.07c-.244 1.09-1.302 1.876-2.533 1.88h-3.985c-1.23-.004-2.288-.79-2.533-1.88l-.457-2.073 4.499-1.627zm14.706-3.772a.936.936 0 0 0-.045-.2c.025-.12.04-.24.045-.361v-8.34c1.33 1.345 3.879 4.764 3.879 11.239.007.069.023.137.045.203a72.6 72.6 0 0 1-5.402 6.01 31.645 31.645 0 0 0 1.478-8.551zM16.82 52.638a.966.966 0 0 0 .046-.203c0-6.475 2.548-9.894 3.878-11.239v8.34c.005.12.02.24.046.36a.977.977 0 0 0-.046.2 31.645 31.645 0 0 0 1.478 8.552 72.707 72.707 0 0 1-5.402-6.01zm45.218-3.032a8.818 8.818 0 0 0-2.514-2.49c-.055-2.687-.499-12.974-4.008-17.43-.387-3.018-1.755-8.445-6.613-11.885-2.388-1.65-5.25-2.648-8.245-2.875a15.973 15.973 0 0 1 9.058-.456c7.073 1.84 10.887 8.606 11.197 9.18.39 1.091 5.26 15.302 1.125 25.956zm4.952-26.001a9.021 9.021 0 0 0-4.057-1.52c-1.17-1.962-5.262-7.973-12.48-9.86-4.282-1.118-8.85-.55-13.6 1.652 1.992-3.837 8.49-5.533 9.786-5.834 2.291.413 17.98 3.67 20.351 15.562zM16.801 3.191c9-3.137 16.927 3.054 17.31 3.361.489.394 1.227.394 1.716 0 .093-.076 8.198-6.446 17.271-3.357-2.639.175-5.572.825-7.214 2.61-1.725.402-8.145 2.155-10.917 6.284-2.774-4.13-9.192-5.882-10.916-6.285-1.65-1.793-4.598-2.44-7.25-2.613zm6.494 4.852c1.293.301 7.796 1.999 9.786 5.838-4.75-2.204-9.318-2.772-13.6-1.653-7.217 1.886-11.31 7.897-12.48 9.86a9.031 9.031 0 0 0-4.057 1.52c2.371-11.895 18.06-15.152 20.35-15.565z"/>
        <path fill="#6663FF" d="M27.21 38.407c2.293-.01 4.307-1.38 4.95-3.37.275-.063.544-.15.8-.26.64-.288.898-.99.579-1.568-.32-.578-1.096-.812-1.735-.524a2.17 2.17 0 0 1-.63.176h-.01c-.022 0-.04.007-.062.007-.631.049-1.221-.289-1.442-.826-1.633-2.952-6.137-2.986-6.328-2.986-.608.005-1.13.392-1.253.929-.125.537.181 1.08.735 1.306-.985 1.44-1.029 3.248-.116 4.726.913 1.478 2.64 2.393 4.512 2.39zm.136-5.322c.418.823 1.158 1.478 2.078 1.839-.459.712-1.303 1.148-2.214 1.145-1.428 0-2.586-1.047-2.586-2.338.007-.753.42-1.456 1.107-1.883a2.976 2.976 0 0 1 1.615 1.237zM36.976 34.783c.256.11.523.197.799.26.555 1.752 2.188 3.05 4.181 3.326 1.992.276 3.98-.522 5.09-2.044 1.11-1.52 1.14-3.487.075-5.034.554-.226.86-.769.735-1.306-.124-.537-.645-.924-1.252-.93-.191 0-4.696.035-6.335 2.985-.215.52-.776.857-1.39.83h-.027a2.26 2.26 0 0 1-.727-.181c-.64-.29-1.416-.054-1.735.523-.32.578-.06 1.28.58 1.57l.006.001zm5.62-1.698a2.984 2.984 0 0 1 1.62-1.235c.681.43 1.09 1.131 1.095 1.881 0 1.291-1.158 2.338-2.586 2.338-.911.003-1.755-.433-2.213-1.145.922-.36 1.664-1.015 2.084-1.84z"/>
    </g>
</svg>
