<svg xmlns="http://www.w3.org/2000/svg" width="70" height="70" viewBox="0 0 70 70">
    <g fill="none" fill-rule="nonzero">
        <path fill="#A4C2F7" d="M11.051 17.232c-4.87 5.507-7.15 13.51-3.692 20.101 1.227 2.334-6.132 7-6.132 9.333C1.227 49 7.359 49 7.359 49a5.578 5.578 0 0 1-1.226 3.5c-1.227 1.167 1.226 2.333 1.226 2.333A1.58 1.58 0 0 0 6.836 56c0 .44.19.862.523 1.167 2.748 2.613-2.453 4.666 3.68 7C17.172 66.5 23.305 63 23.305 63l.073 5.833h9.715l13.516-56L25.758 7 11.05 17.232z"/>
        <path fill="#A4C2F7" d="M28.21 10.5c-.6.689-8.61 5.81-9.125 6.557h-.012a16.875 16.875 0 0 0-3.814-.292c-1.414.048-2.82.204-4.208.467-.773.152-1.239.268-1.239.268S0 17.5 6.133 7a8.354 8.354 0 0 1 1.828-.828 40.883 40.883 0 0 1 8.45-1.82 4.2 4.2 0 0 0-.564.315c-6.132 10.5 11.125 6.101 11.125 6.101s.466-.116 1.239-.268z"/>
        <path fill="#E3E7F2" d="M22.078 11.982c-.405.466-4.244 2.987-6.82 4.783-1.413.048-2.82.204-4.207.467-.773.152-1.239.268-1.239.268S0 17.5 6.133 7a8.354 8.354 0 0 1 1.828-.828 62.346 62.346 0 0 1 2.317-.338c-.196.09-.385.196-.563.314-6.133 10.5 11.124 6.102 11.124 6.102s.466-.117 1.24-.268z"/>
        <path fill="#D4E1F4" d="M12.67 46.013c.454.024.749.024.749.024s0 .07-.013.198a4.866 4.866 0 0 1-.736-.222z"/>
        <path fill="#A4C2F7" d="M30.59 16.87c-.094-1.418-.934-2.694-2.232-3.395 2.834-.117 5.385.688 5.887 4.025.176 2 .858 3.929 1.987 5.623-.369.228-.71.494-1.018.794-.981.058-3.63-.455-4.624-7.047zM60.077 68.833H33.093v-.63h23.329s-.074 0-1.3-9.333a46.03 46.03 0 0 1-.467-6.51c-1.9 2.368-6.636-5.915-5.568-10.99 1.091-5.168-5.115-6.673-5.961-6.953 1.422-3.045 1.913-6.79-.27-9.38a9.12 9.12 0 0 0-1.926-1.773c1.472-.467 3.41-.176 5.581 2.403 2.171 2.578 1.693 6.335.27 9.38.846.28 7.052 1.785 5.961 6.953-1.067 5.075 3.668 13.358 5.569 10.99 0 2.178.156 4.352.466 6.51 1.226 9.333 1.3 9.333 1.3 9.333z"/>
        <path fill="#D4E1F4" d="M56.422 68.203h-23.33l-.073-7.536a16.691 16.691 0 0 1-3.643 1.411 14.187 14.187 0 0 1-8.623-.245c-6.132-2.333-.932-4.387-3.68-7a1.579 1.579 0 0 1-.523-1.166c0-.44.19-.862.524-1.167 0 0-2.453-1.167-1.227-2.333a5.579 5.579 0 0 0 1.227-3.5 17.379 17.379 0 0 1-3.668-.432c.013-.128.013-.198.013-.198s-.295 0-.749-.024h-.024c-.969-.338-1.705-.874-1.705-1.68 0-2.333 7.36-7 6.133-9.333-3.03-5.775-1.656-12.635 1.999-17.943h.012a24.269 24.269 0 0 1 1.68-2.159 48.384 48.384 0 0 1 7.593-1.423c1.298.701 2.138 1.977 2.232 3.395.994 6.592 3.643 7.105 4.624 7.047.308-.3.649-.566 1.018-.794.552.886 1.555 1.428 2.638 1.424a5.458 5.458 0 0 1 2.06-1.283 9.12 9.12 0 0 1 1.926 1.773c2.183 2.59 1.692 6.335.27 9.38.846.28 7.052 1.785 5.96 6.953-1.067 5.075 3.668 13.358 5.57 10.99a46.03 46.03 0 0 0 .466 6.51c1.226 9.333 1.3 9.333 1.3 9.333z"/>
        <path fill="#D4E1F4" d="M40.93 23.264a5.458 5.458 0 0 0-2.06 1.283c-1.083.004-2.086-.538-2.638-1.424a4.073 4.073 0 0 1 4.698.14z"/>
        <path fill="#A4C2F7" d="M58.777 51.333c.044.586-.121 1.17-.466 1.657-.7.863-2.11.618-3.57-.28-2.539-1.575-5.225-5.156-4.55-8.377 1.091-5.168-2.564-6.673-3.41-6.953 1.423-3.045 1.913-6.79-.27-9.38-3.262-3.873-5.986-2.59-7.445-1.295a2.668 2.668 0 0 0-.196.175 2.556 2.556 0 0 1-1.276-.268c-1.177-.56-2.661-2.206-3.349-6.779-.993-6.65-10.118-5.565-13.48-4.935-.772.152-1.238.269-1.238.269s-9.812 0-3.68-10.5a4.2 4.2 0 0 1 .564-.315c.197-.093.454-.21.785-.339a.047.047 0 0 1 .037-.011c2.588-1.016 9.347-2.835 24.372-2.835 20.851 0 25.758 14 26.984 22.167 1.227 8.166-9.812 22.166-9.812 28z"/>
        <path fill="#E3E7F2" d="M54.754 52.5c.001.07-.002.14-.013.21-2.539-1.575-5.225-5.156-4.55-8.377 1.091-5.168-2.564-6.673-3.41-6.953 1.423-3.045 1.913-6.79-.27-9.38-3.262-3.873-5.986-2.59-7.445-1.295a3.776 3.776 0 0 0-1.472-.093c-1.177-.56-2.661-2.206-3.349-6.779-.993-6.65-10.118-5.565-13.48-4.935-.772.152-1.238.269-1.238.269s-9.812 0-3.68-10.5a4.2 4.2 0 0 1 .564-.315c.197-.093.454-.21.785-.339a.047.047 0 0 1 .037-.011 98.268 98.268 0 0 1 20.349-1.669c20.851 0 25.757 14 26.984 22.167 1.226 8.167-9.812 22.166-9.812 28z"/>
        <path fill="#A4C2F7" d="M46.511 28c-3.422-4.06-6.243-2.462-7.641-1.12-.602.583-.83.778-.945 1.12-.12.399-.202.808-.245 1.22a17.9 17.9 0 0 0 .823 7.817A44.367 44.367 0 0 0 40.378 42c1.082 2.1 4.625-.793 6.403-4.62 1.423-3.045 1.913-6.79-.27-9.38z"/>
        <g fill="#FFF">
            <path d="M27.058 68.833L26.984 63a16.941 16.941 0 0 1-3.661 1.41l.055 4.423h3.68zM11.04 64.166c2.037.75 4.244.982 6.406.675a12.079 12.079 0 0 1-2.728-.675c-6.132-2.333-.932-4.386-3.679-7A1.578 1.578 0 0 1 10.516 56c0-.44.188-.862.523-1.167 0 0-2.453-1.166-1.227-2.333A5.579 5.579 0 0 0 11.04 49s-6.133 0-6.133-2.334c0-2.333 7.36-7 6.133-9.333-3.46-6.592-1.177-14.594 3.692-20.101-.773.152-1.239.268-1.239.268S3.68 17.5 9.812 7a8.366 8.366 0 0 1 1.828-.828 40.896 40.896 0 0 1 8.451-1.82c.196-.093.454-.21.785-.339a.045.045 0 0 1 .037-.011c2.427-.953 8.524-2.612 21.666-2.814-.325-.007-.642-.021-.974-.021-15.025 0-21.784 1.82-24.372 2.835a.047.047 0 0 0-.037.011c-.331.129-.588.246-.785.339-2.879.307-5.713.918-8.45 1.82A8.354 8.354 0 0 0 6.133 7C0 17.5 9.813 17.5 9.813 17.5s.465-.116 1.238-.268c-4.87 5.507-7.15 13.51-3.692 20.101 1.227 2.334-6.132 7-6.132 9.333C1.227 49 7.359 49 7.359 49a5.578 5.578 0 0 1-1.226 3.5c-1.227 1.167 1.226 2.333 1.226 2.333A1.58 1.58 0 0 0 6.836 56c0 .44.19.862.523 1.167 2.748 2.613-2.453 4.666 3.68 7z"/>
            <path d="M6.262 37.855A16.06 16.06 0 0 1 4.49 29.96a19.776 19.776 0 0 1 1.896-7.776 24.08 24.08 0 0 1 3.726-5.704l1.877 1.503a21.804 21.804 0 0 0-3.357 5.14 15.458 15.458 0 0 0-.17 13.69l-2.201 1.042z"/>
        </g>
        <path fill="#6663FF" d="M40.318 34.203c.2-.573.477-1.119.825-1.624.54.21 1.16.028 1.484-.434a1.124 1.124 0 0 0-.153-1.47 1.984 1.984 0 0 0-1.814-.533c-1.421.32-2.282 2.217-2.668 3.323-.215.612.133 1.273.777 1.477.643.204 1.338-.127 1.553-.739h-.004z"/>
        <path fill="#6663FF" d="M64.094 41.021c3.033-6.006 6.47-12.813 5.713-17.85C68.508 14.516 63.117 0 41.607 0 25.17 0 18.37 2.191 16.084 3.218 8.126 4.256 5.652 5.884 5.397 6.067a1.172 1.172 0 0 0-.335.365c-2.305 3.951-2.777 7.073-1.403 9.293 1.105 1.571 2.878 2.603 4.85 2.825a23.958 23.958 0 0 0-2.122 3.64c-.19.368-.33.756-.491 1.139-.127.294-.118.626.024.914.142.288.404.507.723.602.629.187 1.304-.115 1.553-.695.14-.343.265-.69.437-1.022a21.747 21.747 0 0 1 3.099-4.824 23.737 23.737 0 0 1 5.317-.337c-3.36 5.748-3.841 12.278-1.075 17.551.301.57-2.065 3.002-2.955 3.916-1.774 1.824-3.306 3.398-3.306 4.9 0 2.615 3.776 3.283 5.995 3.448a3.12 3.12 0 0 1-.735 1.561 2.031 2.031 0 0 0-.676 1.836c.155.675.559 1.275 1.138 1.692-.352.991-.052 2.087.764 2.788.639.61.578 1.013.362 1.949-.418 1.81-.474 3.71 3.729 5.31l.109.037a13.385 13.385 0 0 1-8.911.129c-2.625-.998-2.506-1.517-2.244-2.644.52-1.439.122-3.035-1.025-4.097-.137-.13-.344-.328 0-.684.278-.264.406-.64.344-1.01a1.176 1.176 0 0 0-.66-.857 3.227 3.227 0 0 1-.811-.563 6.668 6.668 0 0 0 1.494-4.23c0-.643-.55-1.166-1.227-1.166-2.526 0-4.906-.66-4.906-1.167 0-.583 1.66-2.29 2.653-3.31 2.167-2.228 4.41-4.53 3.35-6.544a13.71 13.71 0 0 1-1.338-4.083c-.128-.603-.704-1.024-1.35-.983a1.202 1.202 0 0 0-.848.44c-.205.255-.286.58-.222.895a15.938 15.938 0 0 0 1.57 4.783c.3.57-2.066 3.002-2.956 3.917C1.532 43.595 0 45.168 0 46.666c0 2.615 3.776 3.282 5.995 3.448a3.123 3.123 0 0 1-.73 1.561 2.03 2.03 0 0 0-.675 1.837c.156.674.56 1.274 1.138 1.691-.352.992-.052 2.086.764 2.789.64.609.578 1.012.362 1.948-.417 1.81-.473 3.711 3.729 5.31a16.252 16.252 0 0 0 11.518-.403l.05 4c.009.64.556 1.153 1.227 1.153h36.699c.677 0 1.226-.522 1.226-1.167 0-.1-.013-.2-.039-.296-.036-.19-.256-1.466-1.27-9.18a45.853 45.853 0 0 1-.453-6.018c.331-.62.492-1.31.466-2.006 0-2.216 1.984-6.15 4.087-10.312zm3.284-17.522c.652 4.337-2.616 10.8-5.496 16.517-2.321 4.6-4.328 8.573-4.328 11.317 0 .642-.155.948-.259.997-.218.099-1.08.008-2.37-.934-2.085-1.525-4.032-4.433-3.528-6.834 1.201-5.717-1.817-7.676-2.9-8.183 1.242-3.553.897-6.823-1.026-9.108-1.792-2.13-3.706-3.144-5.684-3.02a5.833 5.833 0 0 0-3.335 1.426 1.638 1.638 0 0 1-.522-.225c-.661-.43-1.862-1.75-2.468-5.784-.228-1.982-1.377-3.762-3.131-4.851-4.343-2.714-11.642-1.136-12.937-.824-.59-.034-2.96-.26-3.904-1.786-.859-1.4-.42-3.712 1.278-6.71 1.105-.572 7.075-3.164 24.84-3.164 18.672 0 24.32 11.51 25.77 21.166zm-56.575-7.41c-.52.102-.91.19-1.12.24-.585-.033-2.963-.256-3.91-1.787-.858-1.4-.422-3.713 1.28-6.71a24.358 24.358 0 0 1 6.778-1.91c-1.444 3.092-1.61 5.605-.454 7.466a5.727 5.727 0 0 0 2.698 2.21c-1.77 0-3.536.164-5.272.492zm13.738 47.698a17.981 17.981 0 0 0 7.269-1.271l.045 5.15H24.59l-.05-3.879zm9.768 3.88l-.064-7.01a1.16 1.16 0 0 0-.626-1.008 1.282 1.282 0 0 0-1.23.016c-.056.032-5.708 3.168-11.18 1.085-2.624-.998-2.505-1.517-2.245-2.644.522-1.44.124-3.036-1.023-4.097-.137-.131-.345-.328 0-.684a1.13 1.13 0 0 0 .343-1.01 1.173 1.173 0 0 0-.658-.857 3.227 3.227 0 0 1-.812-.563 6.667 6.667 0 0 0 1.486-4.229c0-.644-.549-1.166-1.226-1.166-2.527 0-4.906-.66-4.906-1.167 0-.583 1.66-2.29 2.653-3.31 2.167-2.228 4.415-4.53 3.35-6.544-2.618-4.99-1.84-11.328 1.887-16.722l.048-.067c.409-.59.855-1.166 1.34-1.73 2.667-.454 7.025-.76 9.538.81 1.163.725 1.917 1.913 2.05 3.229.58 3.862 1.815 6.377 3.67 7.478.041.024.08.038.124.06-.255.53-.053 1.159.472 1.463.58.332 1.333.153 1.683-.4.147-.217.31-.424.49-.619a1.13 1.13 0 0 0 .908-.797c.453-.34.998-.549 1.571-.605 1.12-.071 2.344.651 3.606 2.15 2.218 2.638.882 6.453.205 7.972-1.318 2.952-3.295 4.696-4.157 4.773-.081.007-.111.009-.204-.117-.376-.536-1.137-.68-1.7-.323-.565.358-.717 1.082-.34 1.618.47.727 1.303 1.169 2.2 1.167.09 0 .18 0 .272-.012 2.186-.195 4.386-2.712 5.732-5.258.604.328 2.258 1.61 1.426 5.565-.736 3.512 1.784 7.2 4.44 9.142a6.492 6.492 0 0 0 3.67 1.444h.012c.056 1.443.2 3.052.447 4.955.532 4.054.859 6.52 1.124 8.022l-24.376-.01z"/>
        <path fill="#6663FF" d="M5.07 29.166c.061.049.13.088.204.117a.798.798 0 0 0 .214.084c.08.019.162.031.245.038.324.012.643-.083.9-.271.12-.095.219-.21.292-.34a1.12 1.12 0 0 0-.083-1.228 1.34 1.34 0 0 0-.357-.3 1.313 1.313 0 0 0-.443-.174 1.26 1.26 0 0 0-.917.194 1.28 1.28 0 0 0-.491.817c-.03.323.066.645.27.905l.166.158z"/>
    </g>
</svg>
