<svg xmlns="http://www.w3.org/2000/svg" width="70" height="70" viewBox="0 0 70 70">
    <g fill="none" fill-rule="nonzero">
        <path fill="#E3E7F2" d="M32.604 29.798v3.97a2.33 2.33 0 1 0 4.658 0V11.646a2.329 2.329 0 1 0-4.658 0v18.153z"/>
        <path fill="#A4C2F7" d="M66.639 17.328l-6.823 3.412-1.526.768a5.8 5.8 0 0 1-2.608.617H14.195a5.85 5.85 0 0 1-2.62-.617l-8.349-4.18a.59.59 0 0 0-.745.861l1.793 2.55 3.656 5.217a4.64 4.64 0 0 0 3.808 1.991h46.39a4.64 4.64 0 0 0 3.807-1.991l5.45-7.767a.59.59 0 0 0-.746-.861z"/>
        <path fill="#E3E7F2" d="M59.816 20.74l-3.656 5.216a4.64 4.64 0 0 1-3.808 1.991H11.738a4.64 4.64 0 0 1-3.808-1.991L4.274 20.74l-1.793-2.55a.589.589 0 0 1 .745-.862l8.349 4.18a5.85 5.85 0 0 0 2.62.617h41.487a5.8 5.8 0 0 0 2.608-.617l1.526-.768z"/>
        <path fill="#E3E7F2" d="M40.754 24.454a5.822 5.822 0 1 1-11.643 0 5.822 5.822 0 0 1 11.643 0z"/>
        <path fill="#A4C2F7" d="M26.782 57.057c0 6.427-5.729 11.644-12.808 11.644-.979 0-1.954-.1-2.911-.303-5.671-1.2-9.898-5.822-9.898-11.341h25.617zM68.7 57.057c0 6.427-5.729 11.644-12.808 11.644-.979 0-1.954-.1-2.911-.303-5.671-1.2-9.898-5.822-9.898-11.341H68.7z"/>
        <path fill="#E3E7F2" d="M20.96 57.057c0 5.52-4.227 10.141-9.897 11.34-5.671-1.199-9.898-5.82-9.898-11.34H20.96zM62.878 57.057c0 5.52-4.226 10.141-9.897 11.34-5.671-1.199-9.898-5.82-9.898-11.34h19.795z"/>
        <path fill="#FFF" d="M11.063 68.398c1.53.33 3.106.393 4.657.186a13.813 13.813 0 0 1-1.159-.183C8.885 67.198 4.66 62.576 4.66 57.057H1.165c0 5.52 4.227 10.141 9.898 11.34zM11.424 25.956L7.767 20.74 6.532 18.98l-3.306-1.653a.59.59 0 0 0-.745.861l1.793 2.55 3.656 5.217a4.64 4.64 0 0 0 3.808 1.991h3.493a4.64 4.64 0 0 1-3.807-1.991z"/>
        <path fill="#FFF" d="M15.04 28.416L8.942 42.271 2.231 57.526.1 56.588 6.81 41.333l6.097-13.855z"/>
        <g fill="#6663FF">
            <path d="M35.375 23.382a1.168 1.168 0 0 0-.885 0c-.14.06-.27.142-.384.245a1.226 1.226 0 0 0-.338.827c.002.078.01.156.024.233a.74.74 0 0 0 .07.21c.025.074.06.144.104.21l.14.173c.113.103.243.186.384.245.282.124.603.124.885 0 .141-.06.271-.142.385-.245.05-.055.096-.113.14-.174a.859.859 0 0 0 .104-.21.724.724 0 0 0 .07-.21c.013-.076.02-.154.023-.232a1.226 1.226 0 0 0-.337-.827 1.354 1.354 0 0 0-.385-.245zM9.753 37.54a1.164 1.164 0 0 0 1.559-1.49l-.104-.2a.932.932 0 0 0-.149-.18.79.79 0 0 0-.164-.148 1.604 1.604 0 0 0-.204-.116 1.22 1.22 0 0 0-.893-.023 1.203 1.203 0 0 0-.666 1.513c.06.142.145.27.253.379.104.11.229.2.368.264z"/>
            <path d="M69.815 56.808a1.31 1.31 0 0 0-.047-.212v-.005L57.677 29.11h.45a5.786 5.786 0 0 0 4.761-2.487l6.766-9.653a1.163 1.163 0 0 0-1.474-1.71l-10.41 5.206a4.642 4.642 0 0 1-2.088.494H40.974a7.014 7.014 0 0 0-2.548-2.548v-6.768a3.492 3.492 0 0 0-2.33-3.278V2.33h1.166a1.164 1.164 0 0 0 0-2.328h-4.658a1.164 1.164 0 1 0 0 2.328h1.164v6.037a3.492 3.492 0 0 0-2.329 3.278v6.768a7.014 7.014 0 0 0-2.547 2.548H14.183c-.725 0-1.44-.169-2.088-.494L1.685 15.26a1.164 1.164 0 0 0-1.473 1.71l6.76 9.647a5.79 5.79 0 0 0 4.766 2.493h.45l-1.156 2.63a1.163 1.163 0 0 0 .596 1.535c.394.168.848.105 1.18-.165v22.782H2.95l6.461-14.688a1.164 1.164 0 1 0-2.13-.932L.1 56.591a1.17 1.17 0 0 0-.099.466c0 7.062 6.268 12.808 13.973 12.808 7.704 0 13.972-5.746 13.972-12.808v-.007a1.248 1.248 0 0 0-.048-.242 1.31 1.31 0 0 0-.047-.212v-.005L15.759 29.11h13.98a7.04 7.04 0 0 0 1.7 1.384v3.274a3.493 3.493 0 0 0 2.33 3.279v2.543a1.164 1.164 0 1 0 2.328 0v-2.543a3.493 3.493 0 0 0 2.329-3.28v-3.273a7.053 7.053 0 0 0 1.7-1.384h13.98l-12.09 27.48c-.021.07-.037.142-.046.214-.024.078-.04.158-.049.239v.013c0 7.062 6.268 12.808 13.973 12.808 7.705 0 13.973-5.746 13.973-12.808v-.007a1.297 1.297 0 0 0-.052-.242zm-24.947-.915l9.86-22.408v22.408h-9.86zm12.188-22.408l9.859 22.408h-9.859V33.485zM34.933 29.11a4.658 4.658 0 1 1 0-9.315 4.658 4.658 0 0 1 0 9.315zm-1.165-17.466a1.164 1.164 0 0 1 2.329 0v5.927a6.5 6.5 0 0 0-2.329 0v-5.927zm-18.63 21.84l9.859 22.408h-9.859V33.485zm-1.164 34.051c-5.984 0-10.927-4.082-11.572-9.315h23.143c-.645 5.233-5.588 9.315-11.571 9.315zm-.018-40.754h-2.212a3.465 3.465 0 0 1-2.854-1.495l-4.131-5.886 6.295 3.145a6.95 6.95 0 0 0 3.129.744h13.868a6.74 6.74 0 0 0 .303 3.492H13.956zm22.14 6.987a1.164 1.164 0 1 1-2.328 0v-2.433c.77.14 1.56.14 2.329 0v2.433zm5.718-10.48h13.868a6.954 6.954 0 0 0 3.129-.74l6.296-3.143-4.13 5.892a3.457 3.457 0 0 1-2.85 1.484H41.512a6.74 6.74 0 0 0 .303-3.492zm14.078 44.247c-5.984 0-10.927-4.082-11.572-9.315h23.143c-.645 5.233-5.587 9.315-11.571 9.315z"/>
            <path d="M8.151 60.55H6.987a1.164 1.164 0 1 0 0 2.329h1.164a1.164 1.164 0 1 0 0-2.329zM11.645 61.714c0 .644.521 1.165 1.164 1.165h6.987a1.164 1.164 0 0 0 0-2.329h-6.987c-.643 0-1.164.521-1.164 1.164zM50.07 60.55h-1.165a1.165 1.165 0 0 0 0 2.329h1.165a1.164 1.164 0 0 0 0-2.329zM53.563 61.714c0 .644.521 1.165 1.164 1.165h6.987a1.164 1.164 0 0 0 0-2.329h-6.987c-.643 0-1.164.521-1.164 1.164z"/>
        </g>
    </g>
</svg>
