<svg xmlns="http://www.w3.org/2000/svg" width="70" height="70" viewBox="0 0 70 70">
    <g fill="none" fill-rule="nonzero">
        <g fill="#E3E7F2">
            <path d="M11.327 44.716l1.166 3.086-1.166 2.026a14.39 14.39 0 0 1-6.86-4.494l1.026-2.19 2.357-1.187a10.92 10.92 0 0 0 3.477 2.76zM15.375 29.218l-.548 4.611-3.617.932a14.086 14.086 0 0 1-5.087-7.918l2.87-2.329 5.448 2.329c.22.825.533 1.622.934 2.375z"/>
            <path d="M14.441 26.843H6.123a17.611 17.611 0 0 1 .105-7.871c.479.803 3.034-.734 3.932-.28 1.843.92 2.193 2.876 3.978 1.747.168 0 .335-.012.502-.035a10.825 10.825 0 0 0-.199 6.439z"/>
            <path d="M26.318 10.541s-3.01 9.234-11.678 9.863a3.518 3.518 0 0 1-.502.035l2.637-7.883c6.125.582 9.543-2.015 9.543-2.015z"/>
            <path d="M16.775 12.556a5.89 5.89 0 0 1-.35 5.507 6.706 6.706 0 0 1-1.645 1.91v.011c-.21.163-.42.315-.642.455a5.958 5.958 0 0 1-5.833.454 5.023 5.023 0 0 1-2.077-1.921 5.89 5.89 0 0 1 .14-5.939c.129-.21.257-.407.397-.593-.012-.012 0-.024.012-.024.921-1.944 4.305-7.534 13.871-11.178a40.351 40.351 0 0 0-5.063 9.722c.51.438.916.983 1.19 1.596zM19.447 34.097a25.951 25.951 0 0 0-1.996 4.087 21.443 21.443 0 0 1-6.241-3.423l4.165-5.543a16.398 16.398 0 0 0 4.072 4.88zM7.85 41.957l-3.384 3.377C.091 39.826 3.16 32.664 3.16 32.664a25.542 25.542 0 0 0 4.69 9.293zM17.078 51.144a29.455 29.455 0 0 1-5.751-1.316v-5.112a8.131 8.131 0 0 0 4.666.757c.003 1.941.37 3.865 1.085 5.671zM21.43 57.478a15.713 15.713 0 0 1-8.937 2.631l-1.166-2.992 1.166-1.781a9.639 9.639 0 0 0 5.822-1.677 17.653 17.653 0 0 0 3.115 3.819z"/>
            <path d="M12.493 55.336v4.773c-7.14-.36-10.348-7.475-10.5-7.813a25.2 25.2 0 0 0 10.5 3.04zM27.998 61.519a12.24 12.24 0 0 1-4.456 5.46l-2.882-.547-.397-2.724a12.246 12.246 0 0 0 3.489-4.378 20.311 20.311 0 0 0 4.246 2.189z"/>
            <path d="M23.542 66.98c-5.075 3.272-11.27 1.047-11.27 1.047 2.889-.979 5.591-2.44 7.991-4.32l3.279 3.272zM65.53 45.334a14.39 14.39 0 0 1-6.86 4.494l-1.155-2.026 1.155-3.086a10.926 10.926 0 0 0 3.477-2.76l2.368 1.188 1.015 2.19zM63.885 26.843a14.086 14.086 0 0 1-5.087 7.918l-2.45-2.096-1.715-3.447c.4-.755.717-1.552.945-2.375l4.27-2.329 4.037 2.329z"/>
            <path d="M63.885 26.843h-8.307a10.932 10.932 0 0 0-.21-6.44c.167.024.334.036.502.036 1.785 1.129 2.135-1.991 3.978-2.911.898-.454 3.453 2.247 3.932 1.444.628 2.582.665 5.273.105 7.87zM57.503 55.336l1.179 2.946-1.179 1.827a15.71 15.71 0 0 1-8.936-2.631 17.718 17.718 0 0 0 3.126-3.807 9.595 9.595 0 0 0 5.81 1.665z"/>
            <path d="M68.003 52.296c-.152.338-3.36 7.452-10.5 7.813v-4.773a25.196 25.196 0 0 0 10.5-3.04zM55.87 20.439a3.51 3.51 0 0 1-.502-.035C46.7 19.774 43.69 10.54 43.69 10.54s3.418 2.597 9.543 2.015l2.637 7.883z"/>
            <path d="M63.78 18.972a5.025 5.025 0 0 1-2.077 1.92 5.958 5.958 0 0 1-5.833-.453 7.944 7.944 0 0 1-.642-.455v-.01a6.708 6.708 0 0 1-1.645-1.91 5.892 5.892 0 0 1-.35-5.508 4.551 4.551 0 0 1 1.19-1.596 40.351 40.351 0 0 0-5.063-9.722c9.566 3.644 12.95 9.234 13.871 11.178.012 0 .024.012.012.024.14.186.269.384.397.593a5.89 5.89 0 0 1 .14 5.939zM58.798 34.76a21.436 21.436 0 0 1-6.241 3.424 25.951 25.951 0 0 0-1.996-4.087 16.398 16.398 0 0 0 4.072-4.879l4.165 5.543zM58.67 44.716v5.112a30.065 30.065 0 0 1-5.728 1.316 15.705 15.705 0 0 0 1.073-5.67 8.092 8.092 0 0 0 4.655-.758zM65.53 45.334l-3.383-3.377a25.558 25.558 0 0 0 4.69-9.292s3.068 7.16-1.307 12.669zM49.733 63.708l-.385 2.724-2.893.547a12.201 12.201 0 0 1-4.457-5.449 20.373 20.373 0 0 0 4.247-2.2 11.998 11.998 0 0 0 3.488 4.378z"/>
            <path d="M57.725 68.027s-6.195 2.225-11.27-1.048l3.278-3.271c2.4 1.88 5.102 3.34 7.992 4.32z"/>
        </g>
        <path fill="#A4C2F7" d="M54.832 45.45v.023a15.705 15.705 0 0 1-1.074 5.671c-.345.875-.762 1.72-1.248 2.527a17.736 17.736 0 0 1-3.127 3.807c-.721.68-1.498 1.3-2.321 1.852a20.373 20.373 0 0 1-4.247 2.2 22.075 22.075 0 0 1-7.817 1.41 19.93 19.93 0 0 1-2.917-.2 20.783 20.783 0 0 1-4.911-1.221 19.679 19.679 0 0 1-6.568-4.041 17.653 17.653 0 0 1-3.115-3.82c-.491-.797-.906-1.639-1.237-2.514a15.458 15.458 0 0 1-1.085-5.67v-.024c.039-2.49.533-4.953 1.458-7.266a25.951 25.951 0 0 1 1.995-4.087 25.086 25.086 0 0 1 5.693-6.625h.012a18.98 18.98 0 0 1 2.952-2.026l.023-.012a16.267 16.267 0 0 1 4.783-1.781c.96-.201 1.937-.303 2.917-.303 2.694.026 5.337.74 7.677 2.072l.046.024a20.292 20.292 0 0 1 2.987 2.05 25.12 25.12 0 0 1 5.67 6.601 25.902 25.902 0 0 1 1.995 4.087 20.416 20.416 0 0 1 1.459 7.266z"/>
        <path fill="#E3E7F2" d="M48.998 45.45v.023a15.694 15.694 0 0 1-1.073 5.671c-.345.875-.763 1.72-1.248 2.527a17.72 17.72 0 0 1-3.127 3.807c-.721.68-1.498 1.3-2.322 1.852a20.373 20.373 0 0 1-4.247 2.2 21.08 21.08 0 0 1-4.9 1.21 20.783 20.783 0 0 1-4.911-1.221 19.679 19.679 0 0 1-6.568-4.041 17.653 17.653 0 0 1-3.115-3.82c-.491-.797-.906-1.639-1.237-2.514a15.458 15.458 0 0 1-1.085-5.67v-.024c.039-2.49.533-4.953 1.458-7.266a25.951 25.951 0 0 1 1.995-4.087 25.086 25.086 0 0 1 5.693-6.625h.012a18.98 18.98 0 0 1 2.952-2.026l.023-.012a16.267 16.267 0 0 1 4.783-1.781c1.67.338 3.276.935 4.76 1.77l.047.023a20.287 20.287 0 0 1 2.987 2.05 25.11 25.11 0 0 1 5.67 6.601 25.902 25.902 0 0 1 1.995 4.087 20.404 20.404 0 0 1 1.458 7.266z"/>
        <path fill="#E3E7F2" d="M27.298 25.434a2.82 2.82 0 0 0 .42-3.086c-.805-1.397-3.033-1.607-4.993-.488-1.96 1.117-2.882 3.166-2.077 4.564a3.167 3.167 0 0 0 3.675 1.048l2.975-2.038zM45.708 27.495a3.128 3.128 0 0 0 3.652-1.037c.805-1.397-.117-3.434-2.077-4.564s-4.188-.908-4.993.49c-.48 1-.33 2.189.385 3.038l3.033 2.073z"/>
        <path fill="#FFF" d="M18.665 53.624a9.1 9.1 0 0 1-3.461 1.178c.57.07 1.145.11 1.72.117M15.757 49.413a15.007 15.007 0 0 1-6.86-5.104c-1.804-2.272-2.87.705-3.066-4.658-1.722-3.092-3.5-6.076-3.5-6.076s-1.308 7 3.067 12.509c1.4 1.77 3.57 2.2 6.86 3.33a28.306 28.306 0 0 0 4.923 1.315M14.71 34.76a14.086 14.086 0 0 1-5.087-7.917 17.604 17.604 0 0 1 .105-7.871 5.89 5.89 0 0 1 .14-5.939c.128-.21.257-.407.397-.593-.012-.012 0-.024.011-.024.736-1.551 3.047-5.416 8.798-8.768.832-1.36 1.487-2.283 1.574-2.41-9.566 3.644-12.95 9.234-13.871 11.178-.012 0-.024.012-.012.024-.14.186-.268.384-.397.593a5.89 5.89 0 0 0-.14 5.939 17.611 17.611 0 0 0-.105 7.87 14.086 14.086 0 0 0 5.087 7.919c1.447 1.18 4.03 1.663 6.288 2.561-.038.097.038-.096 0 0-.866 2.244-1.09-.995-1.167 1.165M12.493 60.11c.795.038 1.592-.004 2.378-.125a12.565 12.565 0 0 1-8.258-5.72 28.439 28.439 0 0 1-4.62-1.969c.152.338 3.36 7.452 10.5 7.813zM25.576 12.265c.283-.559.53-1.135.742-1.724a12.81 12.81 0 0 1-6.047 2.008v.007c1.773.18 3.563.081 5.305-.291zM24.148 26.424c-.805-1.398.129-3.435 2.077-4.564a5.52 5.52 0 0 1 .667-.32 4.344 4.344 0 0 0-4.167.32c-1.949 1.129-2.882 3.166-2.077 4.564a3.162 3.162 0 0 0 3.66 1.048 24.222 24.222 0 0 0-3.897 4.033M22.27 58.846c.217.162.43.328.653.484.201.134.424.244.63.373a12.548 12.548 0 0 1-3.29 4.005 27.028 27.028 0 0 1-7.991 4.32c2.09.662 4.299.878 6.48.633a14.628 14.628 0 0 1-2.98-.634c2.889-.979 5.59-2.44 7.991-4.32M30.977 62.571c.365.065.732.125 1.104.17a19.93 19.93 0 0 0 2.917.198c.584 0 1.158-.033 1.728-.078a19.89 19.89 0 0 1-1.144-.116 20.678 20.678 0 0 1-4.2-.976c-.133.275-.266.545-.405.802z"/>
        <path fill="#FFF" d="M20.248 2.314a26.56 26.56 0 0 0-11.747 8.191 14.392 14.392 0 0 0-1.494 2.405l-2.109-.994a16.597 16.597 0 0 1 1.74-2.814A28.845 28.845 0 0 1 19.415.14l.833 2.175z"/>
        <path fill="#6663FF" d="M28.746 28.654c-.467.275-.947.583-1.412.921a19.413 19.413 0 0 0-2.587 2.257 1.163 1.163 0 0 0 .539 1.974c.416.098.852-.039 1.137-.357.36-.368.73-.722 1.112-1.055.383-.334.77-.644 1.167-.932a15.63 15.63 0 0 1 1.215-.793 1.164 1.164 0 1 0-1.173-2.013l.002-.002zM29.494 56.175a14.905 14.905 0 0 1-3.469-1.783 12.744 12.744 0 0 1-2.688-2.5 11.645 11.645 0 0 1-1.273-1.976 10.627 10.627 0 0 1-.46-1.06 9.88 9.88 0 0 1-.54-2.238c-.045-.389-.066-.78-.066-1.171 0-.442.027-.883.077-1.321a15.35 15.35 0 0 1 .606-2.767c.146-.467.316-.943.507-1.411.192-.468.405-.931.636-1.397a1.163 1.163 0 0 0-1.112-1.69c-.419.025-.79.273-.975.649a21.989 21.989 0 0 0-.71 1.562c-.213.525-.408 1.06-.574 1.592-.168.532-.31 1.073-.425 1.604a15.585 15.585 0 0 0-.363 3.179 12.318 12.318 0 0 0 .34 2.856c.225.919.552 1.81.977 2.656a13.41 13.41 0 0 0 1.53 2.385c.298.374.615.733.95 1.074a15.565 15.565 0 0 0 2.229 1.882c.408.281.822.548 1.256.796.434.248.882.48 1.343.692.46.212.933.405 1.419.582a1.167 1.167 0 0 0 1.547-.895 1.165 1.165 0 0 0-.758-1.297l-.004-.003zM41.46 31.46c.4.29.79.603 1.167.931.377.329.752.687 1.112 1.056a1.169 1.169 0 0 0 1.619-.003c.45-.435.476-1.148.057-1.614-.403-.418-.82-.816-1.252-1.192a18.711 18.711 0 0 0-1.335-1.065c-.455-.33-.926-.637-1.412-.92a1.168 1.168 0 0 0-1.573.436 1.163 1.163 0 0 0 .405 1.58c.398.232.808.499 1.212.79zM50.182 50.959a12.11 12.11 0 0 0 .979-2.65c.227-.936.341-1.896.342-2.858a14.22 14.22 0 0 0-.092-1.581 16.066 16.066 0 0 0-.266-1.601 19.288 19.288 0 0 0-1-3.195c-.216-.53-.45-1.048-.71-1.563a1.166 1.166 0 1 0-2.087 1.041c.234.466.445.932.637 1.397a17.146 17.146 0 0 1 .88 2.807c.1.453.178.91.233 1.37.05.438.075.88.076 1.32a9.815 9.815 0 0 1-.611 3.41 10.728 10.728 0 0 1-1.037 2.074c-.213.332-.444.653-.69.961a12.416 12.416 0 0 1-1.697 1.739c-.315.267-.648.522-.992.764-.344.24-.706.465-1.079.682-.373.216-.76.413-1.158.597-.398.184-.817.35-1.232.502a1.164 1.164 0 1 0 .79 2.191 17.662 17.662 0 0 0 2.76-1.274 16.572 16.572 0 0 0 2.424-1.69 14.694 14.694 0 0 0 2.011-2.062c.297-.371.574-.757.831-1.157.25-.396.48-.804.688-1.224zM11.57 6.856c.295.023.59-.059.83-.233.235-.185.39-.454.432-.75V5.65a.955.955 0 0 0-.04-.233.735.735 0 0 0-.065-.21 1.904 1.904 0 0 0-.117-.203 1.157 1.157 0 0 0-.76-.465 1.233 1.233 0 0 0-1.348 1.048 1.16 1.16 0 0 0 .054.454c.044.146.117.28.215.397.207.231.49.38.798.418z"/>
        <path fill="#6663FF" d="M69.918 52.666c.008-.024.018-.046.025-.07a1.151 1.151 0 0 0-.292-1.128.83.83 0 0 0-.082-.054.924.924 0 0 0-.117-.08 1.116 1.116 0 0 0-.27-.138 1.073 1.073 0 0 0-.147-.028 1.181 1.181 0 0 0-.28-.026c-.062.007-.123.02-.183.037a1.149 1.149 0 0 0-.247.077c-.02.011-.044.01-.064.02-.375.21-8.807 4.774-14.203 1.963.18-.35.35-.699.505-1.056a30.307 30.307 0 0 0 5.229-1.251c.077-.018.152-.044.223-.077a15.705 15.705 0 0 0 7.16-4.697c.413-.503.784-1.04 1.108-1.604 3.233-5.692.56-12.074.445-12.342a1.183 1.183 0 0 0-1.167-.699c-.499.04-.916.393-1.038.878-.033.124-3.119 11.898-10.56 11.985a21.559 21.559 0 0 0-1.118-5.51 22.087 22.087 0 0 0 5.47-3.174l.007-.008a15.316 15.316 0 0 0 5.391-8.294c.097-.166.15-.354.155-.547 0-.02-.01-.038-.011-.057.514-2.537.5-5.154-.042-7.685.157-.307.289-.627.394-.955a7.27 7.27 0 0 0-.746-5.694 6.211 6.211 0 0 0-.396-.605l-.03-.05C63.887 9.436 60.263 3.834 50.57.14a1.164 1.164 0 1 0-1.363 1.77 40.738 40.738 0 0 1 4.686 8.739c-.214.247-.41.51-.583.789a13.197 13.197 0 0 1-8.098-1.827 1.168 1.168 0 0 0-1.815 1.28c.132.404 3.183 9.405 11.872 10.569a9.813 9.813 0 0 1-.805 7.144l-.028.05a14.267 14.267 0 0 1-2.835 3.684 27.423 27.423 0 0 0-3.108-3.817 3.444 3.444 0 0 0 1.878-1.492c1.143-1.98.042-4.684-2.502-6.151a5.84 5.84 0 0 0-4.37-.721 3.577 3.577 0 0 0-2.216 1.63 3.35 3.35 0 0 0-.452 1.535 15.56 15.56 0 0 0-11.66 0 3.308 3.308 0 0 0-.444-1.549c-1.137-1.98-4.028-2.379-6.59-.917-2.542 1.475-3.642 4.176-2.5 6.158a3.511 3.511 0 0 0 1.893 1.492 27.5 27.5 0 0 0-3.137 3.842 14.272 14.272 0 0 1-2.817-3.652c-.018-.033-.034-.066-.055-.1a10.56 10.56 0 0 1-.829-2.207 9.738 9.738 0 0 1 .041-4.919c8.69-1.164 11.74-10.165 11.872-10.568a1.164 1.164 0 0 0-.43-1.315 1.169 1.169 0 0 0-1.386.024 13.145 13.145 0 0 1-8.116 1.828 6.122 6.122 0 0 0-.583-.79 40.762 40.762 0 0 1 4.686-8.74 1.162 1.162 0 0 0-.263-1.63 1.151 1.151 0 0 0-1.09-.12l-.008-.02a38.077 38.077 0 0 0-4.377 2.01 1.142 1.142 0 0 0-.457 1.597 1.2 1.2 0 0 0 1.572.448c.188-.105.387-.187.583-.288a33.718 33.718 0 0 0-3.088 6.711c-.135.436-.002.91.34 1.213a4.468 4.468 0 0 1 .603 5.652c-1.25 2.375-4.11 3.406-6.59 2.375a3.878 3.878 0 0 1-1.984-2.377 4.94 4.94 0 0 1 .534-3.863c.093-.162.196-.317.31-.465.036-.046.069-.095.098-.147.018-.031.02-.07.036-.102l.014.007c.417-.849.917-1.654 1.493-2.405.22-.29.451-.574.687-.853a1.194 1.194 0 0 0-.104-1.618 1.148 1.148 0 0 0-1.671.106c-.266.315-.524.635-.775.962a16.714 16.714 0 0 0-1.682 2.707c-.008.014-.025.023-.033.039a6.087 6.087 0 0 0-.396.604 7.274 7.274 0 0 0-.746 5.695c.104.328.236.648.394.955a18.846 18.846 0 0 0-.04 7.699c0 .015-.008.028-.008.043.004.187.055.371.147.534 1.038 4.108 3.912 8.602 10.877 11.479a21.525 21.525 0 0 0-1.117 5.512C6.567 44.296 3.498 32.507 3.463 32.382a1.167 1.167 0 0 0-1.04-.882 1.186 1.186 0 0 0-1.166.699c-.117.27-2.79 6.651.443 12.343.326.565.697 1.102 1.111 1.606a15.699 15.699 0 0 0 7.162 4.698c.071.033.145.058.22.076 1.707.573 3.461.993 5.242 1.254.156.355.323.705.502 1.048-5.398 2.824-13.834-1.746-14.21-1.955-.017-.009-.037-.009-.054-.017a1.136 1.136 0 0 0-.31-.098 1.073 1.073 0 0 0-.117-.02 1.112 1.112 0 0 0-.34.03c-.026.015-.057.015-.091.026-.103.036-.2.086-.29.148-.04.022-.079.047-.116.074-.026.021-.059.031-.083.056-.184.186-.299.43-.324.69a.715.715 0 0 0 0 .067 1.177 1.177 0 0 0 .066.456c.014.04.018.078.035.116.27.594 2.834 6.102 8.47 7.93 1.187.386 2.429.583 3.678.582a17.017 17.017 0 0 0 8.221-2.418c.314.269.633.53.965.78-2.765 4.804-10.267 7.225-10.345 7.25a1.165 1.165 0 0 0-.042 2.207c1.665.519 3.4.78 5.144.777 4.9.172 9.438-2.56 11.571-6.966a23.046 23.046 0 0 0 14.447 0 12.369 12.369 0 0 0 11.574 6.957c1.745.004 3.48-.258 5.145-.777a1.164 1.164 0 0 0-.044-2.212c-.08-.024-7.568-2.431-10.34-7.242.332-.25.653-.513.968-.783a17.016 17.016 0 0 0 8.22 2.427 11.86 11.86 0 0 0 3.67-.574c5.465-1.771 8.05-7.014 8.44-7.87.03-.063.055-.13.073-.2zm-12.765 3.78v2.5a14.718 14.718 0 0 1-5.866-1.746c.56-.619 1.08-1.274 1.553-1.96a10.61 10.61 0 0 0 4.313 1.206zm-1.227-9.739a9.284 9.284 0 0 0 2.394-.303v2.57c-.95.285-1.913.518-2.887.699.253-.972.418-1.964.493-2.966zm11.53-9.935a10.98 10.98 0 0 1-1.204 6.63c-.022.04-.053.074-.077.116l-1.633-1.63a24.19 24.19 0 0 0 2.914-5.116zm-4.458 6.868l1.73 1.727A13.062 13.062 0 0 1 60.65 48.1v-2.678a11.86 11.86 0 0 0 2.348-1.782zm-3.21-10.596l-2.985-3.974c.156-.344.3-.7.433-1.067h5.879a13 13 0 0 1-3.323 5.046l-.003-.005zm.314-10.432a6.556 6.556 0 0 0 2.936-.68c.277-.149.542-.318.794-.505a15.689 15.689 0 0 1-.116 4.247h-5.897c.163-1.147.156-2.31-.02-3.455a7.39 7.39 0 0 0 2.307.397l-.004-.004zM53.245 3.868c6.65 3.423 9.1 7.671 9.744 9.042.015.032.032.064.051.095.028.052.06.1.097.147.114.148.218.303.31.466.7 1.16.893 2.555.534 3.86a3.878 3.878 0 0 1-1.985 2.378 5.194 5.194 0 0 1-6.588-2.373 4.469 4.469 0 0 1 .603-5.652c.342-.303.474-.779.337-1.215a33.76 33.76 0 0 0-3.103-6.748zm-6.3 9.12c1.78.566 3.64.839 5.506.808a7.325 7.325 0 0 0 .924 4.84 12.834 12.834 0 0 1-6.424-5.65l-.006.002zm8.6 18.297l2.437 3.243a20.601 20.601 0 0 1-3.983 2.162c-.35-.786-.731-1.563-1.157-2.329a18.084 18.084 0 0 0 2.71-3.076h-.006zm-12.25-8.322c.186-.28.473-.477.802-.547a3.56 3.56 0 0 1 2.597.487c1.488.858 2.063 2.256 1.646 2.98-.315.554-1.225.75-2.232.505a22.306 22.306 0 0 0-2.545-1.747 1.666 1.666 0 0 1-.262-1.678h-.005zm-19.997-.093c1.494-.852 2.994-.653 3.406.066a1.67 1.67 0 0 1-.3 1.722 22.192 22.192 0 0 0-2.489 1.706c-.787.308-1.681.1-2.252-.52-.416-.718.161-2.116 1.64-2.974h-.005zm-.257-9.884a12.835 12.835 0 0 1-6.432 5.65 7.322 7.322 0 0 0 .925-4.838 17.17 17.17 0 0 0 5.513-.812h-.006zm-16.086 8.95a6.532 6.532 0 0 0 2.935.68 7.372 7.372 0 0 0 2.308-.392 11.815 11.815 0 0 0-.021 3.455H6.273a15.69 15.69 0 0 1-.117-4.247c.253.188.52.356.799.504zm-.074 6.071h5.88c.13.37.276.727.436 1.073l-2.989 3.972a12.992 12.992 0 0 1-3.327-5.045zm5.134 6.52l2.433-3.236a18.023 18.023 0 0 0 2.703 3.074c-.426.76-.817 1.537-1.157 2.328a20.618 20.618 0 0 1-3.98-2.165zm-9.48 2.26a24.227 24.227 0 0 0 2.908 5.1l-1.633 1.63c-.021-.034-.048-.064-.068-.098a10.974 10.974 0 0 1-1.207-6.633zm2.72 8.581l1.728-1.725c.705.69 1.494 1.29 2.349 1.785v2.678a13.038 13.038 0 0 1-4.077-2.739v.001zm6.41 3.607v-2.57a9.275 9.275 0 0 0 2.406.302c.074 1.004.24 1.998.493 2.972a27.606 27.606 0 0 1-2.9-.704zm7.04 8.22a14.71 14.71 0 0 1-5.873 1.751v-2.498a10.607 10.607 0 0 0 4.322-1.215c.473.687.99 1.343 1.55 1.962zm-14.45-2.233a23.77 23.77 0 0 0 6.243 1.469v2.386a9.341 9.341 0 0 1-1.203-.302 11.232 11.232 0 0 1-5.04-3.553zm11.243 12.635a25.74 25.74 0 0 0 3.836-2.343l1.44 1.435a11.46 11.46 0 0 1-5.276.908zm7.324-2.156l-1.698-1.694a13.39 13.39 0 0 0 2.247-2.777c.715.418 1.453.795 2.21 1.13a10.9 10.9 0 0 1-2.76 3.341zm-6.49-19.994c.033-2.292.472-4.56 1.296-6.7a.46.46 0 0 0 .11-.293 24.559 24.559 0 0 1 1.75-3.59c.011-.011.028-.016.038-.029.07-.092.124-.195.162-.304a24.123 24.123 0 0 1 5.25-6.088c.074-.047.142-.101.203-.163a19.33 19.33 0 0 1 2.735-1.837c.01 0 .022-.01.032-.017a14.782 14.782 0 0 1 7.09-1.912c2.475.03 4.903.681 7.059 1.894l.017.009c1 .55 1.948 1.187 2.835 1.903.052.051.108.097.17.137a24.138 24.138 0 0 1 5.235 6.07c.039.11.093.212.162.305.011.012.027.017.038.029a24.614 24.614 0 0 1 1.744 3.59.459.459 0 0 0 .116.293 19.424 19.424 0 0 1 1.29 6.703c0 9.002-8.373 16.327-18.666 16.327-10.292 0-18.667-7.325-18.667-16.327zm32.87 21.252l1.448-1.445a25.846 25.846 0 0 0 3.857 2.353 11.418 11.418 0 0 1-5.305-.908zm-.342-2.952l-1.702 1.699a10.907 10.907 0 0 1-2.753-3.343c.758-.334 1.496-.71 2.21-1.128a13.413 13.413 0 0 0 2.245 2.772zm11.825-5.232a9.102 9.102 0 0 1-1.198.3V56.43c2.137-.205 4.237-.7 6.241-1.469a11.212 11.212 0 0 1-5.043 3.555z"/>
    </g>
</svg>
