<svg xmlns="http://www.w3.org/2000/svg" width="70" height="70" viewBox="0 0 70 70">
    <g fill="none" fill-rule="nonzero">
        <path fill="#D4E1F4" d="M53.247 47.46c1.76.253 3.571-.014 5.114-.754 2.282-.96 3.835-2.38 3.926-3.5l-2.032-1.528a10.108 10.108 0 0 0-4.447.866 9.484 9.484 0 0 0-2.933 1.843h-.014l.386 3.073z"/>
        <path fill="#A4C2F7" d="M60.182 40.42a8.911 8.911 0 0 1 1.162-2.677 10.399 10.399 0 0 1 2.011-2.061c.515-.38.976-.808 1.373-1.275a4.656 4.656 0 0 0 .807-1.567 4.812 4.812 0 0 0 .23-2.143l.059.338a24.41 24.41 0 0 1-.122 10.417l.05-.233c-.01.08-.026.157-.05.233-.21.826-.942 1.495-1.918 1.749s-2.042.054-2.789-.522c-.747-.577-1.058-1.441-.813-2.26 0 0 .02-.08.076-.225l-.076.225z"/>
        <path fill="#D4E1F4" d="M44.907 56.61c.927 1.258 2.363 2.206 4.056 2.676 2.38.783 4.699.817 5.78.13l.059-2.267c-.979-.992-2.264-1.749-3.72-2.189a11.216 11.216 0 0 0-3.615-.604v-.01l-2.56 2.264z"/>
        <path fill="#A4C2F7" d="M55.901 56.274a13.772 13.772 0 0 1 3.208-1.042 14.32 14.32 0 0 1 3.208-.109c.686.069 1.38.072 2.067.012a7.206 7.206 0 0 0 1.963-.532 7.114 7.114 0 0 0 2.107-1.27c-.088.088-.179.175-.269.26-2.683 2.713-5.93 5.011-9.592 6.786l.243-.116a2.055 2.055 0 0 1-.243.116c-1.37.581-3.052.151-3.784-.967-.733-1.117-.246-2.512 1.095-3.138 0 0 .088-.039.256-.1l-.259.1z"/>
        <path fill="#D4E1F4" d="M25.023 56.61c-.927 1.258-2.363 2.206-4.056 2.676-2.38.783-4.7.817-5.78.13l-.059-2.267c.979-.992 2.264-1.749 3.72-2.189 1.145-.395 2.374-.6 3.615-.604v-.01l2.56 2.264z"/>
        <path fill="#A4C2F7" d="M14.028 56.274a13.752 13.752 0 0 0-3.207-1.042 14.314 14.314 0 0 0-3.208-.109c-.686.069-1.38.072-2.068.012a7.195 7.195 0 0 1-1.962-.532 7.106 7.106 0 0 1-2.107-1.27c.088.088.178.175.269.26 2.683 2.713 5.93 5.011 9.591 6.786l-.242-.116c.077.043.158.082.242.116 1.371.581 3.053.151 3.785-.967.733-1.117.245-2.512-1.095-3.138 0 0-.088-.039-.256-.1l.258.1z"/>
        <path fill="#D4E1F4" d="M16.682 47.46c-1.759.253-3.57-.014-5.113-.754-2.282-.96-3.835-2.38-3.926-3.5l2.032-1.528c1.55-.048 3.086.251 4.447.866a9.499 9.499 0 0 1 2.933 1.843h.014l-.387 3.073z"/>
        <path fill="#A4C2F7" d="M9.748 40.42a8.893 8.893 0 0 0-1.162-2.677 10.399 10.399 0 0 0-2.011-2.061 8.172 8.172 0 0 1-1.373-1.275 4.67 4.67 0 0 1-.808-1.567 4.803 4.803 0 0 1-.228-2.143c-.022.117-.04.225-.06.338a24.41 24.41 0 0 0 .122 10.417l-.05-.233c.01.08.026.157.05.233.209.826.942 1.495 1.918 1.749s2.042.054 2.789-.522c.746-.577 1.057-1.441.813-2.26 0 0-.02-.08-.077-.225l.077.225z"/>
        <path fill="#E3E7F2" d="M29.676 1.158s-7.686 11.254-4.765 12.274c1.824.635 4.368-1.593 5.727-2.982a12.16 12.16 0 0 1-.695 5.155c-1.727 3.363-6.048 5.073-9.646 3.817-3.6-1.255-5.116-5.002-3.39-8.365 1.728-3.362 12.77-9.899 12.77-9.899z"/>
        <path fill="#A4C2F7" d="M17.725 17.753c-1.314.97-2.339 2.177-2.994 3.528-.804 1.447-1.127 3.044-.933 4.628l4.827.899v-.011c1.132-.921 2.025-2.023 2.623-3.239a8.404 8.404 0 0 0 1.018-3.748l-4.54-2.057z"/>
        <path fill="#D4E1F4" d="M19.04 32.04c.323-.78.467-1.604.425-2.427a5.488 5.488 0 0 0-.835-2.811c-.466-.995-1.584-1.68-2.873-1.762-.77.045-1.481.36-1.954.863v.012c-1.02 1.113-1.517 2.493-1.401 3.885.085 2.438 1.571 4.387 3.383 4.561l3.256-2.321z"/>
        <path fill="#A4C2F7" d="M42.778 38.34c.008 0 .014-.005.014-.012a.039.039 0 0 1 .015-.035c.14-.232.254-.474.34-.723.21-.507.316-1.04.31-1.575 0-1.878-2.745-4.725-5.123-6.825a54.83 54.83 0 0 0-2.407-2.019c-.534-.431-1.39-.431-1.925 0a55.253 55.253 0 0 0-2.406 2.019c-2.378 2.1-5.124 4.947-5.124 6.825a4.079 4.079 0 0 0 .297 1.54c0 .011.014.023.014.035.086.25.2.491.34.723a.04.04 0 0 1 .014.035v.012h15.641z"/>
        <path fill="#A4C2F7" d="M27.137 38.352c.004-.003.007-.008.007-.012 0-.005-.003-.009-.007-.012a.04.04 0 0 0-.014-.035c-.099-.233-.212-.478-.34-.723a10.527 10.527 0 0 0-1.627-2.229c-1.44-1.713-3.634-2.897-6.115-3.301a3.56 3.56 0 0 0-2.152.466c-.667.464-1.067 1.137-1.104 1.855-.023 1.993.832 3.925 2.406 5.437 2.18 2.299 5.054 3.582 7.078 3.267l1.868-4.713z"/>
        <path fill="#E3E7F2" d="M39.292 10.45c1.359 1.389 3.903 3.617 5.727 2.982 2.92-1.02-4.766-12.274-4.766-12.274s11.041 6.533 12.77 9.9c1.727 3.365.207 7.109-3.39 8.364-3.596 1.256-7.919-.454-9.646-3.817a12.16 12.16 0 0 1-.695-5.155z"/>
        <path fill="#A4C2F7" d="M52.204 17.753c1.317.97 2.345 2.177 3.003 3.528.804 1.447 1.126 3.044.932 4.628l-4.827.899v-.011c-1.135-.92-2.03-2.023-2.63-3.239a8.414 8.414 0 0 1-1.019-3.748"/>
        <path fill="#D4E1F4" d="M50.89 32.04a5.613 5.613 0 0 1-.426-2.427 5.63 5.63 0 0 1 .835-2.811c.467-.995 1.585-1.68 2.874-1.762.77.045 1.481.36 1.954.863v.012c1.02 1.113 1.517 2.493 1.4 3.885-.084 2.438-1.57 4.387-3.382 4.561l-3.256-2.321z"/>
        <path fill="#A4C2F7" d="M42.792 38.352a.015.015 0 0 1-.006-.012c0-.005.002-.009.006-.012a.15.15 0 0 1 .029-.07 4.28 4.28 0 0 1 .311-.63.089.089 0 0 1 .014-.058 10.53 10.53 0 0 1 1.628-2.229c1.44-1.713 3.634-2.897 6.115-3.301.818-.098 1.647.102 2.272.547.625.446.984 1.093.984 1.774.023 1.993-.832 3.925-2.406 5.437-2.18 2.299-5.054 3.582-7.078 3.267l-1.869-4.713z"/>
        <path fill="#E3E7F2" d="M36.89 56.936c4.558-1.05 7.984-5.774 7.984-11.444 0-6.44-4.431-11.667-9.909-11.667-5.478 0-9.909 5.226-9.909 11.667 0 5.623 3.383 10.336 7.9 11.433"/>
        <path fill="#A4C2F7" d="M38.376 64.613c1.105-1.367 1.368-3.082.708-4.631-.358-1.17-1.12-2.227-2.194-3.046-.708-.59-1.731-.845-2.717-.676a2.43 2.43 0 0 0-1.218.665c-1.097 1.361-1.354 3.067-.694 4.608.821 2.462 2.987 4.119 4.855 3.734"/>
        <path fill="#D4E1F4" d="M46.458 65.115a10.236 10.236 0 0 0-4.104-.968 11.054 11.054 0 0 0-3.978.466 3.968 3.968 0 0 0-1.26.654c-.333.242-.54.58-.58.944-.099 1.284 2.364 2.45 5.478 2.602a9.843 9.843 0 0 0 4.643-.746"/>
        <path fill="#A4C2F7" d="M25.141 44.127c-.82-.887-2.915-1.26-5.166-.84a8.233 8.233 0 0 0-2.916 1.096c-.885.43-1.388 1.245-1.288 2.089.132.416.457.772.906.991a7.509 7.509 0 0 0 4.558.374c1.519-.217 2.886-.89 3.836-1.89l.07-1.82zM25.708 49.645c-1.855 1.106-3.038 2.821-3.242 4.701v.012c-.195.83.214 1.677 1.048 2.17a2.367 2.367 0 0 0 1.514.082c1.436-.458 2.609-1.346 3.284-2.485l-2.604-4.48zM44.789 44.127c.82-.887 2.915-1.26 5.166-.84a8.225 8.225 0 0 1 2.916 1.096c.885.43 1.387 1.245 1.288 2.089-.132.416-.458.772-.906.991a7.509 7.509 0 0 1-4.558.374c-1.519-.217-2.886-.89-3.836-1.89l-.07-1.82zM44.222 49.645c.978.56 1.774 1.31 2.321 2.182a5.43 5.43 0 0 1 .92 2.52v.011c.196.83-.213 1.677-1.047 2.17a2.369 2.369 0 0 1-1.515.082c-1.435-.458-2.608-1.346-3.283-2.485l2.604-4.48zM48.2 64.2a14.649 14.649 0 0 1 3.44-.191c1.066.117 2.107.352 3.096.7.63.236 1.289.413 1.967.528.685.09 1.383.085 2.066-.016a8.065 8.065 0 0 0 2.476-.682c-.117.061-.235.116-.354.18-3.553 1.913-7.492 3.289-11.63 4.065l.284-.055a2.19 2.19 0 0 1-.283.055c-.999.164-2.027-.126-2.694-.76-.667-.634-.869-1.515-.53-2.306.34-.791 1.168-1.371 2.17-1.519 0 0 .096-.015.283-.031l-.29.031z"/>
        <g fill="#FFF">
            <path d="M22.438 39.798c-1.575-1.512-2.43-3.444-2.406-5.437-1.812-.174-3.299-2.123-3.383-4.561-.117-1.392.38-2.772 1.401-3.885-.194-1.584.128-3.181.933-4.629.655-1.35 1.68-2.557 2.995-3.528l.027.012c-1.723-1.949-2.047-4.508-.85-6.708.73-1.417 3.115-3.398 5.633-5.217 1.411-2.523 2.888-4.687 2.888-4.687s-11.04 6.533-12.768 9.898c-1.197 2.2-.873 4.76.849 6.708l-.027-.011c-1.315.97-2.34 2.177-2.995 3.528-.805 1.447-1.127 3.044-.933 4.628-1.02 1.113-1.517 2.493-1.401 3.885.084 2.439 1.57 4.387 3.383 4.561-.024 1.993.832 3.925 2.406 5.437 2.18 2.299 5.053 3.582 7.078 3.267l.01-.03c-.006.04-.016.078-.023.116M29.161 13.432c.434.136.913.145 1.354.023.113-.999.155-2.002.127-3.005a17.337 17.337 0 0 1-2.124 1.86c.018.553.195.966.643 1.122zM11.336 60.38c1.111.489 2.481.314 3.36-.429-2.595-1.34-4.959-2.964-7.023-4.83h-.06c-.686.068-1.38.072-2.068.012a7.214 7.214 0 0 1-1.962-.532 7.117 7.117 0 0 1-2.107-1.27c.088.088.178.174.269.26 2.682 2.714 5.93 5.013 9.591 6.788zM61.245 64.537a5.836 5.836 0 0 1-1.336.467c.085.024.18.04.267.062l.715-.35c.119-.057.237-.117.354-.179zM10.178 55.15a11.008 11.008 0 0 0-.5-.037c.039 0 .076.017.114.022.133.017.26.009.386.016zM8.474 41.452c-.396-1.499-.6-3.028-.611-4.563a14.057 14.057 0 0 0-1.288-1.207 8.172 8.172 0 0 1-1.373-1.275 4.704 4.704 0 0 1-.808-1.567 4.803 4.803 0 0 1-.228-2.143c-.022.117-.04.225-.06.338a24.41 24.41 0 0 0 .122 10.417c.35 1.255 1.863 2.041 3.387 1.76l.033-.01"/>
            <path d="M30.503 2.105c-2.328 1.4-4.63 2.896-6.811 4.45a50.585 50.585 0 0 0-3.123 2.419c-.935.744-1.73 1.6-2.358 2.537l-2.607-.903a12.962 12.962 0 0 1 2.926-3.247 55.02 55.02 0 0 1 3.305-2.566A105.338 105.338 0 0 1 28.852.21l1.651 1.894z"/>
        </g>
        <path fill="#6663FF" d="M21.85 7.47c.334.033.67-.055.92-.242.25-.186.39-.453.384-.731l-.028-.214a.85.85 0 0 0-.083-.22.799.799 0 0 0-.112-.199 2.141 2.141 0 0 0-.168-.19 1.666 1.666 0 0 0-.937-.421 1.551 1.551 0 0 0-.513.047c-.506.132-.845.522-.836.959.008.149.05.295.123.432.07.14.17.269.297.38.254.217.59.357.952.399zM32.748 41.795a5.52 5.52 0 0 1 4.434 0c.65.358 1.529.213 1.963-.323.433-.536.258-1.26-.392-1.618-2.338-1.135-5.239-1.135-7.576 0-.65.358-.826 1.082-.392 1.618.434.536 1.313.681 1.963.323zM37.182 49.67a5.52 5.52 0 0 1-4.434 0c-.42-.23-.96-.26-1.412-.075-.454.185-.753.555-.786.97-.033.417.207.816.627 1.047 2.325 1.173 5.251 1.173 7.576 0 .65-.358.825-1.082.392-1.618-.434-.537-1.313-.681-1.963-.323zM40.627 45.492c0-.645-.634-1.167-1.416-1.167h-8.493c-.781 0-1.415.522-1.415 1.167 0 .644.634 1.166 1.415 1.166h8.493c.782 0 1.416-.522 1.416-1.166z"/>
        <path fill="#6663FF" d="M22.14 51.271a6.946 6.946 0 0 0-.9 1.972c-1.002.11-1.985.323-2.922.635a12.06 12.06 0 0 0-3.2 1.603 4.276 4.276 0 0 0-.41-.234l-.044-.018a15.341 15.341 0 0 0-3.559-1.143 16.083 16.083 0 0 0-3.59-.13l-.273.016a7.867 7.867 0 0 1-1.488 0 5.497 5.497 0 0 1-1.515-.41 5.92 5.92 0 0 1-1.645-.954l-.03-.028c-.504-.479-1.381-.538-1.974-.132-.591.407-.68 1.128-.201 1.624.028.027.055.054.085.08l.204.198c2.78 2.823 6.158 5.208 9.97 7.04l.016.008c1.615.72 3.61.496 4.933-.554.6.144 1.224.215 1.85.211a13.225 13.225 0 0 0 4.05-.7c1.813-.542 3.384-1.521 4.51-2.81a6.994 6.994 0 0 0 2.427-1.55 10.87 10.87 0 0 0 2.53 1.513 6.03 6.03 0 0 0-.068 4.333c.512 1.926 2.074 3.55 4.233 4.399-.004.67.303 1.316.858 1.805 1.615 1.24 3.739 1.93 5.945 1.932.254.012.507.018.757.018 1.29.014 2.572-.174 3.777-.554a4.889 4.889 0 0 0 2.264.55c.265 0 .53-.02.79-.061 4.337-.796 8.462-2.234 12.173-4.246l.214-.11.108-.054c.659-.348.85-1.07.429-1.613-.422-.543-1.298-.7-1.957-.353l-.044.02a6.777 6.777 0 0 1-1.91.495 5.792 5.792 0 0 1-1.597.013 7.752 7.752 0 0 1-1.415-.377l-.252-.083a15.634 15.634 0 0 0-3.468-.776 16.457 16.457 0 0 0-3.815.198l-.039.007a4.685 4.685 0 0 0-1.72.636c-1.2-.416-2.48-.655-3.78-.707a15.003 15.003 0 0 0-1.733.028 6.556 6.556 0 0 0-.251-3.344 7.606 7.606 0 0 0-1.252-2.263c.827-.386 1.589-.86 2.265-1.41a6.956 6.956 0 0 0 2.446 1.567c1.127 1.291 2.7 2.272 4.514 2.813a13.15 13.15 0 0 0 4.044.694 7.686 7.686 0 0 0 1.85-.21c1.32 1.05 3.316 1.276 4.93.555 3.845-1.85 7.25-4.259 10.05-7.111l.142-.143.076-.072c.48-.496.39-1.218-.201-1.624-.592-.406-1.47-.347-1.975.132l-.032.031a5.98 5.98 0 0 1-1.64.95 5.573 5.573 0 0 1-1.518.412 7.989 7.989 0 0 1-1.486-.006l-.273-.016a16.114 16.114 0 0 0-3.591.13c-1.244.24-2.441.624-3.555 1.14l-.042.017a4.411 4.411 0 0 0-.413.234 12.093 12.093 0 0 0-3.21-1.606 14.065 14.065 0 0 0-2.918-.628c-.43-1.569-1.436-2.99-2.882-4.07.08-.304.15-.612.21-.925.748.328 1.546.571 2.372.722.708.133 1.432.202 2.158.203a8.176 8.176 0 0 0 2.92-.492c.313.043.63.065.947.066a12.267 12.267 0 0 0 4.597-1.005c1.838-.697 3.354-1.865 4.32-3.33 1.831-.135 3.349-1.227 3.757-2.705l.015-.059c.83-3.585.868-7.264.113-10.861l-.031-.18c0-.032-.011-.065-.018-.095-.124-.637-.85-1.07-1.622-.969-.772.102-1.297.7-1.174 1.337l.007.037a3.99 3.99 0 0 1-.212 1.646c-.125.429-.335.838-.623 1.21-.287.336-.62.644-.991.919l-.195.16c-1.857 1.39-3.106 3.246-3.552 5.28l-.007.025c-.03.137-.051.274-.06.412a13.266 13.266 0 0 0-3.58.934 12.35 12.35 0 0 0-2.489 1.392 10.419 10.419 0 0 0-1.858-.621c.749-.53 1.433-1.12 2.042-1.762 1.51-1.52 2.45-3.369 2.704-5.322 2.217-1.153 3.51-3.2 3.384-5.359.092-1.497-.388-2.98-1.375-4.24.103-1.636-.263-3.269-1.065-4.767a11.32 11.32 0 0 0-2.477-3.24c1.388-2.167 1.505-4.737.317-6.983C52.496 7.04 42.242.899 41.077.211a1.295 1.295 0 0 0-.19-.071 1.596 1.596 0 0 0-.283-.107 1.615 1.615 0 0 0-.283-.02 1.655 1.655 0 0 0-.252 0c-.111.019-.22.047-.324.087-.06.012-.121.028-.18.047l-.017.013c-.082.046-.157.1-.225.16-.072.04-.14.087-.202.138 0 0-.013.008-.019.015a.976.976 0 0 0-.089.163 1.087 1.087 0 0 0-.127.233 1.047 1.047 0 0 0-.023.233.915.915 0 0 0 0 .215c.022.09.056.178.104.262.015.052.035.103.059.152 3.114 4.55 5.47 9.365 5.255 10.647-.591-.029-1.973-.71-3.88-2.66-.015-.014-.035-.02-.049-.033a1.326 1.326 0 0 0-.23-.157 1.414 1.414 0 0 0-.206-.117 1.617 1.617 0 0 0-.245-.062 1.562 1.562 0 0 0-.282-.051c-.022 0-.042-.012-.065-.012a1.4 1.4 0 0 0-.17.028 1.6 1.6 0 0 0-.327.054c-.032.01-.06.027-.092.038-.326.089-.587.296-.707.562a.876.876 0 0 0-.04.105.96.96 0 0 0-.089.312c0 .018-.014.032-.014.05-.17 1.9.103 3.811.807 5.627 1.293 2.652 4.225 4.52 7.663 4.884a10.203 10.203 0 0 0 1.032 3.066 11.278 11.278 0 0 0 2.254 3.02 6.934 6.934 0 0 0-.453 4.146c-1.894.59-3.577 1.566-4.892 2.836-1.028-1.764-2.382-3.386-4.013-4.808 1.067-.947 1.69-2.175 1.76-3.466-.08-1.729-1.06-3.345-2.69-4.434-.57-.437-1.463-.413-1.996.056-.534.468-.508 1.204.058 1.646 1.03.65 1.682 1.629 1.796 2.695-.05.655-.358 1.28-.876 1.779-.623-.527-1.132-.933-1.424-1.167-1.078-.875-2.806-.878-3.888-.007-.297.233-.811.647-1.434 1.174-.516-.5-.821-1.125-.87-1.78.113-1.065.764-2.042 1.793-2.693.536-.446.547-1.161.026-1.619-.52-.458-1.387-.494-1.96-.082-1.632 1.088-2.612 2.705-2.69 4.433.072 1.29.7 2.519 1.769 3.464-1.631 1.422-2.985 3.043-4.013 4.806-1.316-1.268-2.999-2.243-4.893-2.832a7.08 7.08 0 0 0 .131-1.589 6.59 6.59 0 0 0-.579-2.56 11.333 11.333 0 0 0 2.25-3.02c.51-.978.858-2.01 1.031-3.065 3.44-.365 6.371-2.233 7.664-4.885.703-1.816.977-3.726.806-5.627 0-.018-.01-.034-.012-.053a1.014 1.014 0 0 0-.055-.215c-.02-.08-.05-.158-.088-.234a1.26 1.26 0 0 0-.089-.108 1.22 1.22 0 0 0-.26-.26c-.01-.005-.013-.014-.022-.019-.008-.005-.057-.02-.082-.036a1.409 1.409 0 0 0-.368-.158 1.63 1.63 0 0 0-.245-.034 1.452 1.452 0 0 0-.215-.03c-.023 0-.04.009-.062.01-.1.009-.2.027-.295.053a1.468 1.468 0 0 0-.237.061 1.428 1.428 0 0 0-.208.117c-.084.045-.161.098-.23.157-.014.013-.034.019-.048.033-1.908 1.948-3.29 2.63-3.882 2.66-.215-1.284 2.147-6.094 5.257-10.647.318-.476.195-1.07-.296-1.433-.492-.362-1.221-.397-1.76-.084l-.037.023h-.007c-1.379.825-2.7 1.664-4.02 2.532-.267.197-.426.473-.444.767a.998.998 0 0 0 .348.799c.275.274.682.436 1.114.441-1.768 3.066-3.503 6.767-2.783 8.507.206.55.695.997 1.338 1.22.393.14.816.21 1.244.21 1.302-.086 2.53-.534 3.48-1.272a5.532 5.532 0 0 1-.445 1.707c-1.416 2.767-4.915 4.2-7.785 3.198-2.87-1.001-4.057-4.07-2.636-6.835a7.407 7.407 0 0 1 1.17-1.444c.391-.488.277-1.14-.266-1.517a1.461 1.461 0 0 0-.974-.326c-.366.008-.71.142-.95.37a9.315 9.315 0 0 0-1.591 2.01c-1.194 2.245-1.084 4.816.3 6.985a11.331 11.331 0 0 0-2.478 3.24c-.802 1.499-1.167 3.132-1.066 4.768-.985 1.26-1.466 2.743-1.374 4.24-.125 2.159 1.168 4.206 3.386 5.36.254 1.953 1.194 3.803 2.704 5.323a13.883 13.883 0 0 0 2.026 1.757c-.645.152-1.268.36-1.86.62a12.324 12.324 0 0 0-2.495-1.4 13.177 13.177 0 0 0-3.571-.933 2.984 2.984 0 0 0-.06-.406v.003l-.007-.025a9.85 9.85 0 0 0-1.305-2.969 11.628 11.628 0 0 0-2.245-2.311l-.195-.16a5.963 5.963 0 0 1-.99-.918 3.63 3.63 0 0 1-.624-1.211 3.995 3.995 0 0 1-.21-1.652v-.03c.123-.637-.403-1.235-1.175-1.337-.772-.102-1.498.332-1.621.968 0 .035-.014.072-.02.108l-.044.254c-.737 3.57-.688 7.22.145 10.776l.015.057c.408 1.478 1.925 2.57 3.757 2.705.967 1.466 2.484 2.635 4.324 3.332 1.417.62 2.987.963 4.59 1.003.318-.001.635-.023.95-.065.919.338 1.918.505 2.925.492.725-.002 1.45-.07 2.157-.202a10.752 10.752 0 0 0 2.363-.72c.06.316.128.627.207.934-.8.594-1.471 1.3-1.981 2.082zm2.492 1.111a6.08 6.08 0 0 1 .439-.584c.407.83.913 1.624 1.513 2.37-.468.592-1.145 1.051-1.94 1.317a.836.836 0 0 1-.453.017c-.192-.086-.362-.48-.31-1.103.068-.71.325-1.398.751-2.017zM12.007 59.35l-.178-.09a1.57 1.57 0 0 0-.214-.087 26.98 26.98 0 0 1-4.67-2.84l.513-.03.26-.017a13.136 13.136 0 0 1 2.824.09c.85.163 1.669.418 2.436.76a1.4 1.4 0 0 0 .23.104l.154.06c.468.189.773.574.794 1.003.02.428-.246.832-.694 1.05a1.68 1.68 0 0 1-1.452-.005l-.003.002zm8.437-1.148a9.029 9.029 0 0 1-3.54.501 2.922 2.922 0 0 0-.14-1.32 8.753 8.753 0 0 1 2.605-1.339c.59-.192 1.202-.335 1.826-.426.163.657.598 1.246 1.23 1.667a9.383 9.383 0 0 1-1.981.923v-.006zm13.182 3.02c-.521-1.178-.365-2.486.425-3.558a.983.983 0 0 1 .51-.282.982.982 0 0 1 .217-.023 2.17 2.17 0 0 1 1.195.467c.855.666 1.46 1.52 1.744 2.462.47 1.125.366 2.36-.29 3.42-.3.121-.584.266-.85.431-.974.019-2.356-1.132-2.951-2.917zm14.83 4.125l.184-.022c.083-.008.165-.022.246-.041.858-.132 1.734-.171 2.604-.117.939.108 1.855.318 2.725.625l.24.079c.16.053.32.106.484.157a30.87 30.87 0 0 1-5.506 1.536 1.77 1.77 0 0 0-.238.03l-.233.047c-.758.094-1.469-.325-1.605-.946-.137-.62.35-1.218 1.1-1.35v.002zm-6.189-.036c.796.038 1.582.164 2.338.375a2.867 2.867 0 0 0-.05 1.456c.025.111.076.214.114.321-.84.17-1.707.233-2.57.186-1.45.009-2.86-.396-3.99-1.147a.462.462 0 0 1-.16-.215c0-.058.094-.136.167-.195.233-.177.509-.314.808-.402a9.383 9.383 0 0 1 3.343-.379zm-5.163-9.67c-.958-.55-2.156-.735-3.291-.51-.421.095-.818.25-1.172.46-1.25-.471-2.336-1.193-3.16-2.1a1.078 1.078 0 0 0-.13-.139c-1.944-2.303-2.953-5.055-2.879-7.86 0-.397.021-.787.057-1.173 0-.03.007-.06.01-.09.159-1.858.778-3.67 1.82-5.322l.01-.012c.018-.028.048-.05.065-.08.017-.029.017-.041.027-.062 1.558-2.296 3.895-3.762 6.504-3.762 2.609 0 4.935 1.46 6.496 3.75.034.066.076.13.124.19 1.034 1.646 1.648 3.45 1.805 5.298 0 .03 0 .06.011.09.035.386.057.776.057 1.173.077 2.803-.93 5.553-2.872 7.854-.053.051-.101.105-.142.163-.864.942-2.017 1.678-3.34 2.132zm19.468 1.66l.157-.061c.081-.029.158-.064.23-.105a11.222 11.222 0 0 1 2.436-.76c.932-.13 1.882-.16 2.824-.089l.26.017.517.03a27.097 27.097 0 0 1-4.675 2.84 1.505 1.505 0 0 0-.214.088l-.207.103c-.688.286-1.527.066-1.888-.495-.361-.562-.11-1.258.563-1.566l-.003-.001zm-3.405.081a2.932 2.932 0 0 0-.142 1.321 9.007 9.007 0 0 1-3.539-.5 9.397 9.397 0 0 1-1.981-.918c.632-.421 1.066-1.01 1.23-1.667.62.091 1.229.233 1.816.422.965.31 1.852.765 2.616 1.342zm-7.869-5a4.44 4.44 0 0 1 .753 2.057c.05.583-.12.979-.317 1.066a.816.816 0 0 1-.446-.017c-.81-.272-1.498-.743-1.971-1.349a13.068 13.068 0 0 0 1.512-2.364c.172.194.328.397.469.607zm3.707-5.684c-1.025-.155-1.97-.558-2.716-1.159v-.047c0-.296-.022-.584-.04-.874a5.936 5.936 0 0 1 3.386-.195 6.69 6.69 0 0 1 2.376.886h.008c.617.395.79.754.754.887a.588.588 0 0 1-.297.278 5.951 5.951 0 0 1-3.471.224zm12.554-6.01l.05-.143a.93.93 0 0 0 .055-.216c.195-.7.5-1.374.91-2.008a9.416 9.416 0 0 1 1.78-1.813l.189-.153.362-.298a18.23 18.23 0 0 1-.49 4.783.902.902 0 0 0-.056.181l-.044.198c-.186.616-.935.997-1.686.857-.759-.142-1.237-.762-1.07-1.389zm-5.114 2.896a9.66 9.66 0 0 1 2.945-.742c.297.377.679.702 1.125.96-.735.8-1.693 1.44-2.793 1.867a9.926 9.926 0 0 1-2.112.62c.016-.672-.244-1.33-.738-1.866.49-.322 1.017-.603 1.573-.84zM54.98 32.646c-.59-.937-1.702-1.576-2.972-1.712a5.078 5.078 0 0 1-.135-1.284c.017-.804.25-1.597.682-2.32.436-.705.979-1.13 1.557-1.126.332.03.637.165.85.376.028.034.06.066.09.098.781.895 1.156 1.988 1.058 3.087.005 1.035-.391 2.045-1.13 2.881zm-.307-8.714a4.376 4.376 0 0 0-.465-.057c-1.128 0-2.207.379-2.987 1.05-1.061-1.236-1.76-2.658-2.043-4.154a7.954 7.954 0 0 0 3.045-1.331 9.221 9.221 0 0 1 1.672 2.293c.363.705.625 1.443.778 2.199zM41.29 15.15a5.531 5.531 0 0 1-.446-1.707c.95.738 2.179 1.186 3.48 1.27.428.002.852-.07 1.244-.208.643-.224 1.133-.67 1.34-1.22.68-1.646-.837-5.046-2.5-8.006 3.157 2.139 6.511 4.683 7.31 6.233 1.415 2.765.239 5.834-2.636 6.836-2.875 1.002-6.371-.433-7.792-3.198zm4.6 20.909c1.203-1.446 3.023-2.465 5.096-2.855.414-.05.837.03 1.184.222.36.269.566.65.567 1.05-.02 1.69-.77 3.32-2.115 4.599-1.153 1.369-2.85 2.364-4.796 2.814a13.62 13.62 0 0 0-1.497-3.606c.024-.047.04-.094.068-.139a.926.926 0 0 0 .095-.205 9.48 9.48 0 0 1 1.398-1.88zm-10.942-8.067c.425.335 1.3 1.038 2.349 1.97 3.245 2.865 4.281 4.55 4.603 5.404-1.748-1.665-4.266-2.647-6.936-2.708-2.672.062-5.188 1.045-6.936 2.712.322-.86 1.36-2.54 4.606-5.407 1.046-.93 1.918-1.632 2.314-1.971zm-18.915-6.256a9.213 9.213 0 0 1 1.672-2.293 7.953 7.953 0 0 0 3.045 1.331c-.282 1.495-.98 2.915-2.039 4.15-.78-.682-1.872-1.063-3.009-1.05-.15.011-.298.03-.446.057a8.428 8.428 0 0 1 .777-2.195zm-1.159 4.943c.031-.031.06-.063.088-.097a1.38 1.38 0 0 1 .828-.375c.574 0 1.142.42 1.588 1.14.433.714.662 1.5.671 2.297.011.43-.034.861-.133 1.284-1.271.138-2.381.778-2.973 1.715-.74-.837-1.136-1.845-1.132-2.88-.095-1.1.281-2.19 1.063-3.084zm2.32 7.785c.012-.394.216-.769.566-1.038.338-.19.75-.27 1.153-.224 2.083.384 3.912 1.404 5.12 2.853a9.272 9.272 0 0 1 1.447 1.97l.014.029c.03.078.07.151.105.233a13.57 13.57 0 0 0-1.499 3.608c-1.945-.451-3.64-1.445-4.794-2.812-1.349-1.283-2.097-2.92-2.112-4.619zM5.61 41.198l-.04-.18a.87.87 0 0 0-.057-.18 18.232 18.232 0 0 1-.488-4.784l.361.298.188.152a9.383 9.383 0 0 1 1.788 1.816c.41.634.715 1.309.91 2.008.01.073.028.146.055.216l.047.132c.17.628-.308 1.25-1.069 1.392-.365.07-.75.014-1.066-.152-.314-.163-.54-.42-.63-.718zm3.806 2.604a3.966 3.966 0 0 0 1.123-.959 9.533 9.533 0 0 1 2.934.738 9.962 9.962 0 0 1 1.585.84c-.494.537-.755 1.194-.74 1.867a9.98 9.98 0 0 1-2.106-.618c-1.102-.426-2.062-1.067-2.796-1.868zm11.506 2.896a5.955 5.955 0 0 1-3.477-.215.59.59 0 0 1-.295-.274c-.038-.134.142-.488.753-.887l.035-.025a6.676 6.676 0 0 1 2.349-.873 8.268 8.268 0 0 1 1.503-.145 4.643 4.643 0 0 1 1.89.336c-.019.29-.04.584-.04.877v.047c-.745.601-1.691 1.005-2.718 1.159z"/>
    </g>
</svg>
