<svg xmlns="http://www.w3.org/2000/svg" width="70" height="70" viewBox="0 0 70 70">
    <g fill="none" fill-rule="nonzero">
        <path fill="#A4C2F7" d="M42.937 38.618a1.184 1.184 0 0 1 1.409.105s-1.416 3.693-.089 11.355c-1.735 1.024-5.757 2.548-7.049 4.084-.054-.908-.593-11.632 5.73-15.544zM26.943 31.264a1.186 1.186 0 0 1-1.41-.105c.84-4.912.871-9.927.094-14.849 1.735-1.024 5.752.946 7.045-.59.058.907.594 11.631-5.73 15.544z"/>
        <path fill="#E3E7F2" d="M25.534 31.159c-.023-.023-.047-.035-.07-.059a.492.492 0 0 1-.14-.127c-.12-.157-.2-.341-.233-.536-.325-2.108-1.35-5.66-4.646-7.173l.128-.082c2.097-1.012 4.215-1.92 5.95-2.91.478-.268.956-.548 1.433-.839 1.327 7.662-2.422 11.726-2.422 11.726zM44.346 38.723c.023.023.046.035.07.058a.494.494 0 0 1 .14.128c.12.156.2.34.232.536.327 2.107 1.351 5.658 4.646 7.172l-.128.082c-2.096 1.013-4.215 1.921-5.95 2.911a45.34 45.34 0 0 0-1.432.838c-1.327-7.662 2.422-11.725 2.422-11.725z"/>
        <path fill="#A4C2F7" d="M50.277 66.466l.606-.582c1.467-.874 4.809-4.244 6.183-5.326 7.254 3.55 10.34 3.462 10.34 3.462.261.488.15 1.093-.268 1.456-5.857 5.065-16.86.99-16.86.99z"/>
        <path fill="#E3E7F2" d="M55.11 62.914a24.576 24.576 0 0 0 5.926-6.649h.012c.163 4.064 3.68 6.265 5.81 7.243.24.096.436.279.547.512 0 0-5.042 2.446-12.295-1.106z"/>
        <path fill="#A4C2F7" d="M19.607 3.42l-.605.583c-1.467.873-3.645 4.238-5.019 5.321C6.73 5.773 2.48 5.866 2.48 5.866a1.186 1.186 0 0 1 .268-1.456c5.856-5.065 16.86-.99 16.86-.99z"/>
        <path fill="#E3E7F2" d="M14.775 6.972a24.584 24.584 0 0 0-5.927 6.649h-.012c-.163-4.064-3.68-6.265-5.81-7.243a1.03 1.03 0 0 1-.547-.512S7.521 3.42 14.775 6.972z"/>
        <path fill="#A4C2F7" d="M11.154 30.726a22.009 22.009 0 0 0 .035 3.551c-.022 1.29.063 2.579.256 3.854a2.478 2.478 0 0 1-1.91 2.783 2.533 2.533 0 0 1-2.934-1.385 30.747 30.747 0 0 1-2.667-12.366A25.523 25.523 0 0 1 7.672 13.62h.012a24.575 24.575 0 0 1 5.927-6.65 39.582 39.582 0 0 1 4.226-2.968A19.021 19.021 0 0 1 30.098 1.29c-3.306 16.185-18.607 22.915-18.944 29.436z"/>
        <path fill="#E3E7F2" d="M38.4 5.272a1.635 1.635 0 0 1-.093.396 36.472 36.472 0 0 1-5.181 10.305c-.139.196-.29.383-.454.559a17.888 17.888 0 0 1-4.716 3.714c-.477.291-.955.57-1.433.839-1.735.99-3.853 1.898-5.95 2.91-3.935 1.922-7.824 4.215-9.07 8.21a6.989 6.989 0 0 0-.314 2.072 22.009 22.009 0 0 1-.035-3.551S15.147 5.83 38.4 5.272zM11.624 53.836c1.657.374 7.534 2.144 7.534 8.562 0 7.478 8.966 6.232 8.966 6.232s-2.419-3.664-1.281-11.217c1.112-7.39-2.562-6.231-7.685-8.724-5.124-2.493-5.551-4.91-5.551-4.91a5.56 5.56 0 0 1-7.244 1.184l-.013-.008 5.274 8.881z"/>
        <path fill="#A4C2F7" d="M6.35 45.024S1.514 50.01 1.514 53.75 7.56 63.72 7.56 63.72a4.495 4.495 0 0 1 1.21-4.986c2.419-2.492 3.628-4.985 2.419-7.478a33.91 33.91 0 0 0-4.839-6.232z"/>
        <path fill="#2C2F38" d="M29.33 14.075c-.31 0-.607-.12-.827-.338a1.201 1.201 0 0 1-.337-.827c.002-.305.123-.597.337-.815a1.196 1.196 0 0 1 1.653 0c.215.218.336.51.338.815a1.62 1.62 0 0 1-.023.233.75.75 0 0 1-.07.21.886.886 0 0 1-.105.21l-.14.174c-.118.1-.246.185-.384.256a1.206 1.206 0 0 1-.221.058.673.673 0 0 1-.221.024z"/>
        <path fill="#A4C2F7" d="M58.726 39.16a22.07 22.07 0 0 0-.035-3.55 23.142 23.142 0 0 0-.256-3.855 2.478 2.478 0 0 1 1.91-2.783 2.534 2.534 0 0 1 2.934 1.385 30.75 30.75 0 0 1 2.666 12.366 25.523 25.523 0 0 1-3.737 13.542h-.012a24.57 24.57 0 0 1-5.927 6.65 39.633 39.633 0 0 1-4.226 2.969 19.027 19.027 0 0 1-12.262 2.713c5.64-16.19 18.607-22.916 18.945-29.436z"/>
        <path fill="#E3E7F2" d="M31.48 64.614a1.63 1.63 0 0 1 .092-.396 36.46 36.46 0 0 1 5.182-10.304c.138-.197.29-.384.454-.56a17.889 17.889 0 0 1 4.72-3.714c.478-.291.955-.57 1.433-.839 1.735-.989 3.854-1.897 5.95-2.91 3.935-1.921 7.825-4.216 9.07-8.21.209-.67.315-1.37.315-2.072a22.07 22.07 0 0 1 .035 3.552s-2.83 23.725-27.252 25.453zM58.256 16.05c-1.657-.374-7.535-2.144-7.535-8.562 0-7.478-8.966-6.232-8.966-6.232s2.419 3.664 1.28 11.217c-1.111 7.39 2.562 6.232 7.68 8.725 5.117 2.492 5.552 4.91 5.552 4.91a5.561 5.561 0 0 1 7.25-1.18l.011.012-5.272-8.89z"/>
        <path fill="#A4C2F7" d="M63.528 24.861s4.838-4.985 4.838-8.724-6.047-9.97-6.047-9.97a4.498 4.498 0 0 1-1.21 4.985c-2.418 2.493-3.627 4.985-2.418 7.478a33.863 33.863 0 0 0 4.837 6.231z"/>
        <path fill="#2C2F38" d="M40.55 55.813c.309-.002.606.12.826.336.215.223.336.519.338.828a1.173 1.173 0 0 1-.338.815 1.196 1.196 0 0 1-1.653 0 1.172 1.172 0 0 1-.314-1.048.746.746 0 0 1 .07-.21.87.87 0 0 1 .104-.208l.14-.176c.057-.053.12-.099.187-.138.06-.046.128-.085.197-.117a1.23 1.23 0 0 1 .222-.058.72.72 0 0 1 .22-.024z"/>
        <path fill="#E3E7F2" d="M31.48 64.614C54.242 58.815 58.725 39.16 58.725 39.16c-.338 6.52-3.04 20.54-18.945 29.436a33.104 33.104 0 0 1-6.636-1.375 2.362 2.362 0 0 1-1.666-2.608zM38.4 5.272c-22.763 5.799-27.246 25.454-27.246 25.454.337-6.521 3.039-20.54 18.944-29.436 2.254.23 4.478.69 6.638 1.374A2.363 2.363 0 0 1 38.4 5.272z"/>
        <path fill="#FFF" d="M19.158 62.398c0 7.478 8.966 6.232 8.966 6.232l-.063-.106c-2.503-.442-5.406-1.863-5.406-6.126 0-6.418-5.876-8.188-7.533-8.562l-.014-.023a5.32 5.32 0 0 1-.3 1.245 8.034 8.034 0 0 1 4.35 7.34zM14.61 45.472a4.13 4.13 0 0 1-1.003-1.694 6.751 6.751 0 0 1-2.584 1.732 5.296 5.296 0 0 0 3.586-.038zM7.56 63.72a4.307 4.307 0 0 1 .315-3.798c-1.458-1.98-2.868-4.368-2.868-6.172 0-2.845 2.794-6.404 4.136-7.948a5.697 5.697 0 0 1-2.78-.838l-.013-.01.117.197-.117-.122s-4.836 4.986-4.836 8.725S7.56 63.72 7.56 63.72zM2.747 4.41c-.418.364-.53.968-.268 1.456.111.233.307.416.547.512 1.863.858 4.8 2.656 5.606 5.822-.329.466-.656.932-.948 1.417h-.012a25.522 25.522 0 0 0-3.738 13.546c.023 4.262.93 8.473 2.667 12.366a2.533 2.533 0 0 0 2.934 1.385c.42-.104.808-.312 1.127-.604a2.456 2.456 0 0 1-.568-.781 30.738 30.738 0 0 1-2.666-12.366 25.523 25.523 0 0 1 3.737-13.542h.012c.292-.487.62-.953.948-1.418-.805-3.169-3.738-4.967-5.606-5.821a1.03 1.03 0 0 1-.547-.512 1.187 1.187 0 0 1 .268-1.456"/>
        <path fill="#FFF" d="M2.768 27.158c.005-2.637.373-5.26 1.093-7.796a26.112 26.112 0 0 1 3.334-7.154 26.782 26.782 0 0 1 5.693-6.144l1.444 1.829A24.427 24.427 0 0 0 9.138 13.5a23.752 23.752 0 0 0-3.041 6.512 26.483 26.483 0 0 0-1 7.145H2.768z"/>
        <g fill="#6663FF">
            <path d="M4.764 18.91a.713.713 0 0 0 .178.13c.069.036.14.067.214.093.294.087.61.065.888-.062.541-.285.779-.934.549-1.5a1.299 1.299 0 0 0-.27-.368 1.181 1.181 0 0 0-.37-.257 1.164 1.164 0 0 0-.891 0 1.283 1.283 0 0 0-.624.681c-.114.3-.1.633.037.923l.116.192c.05.063.107.12.173.167zM29.174 69.115a1.164 1.164 0 0 0-.078-1.118c-.021-.035-2.15-3.473-1.108-10.41.994-6.6-1.832-7.569-5.106-8.682a26.934 26.934 0 0 1-3.215-1.263c-4.346-2.112-4.91-4.065-4.913-4.065a1.165 1.165 0 0 0-1.98-.609c-2.543 2.62-4.95 1.52-5.723 1.048a1.155 1.155 0 0 0-1.513.117c-.051.06-.095.126-.13.196-.861.906-5.055 5.523-5.055 9.419 0 4.092 5.723 10.108 6.375 10.781a1.165 1.165 0 0 0 1.884-1.32 3.335 3.335 0 0 1 .998-3.665 11.993 11.993 0 0 0 2.851-4.261c2.081.709 5.536 2.57 5.536 7.114a6.878 6.878 0 0 0 2.25 5.45 10.043 10.043 0 0 0 6.48 2.026c.52.003 1.038-.027 1.553-.09.392-.056.729-.308.894-.668zM7.934 57.923a6.46 6.46 0 0 0-1.605 2.635c-1.84-2.29-3.651-5.096-3.651-6.803 0-2.2 2.212-5.264 3.687-7.001a26.925 26.925 0 0 1 3.776 5.011c.54 1.108.897 2.959-2.207 6.158zm13.834 8.164a4.593 4.593 0 0 1-1.446-3.689c0-5.306-3.726-8.294-7.505-9.445a5.76 5.76 0 0 0-.582-2.204 21.38 21.38 0 0 0-2.624-3.81 6.75 6.75 0 0 0 3.64-1.313 13.776 13.776 0 0 0 5.396 4.11c1.131.532 2.296.991 3.487 1.373 3.186 1.087 4.26 1.454 3.556 6.131a21.181 21.181 0 0 0 .655 10.304 7.442 7.442 0 0 1-4.577-1.457z"/>
            <path d="M1.38 7.443c2.212 1.01 4.841 2.87 5.093 5.989a1.119 1.119 0 0 0 .491 1.417 1.205 1.205 0 0 0 1.575-.41c.188-.32.378-.638.593-.932a24.48 24.48 0 0 1 5.193-5.608c3.557-2.795 6.945-5.058 11.786-5.491A36.423 36.423 0 0 0 9.99 30.656c-.08 1.23-.068 2.465.035 3.693-.017 1.33.072 2.659.268 3.974.09.683-.36 1.32-1.033 1.465a1.375 1.375 0 0 1-1.593-.74 29.375 29.375 0 0 1-2.57-11.89 28.92 28.92 0 0 1 .376-4.438 1.18 1.18 0 0 0-.92-1.34 1.163 1.163 0 0 0-1.373.946 31.196 31.196 0 0 0-.411 4.83v.007a31.7 31.7 0 0 0 2.777 12.841 3.682 3.682 0 0 0 4.27 2.04 3.657 3.657 0 0 0 2.77-4.11 22.865 22.865 0 0 1-.232-3.653c0-.586.088-1.17.262-1.73 1.035-3.318 4.323-5.429 7.78-7.163 2.463 1.422 3.289 4.352 3.553 6.062.054.383.21.745.452 1.048.086.113.186.216.296.307.44.404 1.017.627 1.615.625.442.002.874-.123 1.246-.362 6.378-3.938 6.394-13.71 6.296-16.135.07-.087.144-.167.211-.257A37.691 37.691 0 0 0 39.42 6.051c.057-.18.1-.363.127-.549.006-.027.016-.052.019-.08a3.46 3.46 0 0 0-.35-2.085 3.536 3.536 0 0 0-2.137-1.782c-8.408-2.561-13.952-1.61-18.456.69-1.703-.59-11.908-3.814-17.79 1.28A2.268 2.268 0 0 0 .253 6.32c.219.504.622.906 1.128 1.123zm6.834 3.359a10.004 10.004 0 0 0-4.118-4.505c2.492-.299 5.019.05 7.336 1.014a26.72 26.72 0 0 0-3.218 3.49zm14.57 13.438l.254-.117c1.389-.649 2.697-1.266 3.887-1.932a13.618 13.618 0 0 1-1.097 7.015 10.284 10.284 0 0 0-3.044-4.966zm5.534 5.042c.97-2.68 1.246-5.562.802-8.377a24.926 24.926 0 0 0 2.376-1.652c-.137 2.778-.772 7.121-3.178 10.029zM32.2 15.276c-.078.105-.168.202-.25.303a1.137 1.137 0 0 0-.318.387 22.233 22.233 0 0 1-5.689 4.109c-1.15.655-2.48 1.28-3.89 1.936a34.894 34.894 0 0 0-8.213 4.797A36.082 36.082 0 0 1 36.6 6.988a33.517 33.517 0 0 1-4.401 8.288zm4.94-10.88v.017a38.578 38.578 0 0 0-22.986 16.92c2.178-6.304 6.764-13.472 16.218-18.85 2.043.246 4.06.68 6.024 1.295.322.096.591.32.745.618zm-21.264-.525c-.829.557-1.63 1.147-2.426 1.759a17.938 17.938 0 0 0-8.746-1.74c3.721-1.495 8.465-.702 11.172-.019z"/>
            <path d="M28.503 12.095c-.214.218-.335.51-.337.815.002.31.123.605.337.827.22.217.518.339.827.338a.673.673 0 0 0 .221-.024c.076-.012.15-.032.221-.058.138-.07.266-.156.384-.256l.14-.174a.886.886 0 0 0 .105-.21.75.75 0 0 0 .07-.21 1.62 1.62 0 0 0 .023-.233 1.176 1.176 0 0 0-.338-.815 1.196 1.196 0 0 0-1.653 0zM47.002 20.976c1.098.352 2.172.774 3.216 1.264 4.345 2.112 4.909 4.064 4.912 4.064a1.165 1.165 0 0 0 1.98.61c2.543-2.622 4.95-1.523 5.723-1.048a1.156 1.156 0 0 0 1.514-.117c.05-.06.094-.126.13-.197.86-.906 5.054-5.522 5.054-9.419 0-4.091-5.723-10.108-6.374-10.78a1.164 1.164 0 0 0-1.885 1.319 3.336 3.336 0 0 1-.997 3.665 11.988 11.988 0 0 0-2.852 4.262c-2.08-.71-5.535-2.57-5.535-7.114a6.869 6.869 0 0 0-2.251-5.45C46.65-.573 41.812.068 41.605.1a1.166 1.166 0 0 0-.815 1.786c.02.035 2.15 3.472 1.107 10.41-.994 6.6 1.832 7.565 5.105 8.681zm14.954-9.018a6.452 6.452 0 0 0 1.606-2.628c1.84 2.29 3.65 5.096 3.65 6.802 0 2.201-2.212 5.264-3.687 7.002a26.923 26.923 0 0 1-3.781-5.018c-.54-1.107-.898-2.958 2.212-6.158zm-13.84-8.163a4.595 4.595 0 0 1 1.447 3.688c0 5.306 3.725 8.294 7.504 9.446a5.76 5.76 0 0 0 .582 2.204 21.386 21.386 0 0 0 2.623 3.814 6.754 6.754 0 0 0-3.64 1.314 13.776 13.776 0 0 0-5.395-4.11 29.008 29.008 0 0 0-3.487-1.38c-3.185-1.086-4.259-1.452-3.555-6.13a21.177 21.177 0 0 0-.66-10.297 7.44 7.44 0 0 1 4.58 1.45zM68.505 62.44c-2.193-1.003-4.793-2.843-5.083-5.914a26.807 26.807 0 0 0 3.695-13.803 31.996 31.996 0 0 0-2.778-12.848 3.702 3.702 0 0 0-4.27-2.037 3.657 3.657 0 0 0-2.77 4.11c.175 1.21.252 2.43.232 3.652 0 .587-.087 1.17-.262 1.731-1.035 3.317-4.323 5.429-7.779 7.163-2.464-1.423-3.29-4.352-3.554-6.062a2.17 2.17 0 0 0-.452-1.048 1.856 1.856 0 0 0-.295-.308 2.372 2.372 0 0 0-2.862-.263c-6.378 3.938-6.394 13.71-6.296 16.135-.069.087-.144.168-.21.257a37.698 37.698 0 0 0-5.357 10.625c-.057.18-.1.362-.127.548 0 .027-.015.053-.018.082a3.458 3.458 0 0 0 .349 2.084 3.535 3.535 0 0 0 2.138 1.782 34.887 34.887 0 0 0 6.664 1.384c.1.026.203.04.307.04h.015c.76.068 1.496.106 2.202.106a19.787 19.787 0 0 0 9.267-2.219 29.383 29.383 0 0 0 8.92 1.544c3.199.154 6.346-.85 8.864-2.828a2.268 2.268 0 0 0 .582-2.795 2.154 2.154 0 0 0-1.122-1.119zm-2.717 1.15c-2.491.3-5.018-.048-7.336-1.01a26.465 26.465 0 0 0 3.221-3.483 10.01 10.01 0 0 0 4.115 4.493zm-5.164-33.496a1.375 1.375 0 0 1 1.593.739 29.6 29.6 0 0 1 2.57 11.89 23.968 23.968 0 0 1-9.23 19.265c-3.555 2.795-6.945 5.06-11.788 5.493a36.421 36.421 0 0 0 16.126-28.255c.08-1.23.068-2.465-.036-3.694a24.789 24.789 0 0 0-.268-3.974c-.09-.682.36-1.32 1.033-1.464zM47.101 45.642l-.254.116c-1.39.65-2.698 1.267-3.888 1.933a13.621 13.621 0 0 1 1.097-7.015 10.29 10.29 0 0 0 3.045 4.966zM41.566 40.6a16.893 16.893 0 0 0-.802 8.376 24.902 24.902 0 0 0-2.376 1.653c.137-2.779.773-7.122 3.178-10.03zm-3.88 14.005c.078-.105.167-.202.249-.303.134-.103.242-.235.319-.386a22.22 22.22 0 0 1 5.688-4.11c1.15-.654 2.481-1.28 3.89-1.936a34.913 34.913 0 0 0 8.214-4.796 36.082 36.082 0 0 1-22.762 19.82 33.53 33.53 0 0 1 4.401-8.29zm-4.941 10.88v-.016a38.576 38.576 0 0 0 22.986-16.92c-2.177 6.3-6.764 13.472-16.218 18.851a33.67 33.67 0 0 1-6.024-1.297 1.23 1.23 0 0 1-.744-.618zm21.268.526a45.919 45.919 0 0 0 2.422-1.755 18.55 18.55 0 0 0 7.645 1.774c.391 0 .758-.017 1.107-.043-3.72 1.5-8.46.709-11.174.024z"/>
            <path d="M39.728 57.798a1.18 1.18 0 0 0 1.653 0c.103-.116.189-.246.257-.385.056-.14.083-.29.081-.442a1.258 1.258 0 0 0-.081-.454 1.42 1.42 0 0 0-.257-.373 1.22 1.22 0 0 0-1.653 0 1.156 1.156 0 0 0-.245.373c-.058.144-.09.298-.093.454.002.152.034.303.093.442.06.142.142.272.245.385z"/>
        </g>
    </g>
</svg>
