<svg xmlns="http://www.w3.org/2000/svg" width="70" height="70" viewBox="0 0 70 70">
    <g fill="none" fill-rule="nonzero">
        <path fill="#A4C2F7" d="M19.883 58.027L9.228 68.702v-7.946h-7.93l10.655-10.675c.162-.162.368-.273.593-.318l9.568-1.917-1.914 9.586a1.166 1.166 0 0 1-.317.595zM68.701 1.167l-8.913 8.943-2.708-2.714a1.166 1.166 0 0 1 .405-1.911L68.7 1.167zM68.701 1.167l-4.309 11.24a1.162 1.162 0 0 1-1.907.404l-2.697-2.701 8.913-8.943z"/>
        <path fill="#7FABFA" d="M69.527 67.2c-.149.15-.34.252-.547.291a.415.415 0 0 1-.162.035.87.87 0 0 1-.175.011 1.16 1.16 0 0 1-.767-.337l-2.3-2.306a27.39 27.39 0 0 1-5.997-11.422c-.57-2.143-.906-4.343-1.639-6.44a16.616 16.616 0 0 0-1.243-2.747 26.164 26.164 0 0 0-2.07-3.18 29.653 29.653 0 0 0-2.928-3.34 24.226 24.226 0 0 0-5.45-4.018 24.737 24.737 0 0 1-5.113-3.33c-.279-.233-.57-.5-.849-.78-.278-.28-.546-.571-.778-.85a24.795 24.795 0 0 1-3.324-5.124 24.268 24.268 0 0 0-4.01-5.46 29.63 29.63 0 0 0-3.334-2.935 22.127 22.127 0 0 0-5.916-3.318c-2.092-.734-4.288-1.072-6.426-1.642a25.621 25.621 0 0 1-.895-.256 27.527 27.527 0 0 1-9.39-4.798A21.767 21.767 0 0 1 5.098 4.3l-2.3-2.305a1.164 1.164 0 0 1-.338-.769.833.833 0 0 1 .012-.174c0-.056.012-.112.035-.163.04-.208.14-.399.29-.547a1.17 1.17 0 0 1 1.65 0c.047.046.105.081.151.128 1.151.966 2.302 1.933 3.464 2.9.952.802 1.882 1.64 2.894 2.363.671.485 1.392.898 2.15 1.234h.011a13.03 13.03 0 0 0 5.776 1.164c2.452-.08 4.823-.78 7.251-.943.442-.023.895-.035 1.337-.023a15.544 15.544 0 0 1 11.028 4.68 13.025 13.025 0 0 1 3.255 6.219 14.963 14.963 0 0 0 2.382 6.054 8.313 8.313 0 0 0 1.65 1.654c.435.33.898.622 1.383.873.186.093.36.186.546.268.186.082.36.151.558.233 1.157.43 2.346.769 3.556 1.013a12.983 12.983 0 0 1 6.206 3.26 15.811 15.811 0 0 1 4.648 12.39c-.163 2.433-.86 4.808-.94 7.265a13.149 13.149 0 0 0 2.393 7.953c.72 1.013 1.557 1.945 2.359 2.9.964 1.163 1.93 2.316 2.894 3.47.046.046.081.104.128.15a1.175 1.175 0 0 1 0 1.654z"/>
        <path fill="#E3E7F2" d="M56.882 42.643a19.568 19.568 0 0 1-.185 1.642 26.164 26.164 0 0 0-2.07-3.18 29.653 29.653 0 0 0-2.928-3.34 24.226 24.226 0 0 0-5.45-4.018 24.737 24.737 0 0 1-5.113-3.33c-.279-.233-.57-.5-.849-.78-.278-.28-.546-.571-.778-.85a24.795 24.795 0 0 1-3.324-5.124 24.268 24.268 0 0 0-4.01-5.46 29.63 29.63 0 0 0-3.334-2.935 22.127 22.127 0 0 0-5.916-3.318c-2.092-.734-4.288-1.072-6.426-1.642a25.621 25.621 0 0 1-.895-.256 27.527 27.527 0 0 1-9.39-4.798 13.159 13.159 0 0 0 6.868 1.712h.035a13.03 13.03 0 0 0 5.776 1.164c2.452-.08 4.823-.78 7.251-.943.442-.023.895-.035 1.337-.023 1.973.779 3.754 1.979 5.218 3.517a13.023 13.023 0 0 1 3.254 6.217 14.98 14.98 0 0 0 2.382 6.055 8.356 8.356 0 0 0 1.65 1.654 14.915 14.915 0 0 0 6.043 2.387c.326.07.64.15.965.244.19.056.376.122.558.198.186.05.368.112.546.187 1.532.607 2.936 1.5 4.137 2.631a15.809 15.809 0 0 1 4.648 12.389z"/>
        <g fill="#FFF">
            <path d="M28.987 7.26a16.585 16.585 0 0 0-1.51-.096c-.442-.012-.896 0-1.337.023-1.955.132-3.875.595-5.827.815.683.096 1.372.137 2.062.124 2.239-.07 4.408-.64 6.612-.867zM9.227 68.702l3.487-3.493v-4.453H9.227zM15.44 50.081c.161-.162.368-.273.593-.318l5.936-1.19.145-.727-9.568 1.917a1.162 1.162 0 0 0-.593.318L1.298 60.756h3.487l10.654-10.675z"/>
            <path d="M7.348 53.653L5.83 38.593 2.074 1.333 4.387 1.1l3.756 37.26 1.518 15.06z"/>
        </g>
        <path fill="#6663FF" d="M7.239 45.38a.73.73 0 0 0 .215.047c.077.005.155.005.233 0a1.22 1.22 0 0 0 .786-.42 1.205 1.205 0 0 0-.166-1.645 1.21 1.21 0 0 0-.406-.203 1.154 1.154 0 0 0-.448-.05 1.163 1.163 0 0 0-.622 2.065l.187.117a.92.92 0 0 0 .22.088z"/>
        <path fill="#6663FF" d="M62.924 14.907a1.162 1.162 0 0 0 1.906-.405l4.957-12.917c.165-.43.061-.916-.263-1.241a1.16 1.16 0 0 0-1.24-.263L55.4 5.047a1.165 1.165 0 0 0-.405 1.91l3.138 3.144-13.15 13.19a14.136 14.136 0 0 1-2.091-5.473 14.304 14.304 0 0 0-3.533-6.778 16.86 16.86 0 0 0-13.284-5.017c-1.659.107-3.313.335-4.913.554-1.349.186-2.746.378-4.113.491-2.5.235-5.01-.345-7.157-1.652a21.155 21.155 0 0 1-4.399-3.493c-.038-.038-.073-.08-.116-.117A22.274 22.274 0 0 1 4.183.444 1.16 1.16 0 0 0 2.555.258c-.024.019-.034.046-.056.068-.023.02-.033.014-.047.026A1.128 1.128 0 0 0 2.27.6l-.013.016c-.133.214-.19.466-.163.716h-.02l3.871 38.42a1.163 1.163 0 1 0 2.313-.232L4.722 4.42a44.82 44.82 0 0 0 3.616 3.17 19.128 19.128 0 0 0 6.714 3.56c1.014.274 2.007.49 2.998.706 1.111.244 2.26.494 3.416.828a24.491 24.491 0 0 1 9.878 6.323 22.715 22.715 0 0 1 3.81 5.196 25.774 25.774 0 0 0 3.527 5.4l-17.14 17.17-9.567 1.915a1.16 1.16 0 0 0-.593.32l-1.967 1.97-.22-2.188a1.163 1.163 0 1 0-2.313.233l.411 4.075-6.815 6.834a1.166 1.166 0 0 0 .821 1.988h6.767v6.781a1.16 1.16 0 1 0 1.984.823l6.822-6.829 51.668 5.228c.04 0 .079.006.116.006.356-.002.69-.168.909-.448.014-.016.036-.022.049-.04a1.14 1.14 0 0 0 .21-.417c.012-.061.016-.123.016-.186.016-.083.023-.169.02-.254a1.164 1.164 0 0 0-.431-.786l-.089-.073a19.35 19.35 0 0 1-1.278-1.13l-.09-.083a21.176 21.176 0 0 1-3.5-4.425 11.753 11.753 0 0 1-1.651-7.173c.116-1.367.304-2.763.49-4.113.22-1.605.447-3.26.555-4.93a16.926 16.926 0 0 0-5.008-13.31 14.257 14.257 0 0 0-6.774-3.536 14.076 14.076 0 0 1-5.462-2.096l13.155-13.18 3.148 3.157zM9.227 59.592H4.104l8.671-8.688 7.858-1.574-1.572 7.874-8.671 8.687v-5.135c0-.643-.52-1.164-1.163-1.164zm9.762.978l1.965-1.97c.162-.162.273-.369.319-.594l1.913-9.586L40.32 31.25a26.161 26.161 0 0 0 5.39 3.535 22.666 22.666 0 0 1 5.18 3.813 24.58 24.58 0 0 1 6.316 9.897c.333 1.158.58 2.308.825 3.422.217.994.432 1.988.706 3.004a19.23 19.23 0 0 0 3.554 6.728 44.89 44.89 0 0 0 3.138 3.62l-46.44-4.7zm38.262-28.313a14.776 14.776 0 0 1 4.285 11.465c-.102 1.583-.323 3.2-.538 4.765a88.936 88.936 0 0 0-.472 3.939 162.58 162.58 0 0 1-.225-1.01c-.248-1.15-.507-2.34-.862-3.568a26.61 26.61 0 0 0-6.93-10.926 25.033 25.033 0 0 0-5.72-4.2 21.801 21.801 0 0 1-5.674-3.913 21.913 21.913 0 0 1-3.907-5.687 24.988 24.988 0 0 0-4.201-5.734 26.54 26.54 0 0 0-10.898-6.941c-1.228-.35-2.416-.614-3.564-.864l-1.007-.224c1.328-.116 2.654-.297 3.94-.474 1.558-.214 3.17-.437 4.746-.538a14.71 14.71 0 0 1 11.449 4.293 11.815 11.815 0 0 1 2.955 5.676c.57 2.613 1.306 5.345 3.467 7.51 2.16 2.166 4.88 2.904 7.495 3.476a11.764 11.764 0 0 1 5.661 2.955zm.65-25.684l8.777-3.378-3.376 8.794-1.878-1.884.545-.546a1.166 1.166 0 0 0-.513-1.964 1.161 1.161 0 0 0-1.13.318l-.545.546-1.88-1.886z"/>
        <path fill="#6663FF" d="M13.193 57.949c.308 0 .603-.123.82-.341l1.984-1.987a1.166 1.166 0 0 0-.015-1.632 1.16 1.16 0 0 0-1.629-.014l-1.982 1.986a1.166 1.166 0 0 0 .822 1.988z"/>
    </g>
</svg>
