<svg xmlns="http://www.w3.org/2000/svg" width="56" height="64" viewBox="0 0 56 64">
    <g fill="none" fill-rule="nonzero">
        <path fill="#FC6E51" d="M41.658 41.598v-.032h2.08v-7.248h4.16v7.248h2.07v.042c2.297 0 4.16 1.83 4.18 4.13h-.01v3.141h-16.62l-.01-3.12h-.01a4.159 4.159 0 0 1 4.16-4.161z"/>
        <path fill="#E9573F" d="M49.967 41.608v-.042h-2.082v.042c2.3 0 4.16 1.83 4.182 4.13h-.01v3.141h2.08v-3.14h.011a4.165 4.165 0 0 0-4.18-4.13z"/>
        <path fill="#E6E9ED" d="M45.818 50.958a2.08 2.08 0 1 1-2.08 2.08c0-1.154.925-2.08 2.08-2.08z"/>
        <path fill="#656D78" d="M37.519 48.878h16.619v8.32h-16.62v-8.32zm8.299 6.24c1.143 0 2.08-.936 2.08-2.08a2.08 2.08 0 0 0-2.08-2.08c-1.155 0-2.08.926-2.08 2.08a2.08 2.08 0 0 0 2.08 2.08z"/>
        <path fill="#434A54" d="M38.559 62.398H23.988v-3.12l7.28-13.52h6.24v15.6h.01c0 .572.458 1.04 1.04 1.04z"/>
        <path fill="#FC6E51" d="M54.138 57.198v4.16c0 .572-.468 1.04-1.04 1.04h-14.54c-.582 0-1.04-.468-1.04-1.04v-4.16h16.62z"/>
        <path fill="#E9573F" d="M52.057 57.198v4.16c0 .572-.468 1.04-1.04 1.04h2.08c.573 0 1.04-.468 1.04-1.04v-4.16h-2.08z"/>
        <path fill="#E6E9ED" d="M10.468 45.758v16.64h-8.32c-.583 0-1.04-.468-1.04-1.04v-7.28a8.318 8.318 0 0 1 8.32-8.32h1.04z"/>
        <path fill="#434A54" d="M23.988 59.278v3.12h-13.52v-16.64h6.24z"/>
        <path fill="#E6E9ED" d="M26.068 46.798l5.2-1.04-7.28 13.52-7.28-13.52 5.2 1.04 2.08-1.04z"/>
        <path fill="#F5F7FA" d="M31.268 39.799v5.959l-5.2 1.04-2.08-1.04-2.08 1.04-5.2-1.04v-5.97a15.506 15.506 0 0 0 7.29 1.81c2.62 0 5.097-.645 7.27-1.8z"/>
        <path fill="#965353" d="M39.599 13.518v6.24l-4.16-4.16s-5.2 3.12-11.44 3.12c-6.24 0-11.44-3.12-11.44-3.12l-4.16 4.16v-5.2c0-7.467 6.052-13.52 13.52-13.52h10.4v5.2a7.275 7.275 0 0 1 7.28 7.28z"/>
        <path fill="#844747" d="M32.319 6.238v-5.2h-3.122v7.281c4.025 0 7.28 1.174 7.28 5.199v3.119l3.122 3.121v-6.24a7.275 7.275 0 0 0-7.28-7.28z"/>
        <path fill="#EAC6BB" d="M39.599 19.758v6.24c0 5.99-3.38 11.19-8.331 13.8a15.453 15.453 0 0 1-7.27 1.8c-2.63 0-5.117-.655-7.29-1.81-4.94-2.61-8.31-7.8-8.31-13.79v-6.24l4.16-4.16s5.2 3.12 11.44 3.12c6.24 0 11.44-3.12 11.44-3.12l4.16 4.16z"/>
        <path fill="#D3B1A9" d="M36.477 16.637v9.361c0 5.99-3.38 11.19-8.331 13.8a15.362 15.362 0 0 1-5.705 1.716c.513.05 1.031.084 1.558.084 2.62 0 5.096-.645 7.269-1.8 4.95-2.61 8.33-7.81 8.33-13.8v-6.24l-3.121-3.121z"/>
        <path fill="#434A54" d="M52.057 48.878h2.08v8.32h-2.08z"/>
        <path fill="#000" d="M1.104 55.121c-.575 0-1.04-.465-1.04-1.04 0-5.162 4.2-9.362 9.362-9.362a1.039 1.039 0 1 1 0 2.08c-4.015 0-7.282 3.267-7.282 7.282a1.04 1.04 0 0 1-1.04 1.04z"/>
        <path fill="#000" d="M16.704 46.8l-7.278-.001a1.04 1.04 0 0 1 0-2.08l7.278.001a1.04 1.04 0 0 1 0 2.08zM37.504 46.799h-6.24a1.04 1.04 0 1 1 0-2.08h6.24a1.04 1.04 0 1 1 0 2.08zM1.105 62.398a1.04 1.04 0 0 1-1.04-1.04l-.001-7.277a1.04 1.04 0 1 1 2.08 0l.001 7.277a1.04 1.04 0 0 1-1.04 1.04z"/>
        <path fill="#000" d="M2.145 63.438a2.082 2.082 0 0 1-2.08-2.08 1.039 1.039 0 1 1 2.08 0v.002a1.038 1.038 0 1 1 0 2.078z"/>
        <path fill="#000" d="M38.555 63.438H2.145a1.04 1.04 0 1 1 0-2.08h36.41a1.039 1.039 0 1 1 0 2.08zM16.704 46.8c-.575 0-1.04-.465-1.04-1.04V39.8a1.039 1.039 0 1 1 2.08 0v5.96a1.04 1.04 0 0 1-1.04 1.04zM31.264 46.799a1.04 1.04 0 0 1-1.04-1.04v-5.96a1.039 1.039 0 1 1 2.08 0v5.96a1.04 1.04 0 0 1-1.04 1.04zM24.015 50.96a1.043 1.043 0 0 1-1.045-1.04c0-.575.46-1.04 1.034-1.04h.011a1.04 1.04 0 1 1 0 2.08z"/>
        <path fill="#000" d="M21.905 47.838a.963.963 0 0 1-.204-.02l-5.2-1.039a1.039 1.039 0 0 1-.816-1.223c.111-.563.66-.935 1.223-.816l5.2 1.038a1.039 1.039 0 0 1-.203 2.06z"/>
        <path fill="#000" d="M21.905 47.838a1.04 1.04 0 0 1-.467-1.97l2.08-1.04a1.04 1.04 0 0 1 .93 1.86l-2.08 1.04c-.148.074-.307.11-.463.11z"/>
        <path fill="#000" d="M26.063 47.838c-.156 0-.315-.036-.464-.11l-2.08-1.04a1.04 1.04 0 0 1 .93-1.86l2.08 1.04a1.04 1.04 0 0 1-.466 1.97z"/>
        <path fill="#000" d="M26.063 47.838a1.04 1.04 0 0 1-.203-2.06l5.2-1.04a1.04 1.04 0 0 1 .408 2.04l-5.2 1.04a.988.988 0 0 1-.205.02zM10.464 63.438a1.04 1.04 0 0 1-1.04-1.04V45.759a1.039 1.039 0 1 1 2.08 0v16.639a1.04 1.04 0 0 1-1.04 1.04zM37.504 62.398a1.04 1.04 0 0 1-1.04-1.04V45.759a1.039 1.039 0 1 1 2.08 0v15.599a1.04 1.04 0 0 1-1.04 1.04zM23.984 63.438a1.04 1.04 0 0 1-1.04-1.04v-3.12a1.039 1.039 0 1 1 2.08 0v3.12a1.04 1.04 0 0 1-1.04 1.04z"/>
        <path fill="#000" d="M23.983 60.318a1.042 1.042 0 0 1-.915-1.533l7.28-13.52a1.042 1.042 0 0 1 1.41-.421c.503.273.694.903.421 1.41L24.9 59.771a1.037 1.037 0 0 1-.916.546z"/>
        <path fill="#000" d="M23.985 60.318c-.37 0-.73-.198-.917-.546l-7.28-13.518a1.041 1.041 0 0 1 1.831-.987l7.28 13.518a1.041 1.041 0 0 1-.914 1.533zM24 42.641c-9.175 0-16.64-7.465-16.64-16.64a1.04 1.04 0 1 1 2.08 0c0 8.028 6.53 14.56 14.56 14.56 8.028 0 14.56-6.531 14.56-14.56a1.04 1.04 0 1 1 2.08 0c0 9.175-7.466 16.64-16.64 16.64z"/>
        <path fill="#000" d="M8.4 27.041a1.04 1.04 0 0 1-1.04-1.04V14.56a1.04 1.04 0 1 1 2.08 0v11.441a1.04 1.04 0 0 1-1.04 1.04zM39.6 27.041a1.04 1.04 0 0 1-1.04-1.04V13.522a1.04 1.04 0 1 1 2.08 0v12.479a1.04 1.04 0 0 1-1.04 1.04z"/>
        <path fill="#000" d="M39.6 14.562a1.04 1.04 0 0 1-1.04-1.04 6.246 6.246 0 0 0-6.24-6.24 1.04 1.04 0 1 1 0-2.08c4.587 0 8.32 3.732 8.32 8.32a1.04 1.04 0 0 1-1.04 1.04z"/>
        <path fill="#000" d="M32.32 7.282a1.04 1.04 0 0 1-1.04-1.04V1.04a1.04 1.04 0 1 1 2.08 0v5.202a1.04 1.04 0 0 1-1.04 1.04z"/>
        <path fill="#000" d="M32.32 2.08h-10.4a1.04 1.04 0 1 1 0-2.08h10.4a1.04 1.04 0 0 1 0 2.08z"/>
        <path fill="#000" d="M8.4 15.6a1.04 1.04 0 0 1-1.04-1.04C7.36 6.531 13.89 0 21.92 0a1.04 1.04 0 0 1 0 2.08c-6.882 0-12.48 5.598-12.48 12.48A1.04 1.04 0 0 1 8.4 15.6zM39.6 20.8c-.267 0-.533-.102-.736-.305l-4.16-4.16a1.039 1.039 0 1 1 1.471-1.47l4.16 4.16A1.04 1.04 0 0 1 39.6 20.8z"/>
        <path fill="#000" d="M24 19.76c-6.455 0-11.754-3.135-11.976-3.269a1.04 1.04 0 0 1 1.069-1.784c.05.029 5.045 2.972 10.906 2.972 5.86 0 10.855-2.943 10.905-2.972a1.04 1.04 0 0 1 1.069 1.784c-.22.134-5.519 3.269-11.973 3.269z"/>
        <path fill="#000" d="M8.4 20.8a1.039 1.039 0 0 1-.735-1.775l4.16-4.16a1.039 1.039 0 1 1 1.47 1.47l-4.16 4.16c-.204.204-.47.305-.735.305zM37.495 46.824c-.576 0-1.04-.465-1.04-1.04 0-2.883 2.332-5.228 5.2-5.228a1.04 1.04 0 1 1 0 2.08c-1.72 0-3.12 1.412-3.12 3.148a1.04 1.04 0 0 1-1.04 1.04zM54.152 46.81a1.04 1.04 0 0 1-1.04-1.04c0-1.72-1.412-3.12-3.148-3.12a1.039 1.039 0 1 1 0-2.08c2.883 0 5.228 2.333 5.228 5.2a1.04 1.04 0 0 1-1.04 1.04z"/>
        <path fill="#000" d="M43.737 42.603c-.575 0-1.04-.464-1.04-1.04v-7.247a1.039 1.039 0 1 1 2.08 0v7.247a1.04 1.04 0 0 1-1.04 1.04zM47.898 42.603c-.575 0-1.04-.464-1.04-1.04v-7.247a1.039 1.039 0 1 1 2.08 0v7.247a1.04 1.04 0 0 1-1.04 1.04zM37.515 62.398a1.04 1.04 0 0 1-1.04-1.04V45.784a1.04 1.04 0 1 1 2.08 0v15.574a1.04 1.04 0 0 1-1.04 1.04zM54.139 62.398a1.04 1.04 0 0 1-1.04-1.04v-15.62a1.039 1.039 0 1 1 2.08 0v15.62a1.04 1.04 0 0 1-1.04 1.04z"/>
        <path fill="#000" d="M38.555 63.438a2.082 2.082 0 0 1-2.08-2.08 1.04 1.04 0 1 1 2.08 0v.002a1.038 1.038 0 1 1 0 2.078zM53.099 63.438a1.04 1.04 0 1 1 0-2.08 1.039 1.039 0 1 1 2.08 0c0 1.147-.933 2.08-2.08 2.08z"/>
        <path fill="#000" d="M53.099 63.438H38.555a1.04 1.04 0 1 1 0-2.08H53.1a1.04 1.04 0 1 1 0 2.08zM48.939 35.356h-6.243a1.04 1.04 0 1 1 0-2.08h6.243a1.04 1.04 0 1 1 0 2.08zM54.139 49.917H37.515a1.04 1.04 0 1 1 0-2.08H54.14a1.04 1.04 0 1 1 0 2.08zM54.139 58.238H37.515a1.04 1.04 0 1 1 0-2.08H54.14a1.04 1.04 0 1 1 0 2.08zM45.816 56.156c-1.72 0-3.12-1.4-3.12-3.119 0-1.719 1.4-3.119 3.12-3.119 1.719 0 3.119 1.4 3.119 3.119a3.123 3.123 0 0 1-3.12 3.119zm0-4.158a1.04 1.04 0 1 0 .001 2.08 1.04 1.04 0 0 0-.001-2.08zM43.737 42.603h-2.082a1.039 1.039 0 1 1 0-2.08h2.082a1.04 1.04 0 1 1 0 2.08zM49.964 42.603h-2.066a1.039 1.039 0 1 1 0-2.08h2.065a1.04 1.04 0 1 1 .001 2.08z"/>
    </g>
</svg>
