<svg xmlns="http://www.w3.org/2000/svg" width="160" height="160" viewBox="0 0 160 160">
    <g fill="none" fill-rule="evenodd">
        <circle cx="80" cy="80" r="78.5" fill="#FFF" fill-opacity=".202" stroke="#B9B3F3" stroke-width="3"/>
        <g fill-rule="nonzero" transform="translate(36 37)">
            <circle cx="43.52" cy="43.52" r="43.52" fill="#56A5D8"/>
            <path fill="#FFF" d="M68.216 42.287a12.5 12.5 0 0 0 .197-1.507c.043-.656-.006-1.63-.023-1.936-.605-10.512-11.511-18.887-24.877-18.887-13.754 0-24.904 8.868-24.904 19.808 0 10.055 9.42 18.36 21.623 19.638a1.354 1.354 0 0 1 1.201 1.497l-.52 4.676c-.117 1.062.98 1.834 1.943 1.37 10.31-4.976 16.475-10.095 20.157-14.53.67-.807 2.854-3.867 3.3-4.671a16.676 16.676 0 0 0 1.903-5.458z"/>
            <g fill="#56A5D8">
                <path d="M29.82 43.777v-8.343a1.274 1.274 0 1 0-2.548 0v9.617c0 .704.57 1.274 1.273 1.274h5.096a1.274 1.274 0 1 0 0-2.548h-3.822zM37.677 46.325h-.557a.996.996 0 0 1-.995-.996V35.155c0-.55.445-.996.995-.996h.557c.55 0 .995.446.995.996v10.174c0 .55-.445.996-.995.996zM47.971 35.434v5.875s-5.087-6.635-5.165-6.723a1.268 1.268 0 0 0-.999-.425c-.692.026-1.224.632-1.224 1.325v9.565a1.274 1.274 0 1 0 2.548 0v-5.84s5.165 6.694 5.24 6.766c.226.213.528.345.863.348.707.006 1.285-.62 1.285-1.327v-9.564a1.274 1.274 0 1 0-2.548 0zM60.073 35.434c0-.704-.57-1.274-1.274-1.274h-5.096c-.704 0-1.274.57-1.274 1.274v9.617c0 .704.57 1.274 1.274 1.274h5.096a1.274 1.274 0 1 0 0-2.548h-3.822v-2.26h3.822a1.274 1.274 0 1 0 0-2.548h-3.822v-2.262h3.822c.703 0 1.274-.57 1.274-1.273z"/>
            </g>
        </g>
    </g>
</svg>
