<svg xmlns="http://www.w3.org/2000/svg" width="160" height="160" viewBox="0 0 160 160">
    <g fill="none" fill-rule="evenodd" transform="translate(-4)">
        <circle cx="84" cy="80" r="78.5" fill="#FFF" fill-opacity=".202" stroke="#B9B3F3" stroke-width="3"/>
        <path fill="#BFE4F8" d="M23.73 82.723l116.097-31.445a.9.9 0 0 1 1.037 1.277l-35.181 69.127a.9.9 0 0 1-1.182.408L23.586 84.407a.9.9 0 0 1 .145-1.684z"/>
        <path fill="#7FA2B9" d="M50.437 96.685l17.74 6.917-3.697 29.366z"/>
        <path fill="#7FA2B9" d="M120.225 66.7l-53.45 37.56-16.338-7.575 69.347-30.764a.45.45 0 0 1 .441.779z"/>
        <path fill="#009FDE" fill-opacity=".199" d="M64.456 48.822l49.95-13.586a3.6 3.6 0 0 1 4.545 3.474v28.667L67.569 106.14a3.6 3.6 0 0 1-5.768-2.874V52.296a3.6 3.6 0 0 1 2.655-3.474z"/>
        <path fill="#FFF" d="M57.655 55.372l49.95-13.586a3.6 3.6 0 0 1 4.545 3.474v28.667L60.768 112.69A3.6 3.6 0 0 1 55 109.815V58.846a3.6 3.6 0 0 1 2.655-3.474z"/>
        <path fill="#009FDE" d="M56.56 55.388l51.31-13.671c2.854-.83 4.28.412 4.28 3.726-5.762 8.51-12.557 17.713-20.385 27.607a3 3 0 0 1-3.463.925C73.336 68.01 62.236 63.285 55 59.8c-1.04-2.836-.52-4.307 1.56-4.412z"/>
        <path fill="#BFE4F8" d="M113.767 71.166c3.528 3.575 3.528 9.072 0 16.491-3.528 7.42-10.647 16.892-21.356 28.42l-28.192-13.909 49.548-31.002z"/>
        <path fill="#9ABFD7" d="M64.22 102.168l22.5 11.22-22.5 19.58z"/>
    </g>
</svg>
