<svg xmlns="http://www.w3.org/2000/svg" xmlns:xlink="http://www.w3.org/1999/xlink" width="160" height="160" viewBox="0 0 160 160">
    <defs>
        <path id="a" d="M-4.556 14.539c1.094-.986 10.544.23 15.245-.597 4.701-.826 6.204-.958 8.638-2.382.52-.305 1.02-.59 1.504-.855a3.2 3.2 0 0 1 4.734 2.566l.267 3.59a7.67 7.67 0 0 1-7.649 8.238H2.893a7.907 7.907 0 0 1-7.449-10.56z"/>
    </defs>
    <g fill="none" fill-rule="evenodd">
        <circle cx="80" cy="80" r="78.5" fill="#FFF" fill-opacity=".202" stroke="#B9B3F3" stroke-width="3"/>
        <g fill-rule="nonzero">
            <path fill="#56A5D8" d="M55.083 39c11.092 0 20.083 8.978 20.083 20.052s-8.99 20.05-20.083 20.05C43.991 79.103 35 70.127 35 59.053S43.991 39 55.083 39z"/>
            <path fill="#FFF" d="M57.528 52.804h2.589v-3.817h-3.043V49c-3.687.13-4.442 2.199-4.509 4.372h-.007v1.906h-2.51v3.739h2.51v10.02h3.783v-10.02h3.099l.599-3.739h-3.697v-1.151c0-.735.49-1.324 1.186-1.324z"/>
        </g>
        <g transform="matrix(-1 0 0 1 135 62)">
            <path fill="#669BBD" d="M9.88 24.16h39v37h-39z"/>
            <rect width="29" height="9.92" x=".8" y="24.16" fill="#AAD2EC" rx="4.96"/>
            <path fill="#FFF" d="M22 26.08h3.04a3.04 3.04 0 0 1 0 6.08H22a.32.32 0 0 1-.32-.32V26.4a.32.32 0 0 1 .32-.32z" opacity=".5"/>
            <rect width="29" height="9.92" x="1.8" y="33.76" fill="#AAD2EC" rx="4.96"/>
            <path fill="#FFF" d="M22.64 35.68h3.04a3.04 3.04 0 0 1 0 6.08h-3.04a.32.32 0 0 1-.32-.32V36a.32.32 0 0 1 .32-.32z" opacity=".5"/>
            <rect width="29" height="9.92" x="3.8" y="43.36" fill="#AAD2EC" rx="4.96"/>
            <path fill="#FFF" d="M24.24 45.28h3.04a3.04 3.04 0 0 1 0 6.08h-3.04a.32.32 0 0 1-.32-.32V45.6a.32.32 0 0 1 .32-.32z" opacity=".5"/>
            <rect width="29" height="8.96" x="5.8" y="52.96" fill="#AAD2EC" rx="4.48"/>
            <path fill="#FFF" d="M26.48 54.56h3.04a3.04 3.04 0 0 1 0 6.08h-3.04a.32.32 0 0 1-.32-.32v-5.44a.32.32 0 0 1 .32-.32z" opacity=".5"/>
            <path fill="#AAD2EC" d="M35.153 32.16h40.015A16.96 16.96 0 0 1 91.81 45.846c.177.897.389 1.744.636 2.54 1.27 4.094-.272 8.605-4.629 13.534l-37.174.463c-9.207.114-16.835-7.117-17.213-16.317-.139-3.378.436-8.013 1.724-13.906z"/>
            <path fill="#AAD2EC" d="M41.991 14.24a5.538 5.538 0 0 1 5.326 4.02c1.532 5.374 2.732 8.756 3.6 10.148 1.068 1.712 2.958 3.174 5.67 4.386l-21.908 2.13 2.47-16.513a4.895 4.895 0 0 1 4.842-4.171z"/>
            <path fill="#56A5D8" d="M92.342 27H56a3 3 0 0 0-3 3v31a3 3 0 0 0 3 3h40.564a3 3 0 0 0 2.972-3.405l-4.221-31A3 3 0 0 0 92.342 27z"/>
            <g transform="translate(34.448)">
                <mask id="b" fill="#fff">
                    <use xlink:href="#a"/>
                </mask>
                <use fill="#AAD2EC" transform="rotate(95 10.536 16.86)" xlink:href="#a"/>
                <path fill="#FFF" d="M8.997 5.012l4.707-.81a3.37 3.37 0 0 1 3.942 3.32v.347a3.653 3.653 0 0 1-3.653 3.653h-3.401a.326.326 0 0 1-.316-.244l-1.54-5.861a.326.326 0 0 1 .26-.405z" mask="url(#b)" opacity=".5" transform="rotate(-73 13.146 7.522)"/>
            </g>
        </g>
    </g>
</svg>
