<svg xmlns="http://www.w3.org/2000/svg" width="72" height="72" viewBox="0 0 72 72">
    <g fill="none" fill-rule="nonzero">
        <path fill="#D6CFC8" d="M12.044 41.518l-1.486 1.185-2.594 2.08v-5.59l1.6-1.073c.357-.235.759-.347 1.162-.347.536 0 1.073.202 1.464.593.111.1.2.223.29.346a2.092 2.092 0 0 1-.436 2.806z"/>
        <g fill="#6C2C91">
            <path d="M3.572 61.326l3.275 9.166-3.354-8.943zM60.502 45.9l1.117 4.471-3.353 2.236-2.236 15.649-3.353-10.06v12.296H19.143V58.196l-3.354 10.06-2.236-15.65-3.353-2.235 1.118-4.471-2.135.47 1.375-3.667 1.487-1.185c.86-.682 1.04-1.9.435-2.806-.09-.123-.178-.246-.29-.346l1.363-3.644s2.638 6.852 9.726 11.144a13.389 13.389 0 0 1 12.63-8.909 13.39 13.39 0 0 1 12.632 8.91c7.087-4.293 9.725-11.145 9.725-11.145l1.363 3.644c-.111.1-.2.223-.29.346a2.092 2.092 0 0 0 .436 2.806l1.486 1.185v.01l1.375 3.656-2.134-.47zM68.326 61.55l-3.353 8.942 3.275-9.166z"/>
        </g>
        <path fill="#EBE5DD" d="M58.266 34.722s-2.638 6.852-9.725 11.144a13.389 13.389 0 0 0-12.631-8.908 13.388 13.388 0 0 0-12.631 8.908c-7.088-4.292-9.726-11.144-9.726-11.144h13.414l.045-.157a4.464 4.464 0 0 0 3.309-4.314l-1.118-3.354 4.471 4.472 2.236 1.117 2.235-1.117 4.472-4.472-1.118 3.354c0 2.067 1.397 3.8 3.309 4.314l.044.157h13.414z"/>
        <path fill="#FFB398" d="M43.734 20.19l-1.117 6.707-4.472 4.471-2.235 1.118-2.236-1.118-4.471-4.47-1.118-6.707 7.825-6.707z"/>
        <path fill="#6C2C91" d="M49.324 10.13l-3.108 5.6c-.078-.01-.168-.01-.246-.01l-1.442-.325-8.618-1.911-8.619 1.911-1.442.324c-.078 0-.167 0-.246.011l-3.107-5.6 2.236-4.471 3.353-1.118 4.471-3.353h6.707l4.47 3.353 3.354 1.118 2.237 4.471z"/>
        <path fill="#FFD422" d="M28.875 3.75a1.117 1.117 0 1 0-1.58 1.581l5.589 5.59a1.114 1.114 0 0 0 1.58 0 1.117 1.117 0 0 0 0-1.581l-5.589-5.59zM44.525 3.75a1.117 1.117 0 0 0-1.58 0l-5.59 5.59a1.117 1.117 0 1 0 1.58 1.58l5.59-5.589a1.117 1.117 0 0 0 0-1.58z"/>
        <path fill="#F49B7F" d="M39.184 24.247l-2.236-5.59a1.117 1.117 0 1 0-2.076.83l1.038 4.056h-1.118a1.117 1.117 0 1 0 0 2.237h3.353a1.119 1.119 0 0 0 1.039-1.533z"/>
        <path fill="#FFD422" d="M58.266 33.604v1.118H45.97a4.43 4.43 0 0 1-1.162-.157 4.464 4.464 0 0 1-3.31-4.314l1.119-3.354 1.117-6.706-7.824-6.707 8.618 1.911 1.442.324c.078 0 .168 0 .246.011 1.442.056 2.75.671 3.71 1.621a5.612 5.612 0 0 1 1.633 3.957v5.59c.928 0 1.766.38 2.37.983.603.604.984 1.442.984 2.37.927 0 1.766.38 2.369.983.604.604.984 1.442.984 2.37zM29.203 26.897l1.118 3.353a4.464 4.464 0 0 1-3.309 4.315c-.369.1-.76.157-1.163.157H13.553v-1.118c0-.928.38-1.766.984-2.37a3.345 3.345 0 0 1 2.37-.984c0-.928.38-1.766.983-2.37a3.345 3.345 0 0 1 2.37-.983v-5.59c0-1.542.626-2.939 1.632-3.956a5.592 5.592 0 0 1 3.711-1.62c.079-.012.168-.012.246-.012l1.442-.324 8.619-1.912-7.825 6.707 1.118 6.707z"/>
        <path fill="#5AAAE7" d="M49.324 50.37c0 4.662-2.382 8.776-5.992 11.18H28.499a13.365 13.365 0 0 1-6.003-11.18c0-1.586.268-3.095.783-4.504a13.389 13.389 0 0 1 12.63-8.909 13.39 13.39 0 0 1 12.632 8.91c.514 1.408.783 2.917.783 4.504z"/>
        <path fill="#E8BF13" d="M45.97 63.785v2.235H25.85v-2.235a2.242 2.242 0 0 1 2.235-2.236h15.65a2.242 2.242 0 0 1 2.235 2.236z"/>
        <path fill="#FFD422" d="M48.206 70.492H23.614v-2.236a2.236 2.236 0 0 1 2.235-2.236H45.97a2.236 2.236 0 0 1 2.236 2.236v2.236z"/>
        <path fill="#A7D9F2" d="M43.734 48.135c0 1.71-.425 3.32-1.184 4.729a2.242 2.242 0 0 0-3.286 1.979c0 .492.156.96.446 1.33a9.956 9.956 0 0 1-6.036 2.023c-5.555 0-10.06-4.505-10.06-10.06 0-5.556 4.505-10.06 10.06-10.06 5.555 0 10.06 4.504 10.06 10.06z"/>
        <path fill="#FFF" d="M43.734 54.842a2.242 2.242 0 0 1-2.235 2.236 2.21 2.21 0 0 1-1.789-.906 2.143 2.143 0 0 1-.447-1.33 2.242 2.242 0 0 1 3.287-1.978 2.256 2.256 0 0 1 1.184 1.978zM30.32 42.547a2.236 2.236 0 1 1-4.47 0 2.236 2.236 0 0 1 4.47 0z"/>
        <path fill="#FFB398" d="M43.734 20.19l1.902-.634a1.765 1.765 0 0 1 2.07 2.583l-2.48 4.137a1.28 1.28 0 0 1-2.361-.87l.87-5.215zM28.085 20.19l-1.902-.634a1.765 1.765 0 0 0-2.07 2.583l2.481 4.137a1.28 1.28 0 0 0 2.36-.87l-.869-5.215z"/>
        <path fill="#EBE5DD" d="M9.999 31.871l-2.035 5.086v10.06l-4.47 1.118-1.119-10.06 3.354-4.471 2.18-2.906c.245-.324.603-.481.96-.481A1.213 1.213 0 0 1 10 31.871z"/>
        <path fill="#8034AD" d="M15.79 68.256l-4.472 2.236H6.847l-3.275-9.166-2.314-6.484L4.61 51.49l-3.353-3.354 7.925-1.766 2.135-.47-1.118 4.472 3.353 2.236z"/>
        <path fill="#D6CFC8" d="M5.729 33.604l-3.354 4.471-1.117-6.707 2.302-3.845c.459-.749 1.565-.715 1.956.078.079.157.123.336.123.503 0 .124-.022.235-.055.347l-.973 2.917 1.118 2.236z"/>
        <path fill="#EBE5DD" d="M69.444 38.075l-1.118 10.06-4.47-1.117v-10.06L61.82 31.87a1.213 1.213 0 0 1 1.13-1.654c.357 0 .715.157.96.48l2.18 2.907 3.354 4.471z"/>
        <path fill="#D6CFC8" d="M63.855 39.193v5.589l-2.594-2.068v-.011l-1.486-1.185a2.092 2.092 0 0 1-.436-2.806c.09-.122.179-.246.29-.346a2.072 2.072 0 0 1 1.465-.592c.402 0 .804.111 1.162.346l1.6 1.073z"/>
        <path fill="#8034AD" d="M67.208 51.489l3.354 3.353-2.314 6.484-3.275 9.166h-4.471l-4.472-2.236 2.236-15.65 3.353-2.235-1.117-4.471 2.134.47 7.926 1.765z"/>
        <path fill="#D6CFC8" d="M70.562 31.368l-1.118 6.707-3.353-4.471 1.118-2.236-.973-2.917a1.173 1.173 0 0 1-.056-.347c0-.167.044-.346.123-.503.39-.793 1.498-.827 1.956-.078l2.303 3.845z"/>
        <path fill="#ED539D" d="M38.145 10.13c0-1.852-1-3.353-2.235-3.353-1.235 0-2.236 1.501-2.236 3.353 0 1.852 1.001 3.354 2.236 3.354 1.234 0 2.235-1.502 2.235-3.354z"/>
        <path fill="#000" d="M39.071 25.288c.208-.307.25-.697.113-1.041l-2.236-5.59a1.117 1.117 0 1 0-2.076.83l1.623 4.056h-1.703a1.117 1.117 0 1 0 0 2.237h3.353c.372 0 .718-.185.926-.492z"/>
        <path fill="#000" d="M68.79 51.489l2.562-2.563a1.116 1.116 0 0 0-.55-1.882l-1.198-.266.949-8.557 1.111-6.669c.044-.26-.008-.53-.143-.758l-2.309-3.855a2.232 2.232 0 0 0-2.018-1.071 2.222 2.222 0 0 0-1.89 1.23 2.259 2.259 0 0 0-.242 1.007c0 .221.034.44.114.7l.825 2.477-.102.205-1.097-1.463a2.306 2.306 0 0 0-1.852-.925c-.879 0-1.675.49-2.077 1.275a2.345 2.345 0 0 0-.091 1.913l1.926 4.814c-.746-.424-1.662-.516-2.474-.308l-.85-2.273v-.916a4.438 4.438 0 0 0-1.312-3.16 4.442 4.442 0 0 0-2.156-1.197 4.44 4.44 0 0 0-1.197-2.156 4.446 4.446 0 0 0-2.043-1.17v-4.613c0-1.784-.693-3.469-1.963-4.753a6.729 6.729 0 0 0-2.773-1.63l2.36-4.252c.18-.323.188-.713.023-1.043L48.087 5.16a1.117 1.117 0 0 0-.646-.56L44.26 3.538 39.933.294a1.115 1.115 0 0 0-.67-.224h-6.707c-.242 0-.477.078-.67.224L27.56 3.538l-3.182 1.061c-.28.093-.513.295-.646.56L21.496 9.63c-.165.33-.156.72.023 1.043l2.36 4.252a6.745 6.745 0 0 0-2.781 1.64 6.704 6.704 0 0 0-1.955 4.743v4.612a4.449 4.449 0 0 0-2.043 1.17 4.445 4.445 0 0 0-1.197 2.157 4.445 4.445 0 0 0-2.156 1.197 4.438 4.438 0 0 0-1.311 3.16v.916l-.85 2.269a3.322 3.322 0 0 0-2.475.312l1.926-4.814.008-.021a2.33 2.33 0 0 0-2.176-3.167c-.731 0-1.407.337-1.854.928L5.92 31.486l-.102-.204.835-2.506c.07-.23.104-.45.104-.671a2.24 2.24 0 0 0-.238-.997 2.225 2.225 0 0 0-1.894-1.24c-.82-.05-1.59.372-2.025 1.08L.298 30.795a1.123 1.123 0 0 0-.143.758l1.112 6.67.948 8.556-1.198.266a1.118 1.118 0 0 0-.55 1.882l2.563 2.563-2.563 2.563c-.305.306-.407.76-.262 1.166l2.2 6.16c-.03.19-.026.383.041.564L5.8 70.885c.022.057.058.103.088.155.026.046.045.096.077.137.039.05.088.086.133.128.038.035.07.075.112.104.052.036.11.056.166.083.045.02.087.05.135.065.108.034.22.052.336.052h4.47c.174 0 .346-.04.5-.117l4.472-2.236c.02-.01.032-.026.05-.037.05-.028.092-.061.136-.097.053-.041.103-.084.147-.135.033-.037.06-.077.088-.12.04-.06.075-.121.103-.189.01-.024.028-.043.036-.068l1.176-3.526v5.408c0 .617.5 1.117 1.118 1.117h33.534c.618 0 1.118-.5 1.118-1.117v-5.408l1.175 3.526c.009.025.027.044.038.069.027.066.06.127.1.187.028.043.056.083.09.121.044.051.093.094.147.136.042.033.082.065.129.092.02.012.035.03.056.04l4.472 2.237c.155.077.326.117.5.117h4.47c.116 0 .228-.018.336-.052.049-.015.09-.044.137-.066.055-.026.113-.047.164-.082.042-.03.075-.07.113-.105.045-.041.094-.078.132-.127.033-.041.052-.092.078-.139.03-.05.067-.097.088-.153l3.353-8.943a1.11 1.11 0 0 0 .04-.563l2.201-6.161c.146-.406.044-.86-.262-1.166l-2.563-2.563zm.602-19.9l-.621 3.725-1.371-1.828.808-1.617a1.12 1.12 0 0 0 .06-.854l-.968-2.918 2.092 3.493zm-6.376-.22l5.268 7.023-.876 7.898-.414-.092-2.022-.454v-8.787c0-.142-.027-.283-.08-.415l-2.035-5.14.16-.032zm-1.382 7.679l1.103.74v2.673l-.671-.535a1.154 1.154 0 0 0-.108-.098l-1.49-1.186c-.399-.317-.485-.88-.224-1.273.032-.044.065-.087.1-.13.021-.025.041-.05.075-.082.299-.298.858-.341 1.215-.11zM55.95 36.78c-.125.208-.262.427-.407.653-.049.076-.095.15-.147.228-.194.294-.404.6-.633.915-.048.066-.102.135-.152.203a25.347 25.347 0 0 1-1.573 1.915c-.062.068-.12.136-.182.205-.313.335-.646.671-.995 1.007-.094.089-.193.176-.29.265-.278.259-.569.514-.871.767-.117.097-.232.195-.352.291-.41.33-.834.655-1.286.967-.075-.16-.16-.311-.24-.467-.065-.127-.127-.255-.195-.38-.118-.214-.247-.422-.375-.63-.06-.097-.116-.198-.18-.294-.195-.3-.401-.594-.618-.877l-.003-.004a14.761 14.761 0 0 0-.677-.818c-.077-.086-.16-.166-.238-.25-.163-.176-.327-.35-.499-.518-.099-.096-.204-.187-.306-.28-.159-.146-.318-.292-.482-.43-.114-.095-.232-.185-.348-.277a14.167 14.167 0 0 0-.49-.374c-.124-.09-.25-.174-.378-.26a14.845 14.845 0 0 0-.505-.329 16.476 16.476 0 0 0-1.346-.734c-.18-.086-.361-.168-.545-.247a13.218 13.218 0 0 0-.434-.18c-.188-.074-.377-.141-.568-.207-.146-.05-.293-.102-.442-.148a14.433 14.433 0 0 0-.598-.168c-.146-.038-.291-.079-.44-.113a14.77 14.77 0 0 0-.64-.127c-.14-.026-.28-.055-.421-.077-.24-.037-.482-.061-.725-.086-.12-.012-.238-.03-.36-.039a14.44 14.44 0 0 0-2.201 0c-.122.01-.24.027-.362.04-.241.024-.482.048-.721.085-.143.022-.284.052-.427.078-.212.039-.425.078-.635.126-.15.035-.297.075-.444.114-.199.053-.397.106-.593.166-.15.047-.3.099-.449.15-.188.065-.374.132-.558.204a15.921 15.921 0 0 0-1.414.644 14.783 14.783 0 0 0-1.398.832c-.139.094-.277.187-.413.285-.15.108-.296.222-.442.337-.133.104-.267.207-.396.315-.142.119-.277.244-.413.368-.126.114-.254.226-.376.344-.132.129-.257.264-.384.398-.117.123-.239.243-.352.371-.128.145-.248.298-.37.448a14.3 14.3 0 0 0-.555.723c-.118.164-.238.326-.35.495-.094.144-.179.295-.268.443-.097.16-.197.317-.287.481-.084.15-.159.307-.237.462-.068.135-.143.267-.208.405-.45-.311-.872-.636-1.281-.964a23.188 23.188 0 0 1-1.22-1.055c-.096-.09-.196-.178-.29-.268-.348-.334-.681-.67-.992-1.005-.064-.07-.121-.138-.184-.206a24.789 24.789 0 0 1-1.572-1.914c-.05-.068-.105-.137-.153-.205-.228-.314-.44-.62-.633-.913-.054-.081-.102-.158-.153-.237-.142-.22-.276-.435-.399-.638-.049-.082-.099-.163-.144-.241a24.25 24.25 0 0 1-.376-.663c-.009-.015-.02-.033-.027-.048h11.635c.312 0 .6-.13.807-.344.078-.03.15-.07.227-.103a5.343 5.343 0 0 0 .78-.403c.096-.06.193-.117.285-.182.152-.107.293-.226.433-.347.075-.065.154-.124.225-.193.173-.168.333-.348.483-.536.026-.032.057-.06.082-.093.172-.225.324-.464.46-.713.04-.071.069-.148.105-.222a5.47 5.47 0 0 0 .243-.555c.037-.099.063-.2.093-.301.052-.175.1-.35.135-.531a5.27 5.27 0 0 0 .052-.337c.012-.095.036-.188.044-.284l1.462 1.462c.086.086.184.157.29.21l2.236 1.118a1.118 1.118 0 0 0 1 0l2.236-1.118a1.12 1.12 0 0 0 .29-.21l1.463-1.462c.008.096.031.189.044.283.015.115.03.227.052.338.035.18.082.355.134.53.03.1.057.203.093.303.069.188.152.369.24.548.038.076.068.156.108.23.136.247.288.485.459.709.03.038.065.071.095.108.147.182.301.358.47.52.073.072.156.135.234.203.136.118.274.233.422.338.094.067.194.126.293.187a5.446 5.446 0 0 0 .776.4c.077.033.149.074.227.103.206.213.495.343.807.343h11.639c-.118.22-.258.465-.406.719l-.135.223zM44.852 64.903H26.967v-1.118c0-.617.501-1.118 1.118-1.118h15.65c.616 0 1.117.501 1.117 1.118v1.118zm-1.866-4.472H28.843a12.2 12.2 0 0 1-4.66-6.418c1.975 3.175 5.485 5.3 9.491 5.3 2.106 0 4.186-.606 5.95-1.722.55.377 1.195.605 1.875.605a3.357 3.357 0 0 0 3.353-3.354 3.35 3.35 0 0 0-.924-2.303c.595-1.382.924-2.88.924-4.404 0-4.022-2.143-7.544-5.34-9.514a12.298 12.298 0 0 1 7.979 7.628c.475 1.3.715 2.688.715 4.122 0 4.016-1.946 7.753-5.22 10.06zm-2.398-4.951a1.022 1.022 0 0 1-.207-.638c0-.617.501-1.118 1.118-1.118.191 0 .367.042.522.125.367.199.596.579.596.993 0 .617-.501 1.118-1.118 1.118-.355 0-.678-.164-.91-.48zm1.365-3.96a3.357 3.357 0 0 0-3.766 3.84c.01.066.029.128.043.193.017.08.03.163.053.242a8.795 8.795 0 0 1-4.609 1.283c-4.93 0-8.942-4.012-8.942-8.943 0-1.252.261-2.444.728-3.527a3.337 3.337 0 0 0 2.625 1.292 3.357 3.357 0 0 0 3.354-3.353c0-1.069-.512-2.011-1.292-2.626a8.883 8.883 0 0 1 3.527-.728c4.931 0 8.943 4.011 8.943 8.942 0 1.186-.223 2.32-.664 3.384zM28.085 41.427a1.119 1.119 0 1 1-1.118 1.119c0-.14.033-.27.08-.394.204-.226.419-.44.645-.644.123-.048.253-.08.393-.08zm2.162-15.068l-.956-5.73 6.619-5.674 6.618 5.673-.955 5.731-4.09 4.089-1.573.787-1.573-.787-4.09-4.089zm14.48-5.322l1.262-.42a.645.645 0 0 1 .76.946L44.266 25.7c-.06.1-.221.07-.263.02a.15.15 0 0 1-.036-.13l.759-4.553zm-8.816-8.673h-.003c-.456-.001-1.116-.872-1.116-2.235 0-1.364.661-2.235 1.118-2.235.456 0 1.118.87 1.118 2.235 0 1.363-.66 2.234-1.117 2.235zm-8.06 13.228a.148.148 0 0 1-.036.129c-.042.049-.201.078-.263-.021l-2.48-4.138a.642.642 0 0 1-.025-.621.653.653 0 0 1 .783-.326l1.263.421.758 4.556zm22.59-4.285v5.59c0 .617.5 1.117 1.118 1.117.595 0 1.156.232 1.58.656.423.423.656.985.656 1.58 0 .618.5 1.118 1.118 1.118a2.22 2.22 0 0 1 1.58.656c.423.423.655.984.655 1.58H45.97c-.291 0-.584-.04-.872-.119a3.356 3.356 0 0 1-2.477-3.066l.837-2.512c.216.063.44.107.67.107a2.41 2.41 0 0 0 2.056-1.163l2.481-4.137c.51-.849.55-1.885.107-2.773a2.896 2.896 0 0 0-3.49-1.446l-1.3.434-3.95-3.385 5.692 1.265c.081.018.254.027.336.027a.977.977 0 0 0 .112.01 4.459 4.459 0 0 1 2.96 1.29 4.486 4.486 0 0 1 1.31 3.171zm-2.38-11.205l-2.438 4.393-7.093-1.576c.38-.64.626-1.42.697-2.29l4.81-4.81 2.258.753 1.766 3.53zM32.929 2.305h5.962l3.142 2.357-3.225 3.225c-.574-1.336-1.638-2.228-2.898-2.228-1.26 0-2.325.892-2.898 2.228l-3.226-3.225 3.143-2.357zm-7.405 4.268l2.259-.754 4.81 4.81c.07.87.316 1.652.697 2.29l-7.093 1.577-2.438-4.393 1.765-3.53zM15.327 32.024a2.222 2.222 0 0 1 1.58-.656c.618 0 1.118-.5 1.118-1.118 0-.594.232-1.156.656-1.58a2.22 2.22 0 0 1 1.58-.655c.617 0 1.117-.5 1.117-1.118v-5.59c0-1.191.465-2.317 1.3-3.16a4.462 4.462 0 0 1 2.97-1.3l.026-.001.016.002c.054 0 .107-.003.16-.011.082 0 .164-.009.245-.028l5.692-1.264-3.948 3.385-1.303-.435a2.9 2.9 0 0 0-3.489 1.447 2.868 2.868 0 0 0 .107 2.772l2.481 4.137a2.41 2.41 0 0 0 2.057 1.164c.231 0 .453-.045.67-.108l.837 2.512a3.36 3.36 0 0 1-3.35 3.184H14.671c0-.594.233-1.155.656-1.579zm-3.886 7.171c.053.05.09.115.11.138.285.429.2.992-.203 1.31l-1.486 1.185c-.005.004-.008.01-.013.013l-.767.612V39.79l1.093-.735a1 1 0 0 1 1.266.141zM4.524 28.097l-.973 2.918a1.12 1.12 0 0 0 .06.854l.809 1.617-1.371 1.828-.621-3.724 2.096-3.493zm-.99 10.295l5.335-7.058.093.068c.002.004.007.03-.006.069l-2.03 5.071c-.052.132-.08.273-.08.415v8.787l-2.02.454-.415.091-.876-7.897zm7.52 30.982h-3.42L2.549 55.133 5.4 52.279a1.117 1.117 0 0 0 0-1.58l-1.91-1.91.189-.043h.003l.3-.068 5.813-1.299-.68 2.721c-.115.458.071.939.464 1.202l2.938 1.958 2.05 14.357-3.514 1.757zm8.268-12.282a1.122 1.122 0 0 0-1.24.75l-1.856 5.567-1.566-10.96a1.12 1.12 0 0 0-.486-.772l-2.699-1.8.927-3.707a1.117 1.117 0 0 0-1.324-1.361l-.126.027.542-1.446 1.173-.939.072-.058c.163-.129.31-.27.441-.423.048-.054.082-.116.125-.173.076-.1.156-.2.218-.307.044-.074.073-.154.11-.23.046-.099.098-.195.135-.297.03-.084.045-.17.068-.256.026-.101.058-.2.075-.304.014-.088.014-.178.02-.266.009-.104.02-.207.019-.313-.002-.09-.018-.179-.028-.268-.011-.106-.018-.21-.04-.315-.018-.09-.05-.176-.077-.265-.03-.104-.058-.207-.1-.31-.035-.086-.084-.17-.127-.255-.041-.08-.072-.164-.12-.242l.24-.647.06.098c.144.249.302.51.474.784.03.047.053.089.084.136.202.317.425.65.665.992.067.096.14.194.21.29a26.047 26.047 0 0 0 1.574 1.98c.087.1.168.197.258.297.336.374.692.75 1.072 1.124.079.078.166.155.247.232.31.297.631.593.97.886a24.781 24.781 0 0 0 1.407 1.13c.147.11.291.221.444.33.257.184.525.361.796.539a14.31 14.31 0 0 0-.58 4.03c0 4.132 1.748 7.989 4.738 10.713a3.343 3.343 0 0 0-1.385 2.702v1.323a3.349 3.349 0 0 0-2.236 3.148v1.118H20.26V58.196c0-.548-.397-1.016-.938-1.104zm5.41 12.282v-1.118c0-.617.5-1.118 1.117-1.118H45.97c.617 0 1.118.501 1.118 1.118v1.118H24.732zm29.005-11.532a1.124 1.124 0 0 0-1.239-.75 1.118 1.118 0 0 0-.939 1.104v11.178h-2.235v-1.118a3.35 3.35 0 0 0-2.236-3.148v-1.323c0-1.112-.55-2.091-1.385-2.701a14.496 14.496 0 0 0 4.738-10.713 14.3 14.3 0 0 0-.58-4.031c.27-.178.539-.355.796-.539.152-.109.296-.22.444-.33.339-.254.666-.51.981-.772.144-.12.287-.238.426-.358.338-.293.66-.589.97-.886.08-.078.167-.154.246-.232.38-.375.736-.75 1.072-1.124.09-.1.172-.198.259-.298a26.16 26.16 0 0 0 1.573-1.978c.07-.097.144-.195.21-.29.24-.343.464-.675.666-.993.03-.047.054-.09.084-.136.172-.274.33-.535.473-.784l.06-.098.24.644c-.055.086-.09.178-.136.266-.04.08-.088.158-.122.24-.041.102-.067.205-.098.309-.025.087-.058.173-.076.26-.022.103-.027.206-.038.31-.01.09-.027.18-.028.27-.002.104.011.206.019.308.007.09.006.18.02.268.018.106.051.207.079.31.022.083.036.169.066.25.038.108.094.21.144.315.035.07.06.145.1.213.067.115.151.22.233.328.039.051.07.107.112.156.131.152.278.294.442.423l1.239.988.548 1.455-.124-.027a1.118 1.118 0 0 0-1.324 1.362l.927 3.708-2.699 1.799a1.12 1.12 0 0 0-.486.771l-1.566 10.96-1.856-5.566zm3.514 9.775l2.05-14.358 2.939-1.958c.393-.262.578-.743.463-1.2l-.68-2.722 5.813 1.3.3.067h.003l.189.042-1.91 1.91a1.118 1.118 0 0 0 0 1.581l2.853 2.854-5.086 14.24h-3.42l-3.514-1.756z"/>
    </g>
</svg>
