<svg xmlns="http://www.w3.org/2000/svg" width="116" height="116" viewBox="0 0 116 116">
    <g fill="none" fill-rule="nonzero">
        <path fill="#899996" d="M96 97.2c-.307 0-.614-.118-.85-.35l-31.2-31.2a1.2 1.2 0 0 1 1.697-1.697l31.2 31.2A1.2 1.2 0 0 1 96 97.2zM50.4 51.6c-.307 0-.614-.118-.85-.35l-31.2-31.2a1.2 1.2 0 0 1 1.697-1.697l31.2 31.2A1.2 1.2 0 0 1 50.4 51.6z"/>
        <path fill="#66E0F4" d="M55.2 31.2l-3.96 3.96-1.68 1.68-12.72 12.72-1.68 1.68-3.96 3.96L0 24 24 0z"/>
        <path fill="#FFF" fill-opacity=".36" d="M34.08 21.384L21.384 34.08 36.84 49.56l-1.68 1.68-15.48-15.456-3.96 3.936-1.68-1.68 3.936-3.96-6.816-6.84a1.16 1.16 0 0 1 0-1.68 1.16 1.16 0 0 1 1.68 0l6.84 6.816L32.376 19.68l-6.816-6.84a1.16 1.16 0 0 1 0-1.68 1.16 1.16 0 0 1 1.68 0l6.84 6.816 3.96-3.936 1.68 1.68-3.936 3.96L51.24 35.16l-1.68 1.68-15.48-15.456z"/>
        <path fill="#66E0F4" d="M115.2 91.2l-24 24-14.04-14.04-1.68-1.68L60 84l3.96-3.96 1.68-1.68 12.72-12.72 1.68-1.68L84 60l15.48 15.48 1.68 1.68z"/>
        <path fill="#FFF" fill-opacity=".36" d="M104.04 89.64c-.216.24-.528.36-.84.36-.312 0-.624-.12-.84-.36l-6.84-6.816L82.824 95.52l6.816 6.84a1.16 1.16 0 0 1 0 1.68c-.216.24-.528.36-.84.36-.312 0-.624-.12-.84-.36l-6.84-6.816-3.96 3.936-1.68-1.68 3.936-3.96L63.96 80.04l1.68-1.68 15.48 15.456L93.816 81.12 78.36 65.64l1.68-1.68 15.48 15.456 3.96-3.936 1.68 1.68-3.936 3.96 6.816 6.84a1.16 1.16 0 0 1 0 1.68z"/>
        <path fill="#B6CCC8" d="M26.4 90a1.2 1.2 0 0 1-.85-2.047l7.2-7.2a1.2 1.2 0 0 1 1.697 1.697l-7.2 7.2c-.233.232-.54.35-.847.35zM84 32.4a1.2 1.2 0 0 1-.85-2.047l4.8-4.8a1.2 1.2 0 0 1 1.697 1.697l-4.8 4.8c-.233.232-.54.35-.847.35z"/>
        <path fill="#E3EDEC" d="M84 45.6l-36 36c-3.977 3.977-10.423 3.977-14.4 0-3.977-3.977-3.977-10.423 0-14.4l36-36c3.977-3.977 10.423-3.977 14.4 0 3.977 3.977 3.977 10.423 0 14.4z"/>
        <path fill="#CADFDC" d="M62.4 54a1.2 1.2 0 0 1-.85-2.047l9.6-9.6a1.2 1.2 0 0 1 1.697 1.697l-9.6 9.6c-.233.232-.54.35-.847.35zM43.2 73.2a1.2 1.2 0 0 1-.85-2.047l9.6-9.6a1.2 1.2 0 0 1 1.697 1.697l-9.6 9.6c-.233.232-.54.35-.847.35z"/>
        <path fill="#CADFDC" d="M45.585 55.199l9.599-9.599L69.58 59.998l-9.599 9.598z"/>
        <circle cx="93.6" cy="21.6" r="2.4" fill="#E3EDEC"/>
        <circle cx="21.6" cy="93.6" r="2.4" fill="#E3EDEC"/>
        <circle cx="57.6" cy="57.6" r="2.4" fill="#22204F"/>
        <g fill="#D18AC0">
            <path d="M12.367 79.79a1.2 1.2 0 0 0-1.697 0c-6.818 6.821-6.818 17.919 0 24.74a17.434 17.434 0 0 0 12.368 5.114c4.48 0 8.959-1.704 12.37-5.114a1.2 1.2 0 0 0-1.698-1.697c-5.882 5.88-15.456 5.885-21.345 0-5.883-5.885-5.883-15.459 0-21.346a1.194 1.194 0 0 0 .002-1.697z"/>
            <path d="M18.13 85.55a1.2 1.2 0 0 0-1.697 0 9.286 9.286 0 0 0-2.739 6.608c0 2.498.972 4.845 2.739 6.61a9.292 9.292 0 0 0 6.61 2.738 9.276 9.276 0 0 0 6.607-2.739 1.2 1.2 0 0 0-1.697-1.697c-2.626 2.628-7.2 2.626-9.823 0a6.898 6.898 0 0 1-2.036-4.912 6.9 6.9 0 0 1 2.036-4.91 1.2 1.2 0 0 0 0-1.698zM102.833 35.41a1.205 1.205 0 0 0 1.7 0c6.817-6.821 6.817-17.919-.001-24.74-6.823-6.82-17.92-6.82-24.74 0a1.2 1.2 0 0 0 1.698 1.697c5.882-5.88 15.456-5.885 21.345 0 5.883 5.885 5.883 15.459 0 21.346a1.194 1.194 0 0 0-.002 1.697z"/>
            <path d="M97.07 29.65a1.205 1.205 0 0 0 1.7 0c3.645-3.646 3.645-9.572 0-13.217-3.646-3.646-9.576-3.641-13.217 0a1.2 1.2 0 0 0 1.697 1.697 6.947 6.947 0 0 1 9.823 0c2.707 2.707 2.707 7.116 0 9.823a1.199 1.199 0 0 0-.003 1.697z"/>
        </g>
    </g>
</svg>
