<svg xmlns="http://www.w3.org/2000/svg" width="74" height="118" viewBox="0 0 74 118">
    <g fill="none" fill-rule="nonzero">
        <path fill="#F3FFFE" d="M64.872 24.48a6.12 6.12 0 0 0-6.12 6.12V15.912a6.12 6.12 0 0 0-6.12-6.12 6.12 6.12 0 0 0-6.12 6.12V7.344A7.344 7.344 0 0 0 39.168 0a7.344 7.344 0 0 0-7.344 7.344v7.344a7.344 7.344 0 0 0-7.344-7.344 7.344 7.344 0 0 0-7.344 7.344V48.96a7.344 7.344 0 0 0-7.344-7.344 7.344 7.344 0 0 0-7.344 7.344v22.032l19.584 12.24H61.2l9.792-17.136V30.6a6.12 6.12 0 0 0-6.12-6.12z"/>
        <path fill="#B6CCC8" d="M61.2 93.024H22.032a4.895 4.895 0 0 1-4.896-4.896 4.895 4.895 0 0 1 4.896-4.896H61.2a4.895 4.895 0 0 1 4.896 4.896 4.895 4.895 0 0 1-4.896 4.896z"/>
        <path fill="#F9C2EC" d="M17.136 46.512H73.44V61.2H17.136z"/>
        <path fill="#F3FFFE" d="M22.032 93.024H61.2v14.688H22.032z"/>
        <path fill="#B6CCC8" d="M17.136 117.504v-6.886a2.908 2.908 0 0 1 2.906-2.906h43.146a2.909 2.909 0 0 1 2.908 2.908v6.884"/>
        <path fill="#22204F" d="M53.856 102.816h-24.48a2.449 2.449 0 0 1 0-4.896h24.48a2.449 2.449 0 0 1 0 4.896z"/>
        <path fill="#CADFDC" d="M29.376 34.272h4.896v12.24h-4.896zM44.064 34.272h4.896v12.24h-4.896zM56.304 34.272H61.2v12.24h-4.896z"/>
        <path fill="#F9C2EC" d="M0 53.856h4.896v12.24H0z"/>
        <g fill="#22204F">
            <path d="M22.032 69.768h1.224v1.224a1.224 1.224 0 0 0 2.448 0v-1.224h1.224a1.224 1.224 0 0 0 0-2.448h-1.224v-1.224a1.224 1.224 0 0 0-2.448 0v1.224h-1.224a1.224 1.224 0 0 0 0 2.448zM34.272 69.768h1.224v1.224a1.224 1.224 0 0 0 2.448 0v-1.224h1.224a1.224 1.224 0 0 0 0-2.448h-1.224v-1.224a1.224 1.224 0 0 0-2.448 0v1.224h-1.224a1.224 1.224 0 0 0 0 2.448zM46.512 69.768h1.224v1.224a1.224 1.224 0 0 0 2.448 0v-1.224h1.224a1.224 1.224 0 0 0 0-2.448h-1.224v-1.224a1.224 1.224 0 0 0-2.448 0v1.224h-1.224a1.224 1.224 0 0 0 0 2.448zM58.752 69.768h1.224v1.224a1.224 1.224 0 0 0 2.448 0v-1.224h1.224a1.224 1.224 0 0 0 0-2.448h-1.224v-1.224a1.224 1.224 0 0 0-2.448 0v1.224h-1.224a1.224 1.224 0 0 0 0 2.448z"/>
        </g>
        <path fill="#D870BF" d="M68.544 52.632H22.032a1.224 1.224 0 0 0 0 2.448h46.512a1.224 1.224 0 0 0 0-2.448z"/>
    </g>
</svg>
