<svg xmlns="http://www.w3.org/2000/svg" width="117" height="116" viewBox="0 0 117 116">
    <g fill="none" fill-rule="nonzero">
        <circle cx="58.8" cy="76.8" r="38.4" fill="#66E0F4"/>
        <path fill="#CEF8FF" d="M29.11 52.452c-2.828 3.444-5.03 7.402-6.53 11.693C33.167 67.598 45.544 69.6 58.8 69.6c13.255 0 25.632-2.002 36.22-5.455-1.5-4.291-3.702-8.249-6.53-11.693C79.75 55.716 69.624 57.6 58.8 57.6c-10.824 0-20.95-1.884-29.69-5.148z"/>
        <path fill="#E3EDEC" d="M106.8 86.4h-36v-4.8l-12-4.8v21.6H78a2.4 2.4 0 0 1 2.4-2.4h19.2a2.4 2.4 0 0 1 2.4 2.4h14.4l-9.6-12z"/>
        <path fill="#22204F" d="M99.6 96H80.4a2.4 2.4 0 0 0 0 4.8h19.2a2.4 2.4 0 0 0 0-4.8zM51.6 91.2h7.2V96h-7.2z"/>
        <circle cx="97.2" cy="19.2" r="19.2" fill="#D870BF"/>
        <circle cx="90" cy="14.4" r="4.8" fill="#FCBCED"/>
        <circle cx="104.4" cy="26.4" r="2.4" fill="#FCBCED"/>
        <circle cx="111.6" cy="64.8" r="2.4" fill="#D870BF"/>
        <circle cx="37.2" cy="19.2" r="2.4" fill="#FCBCED"/>
        <path fill="#22204F" d="M102 90H70.8a1.2 1.2 0 0 0 0 2.4H102a1.2 1.2 0 0 0 0-2.4z"/>
        <path fill="#E3EDEC" d="M46.8 97.114h-.043C23.484 96.28 0 89.678 0 76.8c0-6.418 5.957-11.791 17.227-15.54a1.197 1.197 0 0 1 1.52.758 1.202 1.202 0 0 1-.759 1.52C7.937 66.88 2.4 71.59 2.4 76.8c0 10.72 22.356 17.126 44.443 17.914a1.201 1.201 0 0 1-.043 2.4z"/>
    </g>
</svg>
