<svg xmlns="http://www.w3.org/2000/svg" width="116" height="116" viewBox="0 0 116 116">
    <g fill="none" fill-rule="nonzero">
        <path fill="#E3EDEC" d="M72 112.555a2.644 2.644 0 0 0 2.645 2.645h25.913a2.643 2.643 0 0 0 2.642-2.645V57.6L96 50.4H72v62.155z"/>
        <path fill="#66E0F4" d="M91.2 78a1.2 1.2 0 0 1-1.2-1.2v-9.6a1.2 1.2 0 0 1 2.4 0v9.6a1.2 1.2 0 0 1-1.2 1.2zM91.2 99.6a1.2 1.2 0 0 1-1.2-1.2v-9.6a1.2 1.2 0 0 1 2.4 0v9.6a1.2 1.2 0 0 1-1.2 1.2z"/>
        <path fill="#22204F" d="M23.4 33.6l.6 4.8h14.4l4.8-4.8z"/>
        <circle cx="91.2" cy="62.4" r="4.8" fill="#66E0F4"/>
        <ellipse cx="91.2" cy="82.8" fill="#66E0F4" rx="7.2" ry="6"/>
        <circle cx="91.2" cy="103.2" r="4.8" fill="#66E0F4"/>
        <path fill="#22204F" d="M24 38.4H3.173A3.173 3.173 0 0 1 0 35.227V3.173A3.173 3.173 0 0 1 3.173 0H19.2L24 38.4z"/>
        <path fill="#D18AC0" d="M7.2 38.4H2.971A2.97 2.97 0 0 1 0 35.429V2.97A2.97 2.97 0 0 1 2.971 0H7.2v38.4z"/>
        <path fill="#E3EDEC" d="M100.8 4.8h-81l3.6 28.8h77.4c7.954 0 14.4-6.446 14.4-14.4 0-7.954-6.446-14.4-14.4-14.4z"/>
        <path fill="#D18AC0" d="M14.4 12H7.2a2.4 2.4 0 0 1 0-4.8h7.2a2.4 2.4 0 0 1 0 4.8zM14.4 31.2H7.2a2.4 2.4 0 0 1 0-4.8h7.2a2.4 2.4 0 0 1 0 4.8zM14.4 21.6H7.2a2.4 2.4 0 0 1 0-4.8h7.2a2.4 2.4 0 0 1 0 4.8z"/>
        <path fill="#66E0F4" d="M49.2 0L48 4.8h-7.2L39.6 0h-8.4l2.4 14.4h19.2L60 0z"/>
        <path fill="#D18AC0" d="M93.6 0h-4.8A4.799 4.799 0 0 0 84 4.8h14.4c0-2.652-2.148-4.8-4.8-4.8z"/>
        <path fill="#22204F" d="M64.8 33.6L72 50.4h24l2.4-16.8z"/>
        <path fill="#FFF3F2" d="M85.2 45.6h-4.8a3.601 3.601 0 0 1-3.6-3.6c0-1.987 1.613-3.6 3.6-3.6h4.8c1.987 0 3.6 1.613 3.6 3.6s-1.613 3.6-3.6 3.6z"/>
        <path fill="#D18AC0" d="M72 79.2a4.799 4.799 0 0 1-4.8-4.8v-12c0-2.652 2.148-4.8 4.8-4.8 2.652 0 4.8 2.148 4.8 4.8v12c0 2.652-2.148 4.8-4.8 4.8zM72 108a4.799 4.799 0 0 1-4.8-4.8v-12c0-2.652 2.148-4.8 4.8-4.8 2.652 0 4.8 2.148 4.8 4.8v12c0 2.652-2.148 4.8-4.8 4.8zM100.8 12h-24a7.2 7.2 0 0 0-7.2 7.2 7.2 7.2 0 0 0 7.2 7.2h24a7.2 7.2 0 0 0 7.2-7.2 7.2 7.2 0 0 0-7.2-7.2z"/>
        <path fill="#FFF3F2" d="M98.4 18H79.2a1.2 1.2 0 0 0 0 2.4h19.2a1.2 1.2 0 0 0 0-2.4z"/>
    </g>
</svg>
