<svg xmlns="http://www.w3.org/2000/svg" width="45" height="48" viewBox="0 0 45 48">
    <g fill="none" fill-rule="nonzero">
        <path fill="#EBEBF5" d="M44.52 14.873v31.125c0 .827-.65 1.477-1.477 1.477H1.477C.65 47.475 0 46.825 0 45.998V14.873l2.955-2.955h38.61l2.955 2.955z"/>
        <path fill="#8A84F6" d="M44.52 4.432v10.44H0V4.433c0-.827.65-1.477 1.477-1.477h41.566c.827 0 1.477.65 1.477 1.477z"/>
        <path fill="#665C7E" d="M13.395 11.918h-5.91a1.477 1.477 0 1 1 0-2.955h5.91a1.477 1.477 0 1 1 0 2.955zM26.692 10.44c0 .828-.65 1.478-1.477 1.478h-5.91c-.827 0-1.477-.65-1.477-1.477 0-.828.65-1.478 1.477-1.478h5.91c.828 0 1.477.65 1.477 1.478z"/>
        <path fill="#1B132D" d="M37.133 11.918h-5.91a1.477 1.477 0 1 1 0-2.955h5.91a1.477 1.477 0 1 1 0 2.955zM25.215 11.918H22.26V8.963h2.955c.828 0 1.477.65 1.477 1.478 0 .827-.65 1.477-1.477 1.477z"/>
        <path fill="#E2DBF9" d="M10.44 11.918a1.477 1.477 0 0 1-1.477-1.477V1.477a1.477 1.477 0 1 1 2.955 0v8.964c0 .816-.661 1.477-1.477 1.477zM23.738 1.477v8.964c0 .827-.65 1.477-1.478 1.477-.827 0-1.477-.65-1.477-1.477V1.477C20.783.65 21.433 0 22.26 0c.828 0 1.478.65 1.478 1.477zM34.178 11.918a1.477 1.477 0 0 1-1.477-1.477V1.477a1.477 1.477 0 1 1 2.955 0v8.964c0 .816-.661 1.477-1.478 1.477z"/>
        <path fill="#8A81F9" d="M13.395 41.565h-5.91a1.477 1.477 0 0 1-1.477-1.477v-5.91c0-.816.661-1.477 1.478-1.477h5.91c.816 0 1.477.66 1.477 1.477v5.91c0 .816-.661 1.477-1.478 1.477z"/>
    </g>
</svg>
