<svg xmlns="http://www.w3.org/2000/svg" width="17" height="29" viewBox="0 0 17 29">
    <g fill="none" fill-rule="nonzero">
        <path fill="#D18AC0" d="M4.16 7.28v-.031h2.08V0h4.16v7.249h2.07v.041c2.297 0 4.16 1.83 4.18 4.13h-.01v3.141H.02l-.01-3.12H0A4.159 4.159 0 0 1 4.16 7.28z"/>
        <path fill="#E6E9ED" d="M8.32 16.64a2.08 2.08 0 1 1-2.08 2.08c0-1.154.925-2.08 2.08-2.08z"/>
        <path fill="#656D78" d="M.02 14.56h16.62v8.32H.02v-8.32zm8.3 6.24a2.08 2.08 0 1 0 0-4.16c-1.155 0-2.08.926-2.08 2.08a2.08 2.08 0 0 0 2.08 2.08z"/>
        <path fill="#D18AC0" d="M16.64 22.88v4.16c0 .572-.468 1.04-1.04 1.04H1.06c-.582 0-1.04-.468-1.04-1.04v-4.16h16.62z"/>
    </g>
</svg>
