<svg xmlns="http://www.w3.org/2000/svg" width="100" height="100" viewBox="0 0 100 100">
    <g fill="none" fill-rule="evenodd">
        <path fill="#EE6DAF" fill-rule="nonzero" d="M68.01 82.188H30.394l-6.27 6.25H74.28z"/>
        <path fill="#F9C9E1" fill-rule="nonzero" d="M64.875 69.688H33.53a3.13 3.13 0 0 0-3.135 3.124 3.13 3.13 0 0 0 3.135 3.126h31.346a3.13 3.13 0 0 0 3.135-3.126 3.13 3.13 0 0 0-3.135-3.124z"/>
        <path fill="#EEA1C9" fill-rule="nonzero" d="M33.529 75.938h31.346v6.25H33.53z"/>
        <path fill="#72D8FF" fill-rule="nonzero" d="M78.354 40.625c0 16.051-13.051 29.063-29.152 29.063-16.1 0-29.152-13.012-29.152-29.063s13.052-29.063 29.152-29.063 29.152 13.012 29.152 29.063z" opacity=".5"/>
        <path fill="#EE6DAF" fill-rule="nonzero" d="M20.05 33.275l-5.812 3.096 1.11-6.558-4.702-4.644 6.498-.956 2.906-5.967 2.906 5.967 6.498.956-4.702 4.644 1.11 6.558z"/>
        <path fill="#FFF" fill-rule="nonzero" d="M69.119 81.083a1.572 1.572 0 0 0-1.11-.458h-1.566v-3.394a4.696 4.696 0 0 0 3.134-4.418c0-2.585-2.109-4.688-4.702-4.688h-2.164c10.185-4.992 17.21-15.443 17.21-27.5C79.922 23.738 66.142 10 49.203 10c-10.282 0-19.398 5.064-24.977 12.82l-.22-.033-2.545-5.224c-.555-1.139-2.266-1.138-2.82 0l-2.544 5.224-5.68.837a1.56 1.56 0 1 0-.874 2.656l4.125 4.073-.975 5.758c-.21 1.244 1.167 2.233 2.284 1.638l3.722-1.982c-.16 1.509-.216 3.508-.216 4.858 0 12.057 7.027 22.508 17.212 27.5h-2.165c-2.593 0-4.702 2.103-4.702 4.688a4.697 4.697 0 0 0 3.134 4.418v3.394h-1.567a1.57 1.57 0 0 0-1.108.458l-6.27 6.25c-.952.95-.272 2.667 1.109 2.667h50.154c1.366 0 2.075-1.703 1.109-2.667l-6.27-6.25zM16.45 28.703l-2.475-2.444 3.397-.5a1.568 1.568 0 0 0 1.181-.864l1.496-3.072 1.496 3.072c.226.464.669.787 1.181.863l3.397.5-2.476 2.445a1.56 1.56 0 0 0-.442 1.37l.579 3.42-2.996-1.596a1.581 1.581 0 0 0-1.478 0l-2.997 1.596.579-3.42a1.559 1.559 0 0 0-.442-1.37zm5.166 11.922c0-1.547.132-3.063.38-4.541l3.126 1.665c1.119.596 2.495-.392 2.284-1.638l-.975-5.758 4.125-4.074c.898-.887.375-2.472-.874-2.655l-1.917-.283c5.061-6.227 12.789-10.216 21.436-10.216 15.21 0 27.585 12.336 27.585 27.5s-12.375 27.5-27.585 27.5-27.585-12.336-27.585-27.5zM33.529 71.25h31.346c.865 0 1.568.7 1.568 1.563 0 .861-.703 1.562-1.568 1.562H33.53c-.864 0-1.568-.7-1.568-1.563 0-.861.704-1.562 1.568-1.562zm1.567 6.25h28.212v3.125H35.096V77.5zm-7.187 9.375l3.135-3.125H67.36l3.135 3.125H27.909z"/>
        <path fill="#FFF" fill-rule="nonzero" d="M49.27 16.25c-.863 0-1.566.698-1.57 1.558-.002.844.724 1.564 1.564 1.567l.005-.008v.008c.86 0 1.565-.698 1.568-1.558.003-.838-.734-1.564-1.568-1.567zM72.085 42.188c.864 0 1.567-.702 1.567-1.563 0-2.728-.45-5.408-1.335-7.963-1.704-4.916-5.027-9.235-9.329-12.171a24.38 24.38 0 0 0-7.105-3.32c-.808-.228-1.7.256-1.935 1.077-.235.83.25 1.696 1.081 1.93 9.122 2.58 15.492 10.988 15.489 20.447 0 .861.704 1.563 1.567 1.563z"/>
        <g fill="#FFF" transform="translate(80 12)">
            <rect width="2" height="4" x="4.5" rx="1"/>
            <rect width="2" height="4" x="8" y="3.5" rx="1" transform="rotate(90 9 5.5)"/>
            <rect width="2" height="4" x="1" y="3.5" rx="1" transform="rotate(90 2 5.5)"/>
            <rect width="2" height="4" x="4.5" y="6" rx="1"/>
        </g>
        <g fill="#FFF" transform="translate(9 71)">
            <rect width="2" height="4" x="4.5" rx="1"/>
            <rect width="2" height="4" x="8" y="3.5" rx="1" transform="rotate(90 9 5.5)"/>
            <rect width="2" height="4" x="1" y="3.5" rx="1" transform="rotate(90 2 5.5)"/>
            <rect width="2" height="4" x="4.5" y="6" rx="1"/>
        </g>
    </g>
</svg>
