<svg xmlns="http://www.w3.org/2000/svg" width="80" height="80" viewBox="0 0 80 80">
    <path fill="#FFF" fill-rule="nonzero" d="M78.75 26.155c-.567-1.045-1.864-1.366-2.917-.803l-.163.08c-5.35 2.973-11.347 5.464-17.183 7.231-5.917 1.768-11.996 2.812-17.994 2.812-5.998 0-12.077-1.044-17.912-2.892-5.917-1.768-11.753-4.259-17.184-7.231l-.162-.08c-.891-.483-2.026-.322-2.675.481-.81.884-.729 2.25.163 3.053 2.35 2.01 4.782 3.857 7.375 5.384l-4.214 7.472c-.892 1.607-.406 3.616 1.215 4.58.568.321 1.135.482 1.703.482 1.134 0 2.27-.562 2.918-1.687l4.295-7.473c1.378.643 2.756 1.286 4.215 1.848.973.402 1.945.724 2.918 1.045v.08l-2.27 8.276a3.341 3.341 0 0 0 2.351 4.098h.892a3.354 3.354 0 0 0 3.242-2.49l2.27-8.277c2.512.482 5.025.884 7.618 1.045v8.517c0 1.848 1.54 3.294 3.323 3.294 1.784 0 3.324-1.527 3.324-3.294v-8.517c2.593-.16 5.106-.563 7.538-1.045v.08l2.269 8.277a3.354 3.354 0 0 0 3.242 2.49c.324 0 .568 0 .892-.08a3.341 3.341 0 0 0 2.35-4.098l-2.27-8.276v-.08c.973-.321 1.946-.723 2.919-1.045 1.378-.562 2.756-1.205 4.133-1.848v.08l4.296 7.473c.649 1.045 1.783 1.687 2.918 1.687.568 0 1.135-.16 1.702-.482 1.621-.883 2.189-2.972 1.216-4.58l-4.296-7.391a59.495 59.495 0 0 0 7.376-5.384c.81-.803 1.054-1.928.567-2.812z"/>
</svg>
