<svg xmlns="http://www.w3.org/2000/svg" width="80" height="80" viewBox="0 0 80 80">
    <g fill="#8B838E" fill-rule="evenodd" transform="translate(0 16)">
        <path fill-rule="nonzero" d="M79.3 22.3C73.9 16.9 56.2.6 40 .6 23.8.6 6.1 16.9.7 22.3c-.9.9-.9 2.5 0 3.4C6.1 31.1 23.8 47.4 40 47.4c16.2 0 33.9-16.3 39.3-21.7.9-.9.9-2.5 0-3.4zM19.2 33.5c-1.1-.8-2.3-1.6-3.5-2.5-2.4-1.8-4.6-3.6-6.4-5.2-1.1-1-1.1-2.7 0-3.6 1.9-1.6 4.1-3.5 6.5-5.3l3.3-2.4C17.8 17.4 17 20.6 17 24c0 3.4.9 6.6 2.2 9.5zM40 41c-9.4 0-17-7.6-17-17S30.6 7 40 7s17 7.6 17 17-7.6 17-17 17zm30.6-15.2c-1.9 1.6-4.1 3.5-6.5 5.3l-3.3 2.4c1.3-2.9 2.1-6.1 2.1-9.5 0-3.4-.7-6.6-2.1-9.5 1.1.8 2.3 1.6 3.5 2.5 2.4 1.8 4.6 3.6 6.4 5.2 1 .9 1 2.6-.1 3.6z"/>
        <circle cx="40" cy="24" r="11"/>
    </g>
</svg>
