<svg xmlns="http://www.w3.org/2000/svg" width="40" height="40" viewBox="0 0 40 40">
    <path fill="#EE6DAF" fill-rule="nonzero" d="M23.938 2.25c1.945 0 3.767.37 5.466 1.107 1.7.739 3.188 1.74 4.465 3.006a14.054 14.054 0 0 1 3.024 4.465C37.63 12.54 38 14.368 38 16.313c0 1.945-.37 3.767-1.107 5.466a14.32 14.32 0 0 1-3.024 4.465 14.32 14.32 0 0 1-4.465 3.024c-1.699.738-3.521 1.107-5.466 1.107-1.758 0-3.417-.305-4.975-.914a14.227 14.227 0 0 1-4.166-2.496l-4.5 4.535 4.816 4.852c.211.21.317.468.317.773s-.106.574-.317.809c-.234.21-.504.316-.808.316-.305 0-.563-.105-.774-.316l-4.816-4.852-4.781 4.816c-.211.211-.475.317-.791.317-.317 0-.58-.106-.791-.317a1.02 1.02 0 0 1-.352-.79c0-.317.117-.58.352-.792l4.78-4.816-4.745-4.816a1.02 1.02 0 0 1-.352-.791c0-.317.117-.58.352-.791.21-.235.468-.352.773-.352s.574.117.809.352l4.746 4.78 4.465-4.5a14.097 14.097 0 0 1-2.426-4.148 13.777 13.777 0 0 1-.879-4.922c0-1.945.37-3.773 1.107-5.484.739-1.71 1.74-3.2 3.006-4.465a14.201 14.201 0 0 1 4.465-3.006c1.711-.738 3.54-1.107 5.485-1.107zm0 25.875c1.617 0 3.146-.31 4.587-.932a11.946 11.946 0 0 0 3.762-2.53 11.946 11.946 0 0 0 2.531-3.763 11.47 11.47 0 0 0 .932-4.587c0-1.641-.31-3.182-.932-4.624a11.946 11.946 0 0 0-2.53-3.761 11.946 11.946 0 0 0-3.763-2.532 11.47 11.47 0 0 0-4.587-.931c-1.641 0-3.182.31-4.624.931a11.946 11.946 0 0 0-3.761 2.532 11.946 11.946 0 0 0-2.532 3.761c-.62 1.442-.931 2.983-.931 4.623 0 1.618.31 3.147.931 4.588a11.946 11.946 0 0 0 2.532 3.762 11.946 11.946 0 0 0 3.761 2.531c1.442.621 2.983.932 4.623.932z"/>
</svg>
