<svg xmlns="http://www.w3.org/2000/svg" width="75" height="75" viewBox="0 0 75 75">
    <g fill="none" fill-rule="nonzero">
        <path fill="#EE6DAF" d="M73.332 70.5c.411-1.417.068-3.006-1.034-4.11l-19.28-19.318-3.068 3.075 19.28 19.317c1.101 1.105 2.687 1.448 4.102 1.036z"/>
        <path fill="#FFF" d="M57.734 51.797l-5.927 5.938-4.714-4.724 5.926-5.939z"/>
        <path fill="#EEA1C9" d="M34.649 1.906C21.528 4.265 11.572 15.759 11.572 29.584c0 13.825 9.956 25.318 23.077 27.677 13.12-2.359 23.076-13.853 23.076-27.677 0-13.825-9.956-25.32-23.076-27.678z"/>
        <path fill="#19112B" d="M50.709 29.584c0 11.647-9.424 21.09-21.05 21.09-11.625 0-21.049-9.443-21.049-21.09 0-11.648 9.424-21.09 21.05-21.09 11.625 0 21.049 9.442 21.049 21.09z"/>
        <path fill="#EE6DAF" d="M33.6 28.974c-4.626.13-8.337 3.925-8.337 8.591v.757h16.675v-.757c0-4.666-3.711-8.462-8.337-8.59z" opacity=".5"/>
        <path fill="#EEA1C9" d="M32.267 16.57a5.566 5.566 0 0 0-2.948 4.915v1.918c0 2.13 1.194 3.979 2.948 4.914a5.564 5.564 0 0 0 2.948-4.914v-1.918c0-2.13-1.195-3.98-2.948-4.916z" opacity=".5"/>
        <path fill="#FFF" d="M73.332 65.354l-13.553-13.58a1.467 1.467 0 0 0-.189-1.838 1.46 1.46 0 0 0-1.835-.19l-3.616-3.623a29.653 29.653 0 0 0 4.896-13.534c.675-6.652-.93-13.396-4.52-18.988a1.46 1.46 0 0 0-2.02-.44 1.467 1.467 0 0 0-.44 2.025c6.713 10.457 5.206 24.44-3.583 33.246-10.373 10.393-27.25 10.393-37.624 0-10.373-10.393-10.373-27.304 0-37.697C19.647 1.92 33.158.358 43.703 6.936a1.46 1.46 0 0 0 2.014-.469 1.466 1.466 0 0 0-.468-2.017C39.683.978 33.009-.54 26.454.172A29.578 29.578 0 0 0 8.78 8.664c-11.512 11.535-11.512 30.304 0 41.839 5.757 5.768 13.318 8.652 20.88 8.652 5.76 0 11.52-1.676 16.482-5.024l3.599 3.606a1.465 1.465 0 0 0 1.062 2.468c.36 0 .72-.134 1.002-.4l13.532 13.56A5.57 5.57 0 0 0 69.294 75a5.652 5.652 0 0 0 4.01-1.665c2.203-2.208 2.216-5.789.028-7.981zm-20.313-16.21l2.647 2.653-3.86 3.867-2.647-2.653 3.86-3.867zm18.217 22.12c-1.064 1.066-2.783 1.08-3.831.029L53.874 57.735l3.86-3.868 13.53 13.558c1.049 1.05 1.036 2.773-.028 3.84z"/>
        <path fill="#FFF" d="M48.506 10.77c.286.286.66.429 1.034.429s.748-.143 1.033-.429c.571-.572.571-1.5 0-2.071l-.031-.032a1.46 1.46 0 0 0-2.067-.007 1.466 1.466 0 0 0-.007 2.072l.038.038zM29.66 7.028c-12.413 0-22.511 10.119-22.511 22.556 0 12.436 10.098 22.554 22.51 22.554 12.413 0 22.512-10.118 22.512-22.554 0-12.437-10.099-22.556-22.511-22.556zm0 42.181c-10.8 0-19.588-8.804-19.588-19.625 0-10.822 8.787-19.626 19.588-19.626 10.8 0 19.587 8.804 19.587 19.626 0 10.821-8.786 19.625-19.587 19.625z"/>
        <path fill="#FFF" d="M35.222 27.68a7.004 7.004 0 0 0 1.454-4.277v-1.918c0-3.877-3.147-7.03-7.016-7.03s-7.017 3.153-7.017 7.03v1.918c0 1.608.543 3.091 1.454 4.277-4.65.879-8.178 4.976-8.178 9.885v.757c0 .81.655 1.465 1.462 1.465H41.94c.806 0 1.46-.656 1.46-1.465v-.757c0-4.91-3.527-9.006-8.177-9.885zm-9.655-6.195a4.102 4.102 0 0 1 4.093-4.101 4.102 4.102 0 0 1 4.093 4.1v1.919a4.102 4.102 0 0 1-4.093 4.1 4.102 4.102 0 0 1-4.093-4.1v-1.918zm-6.69 15.372c.356-3.602 3.398-6.424 7.085-6.424h7.396c3.687 0 6.728 2.822 7.084 6.424H18.877zM64.793 6.505c.807 0 1.462-.655 1.462-1.464v-1.82a1.463 1.463 0 1 0-2.924 0v1.82c0 .809.654 1.464 1.462 1.464zM64.793 15.23c.807 0 1.462-.655 1.462-1.464v-1.82c0-.81-.655-1.466-1.462-1.466-.808 0-1.462.656-1.462 1.465v1.82c0 .81.654 1.465 1.462 1.465zM68.238 9.958h1.818c.806 0 1.46-.656 1.46-1.465s-.654-1.465-1.46-1.465h-1.818c-.807 0-1.462.656-1.462 1.465s.655 1.465 1.462 1.465zM59.53 9.958h1.818c.807 0 1.462-.656 1.462-1.465s-.655-1.465-1.462-1.465H59.53c-.808 0-1.462.656-1.462 1.465s.654 1.465 1.462 1.465zM9.184 60.353c-.808 0-1.462.655-1.462 1.465v1.82c0 .809.654 1.465 1.462 1.465.807 0 1.462-.656 1.462-1.465v-1.82c0-.81-.655-1.465-1.462-1.465zM9.184 69.077c-.808 0-1.462.656-1.462 1.465v1.82c0 .81.654 1.465 1.462 1.465.807 0 1.462-.656 1.462-1.465v-1.82c0-.81-.655-1.465-1.462-1.465zM14.446 65.625h-1.817c-.807 0-1.462.656-1.462 1.465s.655 1.465 1.462 1.465h1.817c.807 0 1.462-.656 1.462-1.465 0-.81-.655-1.465-1.462-1.465zM5.738 65.625H3.921c-.807 0-1.461.656-1.461 1.465s.654 1.465 1.461 1.465h1.817c.808 0 1.462-.656 1.462-1.465 0-.81-.654-1.465-1.462-1.465z"/>
    </g>
</svg>
