<svg xmlns="http://www.w3.org/2000/svg" width="22" height="16" viewBox="0 0 22 16">
    <g fill="#FFFFFF" fill-rule="nonzero">
        <path d="M13.532 15.847H1.745c-.675 0-1.25-.487-1.368-1.159-.56-3.19 1.68-4.969 2.942-5.464 1-.427 2.546-.69 4.22-.71l.07-.001h.058l.07.001c1.699.021 3.21.278 4.258.726 1.235.483 3.465 2.258 2.904 5.449a1.39 1.39 0 0 1-1.367 1.158zM2.031 14.108h11.215c.253-2.385-1.872-3.247-1.895-3.256-.85-.363-2.207-.583-3.652-.599l-.051-.002h-.039c-1.477.018-2.828.236-3.645.585-.045.019-2.186.887-1.933 3.272zM20.85 2.09h-6.668a.864.864 0 0 1-.86-.87c0-.48.385-.87.86-.87h6.667c.475 0 .86.39.86.87s-.384.87-.86.87zM20.85 13.055h-2.543a.864.864 0 0 1-.86-.87c0-.48.385-.87.86-.87h2.543c.475 0 .86.39.86.87s-.385.87-.86.87zM20.85 7.572h-7.356a.864.864 0 0 1-.86-.87c0-.48.386-.869.86-.869h7.356c.475 0 .86.39.86.87s-.385.87-.86.87zM7.302 7.385c-1.99 0-3.61-1.638-3.61-3.652 0-2.014 1.62-3.652 3.61-3.652 1.99 0 3.61 1.638 3.61 3.652 0 2.014-1.62 3.652-3.61 3.652zm0-5.726c-1.13 0-2.05.93-2.05 2.074 0 1.144.92 2.074 2.05 2.074s2.05-.93 2.05-2.074c0-1.144-.92-2.074-2.05-2.074z"/>
    </g>
</svg>
