<svg xmlns="http://www.w3.org/2000/svg" width="40" height="40" viewBox="0 0 40 40">
    <g fill="none" fill-rule="evenodd">
        <path d="M22.118 12.118h15.695v15.695H22.118z"/>
        <path stroke="#FFF" stroke-linecap="round" stroke-linejoin="round" stroke-width="1.728" d="M26.061 15.071h7.374M27.052 13.478l-.966 1.209a.616.616 0 0 0 0 .772l.966 1.209M35.87 20.86h-7.374M34.879 22.453l.966-1.209a.616.616 0 0 0 0-.769l-.966-1.208"/>
        <path fill="#FFF" fill-rule="nonzero" d="M24.068 30.79H7.458c-.95 0-1.76-.67-1.926-1.594-.79-4.386 2.366-6.832 4.145-7.513 1.41-.587 3.587-.948 5.945-.976l.1-.002h.082c.033 0 .066 0 .1.002 2.392.029 4.521.382 5.999.998 1.739.664 4.881 3.104 4.09 7.492a1.944 1.944 0 0 1-1.925 1.593zM7.862 28.399h15.803c.357-3.28-2.638-4.465-2.67-4.477-1.199-.5-3.11-.802-5.146-.824l-.073-.003-.054.001c-2.082.024-3.985.324-5.136.804-.064.025-3.08 1.22-2.724 4.499zM15.29 19.154c-2.805 0-5.087-2.252-5.087-5.021 0-2.77 2.282-5.022 5.086-5.022 2.805 0 5.086 2.253 5.086 5.022s-2.281 5.021-5.086 5.021zm0-7.873c-1.594 0-2.89 1.28-2.89 2.852 0 1.572 1.296 2.852 2.89 2.852 1.592 0 2.887-1.28 2.887-2.852 0-1.573-1.295-2.852-2.888-2.852z"/>
    </g>
</svg>
