<svg xmlns="http://www.w3.org/2000/svg" width="80" height="80" viewBox="0 0 80 80">
    <g fill="none" fill-rule="nonzero" opacity=".65">
        <path fill="#E026B9" d="M76.322 18.593H65.754V47.211c0 5.852-4.74 10.614-10.568 10.614H33.312l-3.355 2.358-5.032 3.538-3.06 2.15a3.508 3.508 0 0 0 2.793 1.388h24.095l17.095 12.018a3.51 3.51 0 0 0 3.646.24 3.54 3.54 0 0 0 1.896-3.138v-9.12h4.932a3.53 3.53 0 0 0 3.522-3.538v-41.59a3.53 3.53 0 0 0-3.522-3.538z"/>
        <path fill="#FFF" d="M55.186 2.083H3.522A3.53 3.53 0 0 0 0 5.62v41.59a3.53 3.53 0 0 0 3.522 3.538h4.932v9.12c0 1.319.73 2.529 1.896 3.138a3.506 3.506 0 0 0 3.647-.24l7.138-5.019 3.523-2.477 3.522-2.476 2.911-2.047h24.095a3.53 3.53 0 0 0 3.523-3.538V5.621a3.53 3.53 0 0 0-3.523-3.538zm-14.09 35.38H17.613a3.53 3.53 0 0 1-3.523-3.539 3.53 3.53 0 0 1 3.523-3.538h23.483c1.411 0 2.625.835 3.187 2.039a3.53 3.53 0 0 1-3.187 5.037zm0-14.153H17.613a3.53 3.53 0 0 1-3.523-3.538 3.53 3.53 0 0 1 3.523-3.538h23.483a3.53 3.53 0 0 1 3.523 3.538 3.53 3.53 0 0 1-3.523 3.538z"/>
    </g>
</svg>
