<svg xmlns="http://www.w3.org/2000/svg" width="194" height="49" viewBox="0 0 194 49">
    <defs>
        <linearGradient id="a" x1="88.572%" x2="8.54%" y1="46.735%" y2="52.151%">
            <stop offset="0%" stop-color="#AFE46A"/>
            <stop offset="100%" stop-color="#0FAB5B"/>
        </linearGradient>
        <linearGradient id="b" x1="8.54%" y1="0%" y2="100%">
            <stop offset="0%" stop-color="#AFE46A"/>
            <stop offset="100%" stop-color="#0FAB5B"/>
        </linearGradient>
    </defs>
    <g fill="none" fill-rule="evenodd">
        <rect width="191.1" height="46.2" x="1.3" y="1.3" stroke="url(#a)" stroke-width="1.4" rx="22.4"/>
        <text fill="#FFF" font-family="PingFangTC-Regular, PingFang TC" font-size="16.8">
            <tspan x="58" y="31.2">加入 Line 好友</tspan>
        </text>
        <path fill="url(#b)" fill-rule="nonzero" d="M13.605 8.61v3.555c0 .09-.07.16-.16.16h-.57a.165.165 0 0 1-.13-.065l-1.63-2.2v2.11c0 .09-.07.16-.16.16h-.57c-.09 0-.16-.07-.16-.16V8.615c0-.09.07-.16.16-.16h.565c.05 0 .105.025.13.07l1.63 2.2v-2.11c0-.09.07-.16.16-.16h.57c.09-.005.165.07.165.155zm-4.1-.16h-.57c-.09 0-.16.07-.16.16v3.555c0 .09.07.16.16.16h.57c.09 0 .16-.07.16-.16V8.61c0-.085-.07-.16-.16-.16zM8.13 11.43H6.575V8.61c0-.09-.07-.16-.16-.16h-.57c-.09 0-.16.07-.16.16v3.555c0 .045.015.08.045.11.03.025.065.045.11.045h2.285c.09 0 .16-.07.16-.16v-.57a.16.16 0 0 0-.155-.16zm8.475-2.98H14.32c-.085 0-.16.07-.16.16v3.555c0 .085.07.16.16.16h2.285c.09 0 .16-.07.16-.16v-.57c0-.09-.07-.16-.16-.16H15.05v-.6h1.555c.09 0 .16-.07.16-.16V10.1c0-.09-.07-.16-.16-.16H15.05v-.6h1.555c.09 0 .16-.07.16-.16v-.57c-.005-.085-.075-.16-.16-.16zM22.4 4.085V18.35c-.005 2.24-1.84 4.055-4.085 4.05H4.05C1.81 22.395-.005 20.555 0 18.315V4.05C.005 1.81 1.845-.005 4.085 0H18.35c2.24.005 4.055 1.84 4.05 4.085zm-3.08 6.13c0-3.65-3.66-6.62-8.155-6.62-4.495 0-8.155 2.97-8.155 6.62 0 3.27 2.9 6.01 6.82 6.53.955.205.845.555.63 1.84-.035.205-.165.805.705.44.87-.365 4.695-2.765 6.41-4.735 1.18-1.3 1.745-2.615 1.745-4.075z" transform="translate(24.4 13.9)"/>
    </g>
</svg>
