<svg xmlns="http://www.w3.org/2000/svg" width="18" height="18" viewBox="0 0 18 18">
    <path fill="#FFF" fill-opacity=".752" fill-rule="nonzero" d="M10.933 6.919v2.856a.127.127 0 0 1-.129.129h-.458a.133.133 0 0 1-.104-.052l-1.31-1.768v1.695a.127.127 0 0 1-.129.129h-.458a.127.127 0 0 1-.128-.129V6.923c0-.073.056-.129.128-.129H8.8c.04 0 .084.02.105.056l1.31 1.768V6.923c0-.073.056-.129.128-.129h.458a.127.127 0 0 1 .133.125zM7.638 6.79H7.18a.127.127 0 0 0-.129.129v2.856c0 .073.057.129.129.129h.458a.127.127 0 0 0 .129-.129V6.92a.13.13 0 0 0-.13-.129zM6.533 9.185h-1.25V6.919a.127.127 0 0 0-.128-.129h-.458a.127.127 0 0 0-.129.129v2.856c0 .037.012.065.036.089.025.02.053.036.089.036h1.836a.127.127 0 0 0 .129-.129v-.458a.129.129 0 0 0-.125-.128zm6.81-2.395h-1.836a.13.13 0 0 0-.128.129v2.856a.13.13 0 0 0 .128.129h1.836a.127.127 0 0 0 .129-.129v-.458a.127.127 0 0 0-.129-.128h-1.25v-.482h1.25a.127.127 0 0 0 .129-.129v-.462a.127.127 0 0 0-.129-.128h-1.25v-.483h1.25a.127.127 0 0 0 .129-.128v-.458c-.004-.069-.06-.129-.129-.129zM18 3.283v11.463A3.273 3.273 0 0 1 14.717 18H3.254c-1.8-.004-3.258-1.483-3.254-3.283V3.254C.004 1.454 1.483-.004 3.283 0h11.463A3.273 3.273 0 0 1 18 3.283zm-2.475 4.925c0-2.933-2.941-5.32-6.553-5.32s-6.553 2.387-6.553 5.32c0 2.628 2.33 4.83 5.48 5.248.768.165.68.446.506 1.478-.028.165-.132.647.567.354.699-.293 3.773-2.222 5.15-3.805.949-1.045 1.403-2.101 1.403-3.275z"/>
</svg>
