<svg xmlns="http://www.w3.org/2000/svg" width="33" height="33" viewBox="0 0 33 33">
    <g fill="none" fill-rule="evenodd">
        <ellipse cx="16.475" cy="16.5" fill="#FFF" opacity=".196" rx="16.475" ry="16.5"/>
        <g opacity=".5">
            <path fill="#FFF" fill-rule="nonzero" d="M26.766 16.584a6.127 6.127 0 0 1-.751 2.062c-.176.304-1.037 1.46-1.302 1.765-1.452 1.676-3.884 3.61-7.95 5.49-.38.175-.813-.116-.766-.517l.204-1.767a.517.517 0 0 0-.473-.566c-4.814-.483-8.53-3.62-8.53-7.42 0-4.133 4.399-7.484 9.824-7.484 5.272 0 9.574 3.165 9.812 7.136.007.116.027.484.01.732-.01.15-.033.341-.078.57zm-15.146.563v-3.152a.492.492 0 0 0-.502-.482.492.492 0 0 0-.503.482v3.634c0 .265.225.48.503.48h2.01a.492.492 0 0 0 .502-.48.492.492 0 0 0-.502-.482H11.62zm3.1.963a.385.385 0 0 0 .392-.376v-3.845a.385.385 0 0 0-.392-.376h-.22a.385.385 0 0 0-.392.376v3.845c0 .207.175.376.392.376h.22zm4.06-4.115v2.22s-2.006-2.507-2.037-2.54a.51.51 0 0 0-.394-.161.504.504 0 0 0-.483.5v3.615c0 .265.225.48.503.48a.492.492 0 0 0 .502-.48v-2.207s2.037 2.529 2.067 2.556a.51.51 0 0 0 .34.132.51.51 0 0 0 .507-.501v-3.614a.492.492 0 0 0-.502-.482.492.492 0 0 0-.503.482zm4.774 0a.492.492 0 0 0-.503-.482h-2.01a.492.492 0 0 0-.502.482v3.634c0 .265.225.48.502.48h2.01a.492.492 0 0 0 .503-.48.492.492 0 0 0-.503-.482h-1.507v-.854h1.507a.492.492 0 0 0 .503-.481.492.492 0 0 0-.503-.482h-1.507v-.854h1.507a.492.492 0 0 0 .503-.481z"/>
        </g>
    </g>
</svg>
