<svg xmlns="http://www.w3.org/2000/svg" width="40" height="40" viewBox="0 0 40 40">
    <path fill="#FFF" fill-rule="nonzero" d="M26 22h4.766c-.188.203-.313.312-.344.344l-9.734 9.375A.97.97 0 0 1 20 32a.97.97 0 0 1-.687-.281l-9.75-9.407c-.032-.015-.157-.125-.329-.312H15c.453 0 .86-.313.969-.75l1.094-4.39L20.03 27.28c.125.422.516.719.969.719.438 0 .828-.297.953-.719l2.281-7.578.875 1.75c.172.328.516.547.891.547zm8-6.688c0 1.797-.781 3.438-1.61 4.688h-5.765l-1.734-3.453a1.005 1.005 0 0 0-.97-.547c-.421.047-.765.312-.874.719l-2.016 6.718L17.97 12.72a1.013 1.013 0 0 0-.985-.719.986.986 0 0 0-.953.75L14.22 20h-6.61C6.781 18.75 6 17.11 6 15.312 6 10.734 8.797 8 13.469 8c2.734 0 5.297 2.156 6.531 3.375C21.234 10.156 23.797 8 26.531 8 31.203 8 34 10.734 34 15.312z"/>
</svg>
