<svg xmlns="http://www.w3.org/2000/svg" width="40" height="40" viewBox="0 0 40 40">
    <path fill="#63C1FF" fill-rule="nonzero" d="M37.965 3.059l-.035.386c0 .024.006.035.017.035h.018l-.035 10.372c0 .234-.082.416-.246.544a.938.938 0 0 1-.598.194h-.563a.757.757 0 0 1-.58-.246.846.846 0 0 1-.228-.598l.035-7.7-9.035 8.966a14.242 14.242 0 0 1 2.531 4.218c.61 1.57.914 3.235.914 4.993 0 1.945-.369 3.767-1.107 5.466a14.32 14.32 0 0 1-3.024 4.465 14.32 14.32 0 0 1-4.465 3.024c-1.699.738-3.521 1.107-5.466 1.107-1.946 0-3.774-.369-5.485-1.107a14.054 14.054 0 0 1-4.465-3.024 14.473 14.473 0 0 1-3.005-4.465c-.739-1.699-1.108-3.521-1.108-5.466 0-1.946.37-3.774 1.108-5.485.738-1.71 1.74-3.199 3.005-4.465a14.201 14.201 0 0 1 4.465-3.005c1.711-.739 3.54-1.108 5.485-1.108 1.71 0 3.334.293 4.869.88a14.598 14.598 0 0 1 4.13 2.39l9.036-8.93-7.594-.035a.98.98 0 0 1-.598-.211c-.187-.14-.293-.352-.316-.633V3.06c0-.235.082-.434.246-.598a.774.774 0 0 1 .563-.246l10.336.035h.421c.118 0 .229.018.334.053a.662.662 0 0 1 .264.158c.07.07.117.158.14.264.024.105.036.216.036.334zM27.91 24.223c0-1.641-.31-3.176-.931-4.606a12.218 12.218 0 0 0-2.532-3.762 11.8 11.8 0 0 0-3.761-2.548 11.47 11.47 0 0 0-4.588-.932c-1.641 0-3.182.31-4.623.932a11.8 11.8 0 0 0-3.762 2.548 12.218 12.218 0 0 0-2.531 3.762c-.621 1.43-.932 2.965-.932 4.606 0 1.64.31 3.175.932 4.605a12.218 12.218 0 0 0 2.53 3.762 11.566 11.566 0 0 0 3.763 2.531c1.441.61 2.982.914 4.623.914a11.66 11.66 0 0 0 4.588-.914 11.566 11.566 0 0 0 3.761-2.531 12.218 12.218 0 0 0 2.532-3.762c.62-1.43.931-2.965.931-4.605z"/>
</svg>
