<svg xmlns="http://www.w3.org/2000/svg" width="80" height="80" viewBox="0 0 80 80">
    <g fill="none" fill-rule="nonzero">
        <path fill="#FFF" d="M12.238 7.013h-.007c-.757 0-1.468.294-2.006.83a2.84 2.84 0 0 0-.842 2.026v42.825c0 1.57 1.285 2.851 2.866 2.855 6.663.016 17.827 1.402 25.529 9.442V20.174c0-.533-.137-1.033-.394-1.447C31.064 8.572 18.916 7.03 12.238 7.013zM70.617 52.694V9.87c0-.767-.299-1.486-.842-2.027a2.826 2.826 0 0 0-2.006-.83h-.007c-6.678.017-18.825 1.56-25.146 11.715a2.732 2.732 0 0 0-.394 1.447V64.99c7.702-8.04 18.866-9.426 25.53-9.442 1.58-.004 2.865-1.285 2.865-2.855z"/>
        <path fill="#E026B9" d="M77.138 16.89h-2.076v35.804c0 4.01-3.275 7.28-7.3 7.29-5.652.013-14.971 1.115-21.572 7.347 11.415-2.788 23.449-.976 30.307.584A2.862 2.862 0 0 0 80 65.132V19.745a2.862 2.862 0 0 0-2.862-2.856zM4.938 52.694V16.89H2.862A2.862 2.862 0 0 0 0 19.745V65.13c0 .873.392 1.687 1.076 2.23a2.86 2.86 0 0 0 2.427.553c6.858-1.56 18.892-3.372 30.306-.584-6.6-6.231-15.92-7.334-21.571-7.347-4.025-.01-7.3-3.28-7.3-7.289z"/>
    </g>
</svg>
