<svg xmlns="http://www.w3.org/2000/svg" width="49" height="49" viewBox="0 0 49 49">
    <defs>
        <linearGradient id="a" x1="4.487%" y1="26.251%" y2="76.091%">
            <stop offset=".063%" stop-color="#AAA0FF"/>
            <stop offset="55.836%" stop-color="#757DFF"/>
            <stop offset="100%" stop-color="#677FFF"/>
        </linearGradient>
        <linearGradient id="b" x1="4.427%" y1="27.04%" y2="75.191%">
            <stop offset=".063%" stop-color="#AAA0FF"/>
            <stop offset="55.836%" stop-color="#757DFF"/>
            <stop offset="100%" stop-color="#677FFF"/>
        </linearGradient>
        <linearGradient id="c" x1="4.427%" y1="27.053%" y2="75.176%">
            <stop offset=".063%" stop-color="#AAA0FF"/>
            <stop offset="55.836%" stop-color="#757DFF"/>
            <stop offset="100%" stop-color="#677FFF"/>
        </linearGradient>
        <linearGradient id="d" x1="28.787%" x2="73.273%" y1="4.427%" y2="100%">
            <stop offset=".063%" stop-color="#AAA0FF"/>
            <stop offset="55.836%" stop-color="#757DFF"/>
            <stop offset="100%" stop-color="#677FFF"/>
        </linearGradient>
    </defs>
    <g fill="none" fill-rule="nonzero">
        <path fill="url(#a)" d="M33.155 6.182c-.653 0-1.206-.307-1.379-.729a.846.846 0 0 1-.089-.35c0-.563.645-1.02 1.44-1.02.653 0 1.206.308 1.379.73a.831.831 0 0 1 .086.349c.003.564-.642 1.02-1.437 1.02z"/>
        <path fill="url(#b)" d="M34.566.008c-.581 0-1.108.249-1.33.63-.222.381-.098.819.311 1.11 2.578 1.824 4.035 3.018 4.777 3.713-.915.071-2.145.07-3.035-.187-.633-.182-.754-.404-.792-.475-.27-.497-1.034-.765-1.75-.612-.72.151-1.155.667-1.003 1.187 1.371 4.62 6.163 6.877 14.638 6.877.389 0 .783-.004 1.189-.015.778-.018 1.391-.468 1.391-1.018.003-6.923-2.407-11.21-14.396-11.21z"/>
        <path fill="url(#c)" d="M16.214 4.163c-.717-.147-1.488.13-1.745.63-.038.073-.155.301-.783.482-.89.26-2.11.261-3.041.188.743-.695 2.203-1.89 4.78-3.717.412-.291.536-.727.314-1.108-.222-.381-.749-.63-1.33-.63C2.42.008.01 4.295.01 11.215c0 .55.616 1.001 1.391 1.02.406.01.8.014 1.192.014 8.495 0 13.29-2.262 14.638-6.9.15-.524-.291-1.04-1.017-1.186z"/>
        <path fill="url(#d)" d="M30.633 13.856c.685-.792 1.054-1.703 1.054-2.647 0-1.455-.902-2.848-2.477-3.823-.541-.336-1.356-.336-1.895 0-.567.349-1.514.767-2.828.767-1.313 0-2.26-.418-2.824-.767-.542-.336-1.357-.333-1.895 0-1.578.975-2.48 2.368-2.48 3.823 0 .946.369 1.857 1.054 2.647-2.644 1.773-3.933 4.923-3.933 9.58 0 8.046 3.957 13.244 10.078 13.244 6.123 0 10.08-5.198 10.08-13.244 0-4.657-1.29-7.807-3.934-9.58z"/>
        <path fill="#FFF" d="M24.487 36.68c-6.121 0-10.078-5.198-10.078-13.244 0-4.657 1.29-7.807 3.933-9.58-.685-.792-1.054-1.703-1.054-2.647 0-1.455.902-2.848 2.477-3.823.541-.333 1.356-.336 1.894 0 .568.349 1.515.767 2.828.767 1.314 0 2.261-.418 2.826-.767.541-.336 1.356-.336 1.895 0 1.575.977 2.476 2.37 2.476 3.823 0 .946-.369 1.857-1.054 2.647 2.644 1.773 3.934 4.923 3.934 9.58.002 8.044-3.954 13.244-10.077 13.244zM20.92 9.506c-.49.499-.752 1.084-.752 1.703 0 .791.432 1.543 1.215 2.117.3.22.444.522.398.826-.052.303-.291.574-.654.74-2.548 1.155-3.839 4.03-3.839 8.544 0 6.598 2.96 11.207 7.2 11.207 4.239 0 7.199-4.61 7.199-11.207 0-4.514-1.29-7.387-3.839-8.545-.362-.165-.602-.436-.654-.74-.049-.303.095-.604.398-.825.783-.576 1.215-1.328 1.215-2.117 0-.617-.262-1.202-.751-1.703-2.178.89-4.96.89-7.136 0z"/>
        <path fill="#FFF" d="M33.126 22.417c-.794 0-1.439-.457-1.439-1.02 0-.562.645-1.018 1.44-1.018 4.259 0 11.98-2.79 12.875-8.136-8.288-.062-12.967-2.338-14.287-6.945-.15-.526.3-1.045 1.034-1.186.746-.147 1.498.145 1.74.652.063.133.216.328.777.497.899.267 2.143.271 3.062.202-.78-.732-2.31-1.974-4.778-3.72-.412-.292-.536-.73-.311-1.111.224-.381.749-.63 1.33-.63 11.989 0 14.399 4.287 14.399 11.205v.008c-.009 6.939-9.23 11.202-15.842 11.202zm2.898-14.939c1.817 1.834 5.065 2.702 10.044 2.727-.161-4.817-1.639-7.365-7.882-8.004 4.542 3.466 3.908 4.002 3.246 4.566-.818.693-3.56.876-5.408.711zM15.848 22.417C9.237 22.417.016 18.154.01 11.213v-.008C.01 4.287 2.42 0 14.409 0c.581 0 1.108.248 1.33.63.222.38.098.819-.311 1.11-2.47 1.749-3.997 2.99-4.78 3.72.918.072 2.163.068 3.061-.2.558-.17.711-.366.777-.498.245-.507 1-.8 1.74-.652.734.143 1.183.662 1.034 1.188-1.32 4.605-5.999 6.883-14.287 6.945.896 5.344 8.616 8.136 12.875 8.136.795 0 1.44.456 1.44 1.019 0 .562-.645 1.019-1.44 1.019zM10.788 2.2c-6.242.64-7.72 3.187-7.881 8.004 4.98-.025 8.227-.893 10.044-2.727-1.848.163-4.59-.018-5.408-.71-.662-.565-1.296-1.101 3.246-4.567zM41.766 28.53c-.527 0-1.034-.206-1.288-.563-.417-.589-3.559-1.475-7.352-1.475-.794 0-1.439-.457-1.439-1.019 0-.562.645-1.019 1.44-1.019 3.25 0 8.578.693 9.926 2.6.354.504.066 1.115-.645 1.368a1.97 1.97 0 0 1-.642.108zM40.326 32.605c-.527 0-1.034-.206-1.287-.563-.522-.733-2.549-1.475-5.913-1.475-.794 0-1.439-.456-1.439-1.018 0-.563.645-1.02 1.44-1.02 4.16 0 7.334.973 8.486 2.6.355.504.067 1.115-.645 1.368a1.974 1.974 0 0 1-.642.108zM38.886 36.68c-.527 0-1.034-.205-1.287-.562-.418-.589-3.56-1.475-7.352-1.475-.795 0-1.44-.457-1.44-1.02 0-.562.645-1.018 1.44-1.018 3.251 0 8.578.693 9.926 2.6.355.503.067 1.115-.645 1.367a1.971 1.971 0 0 1-.642.108zM7.21 28.53c-.217 0-.439-.035-.646-.108-.711-.253-.996-.864-.642-1.37 1.348-1.907 6.675-2.598 9.926-2.598.795 0 1.44.457 1.44 1.02 0 .561-.645 1.018-1.44 1.018-3.79 0-6.934.888-7.351 1.475-.254.357-.76.563-1.288.563zM8.65 32.605c-.217 0-.439-.035-.646-.108-.711-.253-.996-.864-.642-1.37 1.152-1.627 4.325-2.6 8.486-2.6.795 0 1.44.457 1.44 1.02 0 .562-.645 1.018-1.44 1.018-3.363 0-5.39.742-5.912 1.476-.253.358-.76.564-1.287.564zM10.09 36.68c-.217 0-.438-.034-.646-.108-.712-.252-.996-.864-.642-1.369 1.35-1.907 6.675-2.6 9.926-2.6.795 0 1.44.457 1.44 1.019 0 .562-.645 1.019-1.44 1.019-3.79 0-6.934.888-7.352 1.475-.253.359-.76.564-1.287.564zM22.112 48.919c-.196 0-.4-.004-.608-.016-4.078-.212-5.86-1.667-6.623-2.29-.521-.425-.519-1.114.078-1.484.599-.371 1.44-.377 1.97.043.785.643 1.892 1.546 4.783 1.697 2.292.114 3.248-.66 4.264-3.326 1.092-2.854.27-5.198-2.508-7.164-.561-.398-.561-1.043 0-1.44.562-.398 1.474-.398 2.036 0 3.522 2.491 4.616 5.564 3.251 9.136-.65 1.714-1.846 4.844-6.643 4.844z"/>
        <path fill="#FFF" d="M14.409 46.869c-2.382 0-4.32-1.371-4.32-3.057 0-.74.573-2.093 1.227-3.545.011-.304.12-.628.357-.974.331-.483 1.284-.87 1.967-.67 1.111.313.99.943.65 1.75.136.316.821.695 1.924 1.23 1.29.628 2.514 1.223 2.514 2.21 0 1.685-1.938 3.056-4.32 3.056zm-1.095-4.238c-.196.509-.345.961-.345 1.181 0 .563.648 1.02 1.44 1.02.725 0 1.33-.384 1.425-.88-.239-.176-.838-.466-1.255-.667-.38-.188-.83-.404-1.265-.654z"/>
    </g>
</svg>
