<svg xmlns="http://www.w3.org/2000/svg" width="16" height="16" viewBox="0 0 16 16">
    <g fill="#FFF" fill-rule="nonzero" opacity=".5">
        <path d="M.107 3.423l1.392-1.436a.356.356 0 0 1 .514 0 .383.383 0 0 1 0 .53l-.738.762h3.484c.201 0 .364.168.364.375a.37.37 0 0 1-.364.375H1.21l.768.793a.383.383 0 0 1 0 .53.357.357 0 0 1-.514 0L.106 3.954a.383.383 0 0 1 0-.53zM14.58 6.014a2.388 2.388 0 0 0-1.097-.402c-.402-.555-.981-.858-1.649-.858a2.37 2.37 0 0 0-.445.043 1.997 1.997 0 0 0-1.588-.72l-.003-2.304c0-.529-.198-1-.555-1.328A1.718 1.718 0 0 0 8.077 0c-.47 0-.92.187-1.237.514-.318.328-.485.765-.485 1.264L6.36 5.1l.003 2.11c-.46.253-.778.654-.926 1.171-.227.796-.046 1.822.554 3.135.394.864.868 1.62 1.094 1.965l.1 1.38c.046.615.55 1.098 1.149 1.098l4.766-.006c.575-.001 1.065-.445 1.14-1.033l.185-1.454c1.126-1.82 1.538-3.705 1.227-5.605-.17-1.034-.676-1.576-1.07-1.848zm-.803 7.104a.448.448 0 0 0-.065.181l-.194 1.524a.417.417 0 0 1-.42.367l-4.765-.007a.418.418 0 0 1-.423-.391l-.107-1.456a.433.433 0 0 0-.073-.212c-.436-.654-2.872-4.465-.9-5.316a.434.434 0 0 0 .259-.4l-.007-5.632c0-.684.497-1.026.995-1.026.497 0 .993.341.994 1.024l.003 2.643a.43.43 0 0 0 .49.431c.084-.013.175-.022.271-.022.358 0 .776.123 1.096.58a.412.412 0 0 0 .45.161 1.74 1.74 0 0 1 .453-.063c.374 0 .815.14 1.14.668a.366.366 0 0 0 .298.176c.43.016 1.427.21 1.662 1.64.217 1.323.117 3.1-1.157 5.13z"/>
    </g>
</svg>
