<svg xmlns="http://www.w3.org/2000/svg" width="68" height="78" viewBox="0 0 68 78">
    <defs>
        <linearGradient id="a" x1="50%" x2="50%" y1="0%" y2="100%">
            <stop offset="0%" stop-color="#F8CFE6"/>
            <stop offset="100%" stop-color="#EEA1C9"/>
        </linearGradient>
        <linearGradient id="b" x1="50%" x2="50%" y1="0%" y2="100%">
            <stop offset="0%" stop-color="#F8CFE6" stop-opacity="0"/>
            <stop offset="100%" stop-color="#EEA1C9"/>
        </linearGradient>
    </defs>
    <g fill="none" fill-rule="evenodd">
        <path fill="url(#a)" fill-rule="nonzero" d="M33.693 3.671h14.615v3.678H33.693z"/>
        <path fill="url(#b)" d="M15.852 12H63.85a3 3 0 0 1 2.995 3.179l-3.348 56A3 3 0 0 1 60.502 74H19.201a3 3 0 0 1-2.995-2.821l-3.348-56A3 3 0 0 1 15.852 12z"/>
        <path fill="#1E0478" fill-rule="nonzero" d="M66.073 7.35c1.02 0 1.846.82 1.846 1.835a1.84 1.84 0 0 1-1.846 1.836h-3.42l-2.332 60.388C60.18 75.105 57.155 78 53.435 78h-38.87c-3.72 0-6.744-2.895-6.887-6.591L5.346 11.02h-3.42A1.84 1.84 0 0 1 .082 9.185c0-1.015.825-1.835 1.846-1.835h21.075v-3.7A3.66 3.66 0 0 1 26.665 0h14.67a3.66 3.66 0 0 1 3.663 3.65v3.7h21.075zm-9.438 63.917l2.325-60.246H9.04l2.327 60.246a3.182 3.182 0 0 0 3.198 3.062h38.87a3.185 3.185 0 0 0 3.2-3.062zM41.307 7.35V3.67H26.693V7.35h14.614z"/>
        <path fill="#1E0478" fill-rule="nonzero" d="M47.116 25.861a1.842 1.842 0 0 1 1.81 1.87l-.579 29.957a1.84 1.84 0 0 1-1.843 1.8h-.037a1.842 1.842 0 0 1-1.81-1.87l.58-29.956a1.842 1.842 0 0 1 1.88-1.8z"/>
        <g fill="#1E0478" fill-rule="nonzero">
            <path d="M35.845 27.697v29.956A1.841 1.841 0 0 1 34 59.489a1.841 1.841 0 0 1-1.845-1.836V27.697c0-1.014.826-1.836 1.845-1.836 1.019 0 1.845.822 1.845 1.836zM23.341 57.618a1.84 1.84 0 0 1-1.808 1.87h-.037a1.84 1.84 0 0 1-1.843-1.8l-.58-29.956a1.84 1.84 0 0 1 1.846-1.87c1.002 0 1.825.798 1.845 1.8l.577 29.956z"/>
        </g>
    </g>
</svg>
