<svg xmlns="http://www.w3.org/2000/svg" width="100" height="100" viewBox="0 0 100 100">
    <g fill="none" fill-rule="evenodd">
        <g fill="#19112B" transform="translate(82 23)">
            <rect width="2" height="4" x="4.5" rx="1"/>
            <rect width="2" height="4" x="8" y="3.5" rx="1" transform="rotate(90 9 5.5)"/>
            <rect width="2" height="4" x="1" y="3.5" rx="1" transform="rotate(90 2 5.5)"/>
            <rect width="2" height="4" x="4.5" y="6" rx="1"/>
        </g>
        <g fill="#19112B" transform="translate(3 45)">
            <rect width="2" height="4" x="4.5" rx="1"/>
            <rect width="2" height="4" x="8" y="3.5" rx="1" transform="rotate(90 9 5.5)"/>
            <rect width="2" height="4" x="1" y="3.5" rx="1" transform="rotate(90 2 5.5)"/>
            <rect width="2" height="4" x="4.5" y="6" rx="1"/>
        </g>
        <g transform="translate(14 17)">
            <circle cx="38" cy="50" r="2" fill="#EE6DAF" fill-opacity=".402"/>
            <path fill="#EE6DAF" fill-opacity=".399" d="M36 23h6v19h-6z"/>
            <path fill="#EE6DAF" fill-opacity=".413" d="M44.846 4.84L73.11 54.013A8 8 0 0 1 66.174 66H8.902a8 8 0 0 1-6.89-12.065L31.02 4.762a8 8 0 0 1 13.826.078zm-3.56 2.98a4 4 0 0 0-6.923-.038L7.86 52.977A4 4 0 0 0 11.31 59h52.33a4 4 0 0 0 3.472-5.984L41.287 7.82z"/>
            <path fill="#19112B" fill-rule="nonzero" d="M47.481 5.833A11.439 11.439 0 0 0 37.5 0a11.439 11.439 0 0 0-9.981 5.833l-9.032 15.623a1.452 1.452 0 0 0 .54 1.989c.701.4 1.597.16 2-.537l9.048-15.651A8.505 8.505 0 0 1 37.5 2.913a8.505 8.505 0 0 1 7.425 4.344l26.163 45.255a7.775 7.775 0 0 1 .982 3.777c0 4.3-3.518 7.798-7.842 7.798H10.772c-4.324 0-7.842-3.499-7.842-7.798 0-1.319.34-2.625.982-3.777l11.276-19.504a1.452 1.452 0 0 0-.54-1.989 1.469 1.469 0 0 0-2 .537L1.357 51.087A10.68 10.68 0 0 0 0 56.29C0 62.195 4.832 67 10.772 67h53.456C70.168 67 75 62.195 75 56.289c0-1.816-.47-3.615-1.357-5.202l-.01-.018L47.481 5.833z"/>
            <path fill="#19112B" fill-rule="nonzero" d="M6.479 53.917c-1.813 3.251.557 7.257 4.293 7.257h53.456c3.737 0 6.106-4.006 4.293-7.257L42.357 8.661A5.575 5.575 0 0 0 37.5 5.826a5.571 5.571 0 0 0-4.856 2.835L6.479 53.917zm2.557 1.422l26.163-45.253a2.641 2.641 0 0 1 4.605.001l26.16 45.251c.726 1.317-.234 2.923-1.736 2.923H10.772c-1.503 0-2.461-1.607-1.736-2.922z"/>
            <path fill="#000" fill-rule="nonzero" d="M37.5 53.891c2.423 0 4.395-1.96 4.395-4.37 0-2.409-1.972-4.369-4.395-4.369-2.423 0-4.395 1.96-4.395 4.37s1.972 4.37 4.395 4.37zm0-5.826c.808 0 1.465.653 1.465 1.457 0 .803-.657 1.456-1.465 1.456a1.462 1.462 0 0 1-1.465-1.456c0-.804.657-1.457 1.465-1.457zM34.57 42.24h5.86a1.46 1.46 0 0 0 1.465-1.457V23.304a1.46 1.46 0 0 0-1.465-1.456h-5.86a1.46 1.46 0 0 0-1.465 1.456v17.479a1.46 1.46 0 0 0 1.465 1.456zm1.465-17.48h2.93v14.566h-2.93V24.761z"/>
            <path fill="#19112B" fill-rule="nonzero" d="M16.846 28.693c.808 0 1.465-.652 1.465-1.456 0-.804-.657-1.457-1.465-1.457-.809 0-1.465.653-1.465 1.457s.656 1.456 1.465 1.456z"/>
        </g>
    </g>
</svg>
