<svg xmlns="http://www.w3.org/2000/svg" width="80" height="80" viewBox="0 0 80 80">
    <path fill="#FFA844" fill-rule="nonzero" d="M27.428 60.77L19.74 30.214v33.108c0 1.832-.409 3.206-1.227 4.122-.817.916-1.902 1.374-3.255 1.374-1.308 0-2.377-.453-3.206-1.358-.829-.905-1.243-2.284-1.243-4.138v-37.95c0-2.093.545-3.505 1.636-4.236 1.09-.73 2.562-1.096 4.416-1.096h3.01c1.81 0 3.124.164 3.942.49.818.328 1.423.917 1.816 1.767.392.851.84 2.236 1.341 4.155l6.968 26.27 6.969-26.27c.501-1.92.948-3.304 1.341-4.155.393-.85.998-1.44 1.816-1.766.818-.327 2.132-.491 3.942-.491h3.01c1.853 0 3.326.365 4.416 1.096 1.09.73 1.636 2.143 1.636 4.237v37.949c0 1.832-.41 3.206-1.227 4.122-.818.916-1.914 1.374-3.288 1.374-1.287 0-2.344-.458-3.173-1.374-.829-.916-1.243-2.29-1.243-4.122V30.214L40.449 60.77c-.502 1.985-.91 3.44-1.227 4.367-.316.927-.9 1.773-1.75 2.536-.85.763-2.029 1.145-3.534 1.145-1.134 0-2.093-.245-2.878-.736a5.303 5.303 0 0 1-1.832-1.881 10.739 10.739 0 0 1-1.031-2.536c-.25-.927-.507-1.892-.769-2.895zM70.76 27.479c0 .455-.113.948-.337 1.479-.225.53-.578 1.051-1.06 1.563-.481.51-1.097.926-1.845 1.245-.75.319-1.622.478-2.618.478a9.146 9.146 0 0 1-2.06-.215 5.788 5.788 0 0 1-1.685-.669 5.683 5.683 0 0 1-1.391-1.196c-.378-.45-.7-.952-.967-1.509a7.867 7.867 0 0 1-.6-1.782 9.714 9.714 0 0 1-.2-2.012c0-1.152.167-2.184.502-3.095a6.603 6.603 0 0 1 1.44-2.34 6.283 6.283 0 0 1 2.198-1.479 7.115 7.115 0 0 1 2.685-.508c1.16 0 2.191.232 3.096.694.905.462 1.598 1.033 2.08 1.714.482.68.723 1.323.723 1.928 0 .332-.117.625-.352.88-.234.253-.517.38-.85.38-.37 0-.649-.088-.834-.264-.186-.175-.393-.478-.62-.908-.378-.71-.822-1.24-1.334-1.592-.51-.351-1.14-.527-1.89-.527-1.19 0-2.14.453-2.846 1.358s-1.06 2.19-1.06 3.857c0 1.113.157 2.04.47 2.778.312.74.755 1.291 1.327 1.656.573.364 1.244.546 2.012.546.833 0 1.538-.206 2.114-.62.577-.413 1.011-1.02 1.304-1.821a3.09 3.09 0 0 1 .46-.923c.181-.237.474-.356.878-.356.345 0 .641.12.889.361.247.241.37.54.37.899z"/>
</svg>
