<svg xmlns="http://www.w3.org/2000/svg" width="80" height="80" viewBox="0 0 80 80">
    <path fill="#57E4DB" fill-rule="nonzero" d="M39 39.794V25.887c-.633.254-1.413.381-2.34.381H15.425v11.426h19.551c1.439 0 2.513.323 3.221.968.358.325.625.703.802 1.132zm0 2.863a3.267 3.267 0 0 1-.786 1.146c-.698.667-1.777 1-3.237 1h-19.55v13.235h21.962c.596 0 1.133.056 1.611.167V42.657zm1.275 22.191c-.721.454-1.683.68-2.886.68H11.776c-2.052 0-3.528-.455-4.427-1.364-.9-.91-1.349-2.38-1.349-4.412V24.776c0-1.354.201-2.46.603-3.316a3.744 3.744 0 0 1 1.888-1.873c.857-.391 1.952-.587 3.285-.587H36.66c1.502 0 2.619.333 3.349 1 .133.122.255.25.364.387l.056-.054C41.38 19.444 42.893 19 44.967 19h12.092c3.576 0 6.327.275 8.252.825 1.904.53 3.55 1.407 4.935 2.634 1.386 1.228 2.439 2.73 3.158 4.507.72 1.778 1.08 3.777 1.08 5.999 0 4.74-1.46 8.331-4.38 10.775-2.92 2.444-7.269 3.666-13.045 3.666h-8.633v13.171c0 1.883-.444 3.312-1.333 4.285-.888.973-2.01 1.46-3.364 1.46-1.418 0-2.56-.482-3.428-1.444a4.044 4.044 0 0 1-.026-.03zm14.499-38.77h-6.348v14.218h6.348c2.222 0 4.078-.232 5.57-.698 1.492-.465 2.629-1.227 3.412-2.285.783-1.058 1.174-2.444 1.174-4.158 0-2.052-.603-3.724-1.809-5.014-1.354-1.376-4.136-2.063-8.347-2.063z"/>
</svg>
