<svg xmlns="http://www.w3.org/2000/svg" width="80" height="80" viewBox="0 0 80 80">
    <path fill="#57E4DB" fill-rule="nonzero" d="M68.933 59.285c.14.753.066 1.555-.26 2.312-2.837 6.583-7.808 9.744-13.357 8.868-4.446-.702-8.533-4.054-10.052-8.021-1.216-3.178-.773-6.587.876-10.942.583-1.539 1.297-3.159 2.356-5.408-.024.053 2.112-4.43 2.732-5.775a117.544 117.544 0 0 0 1.443-3.245c1.69-3.976 1.604-9.04-.31-12.987-2.086-4.3-6.039-6.888-11.853-7.075-11.83-.383-17.751 9.428-13.412 20.123 1.313 3.235 1.996 4.684 4.38 9.513 1.736 3.513 2.46 5.226 2.94 7.34.59 2.594.519 5.131-.234 8.03-2.519 9.705-12.402 10.44-20.097 5.318a3.982 3.982 0 0 1-1.525-1.913 11.949 11.949 0 0 1-2.56-7.41c0-6.627 5.373-12 12-12 .088 0 .177.002.264.004a94.31 94.31 0 0 1-2.58-5.874C13.266 24.328 22.858 8.437 40.765 9.016c8.797.284 15.415 4.616 18.793 11.58 2.933 6.046 3.06 13.526.474 19.608a125.41 125.41 0 0 1-1.54 3.465c-.231.502-.656 1.404-1.104 2.35C63.836 46.226 69 51.517 69 58.015c0 .43-.023.853-.067 1.27zm-48.7 2.318c.196.085.393.163.59.235a4 4 0 1 0-.59-.234zm36.767.41a4 4 0 1 0 0-8 4 4 0 0 0 0 8z"/>
</svg>
