<svg xmlns="http://www.w3.org/2000/svg" width="80" height="80" viewBox="0 0 80 80">
    <path fill="#57E4DB" fill-rule="nonzero" d="M24.716 32.663c1.101-2.7 2.603-5.035 4.504-7.006a21.047 21.047 0 0 1 7.361-4.956C39.395 19.567 42.393 19 45.578 19c3.882 0 7.339.774 10.37 2.323 3.032 1.548 5.355 3.462 6.969 5.741 1.613 2.28 2.42 4.433 2.42 6.461 0 1.113-.392 2.094-1.177 2.945-.785.85-1.734 1.276-2.847 1.276-1.243 0-2.175-.295-2.797-.884-.621-.589-1.314-1.603-2.077-3.042-1.265-2.377-2.754-4.155-4.466-5.333-1.712-1.177-3.822-1.766-6.33-1.766-3.991 0-7.17 1.515-9.536 4.547-2.367 3.032-3.55 7.34-3.55 12.922 0 3.73.524 6.832 1.57 9.308 1.047 2.475 2.53 4.324 4.45 5.545 1.919 1.221 4.165 1.832 6.739 1.832 2.792 0 5.152-.692 7.083-2.077 1.93-1.385 3.386-3.42 4.367-6.102.415-1.265.927-2.295 1.538-3.091.61-.796 1.592-1.194 2.944-1.194 1.156 0 2.148.403 2.977 1.21.829.807 1.243 1.81 1.243 3.01 0 1.527-.376 3.179-1.128 4.956-.753 1.778-1.936 3.522-3.55 5.235-1.614 1.712-3.675 3.102-6.183 4.17-2.508 1.07-5.43 1.604-8.768 1.604-2.53 0-4.83-.24-6.902-.72s-3.954-1.227-5.644-2.241-3.244-2.35-4.662-4.008a23.815 23.815 0 0 1-3.238-5.054 25.29 25.29 0 0 1-.677-1.54v7.641c0 1.985-.452 3.468-1.357 4.45-.905.981-2.089 1.472-3.55 1.472-1.396 0-2.546-.496-3.451-1.489-.905-.992-1.358-2.47-1.358-4.433V24.89c0-1.963.447-3.435 1.341-4.417.895-.981 2.05-1.472 3.468-1.472 1.461 0 2.645.485 3.55 1.456.905.97 1.357 2.448 1.357 4.433v7.774z"/>
</svg>
