<svg xmlns="http://www.w3.org/2000/svg" width="80" height="80" viewBox="0 0 80 80">
    <path fill="#FFA844" fill-rule="nonzero" d="M52.448 34.673c-4.684-1.211-9.289.147-13.343 3.729v-8.415h10.277c2.357 0 4.268-1.893 4.268-4.23 0-2.335-1.91-4.229-4.268-4.229H39.105V12.23c0-2.336-1.91-4.23-4.268-4.23-2.357 0-4.268 1.894-4.268 4.23v9.299H20.292c-2.357 0-4.268 1.893-4.268 4.23 0 2.335 1.91 4.229 4.268 4.229h10.277v22.195c0 2.011 1.428 3.743 3.416 4.145 1.987.401 3.986-.64 4.78-2.49.866-2.018 2.718-5.81 5.382-8.512 2.857-2.898 4.875-2.796 6.145-2.468 1.938.501 3.751 2.215 4.62 4.368.409 1.01.934 2.964-.14 4.684-1.23 1.97-3.61 3.852-6.702 5.299a4.232 4.232 0 0 0-2.403 3.225c-.09.628-.694 6.255 5.874 10.775.742.51 1.59.755 2.43.755 1.352 0 2.68-.634 3.51-1.817a4.206 4.206 0 0 0-1.071-5.887 7.556 7.556 0 0 1-1.385-1.194c2.525-1.576 5.174-3.769 7.007-6.705 2.224-3.564 2.518-8.04.806-12.279-1.87-4.63-5.852-8.235-10.39-9.409z"/>
</svg>
