<svg xmlns="http://www.w3.org/2000/svg" width="80" height="80" viewBox="0 0 80 80">
    <path fill="#EE6DAF" fill-rule="nonzero" d="M39.5 8C26.6 8 16.104 18.392 16.104 31.164c0 2.317 1.896 4.194 4.236 4.194s4.236-1.877 4.236-4.194c0-8.148 6.695-14.776 14.925-14.776s14.924 6.629 14.924 14.776c0 8.148-6.695 14.777-14.925 14.777-2.34 0-4.236 1.878-4.236 4.194v4.683h-4.26c-2.34 0-4.237 1.877-4.237 4.194 0 2.316 1.897 4.193 4.236 4.193h4.261v4.48c0 2.317 1.896 4.194 4.236 4.194s4.237-1.877 4.237-4.194v-4.48h4.26c2.34 0 4.236-1.877 4.236-4.193 0-2.317-1.896-4.194-4.236-4.194h-4.26v-.87c10.886-1.978 19.16-11.442 19.16-22.784C62.897 18.392 52.402 8 39.5 8z"/>
</svg>
