<svg xmlns="http://www.w3.org/2000/svg" width="80" height="80" viewBox="0 0 80 80">
    <path fill="#57E4DB" fill-rule="nonzero" d="M56.123 56.403A22.93 22.93 0 0 0 63 40a22.908 22.908 0 0 0-5.431-14.845L45.603 41.784l10.52 14.62zM49.53 60.94l-8.855-12.307-9.172 12.747A22.939 22.939 0 0 0 40 63c3.4 0 6.627-.738 9.53-2.061zM29.566 19.497l11.11 15.439 10.73-14.913A22.895 22.895 0 0 0 40 17c-3.756 0-7.302.9-10.434 2.497zm-6.389 4.819A22.92 22.92 0 0 0 17 40c0 6.82 2.968 12.947 7.684 17.159l11.063-15.375-12.57-17.468zM40 71C22.88 71 9 57.12 9 40 9 22.88 22.88 9 40 9c17.12 0 31 13.88 31 31 0 17.12-13.88 31-31 31z"/>
</svg>
