<svg xmlns="http://www.w3.org/2000/svg" width="80" height="80" viewBox="0 0 80 80">
    <path fill="#FF445B" fill-rule="nonzero" d="M64.091 52.424h-8.235V16.251a3.844 3.844 0 0 0-7.687 0v36.173H32.865c4.45-4.592 9.905-11.863 10.625-20.406.037-.395.865-9.723-4.367-15.528-2.61-2.895-6.275-4.447-10.61-4.49-11 0-14.916 8.513-15.451 13.014-.281 2.37 1.426 4.544 3.79 4.843 2.404.345 4.6-1.403 4.927-3.763.223-1.601 1.32-5.325 6.69-5.325 1.873.019 3.142.504 4.114 1.574 2.61 2.88 2.163 8.827 2.157 8.886-1.007 11.97-14.063 20.706-14.19 20.787a4.42 4.42 0 0 0-1.924 2.763 4.352 4.352 0 0 0 .595 3.308c.809 1.258 2.255 2.01 3.867 2.01h25.08v4.933a3.844 3.844 0 0 0 7.687 0v-4.933h8.235a3.844 3.844 0 0 0 3.843-3.836 3.843 3.843 0 0 0-3.842-3.837z"/>
</svg>
