<svg xmlns="http://www.w3.org/2000/svg" width="80" height="80" viewBox="0 0 80 80">
    <path fill="#7163FF" fill-rule="nonzero" d="M44.1 49.81v2.543h15.3a3.6 3.6 0 1 1 0 7.2H44.1v10.104a3.6 3.6 0 1 1-7.2 0V59.553H22.5a3.6 3.6 0 1 1 0-7.2h14.4V49.81c-12.815-1.641-22.5-11.96-22.5-25.123a3.6 3.6 0 1 1 7.2 0c0 10.31 8.241 18.15 18.9 18.15 10.659 0 18.9-7.84 18.9-18.15a3.6 3.6 0 1 1 7.2 0c0 13.163-9.685 23.482-22.5 25.123zm-3.6-8.86c-9.952 0-18-8.104-18-18.075S30.548 4.8 40.5 4.8s18 8.104 18 18.075-8.048 18.075-18 18.075zm0-7.2c5.965 0 10.8-4.869 10.8-10.875S46.465 12 40.5 12c-5.965 0-10.8 4.869-10.8 10.875S34.535 33.75 40.5 33.75z"/>
</svg>
