<svg xmlns="http://www.w3.org/2000/svg" width="80" height="80" viewBox="0 0 80 80">
    <path fill="#EE6DAF" fill-rule="nonzero" d="M16.873 44H6.823a4 4 0 1 1 0-8h11.881a4 4 0 0 1 3.028 1.386l18.687 21.65 16.397-22.399A4 4 0 0 1 60.044 35h13.498a4 4 0 1 1 0 8H62.073L43.904 67.82a4 4 0 0 1-6.256.25L16.873 44zm29.092-8.988a4 4 0 1 1 6.439 4.748L43.4 51.966a4 4 0 0 1-6.278.204L26.838 39.963a4 4 0 1 1 6.117-5.155l7.018 8.328 5.992-8.124zm-7.99-8.612A4 4 0 0 1 36 22.95V16a4 4 0 1 1 8 0v4.66l1.298.76a4 4 0 0 1 1.606 5.13l-3.273 7.08a4 4 0 1 1-7.262-3.359l1.751-3.786-.144-.085z"/>
</svg>
