<svg xmlns="http://www.w3.org/2000/svg" width="80" height="80" viewBox="0 0 80 80">
    <path fill="#7163FF" fill-rule="nonzero" d="M68.468 16.842l-6.45-6.451c-.519-.521-1.43-.521-1.946-.002l-6.478 6.442a3.5 3.5 0 0 0-.882 3.467c.376 1.276 1.442 2.221 2.852 2.524a3.845 3.845 0 0 0 1.863-.069c-.661 8.643-6.155 15.391-13.934 17.041V22.848a3.56 3.56 0 0 0 1.275.237c1.554 0 2.57-1.025 2.662-1.123a3.506 3.506 0 0 0 0-4.949l-6.451-6.451c-.519-.521-1.426-.521-1.946-.003l-6.478 6.443a3.507 3.507 0 0 0 0 4.95c.587.586 1.477.909 2.507.909.489 0 .977-.073 1.431-.206v17.139c-7.778-1.65-13.272-8.397-13.933-17.041a3.828 3.828 0 0 0 1.862.069c1.41-.304 2.477-1.248 2.853-2.524a3.504 3.504 0 0 0-.885-3.469l-6.473-6.438c-.521-.522-1.434-.519-1.947 0l-6.452 6.451a3.504 3.504 0 0 0 0 4.95c.602.601 1.544.932 2.653.932a5.51 5.51 0 0 0 1.35-.167c.534 14.396 8.44 23.944 20.972 25.268v8.163h-3c-1.93 0-3.5 1.57-3.5 3.5s1.57 3.5 3.5 3.5h3v3.5c0 1.93 1.57 3.5 3.5 3.5s3.5-1.57 3.5-3.5v-3.5h3c1.93 0 3.5-1.57 3.5-3.5s-1.57-3.5-3.5-3.5h-3v-8.284C55.817 45.96 63.889 36.25 64.461 22.557c.426.109.885.168 1.354.168h.001c1.11 0 2.053-.331 2.652-.933a3.474 3.474 0 0 0 1.025-2.475c0-.935-.364-1.814-1.025-2.475z"/>
</svg>
