<svg xmlns="http://www.w3.org/2000/svg" width="80" height="80" viewBox="0 0 80 80">
    <path fill="#FF445B" fill-rule="nonzero" d="M45.602 63.164l-2.461-6.469H22.188l-2.461 6.61c-.961 2.578-1.782 4.318-2.461 5.22-.68.903-1.793 1.354-3.34 1.354-1.313 0-2.473-.48-3.48-1.442-1.009-.96-1.512-2.05-1.512-3.269 0-.703.117-1.43.351-2.18.235-.75.621-1.793 1.16-3.129L23.63 26.391l1.353-3.463c.528-1.348 1.09-2.467 1.688-3.358a6.856 6.856 0 0 1 2.355-2.162c.973-.55 2.174-.826 3.604-.826 1.453 0 2.666.275 3.639.826.972.551 1.757 1.26 2.355 2.127a14.918 14.918 0 0 1 1.512 2.795c.41.996.931 2.326 1.564 3.99l13.465 33.258c1.055 2.531 1.582 4.371 1.582 5.52 0 1.195-.498 2.29-1.494 3.287-.996.996-2.197 1.494-3.604 1.494-.82 0-1.523-.147-2.109-.44a4.32 4.32 0 0 1-1.477-1.195c-.398-.504-.826-1.277-1.283-2.32-.457-1.043-.85-1.963-1.177-2.76zM24.93 48.855h15.398l-7.77-21.27-7.628 21.27zM55.44 28.703c0 .866-.223 1.644-.669 2.334-.446.69-1.098 1.23-1.958 1.621-.859.39-1.878.586-3.056.586-1.413 0-2.578-.267-3.496-.8a4.658 4.658 0 0 1-1.587-1.539c-.407-.641-.61-1.264-.61-1.87 0-.351.122-.653.366-.903s.555-.376.932-.376c.306 0 .565.098.777.293.211.195.392.485.542.869.182.456.379.837.59 1.143.212.306.51.558.894.756.384.199.889.298 1.514.298.86 0 1.557-.2 2.094-.6.538-.4.806-.9.806-1.5 0-.475-.145-.86-.434-1.157-.29-.296-.665-.522-1.124-.678a19.313 19.313 0 0 0-1.84-.498c-1.029-.241-1.89-.523-2.583-.845-.694-.322-1.244-.762-1.65-1.318-.408-.557-.611-1.249-.611-2.076 0-.787.215-1.487.644-2.1.43-.611 1.052-1.082 1.866-1.41.813-.33 1.77-.494 2.87-.494.88 0 1.64.11 2.281.328.641.218 1.174.507 1.597.869.423.361.732.74.927 1.137.196.398.293.785.293 1.163 0 .345-.122.655-.366.932a1.168 1.168 0 0 1-.913.415c-.332 0-.584-.083-.757-.249-.172-.166-.36-.438-.561-.815-.26-.54-.573-.962-.938-1.265-.364-.303-.95-.454-1.758-.454-.748 0-1.352.164-1.811.493-.46.329-.689.724-.689 1.187 0 .286.079.534.235.742.156.208.37.387.644.537.274.15.55.267.83.352.28.084.743.208 1.387.37a21.76 21.76 0 0 1 2.193.626c.654.228 1.21.504 1.67.83.458.325.817.737 1.074 1.235.257.498.385 1.108.385 1.831zM70.1 28.48c0 .455-.113.948-.337 1.479-.225.53-.578 1.051-1.06 1.563-.482.51-1.097.926-1.846 1.245-.748.319-1.62.478-2.617.478a9.146 9.146 0 0 1-2.06-.215 5.788 5.788 0 0 1-1.685-.669 5.683 5.683 0 0 1-1.391-1.196c-.378-.45-.7-.952-.967-1.509a7.867 7.867 0 0 1-.6-1.782 9.714 9.714 0 0 1-.201-2.012c0-1.152.168-2.184.503-3.095a6.603 6.603 0 0 1 1.44-2.34 6.283 6.283 0 0 1 2.198-1.479 7.115 7.115 0 0 1 2.685-.508c1.159 0 2.19.232 3.096.694.905.462 1.598 1.033 2.08 1.714.482.68.723 1.323.723 1.928 0 .332-.118.625-.352.88-.234.253-.518.38-.85.38-.37 0-.649-.088-.835-.264-.185-.175-.392-.478-.62-.908-.377-.71-.822-1.24-1.333-1.592-.51-.351-1.14-.527-1.89-.527-1.19 0-2.14.453-2.846 1.358s-1.06 2.19-1.06 3.857c0 1.113.157 2.04.47 2.778.312.74.754 1.291 1.327 1.656.573.364 1.244.546 2.012.546.833 0 1.538-.206 2.114-.62.576-.413 1.011-1.02 1.304-1.821a3.09 3.09 0 0 1 .459-.923c.182-.237.475-.356.879-.356.345 0 .641.12.889.361.247.241.37.54.37.899z"/>
</svg>
