<svg xmlns="http://www.w3.org/2000/svg" width="80" height="80" viewBox="0 0 80 80">
    <path fill="#28CAB3" fill-rule="nonzero" d="M65.638 18.792c2.365 0 4.283-1.932 4.283-4.317 0-2.384-1.918-4.317-4.283-4.317-9.1 0-16.713 7.485-18.453 17.396h-2.776V12.317C44.41 9.933 42.492 8 40.126 8c-2.366 0-4.284 1.933-4.284 4.317v15.238h-3.101C31 17.643 23.388 10.159 14.288 10.159c-2.365 0-4.283 1.932-4.283 4.317 0 2.384 1.918 4.317 4.283 4.317 5.658 0 10.26 5.867 10.26 13.079 0 7.211-4.602 13.078-10.26 13.078-2.365 0-4.283 1.933-4.283 4.317 0 2.384 1.918 4.317 4.283 4.317 9.1 0 16.712-7.484 18.453-17.396h3.101v9.254a13.607 13.607 0 0 0-9.206 12.888c0 7.497 6.052 13.595 13.49 13.595 7.438 0 13.49-6.098 13.49-13.595 0-5.987-3.862-11.079-9.207-12.888v-9.254h2.776c1.74 9.912 9.353 17.396 18.453 17.396 2.366 0 4.283-1.933 4.283-4.317 0-2.384-1.917-4.317-4.283-4.317-5.658 0-10.261-5.867-10.261-13.079 0-7.212 4.603-13.079 10.26-13.079zm-25.512 44.5c-2.714 0-4.923-2.226-4.923-4.962a4.962 4.962 0 0 1 3.246-4.658 4.856 4.856 0 0 1 1.677-.302c.589 0 1.152.11 1.676.302a4.963 4.963 0 0 1 3.246 4.658c0 2.736-2.208 4.961-4.922 4.961z"/>
</svg>
