<svg xmlns="http://www.w3.org/2000/svg" width="80" height="80" viewBox="0 0 80 80">
    <path fill="#57E4DB" fill-rule="nonzero" d="M68.933 20.324a3.981 3.981 0 0 0-.26-2.312c-2.837-6.583-7.808-9.744-13.357-8.868-4.446.701-8.533 4.053-10.052 8.02-1.216 3.178-.773 6.587.876 10.943.583 1.538 1.297 3.158 2.356 5.407-.024-.052 2.112 4.43 2.732 5.775a117.544 117.544 0 0 1 1.443 3.246c1.69 3.975 1.604 9.04-.31 12.986-2.086 4.3-6.039 6.888-11.853 7.076-11.83.382-17.751-9.428-13.412-20.124 1.313-3.235 1.996-4.684 4.38-9.512 1.736-3.514 2.46-5.226 2.94-7.34.59-2.594.519-5.132-.234-8.031C31.663 7.885 21.78 7.15 14.085 12.273a3.982 3.982 0 0 0-1.525 1.913A11.949 11.949 0 0 0 10 21.595c0 6.627 5.373 12 12 12 .088 0 .177-.001.264-.003a94.31 94.31 0 0 0-2.58 5.874C13.266 55.28 22.858 71.17 40.765 70.593c8.797-.284 15.415-4.617 18.793-11.58 2.933-6.047 3.06-13.526.474-19.609a125.41 125.41 0 0 0-1.54-3.465c-.231-.501-.656-1.403-1.104-2.35C63.836 33.383 69 28.092 69 21.595c0-.43-.023-.854-.067-1.271zm-48.7-2.319c.196-.084.393-.162.59-.234a4 4 0 1 1-.59.234zM57 17.595a4 4 0 1 1 0 8 4 4 0 0 1 0-8z"/>
</svg>
