<svg xmlns="http://www.w3.org/2000/svg" width="80" height="80" viewBox="0 0 80 80">
    <path fill="#FFA844" fill-rule="nonzero" d="M42.48 52.738c.013.124.02.25.02.377v2.738h8.576a3.6 3.6 0 1 1 0 7.2H42.5V68.5a3.6 3.6 0 1 1-7.2 0v-5.447H26a3.6 3.6 0 1 1 0-7.2h9.3v-2.738c0-.138.008-.274.023-.407C24.368 50.948 16 41.45 16 30 16 17.297 26.297 7 39 7s23 10.297 23 23c0 11.52-8.469 21.06-19.52 22.738zM39 45c8.284 0 15-6.716 15-15 0-8.284-6.716-15-15-15-8.284 0-15 6.716-15 15 0 8.284 6.716 15 15 15z"/>
</svg>
