<svg xmlns="http://www.w3.org/2000/svg" width="80" height="80" viewBox="0 0 80 80">
    <path fill="#57E4DB" fill-rule="nonzero" d="M43.713 52.987c.069.29.105.592.105.902v2.958h9.31c2.158 0 3.908 1.74 3.908 3.889 0 2.147-1.75 3.888-3.908 3.888h-9.31v5.885c0 2.147-1.75 3.888-3.907 3.888-2.159 0-3.908-1.74-3.908-3.888v-5.885H25.908c-2.158 0-3.908-1.74-3.908-3.888 0-2.148 1.75-3.89 3.908-3.89h10.095V53.89c0-.675.173-1.31.477-1.863C27.514 49.256 21 40.89 21 30.999 21 18.849 30.832 9 42.96 9 51.1 9 58.204 13.435 62 20.028a13.092 13.092 0 0 0-7.326-2.228c-7.279 0-13.178 5.91-13.178 13.199 0 7.291 5.9 13.201 13.178 13.2 2.71 0 5.231-.82 7.326-2.227-3.677 6.387-10.462 10.751-18.287 11.015z"/>
</svg>
