<svg xmlns="http://www.w3.org/2000/svg" width="80" height="80" viewBox="0 0 80 80">
    <path fill="#FF445B" fill-rule="nonzero" d="M62.602 15A4.404 4.404 0 0 1 67 19.4v13.2c0 2.427-1.972 4.4-4.397 4.4a4.403 4.403 0 0 1-4.397-4.4v-2.624l-4.014 4.017c6.112 9.056 4.983 21.46-2.793 29.24C47.038 67.598 41.24 70 35.075 70a22.926 22.926 0 0 1-16.324-6.766c-9.001-9.007-9.001-23.662 0-32.669a22.878 22.878 0 0 1 16.29-6.752c4.66 0 9.108 1.366 12.932 3.957l3.968-3.97h-2.53a4.403 4.403 0 0 1-4.398-4.4c0-2.427 1.972-4.4 4.397-4.4h13.192zM35.085 61.182c7.893 0 14.291-6.402 14.291-14.3 0-7.897-6.398-14.3-14.29-14.3-7.893 0-14.292 6.403-14.292 14.3 0 7.898 6.399 14.3 14.291 14.3z"/>
</svg>
