<svg xmlns="http://www.w3.org/2000/svg" width="80" height="80" viewBox="0 0 80 80">
    <path fill="#57E4DB" fill-rule="nonzero" d="M35.397 26.95l-6.431-6.43a4.2 4.2 0 0 1 5.94-5.94l4.584 4.585 4.582-4.584a4.2 4.2 0 0 1 5.941 5.938l-6.216 6.22v10.804h11.122c.182 0 .361.012.537.034l6.066-6.063a4.2 4.2 0 1 1 5.938 5.942l-4.584 4.581 4.585 4.585a4.2 4.2 0 0 1-5.94 5.94l-6.618-6.619H43.797V57.05l6.215 6.216a4.2 4.2 0 0 1-5.94 5.94l-4.585-4.586-4.58 4.584a4.2 4.2 0 0 1-5.942-5.937l6.432-6.437V45.943H24.588l-6.618 6.619a4.2 4.2 0 0 1-5.94-5.94l4.585-4.585-4.584-4.581a4.2 4.2 0 0 1 5.938-5.942l6.04 6.037c.088-.005.176-.008.265-.008h11.123V26.951z"/>
</svg>
