<svg xmlns="http://www.w3.org/2000/svg" width="80" height="80" viewBox="0 0 80 80">
    <path fill="#EE6DAF" fill-rule="nonzero" d="M42.704 52.254c.004.079.007.158.007.237v2.958h9.31c2.157 0 3.907 1.741 3.907 3.89 0 2.147-1.75 3.888-3.908 3.888h-9.31v5.884c0 2.148-1.749 3.889-3.907 3.889s-3.908-1.741-3.908-3.889v-5.884H24.8c-2.158 0-3.908-1.741-3.908-3.889 0-2.148 1.75-3.889 3.908-3.889h10.095v-2.958c0-.326.04-.644.117-.947a8.748 8.748 0 0 1-1.59-1.259L19.606 36.47c-3.391-3.391-3.404-8.876-.03-12.251l13.75-13.75c3.375-3.375 8.86-3.361 12.252.03l13.816 13.816c3.391 3.391 3.404 8.876.03 12.251l-13.75 13.75a8.577 8.577 0 0 1-2.97 1.94zM40.23 15.845a1.083 1.083 0 0 0-1.532-.004l-13.75 13.75a1.083 1.083 0 0 0 .004 1.531L38.77 44.938c.424.424 1.11.426 1.532.004l13.75-13.75a1.083 1.083 0 0 0-.004-1.531L40.23 15.845z"/>
</svg>
