<svg xmlns="http://www.w3.org/2000/svg" xmlns:xlink="http://www.w3.org/1999/xlink" width="355" height="369" viewBox="0 0 355 369">
    <defs>
        <radialGradient id="b" r="50.001%" fx="50%" fy="50%" gradientTransform="matrix(0 .99997 -1 0 1 0)">
            <stop offset="0%" stop-color="#FFF" stop-opacity="0"/>
            <stop offset="95.764%" stop-color="#FFF" stop-opacity=".491"/>
            <stop offset="100%" stop-color="#FFF"/>
        </radialGradient>
        <ellipse id="a" cx="309.675" cy="307.979" rx="246.825" ry="246.831"/>
        <linearGradient id="d" x1="46.561%" x2="50%" y1="-6.159%" y2="100%">
            <stop offset="0%"/>
            <stop offset="100%" stop-color="#06011D"/>
        </linearGradient>
        <ellipse id="c" cx="308.628" cy="308.594" rx="228.396" ry="228.402"/>
        <path id="e" d="M228.396 456.804C102.256 456.804 0 354.545 0 228.402 0 102.259 102.256 0 228.396 0c126.14 0 228.396 102.26 228.396 228.402 0 126.143-102.257 228.402-228.396 228.402zm0-47.357c99.986 0 181.04-81.056 181.04-181.045 0-99.989-81.054-181.045-181.04-181.045-99.986 0-181.04 81.056-181.04 181.045 0 99.989 81.054 181.045 181.04 181.045z"/>
        <filter id="f" width="100%" height="100%" x="0%" y="0%" filterUnits="objectBoundingBox">
            <feGaussianBlur in="SourceGraphic"/>
        </filter>
        <path id="h" d="M181.04 362.09C81.055 362.09 0 281.035 0 181.046 0 81.057 81.055 0 181.04 0c99.986 0 181.04 81.057 181.04 181.045 0 99.989-81.054 181.046-181.04 181.046zm0-10.896c93.969 0 170.145-76.178 170.145-170.149 0-93.97-76.176-170.149-170.145-170.149-93.968 0-170.144 76.179-170.144 170.15 0 93.97 76.176 170.148 170.144 170.148z"/>
        <filter id="j" width="107.6%" height="107.6%" x="-3.8%" y="-3.8%" filterUnits="objectBoundingBox">
            <feGaussianBlur in="SourceGraphic" stdDeviation="3.806"/>
        </filter>
    </defs>
    <g fill="none" fill-rule="evenodd" opacity=".797" transform="translate(-202 -61)">
        <use fill="url(#b)" opacity=".075" xlink:href="#a"/>
        <use fill="url(#d)" opacity=".933" xlink:href="#c"/>
        <g transform="rotate(-18 477.773 75.364)">
            <g transform="rotate(4 8.104 465.285)">
                <g transform="translate(0 .146)">
                    <mask id="g" fill="#fff">
                        <use xlink:href="#e"/>
                    </mask>
                    <path stroke="#FFF" stroke-linecap="square" stroke-width=".832" d="M228.396 0v456.804" mask="url(#g)"/>
                    <path stroke="#FFF" stroke-linecap="square" stroke-width=".832" d="M228.393.002l.006 456.8" mask="url(#g)" transform="rotate(30 228.396 228.402)"/>
                    <path stroke="#FFF" stroke-linecap="square" stroke-width=".832" d="M228.393.005l.006 456.794" mask="url(#g)" transform="rotate(60 228.396 228.402)"/>
                    <path stroke="#FFF" stroke-linecap="square" stroke-width=".832" d="M228.396.006v456.792" mask="url(#g)" transform="rotate(90 228.396 228.402)"/>
                    <path stroke="#FFF" stroke-linecap="square" stroke-width=".832" d="M228.399.005l-.006 456.794" mask="url(#g)" transform="rotate(120 228.396 228.402)"/>
                    <path stroke="#FFF" stroke-linecap="square" stroke-width=".832" d="M228.399.002l-.006 456.8" mask="url(#g)" transform="rotate(150 228.396 228.402)"/>
                    <path stroke="#FFF" stroke-linecap="square" stroke-width=".832" d="M228.396 0v456.804" mask="url(#g)" transform="rotate(180 228.396 228.402)"/>
                    <path stroke="#FFF" stroke-linecap="square" stroke-width=".832" d="M228.393.002l.006 456.8" mask="url(#g)" transform="rotate(-150 228.396 228.402)"/>
                    <path stroke="#FFF" stroke-linecap="square" stroke-width=".832" d="M228.393.005l.006 456.794" mask="url(#g)" transform="rotate(-120 228.396 228.402)"/>
                    <path stroke="#FFF" stroke-linecap="square" stroke-width=".832" d="M228.396.006v456.792" mask="url(#g)" transform="rotate(-90 228.396 228.402)"/>
                    <path stroke="#FFF" stroke-linecap="square" stroke-width=".832" d="M228.399.005l-.006 456.794" mask="url(#g)" transform="rotate(-60 228.396 228.402)"/>
                    <path stroke="#FFF" stroke-linecap="square" stroke-width=".832" d="M228.399.002l-.006 456.8" mask="url(#g)" transform="rotate(-30 228.396 228.402)"/>
                </g>
                <ellipse cx="228.113" cy="228.266" stroke="#FFF" stroke-width=".832" rx="228.529" ry="228.535"/>
            </g>
            <g transform="translate(64.408 63.172)">
                <mask id="i" fill="#fff">
                    <use xlink:href="#h"/>
                </mask>
                <path stroke="#FFF" stroke-width=".832" d="M181.04 362.506c-100.215 0-181.456-81.243-181.456-181.46C-.416 80.826 80.824-.417 181.04-.417s181.457 81.243 181.457 181.461c0 100.218-81.241 181.461-181.457 181.461zm0-11.727c93.739 0 169.73-75.993 169.73-169.734 0-93.74-75.991-169.733-169.73-169.733-93.738 0-169.728 75.992-169.728 169.733S87.302 350.78 181.04 350.78z"/>
                <path stroke="#0E1225" stroke-linecap="square" stroke-opacity=".431" stroke-width=".832" d="M181.04 0v362.09" mask="url(#i)"/>
                <path stroke="#0E1225" stroke-linecap="square" stroke-opacity=".431" stroke-width=".832" d="M181.037 0v362.09" mask="url(#i)" transform="rotate(1 181.037 181.045)"/>
                <path stroke="#0E1225" stroke-linecap="square" stroke-opacity=".431" stroke-width=".832" d="M181.033 0v362.09" mask="url(#i)" transform="rotate(2 181.033 181.045)"/>
                <path stroke="#0E1225" stroke-linecap="square" stroke-opacity=".431" stroke-width=".832" d="M181.03 0v362.09" mask="url(#i)" transform="rotate(3 181.03 181.045)"/>
                <path stroke="#0E1225" stroke-linecap="square" stroke-opacity=".431" stroke-width=".832" d="M181.025 0l.001 362.09" mask="url(#i)" transform="rotate(4 181.026 181.045)"/>
                <path stroke="#0E1225" stroke-linecap="square" stroke-opacity=".431" stroke-width=".832" d="M181.022 0v362.09" mask="url(#i)" transform="rotate(5 181.022 181.044)"/>
                <path stroke="#0E1225" stroke-linecap="square" stroke-opacity=".431" stroke-width=".832" d="M181.018-.001l.001 362.09" mask="url(#i)" transform="rotate(6 181.019 181.044)"/>
                <path stroke="#0E1225" stroke-linecap="square" stroke-opacity=".431" stroke-width=".832" d="M181.014-.001l.001 362.09" mask="url(#i)" transform="rotate(7 181.015 181.044)"/>
                <path stroke="#0E1225" stroke-linecap="square" stroke-opacity=".431" stroke-width=".832" d="M181.01-.002l.002 362.09" mask="url(#i)" transform="rotate(8 181.011 181.043)"/>
                <path stroke="#0E1225" stroke-linecap="square" stroke-opacity=".431" stroke-width=".832" d="M181.007-.002l.001 362.09" mask="url(#i)" transform="rotate(9 181.008 181.043)"/>
                <path stroke="#0E1225" stroke-linecap="square" stroke-opacity=".431" stroke-width=".832" d="M181.003-.003l.002 362.09" mask="url(#i)" transform="rotate(10 181.004 181.042)"/>
                <path stroke="#0E1225" stroke-linecap="square" stroke-opacity=".431" stroke-width=".832" d="M181-.004l.001 362.09" mask="url(#i)" transform="rotate(11 181 181.041)"/>
                <path stroke="#0E1225" stroke-linecap="square" stroke-opacity=".431" stroke-width=".832" d="M180.996-.004l.002 362.09" mask="url(#i)" transform="rotate(12 180.997 181.04)"/>
                <path stroke="#0E1225" stroke-linecap="square" stroke-opacity=".431" stroke-width=".832" d="M180.992-.005l.002 362.09" mask="url(#i)" transform="rotate(13 180.993 181.04)"/>
                <path stroke="#0E1225" stroke-linecap="square" stroke-opacity=".431" stroke-width=".832" d="M180.989-.006l.002 362.09" mask="url(#i)" transform="rotate(14 180.99 181.04)"/>
                <path stroke="#0E1225" stroke-linecap="square" stroke-opacity=".431" stroke-width=".832" d="M180.985-.007l.002 362.09" mask="url(#i)" transform="rotate(15 180.986 181.038)"/>
                <path stroke="#0E1225" stroke-linecap="square" stroke-opacity=".431" stroke-width=".832" d="M180.981-.008l.003 362.09" mask="url(#i)" transform="rotate(16 180.983 181.037)"/>
                <path stroke="#0E1225" stroke-linecap="square" stroke-opacity=".431" stroke-width=".832" d="M180.978-.009l.003 362.09" mask="url(#i)" transform="rotate(17 180.98 181.036)"/>
                <path stroke="#0E1225" stroke-linecap="square" stroke-opacity=".431" stroke-width=".832" d="M180.974-.01l.003 362.09" mask="url(#i)" transform="rotate(18 180.976 181.035)"/>
                <path stroke="#0E1225" stroke-linecap="square" stroke-opacity=".431" stroke-width=".832" d="M180.97-.01l.004 362.089" mask="url(#i)" transform="rotate(19 180.972 181.034)"/>
                <path stroke="#0E1225" stroke-linecap="square" stroke-opacity=".431" stroke-width=".832" d="M180.967-.012l.003 362.09" mask="url(#i)" transform="rotate(20 180.969 181.033)"/>
                <path stroke="#0E1225" stroke-linecap="square" stroke-opacity=".431" stroke-width=".832" d="M180.964-.013l.003 362.089" mask="url(#i)" transform="rotate(21 180.965 181.031)"/>
                <path stroke="#0E1225" stroke-linecap="square" stroke-opacity=".431" stroke-width=".832" d="M180.96-.015l.004 362.09" mask="url(#i)" transform="rotate(22 180.962 181.03)"/>
                <path stroke="#0E1225" stroke-linecap="square" stroke-opacity=".431" stroke-width=".832" d="M180.957-.016l.003 362.09" mask="url(#i)" transform="rotate(23 180.959 181.029)"/>
                <path stroke="#0E1225" stroke-linecap="square" stroke-opacity=".431" stroke-width=".832" d="M180.953-.017l.004 362.089" mask="url(#i)" transform="rotate(24 180.955 181.027)"/>
                <path stroke="#0E1225" stroke-linecap="square" stroke-opacity=".431" stroke-width=".832" d="M180.95-.019l.004 362.09" mask="url(#i)" transform="rotate(25 180.952 181.026)"/>
                <path stroke="#0E1225" stroke-linecap="square" stroke-opacity=".431" stroke-width=".832" d="M180.947-.02l.003 362.088" mask="url(#i)" transform="rotate(26 180.949 181.024)"/>
                <path stroke="#0E1225" stroke-linecap="square" stroke-opacity=".431" stroke-width=".832" d="M180.943-.022l.004 362.089" mask="url(#i)" transform="rotate(27 180.945 181.022)"/>
                <path stroke="#0E1225" stroke-linecap="square" stroke-opacity=".431" stroke-width=".832" d="M180.94-.023l.004 362.088" mask="url(#i)" transform="rotate(28 180.942 181.02)"/>
                <path stroke="#0E1225" stroke-linecap="square" stroke-opacity=".431" stroke-width=".832" d="M180.937-.025l.004 362.088" mask="url(#i)" transform="rotate(29 180.939 181.019)"/>
                <path stroke="#0E1225" stroke-linecap="square" stroke-opacity=".431" stroke-width=".832" d="M180.934-.027l.004 362.088" mask="url(#i)" transform="rotate(30 180.936 181.017)"/>
                <path stroke="#0E1225" stroke-linecap="square" stroke-opacity=".431" stroke-width=".832" d="M180.93-.029l.005 362.088" mask="url(#i)" transform="rotate(31 180.933 181.015)"/>
                <path stroke="#0E1225" stroke-linecap="square" stroke-opacity=".431" stroke-width=".832" d="M180.927-.03l.005 362.087" mask="url(#i)" transform="rotate(32 180.93 181.013)"/>
                <path stroke="#0E1225" stroke-linecap="square" stroke-opacity=".431" stroke-width=".832" d="M180.924-.032l.005 362.087" mask="url(#i)" transform="rotate(33 180.926 181.011)"/>
                <path stroke="#0E1225" stroke-linecap="square" stroke-opacity=".431" stroke-width=".832" d="M180.921-.034l.005 362.087" mask="url(#i)" transform="rotate(34 180.923 181.01)"/>
                <path stroke="#0E1225" stroke-linecap="square" stroke-opacity=".431" stroke-width=".832" d="M180.918-.036l.005 362.087" mask="url(#i)" transform="rotate(35 180.92 181.007)"/>
                <path stroke="#0E1225" stroke-linecap="square" stroke-opacity=".431" stroke-width=".832" d="M180.915-.038l.005 362.087" mask="url(#i)" transform="rotate(36 180.917 181.005)"/>
                <path stroke="#0E1225" stroke-linecap="square" stroke-opacity=".431" stroke-width=".832" d="M180.912-.04l.005 362.087" mask="url(#i)" transform="rotate(37 180.914 181.003)"/>
                <path stroke="#0E1225" stroke-linecap="square" stroke-opacity=".431" stroke-width=".832" d="M180.91-.043l.004 362.087" mask="url(#i)" transform="rotate(38 180.911 181)"/>
                <path stroke="#0E1225" stroke-linecap="square" stroke-opacity=".431" stroke-width=".832" d="M180.906-.045l.005 362.087" mask="url(#i)" transform="rotate(39 180.909 180.999)"/>
                <path stroke="#0E1225" stroke-linecap="square" stroke-opacity=".431" stroke-width=".832" d="M180.903-.047l.005 362.087" mask="url(#i)" transform="rotate(40 180.906 180.996)"/>
                <path stroke="#0E1225" stroke-linecap="square" stroke-opacity=".431" stroke-width=".832" d="M180.9-.05l.005 362.087" mask="url(#i)" transform="rotate(41 180.903 180.994)"/>
                <path stroke="#0E1225" stroke-linecap="square" stroke-opacity=".431" stroke-width=".832" d="M180.898-.052l.005 362.087" mask="url(#i)" transform="rotate(42 180.9 180.991)"/>
                <path stroke="#0E1225" stroke-linecap="square" stroke-opacity=".431" stroke-width=".832" d="M180.895-.054l.005 362.086" mask="url(#i)" transform="rotate(43 180.898 180.989)"/>
                <path stroke="#0E1225" stroke-linecap="square" stroke-opacity=".431" stroke-width=".832" d="M180.892-.056l.005 362.085" mask="url(#i)" transform="rotate(44 180.895 180.986)"/>
                <path stroke="#0E1225" stroke-linecap="square" stroke-opacity=".431" stroke-width=".832" d="M180.89-.059l.005 362.086" mask="url(#i)" transform="rotate(45 180.892 180.984)"/>
                <path stroke="#0E1225" stroke-linecap="square" stroke-opacity=".431" stroke-width=".832" d="M180.887-.061l.005 362.085" mask="url(#i)" transform="rotate(46 180.89 180.981)"/>
                <path stroke="#0E1225" stroke-linecap="square" stroke-opacity=".431" stroke-width=".832" d="M180.885-.064l.005 362.085" mask="url(#i)" transform="rotate(47 180.887 180.979)"/>
                <path stroke="#0E1225" stroke-linecap="square" stroke-opacity=".431" stroke-width=".832" d="M180.882-.067l.005 362.086" mask="url(#i)" transform="rotate(48 180.885 180.976)"/>
                <path stroke="#0E1225" stroke-linecap="square" stroke-opacity=".431" stroke-width=".832" d="M180.88-.07l.005 362.086" mask="url(#i)" transform="rotate(49 180.882 180.973)"/>
                <path stroke="#0E1225" stroke-linecap="square" stroke-opacity=".431" stroke-width=".832" d="M180.878-.072l.004 362.085" mask="url(#i)" transform="rotate(50 180.88 180.97)"/>
                <path stroke="#0E1225" stroke-linecap="square" stroke-opacity=".431" stroke-width=".832" d="M180.875-.075l.005 362.085" mask="url(#i)" transform="rotate(51 180.878 180.968)"/>
                <path stroke="#0E1225" stroke-linecap="square" stroke-opacity=".431" stroke-width=".832" d="M180.873-.078l.005 362.085" mask="url(#i)" transform="rotate(52 180.875 180.965)"/>
                <path stroke="#0E1225" stroke-linecap="square" stroke-opacity=".431" stroke-width=".832" d="M180.87-.08l.005 362.084" mask="url(#i)" transform="rotate(53 180.873 180.962)"/>
                <path stroke="#0E1225" stroke-linecap="square" stroke-opacity=".431" stroke-width=".832" d="M180.869-.083L180.873 362" mask="url(#i)" transform="rotate(54 180.87 180.959)"/>
                <path stroke="#0E1225" stroke-linecap="square" stroke-opacity=".431" stroke-width=".832" d="M180.866-.086l.005 362.084" mask="url(#i)" transform="rotate(55 180.869 180.956)"/>
                <path stroke="#0E1225" stroke-linecap="square" stroke-opacity=".431" stroke-width=".832" d="M180.864-.089l.005 362.084" mask="url(#i)" transform="rotate(56 180.867 180.953)"/>
                <path stroke="#0E1225" stroke-linecap="square" stroke-opacity=".431" stroke-width=".832" d="M180.862-.092l.005 362.084" mask="url(#i)" transform="rotate(57 180.865 180.95)"/>
                <path stroke="#0E1225" stroke-linecap="square" stroke-opacity=".431" stroke-width=".832" d="M180.86-.095l.005 362.084" mask="url(#i)" transform="rotate(58 180.863 180.947)"/>
                <path stroke="#0E1225" stroke-linecap="square" stroke-opacity=".431" stroke-width=".832" d="M180.859-.098l.004 362.083" mask="url(#i)" transform="rotate(59 180.86 180.944)"/>
                <path stroke="#0E1225" stroke-linecap="square" stroke-opacity=".431" stroke-width=".832" d="M180.857-.101l.004 362.083" mask="url(#i)" transform="rotate(60 180.859 180.94)"/>
                <path stroke="#0E1225" stroke-linecap="square" stroke-opacity=".431" stroke-width=".832" d="M180.855-.104l.004 362.083" mask="url(#i)" transform="rotate(61 180.857 180.937)"/>
                <path stroke="#0E1225" stroke-linecap="square" stroke-opacity=".431" stroke-width=".832" d="M180.853-.107l.004 362.083" mask="url(#i)" transform="rotate(62 180.855 180.934)"/>
                <path stroke="#0E1225" stroke-linecap="square" stroke-opacity=".431" stroke-width=".832" d="M180.852-.11l.004 362.082" mask="url(#i)" transform="rotate(63 180.854 180.93)"/>
                <path stroke="#0E1225" stroke-linecap="square" stroke-opacity=".431" stroke-width=".832" d="M180.85-.114l.004 362.083" mask="url(#i)" transform="rotate(64 180.852 180.928)"/>
                <path stroke="#0E1225" stroke-linecap="square" stroke-opacity=".431" stroke-width=".832" d="M180.849-.117l.003 362.083" mask="url(#i)" transform="rotate(65 180.85 180.924)"/>
                <path stroke="#0E1225" stroke-linecap="square" stroke-opacity=".431" stroke-width=".832" d="M180.847-.12l.004 362.082" mask="url(#i)" transform="rotate(66 180.849 180.921)"/>
                <path stroke="#0E1225" stroke-linecap="square" stroke-opacity=".431" stroke-width=".832" d="M180.846-.124l.003 362.083" mask="url(#i)" transform="rotate(67 180.848 180.918)"/>
                <path stroke="#0E1225" stroke-linecap="square" stroke-opacity=".431" stroke-width=".832" d="M180.844-.127l.004 362.082" mask="url(#i)" transform="rotate(68 180.846 180.914)"/>
                <path stroke="#0E1225" stroke-linecap="square" stroke-opacity=".431" stroke-width=".832" d="M180.843-.13l.003 362.082" mask="url(#i)" transform="rotate(69 180.845 180.91)"/>
                <path stroke="#0E1225" stroke-linecap="square" stroke-opacity=".431" stroke-width=".832" d="M180.842-.134l.003 362.082" mask="url(#i)" transform="rotate(70 180.844 180.907)"/>
                <path stroke="#0E1225" stroke-linecap="square" stroke-opacity=".431" stroke-width=".832" d="M180.84-.137l.004 362.082" mask="url(#i)" transform="rotate(71 180.842 180.904)"/>
                <path stroke="#0E1225" stroke-linecap="square" stroke-opacity=".431" stroke-width=".832" d="M180.84-.14l.003 362.081" mask="url(#i)" transform="rotate(72 180.841 180.9)"/>
                <path stroke="#0E1225" stroke-linecap="square" stroke-opacity=".431" stroke-width=".832" d="M180.839-.144l.002 362.082" mask="url(#i)" transform="rotate(73 180.84 180.897)"/>
                <path stroke="#0E1225" stroke-linecap="square" stroke-opacity=".431" stroke-width=".832" d="M180.838-.147l.002 362.081" mask="url(#i)" transform="rotate(74 180.839 180.894)"/>
                <path stroke="#0E1225" stroke-linecap="square" stroke-opacity=".431" stroke-width=".832" d="M180.837-.15l.002 362.08" mask="url(#i)" transform="rotate(75 180.838 180.89)"/>
                <path stroke="#0E1225" stroke-linecap="square" stroke-opacity=".431" stroke-width=".832" d="M180.836-.154l.002 362.081" mask="url(#i)" transform="rotate(76 180.837 180.886)"/>
                <path stroke="#0E1225" stroke-linecap="square" stroke-opacity=".431" stroke-width=".832" d="M180.835-.158l.002 362.082" mask="url(#i)" transform="rotate(77 180.836 180.883)"/>
                <path stroke="#0E1225" stroke-linecap="square" stroke-opacity=".431" stroke-width=".832" d="M180.834-.161l.002 362.08" mask="url(#i)" transform="rotate(78 180.835 180.88)"/>
                <path stroke="#0E1225" stroke-linecap="square" stroke-opacity=".431" stroke-width=".832" d="M180.834-.165l.002 362.081" mask="url(#i)" transform="rotate(79 180.835 180.876)"/>
                <path stroke="#0E1225" stroke-linecap="square" stroke-opacity=".431" stroke-width=".832" d="M180.833-.168l.002 362.08" mask="url(#i)" transform="rotate(80 180.834 180.872)"/>
                <path stroke="#0E1225" stroke-linecap="square" stroke-opacity=".431" stroke-width=".832" d="M180.833-.172l.001 362.081" mask="url(#i)" transform="rotate(81 180.833 180.869)"/>
                <path stroke="#0E1225" stroke-linecap="square" stroke-opacity=".431" stroke-width=".832" d="M180.832-.176l.002 362.081" mask="url(#i)" transform="rotate(82 180.833 180.865)"/>
                <path stroke="#0E1225" stroke-linecap="square" stroke-opacity=".431" stroke-width=".832" d="M180.832-.18l.001 362.082" mask="url(#i)" transform="rotate(83 180.832 180.861)"/>
                <path stroke="#0E1225" stroke-linecap="square" stroke-opacity=".431" stroke-width=".832" d="M180.832-.183v362.081" mask="url(#i)" transform="rotate(84 180.832 180.858)"/>
                <path stroke="#0E1225" stroke-linecap="square" stroke-opacity=".431" stroke-width=".832" d="M180.831-.186l.001 362.08" mask="url(#i)" transform="rotate(85 180.832 180.854)"/>
                <path stroke="#0E1225" stroke-linecap="square" stroke-opacity=".431" stroke-width=".832" d="M180.831-.19v362.08" mask="url(#i)" transform="rotate(86 180.831 180.85)"/>
                <path stroke="#0E1225" stroke-linecap="square" stroke-opacity=".431" stroke-width=".832" d="M180.83-.194l.001 362.081" mask="url(#i)" transform="rotate(87 180.831 180.847)"/>
                <path stroke="#0E1225" stroke-linecap="square" stroke-opacity=".431" stroke-width=".832" d="M180.83-.197l.001 362.08" mask="url(#i)" transform="rotate(88 180.831 180.843)"/>
                <path stroke="#0E1225" stroke-linecap="square" stroke-opacity=".431" stroke-width=".832" d="M180.83-.201l.001 362.08" mask="url(#i)" transform="rotate(89 180.83 180.84)"/>
                <path stroke="#0E1225" stroke-linecap="square" stroke-opacity=".431" stroke-width=".832" d="M180.83-.205v362.081" mask="url(#i)" transform="rotate(90 180.83 180.836)"/>
                <path stroke="#0E1225" stroke-linecap="square" stroke-opacity=".431" stroke-width=".832" d="M180.831-.208v362.08" mask="url(#i)" transform="rotate(91 180.83 180.832)"/>
                <path stroke="#0E1225" stroke-linecap="square" stroke-opacity=".431" stroke-width=".832" d="M180.831-.212v362.08" mask="url(#i)" transform="rotate(92 180.831 180.828)"/>
                <path stroke="#0E1225" stroke-linecap="square" stroke-opacity=".431" stroke-width=".832" d="M180.831-.216v362.081" mask="url(#i)" transform="rotate(93 180.831 180.825)"/>
                <path stroke="#0E1225" stroke-linecap="square" stroke-opacity=".431" stroke-width=".832" d="M180.832-.22v362.082" mask="url(#i)" transform="rotate(94 180.831 180.821)"/>
                <path stroke="#0E1225" stroke-linecap="square" stroke-opacity=".431" stroke-width=".832" d="M180.832-.223v362.08" mask="url(#i)" transform="rotate(95 180.832 180.817)"/>
                <path stroke="#0E1225" stroke-linecap="square" stroke-opacity=".431" stroke-width=".832" d="M180.833-.227l-.001 362.081" mask="url(#i)" transform="rotate(96 180.832 180.814)"/>
                <path stroke="#0E1225" stroke-linecap="square" stroke-opacity=".431" stroke-width=".832" d="M180.833-.23l-.001 362.08" mask="url(#i)" transform="rotate(97 180.832 180.81)"/>
                <path stroke="#0E1225" stroke-linecap="square" stroke-opacity=".431" stroke-width=".832" d="M180.834-.234l-.002 362.081" mask="url(#i)" transform="rotate(98 180.833 180.807)"/>
                <path stroke="#0E1225" stroke-linecap="square" stroke-opacity=".431" stroke-width=".832" d="M180.834-.238l-.001 362.082" mask="url(#i)" transform="rotate(99 180.833 180.803)"/>
                <path stroke="#0E1225" stroke-linecap="square" stroke-opacity=".431" stroke-width=".832" d="M180.835-.241l-.002 362.08" mask="url(#i)" transform="rotate(100 180.834 180.8)"/>
                <path stroke="#0E1225" stroke-linecap="square" stroke-opacity=".431" stroke-width=".832" d="M180.836-.245l-.002 362.081" mask="url(#i)" transform="rotate(101 180.835 180.796)"/>
                <path stroke="#0E1225" stroke-linecap="square" stroke-opacity=".431" stroke-width=".832" d="M180.836-.248l-.002 362.08" mask="url(#i)" transform="rotate(102 180.835 180.792)"/>
                <path stroke="#0E1225" stroke-linecap="square" stroke-opacity=".431" stroke-width=".832" d="M180.837-.252l-.002 362.081" mask="url(#i)" transform="rotate(103 180.836 180.789)"/>
                <path stroke="#0E1225" stroke-linecap="square" stroke-opacity=".431" stroke-width=".832" d="M180.838-.256l-.002 362.082" mask="url(#i)" transform="rotate(104 180.837 180.785)"/>
                <path stroke="#0E1225" stroke-linecap="square" stroke-opacity=".431" stroke-width=".832" d="M180.84-.26l-.003 362.082" mask="url(#i)" transform="rotate(105 180.838 180.782)"/>
                <path stroke="#0E1225" stroke-linecap="square" stroke-opacity=".431" stroke-width=".832" d="M180.84-.263l-.002 362.082" mask="url(#i)" transform="rotate(106 180.839 180.778)"/>
                <path stroke="#0E1225" stroke-linecap="square" stroke-opacity=".431" stroke-width=".832" d="M180.841-.266l-.002 362.081" mask="url(#i)" transform="rotate(107 180.84 180.774)"/>
                <path stroke="#0E1225" stroke-linecap="square" stroke-opacity=".431" stroke-width=".832" d="M180.843-.27l-.003 362.082" mask="url(#i)" transform="rotate(108 180.841 180.771)"/>
                <path stroke="#0E1225" stroke-linecap="square" stroke-opacity=".431" stroke-width=".832" d="M180.844-.273l-.003 362.081" mask="url(#i)" transform="rotate(109 180.842 180.768)"/>
                <path stroke="#0E1225" stroke-linecap="square" stroke-opacity=".431" stroke-width=".832" d="M180.845-.277l-.003 362.082" mask="url(#i)" transform="rotate(110 180.844 180.764)"/>
                <path stroke="#0E1225" stroke-linecap="square" stroke-opacity=".431" stroke-width=".832" d="M180.846-.28l-.003 362.082" mask="url(#i)" transform="rotate(111 180.845 180.76)"/>
                <path stroke="#0E1225" stroke-linecap="square" stroke-opacity=".431" stroke-width=".832" d="M180.848-.284l-.004 362.082" mask="url(#i)" transform="rotate(112 180.846 180.757)"/>
                <path stroke="#0E1225" stroke-linecap="square" stroke-opacity=".431" stroke-width=".832" d="M180.85-.287l-.004 362.082" mask="url(#i)" transform="rotate(113 180.848 180.754)"/>
                <path stroke="#0E1225" stroke-linecap="square" stroke-opacity=".431" stroke-width=".832" d="M180.85-.29l-.003 362.082" mask="url(#i)" transform="rotate(114 180.849 180.75)"/>
                <path stroke="#0E1225" stroke-linecap="square" stroke-opacity=".431" stroke-width=".832" d="M180.852-.294l-.003 362.082" mask="url(#i)" transform="rotate(115 180.85 180.747)"/>
                <path stroke="#0E1225" stroke-linecap="square" stroke-opacity=".431" stroke-width=".832" d="M180.854-.297l-.004 362.082" mask="url(#i)" transform="rotate(116 180.852 180.744)"/>
                <path stroke="#0E1225" stroke-linecap="square" stroke-opacity=".431" stroke-width=".832" d="M180.856-.3l-.004 362.082" mask="url(#i)" transform="rotate(117 180.854 180.74)"/>
                <path stroke="#0E1225" stroke-linecap="square" stroke-opacity=".431" stroke-width=".832" d="M180.857-.304l-.004 362.083" mask="url(#i)" transform="rotate(118 180.855 180.737)"/>
                <path stroke="#0E1225" stroke-linecap="square" stroke-opacity=".431" stroke-width=".832" d="M180.86-.307l-.005 362.083" mask="url(#i)" transform="rotate(119 180.857 180.734)"/>
                <path stroke="#0E1225" stroke-linecap="square" stroke-opacity=".431" stroke-width=".832" d="M180.861-.31l-.004 362.083" mask="url(#i)" transform="rotate(120 180.859 180.731)"/>
                <path stroke="#0E1225" stroke-linecap="square" stroke-opacity=".431" stroke-width=".832" d="M180.863-.314l-.004 362.084" mask="url(#i)" transform="rotate(121 180.86 180.728)"/>
                <path stroke="#0E1225" stroke-linecap="square" stroke-opacity=".431" stroke-width=".832" d="M180.865-.317l-.004 362.083" mask="url(#i)" transform="rotate(122 180.863 180.725)"/>
                <path stroke="#0E1225" stroke-linecap="square" stroke-opacity=".431" stroke-width=".832" d="M180.867-.32l-.005 362.083" mask="url(#i)" transform="rotate(123 180.865 180.722)"/>
                <path stroke="#0E1225" stroke-linecap="square" stroke-opacity=".431" stroke-width=".832" d="M180.869-.323l-.005 362.084" mask="url(#i)" transform="rotate(124 180.867 180.719)"/>
                <path stroke="#0E1225" stroke-linecap="square" stroke-opacity=".431" stroke-width=".832" d="M180.871-.326l-.005 362.084" mask="url(#i)" transform="rotate(125 180.869 180.716)"/>
                <path stroke="#0E1225" stroke-linecap="square" stroke-opacity=".431" stroke-width=".832" d="M180.873-.33l-.004 362.085" mask="url(#i)" transform="rotate(126 180.87 180.713)"/>
                <path stroke="#0E1225" stroke-linecap="square" stroke-opacity=".431" stroke-width=".832" d="M180.875-.333l-.004 362.085" mask="url(#i)" transform="rotate(127 180.873 180.71)"/>
                <path stroke="#0E1225" stroke-linecap="square" stroke-opacity=".431" stroke-width=".832" d="M180.878-.336l-.005 362.085" mask="url(#i)" transform="rotate(128 180.875 180.707)"/>
                <path stroke="#0E1225" stroke-linecap="square" stroke-opacity=".431" stroke-width=".832" d="M180.88-.338l-.005 362.084" mask="url(#i)" transform="rotate(129 180.878 180.704)"/>
                <path stroke="#0E1225" stroke-linecap="square" stroke-opacity=".431" stroke-width=".832" d="M180.882-.341l-.004 362.084" mask="url(#i)" transform="rotate(130 180.88 180.701)"/>
                <path stroke="#0E1225" stroke-linecap="square" stroke-opacity=".431" stroke-width=".832" d="M180.885-.344l-.005 362.085" mask="url(#i)" transform="rotate(131 180.882 180.698)"/>
                <path stroke="#0E1225" stroke-linecap="square" stroke-opacity=".431" stroke-width=".832" d="M180.887-.347l-.005 362.085" mask="url(#i)" transform="rotate(132 180.885 180.696)"/>
                <path stroke="#0E1225" stroke-linecap="square" stroke-opacity=".431" stroke-width=".832" d="M180.89-.35l-.005 362.086" mask="url(#i)" transform="rotate(133 180.887 180.693)"/>
                <path stroke="#0E1225" stroke-linecap="square" stroke-opacity=".431" stroke-width=".832" d="M180.892-.353l-.005 362.086" mask="url(#i)" transform="rotate(134 180.89 180.69)"/>
                <path stroke="#0E1225" stroke-linecap="square" stroke-opacity=".431" stroke-width=".832" d="M180.895-.355l-.005 362.085" mask="url(#i)" transform="rotate(135 180.892 180.688)"/>
                <path stroke="#0E1225" stroke-linecap="square" stroke-opacity=".431" stroke-width=".832" d="M180.897-.358l-.005 362.086" mask="url(#i)" transform="rotate(136 180.895 180.685)"/>
                <path stroke="#0E1225" stroke-linecap="square" stroke-opacity=".431" stroke-width=".832" d="M180.9-.36l-.005 362.086" mask="url(#i)" transform="rotate(137 180.898 180.682)"/>
                <path stroke="#0E1225" stroke-linecap="square" stroke-opacity=".431" stroke-width=".832" d="M180.903-.363l-.005 362.086" mask="url(#i)" transform="rotate(138 180.9 180.68)"/>
                <path stroke="#0E1225" stroke-linecap="square" stroke-opacity=".431" stroke-width=".832" d="M180.905-.366l-.004 362.087" mask="url(#i)" transform="rotate(139 180.903 180.678)"/>
                <path stroke="#0E1225" stroke-linecap="square" stroke-opacity=".431" stroke-width=".832" d="M180.908-.368l-.005 362.087" mask="url(#i)" transform="rotate(140 180.906 180.675)"/>
                <path stroke="#0E1225" stroke-linecap="square" stroke-opacity=".431" stroke-width=".832" d="M180.91-.37l-.004 362.086" mask="url(#i)" transform="rotate(141 180.909 180.673)"/>
                <path stroke="#0E1225" stroke-linecap="square" stroke-opacity=".431" stroke-width=".832" d="M180.914-.373l-.005 362.087" mask="url(#i)" transform="rotate(142 180.911 180.67)"/>
                <path stroke="#0E1225" stroke-linecap="square" stroke-opacity=".431" stroke-width=".832" d="M180.917-.375l-.005 362.087" mask="url(#i)" transform="rotate(143 180.914 180.668)"/>
                <path stroke="#0E1225" stroke-linecap="square" stroke-opacity=".431" stroke-width=".832" d="M180.92-.377l-.005 362.087" mask="url(#i)" transform="rotate(144 180.917 180.666)"/>
                <path stroke="#0E1225" stroke-linecap="square" stroke-opacity=".431" stroke-width=".832" d="M180.923-.38l-.005 362.088" mask="url(#i)" transform="rotate(145 180.92 180.664)"/>
                <path stroke="#0E1225" stroke-linecap="square" stroke-opacity=".431" stroke-width=".832" d="M180.926-.382l-.005 362.088" mask="url(#i)" transform="rotate(146 180.923 180.662)"/>
                <path stroke="#0E1225" stroke-linecap="square" stroke-opacity=".431" stroke-width=".832" d="M180.929-.384l-.005 362.088" mask="url(#i)" transform="rotate(147 180.926 180.66)"/>
                <path stroke="#0E1225" stroke-linecap="square" stroke-opacity=".431" stroke-width=".832" d="M180.932-.386l-.005 362.088" mask="url(#i)" transform="rotate(148 180.93 180.658)"/>
                <path stroke="#0E1225" stroke-linecap="square" stroke-opacity=".431" stroke-width=".832" d="M180.935-.388L180.93 361.7" mask="url(#i)" transform="rotate(149 180.933 180.656)"/>
                <path stroke="#0E1225" stroke-linecap="square" stroke-opacity=".431" stroke-width=".832" d="M180.938-.39l-.004 362.088" mask="url(#i)" transform="rotate(150 180.936 180.654)"/>
                <path stroke="#0E1225" stroke-linecap="square" stroke-opacity=".431" stroke-width=".832" d="M180.94-.392l-.003 362.089" mask="url(#i)" transform="rotate(151 180.939 180.652)"/>
                <path stroke="#0E1225" stroke-linecap="square" stroke-opacity=".431" stroke-width=".832" d="M180.944-.393l-.004 362.088" mask="url(#i)" transform="rotate(152 180.942 180.65)"/>
                <path stroke="#0E1225" stroke-linecap="square" stroke-opacity=".431" stroke-width=".832" d="M180.947-.395l-.004 362.088" mask="url(#i)" transform="rotate(153 180.945 180.649)"/>
                <path stroke="#0E1225" stroke-linecap="square" stroke-opacity=".431" stroke-width=".832" d="M180.95-.397l-.003 362.089" mask="url(#i)" transform="rotate(154 180.949 180.647)"/>
                <path stroke="#0E1225" stroke-linecap="square" stroke-opacity=".431" stroke-width=".832" d="M180.954-.399l-.004 362.09" mask="url(#i)" transform="rotate(155 180.952 180.646)"/>
                <path stroke="#0E1225" stroke-linecap="square" stroke-opacity=".431" stroke-width=".832" d="M180.957-.4l-.004 362.089" mask="url(#i)" transform="rotate(156 180.955 180.644)"/>
                <path stroke="#0E1225" stroke-linecap="square" stroke-opacity=".431" stroke-width=".832" d="M180.96-.402l-.003 362.09" mask="url(#i)" transform="rotate(157 180.959 180.643)"/>
                <path stroke="#0E1225" stroke-linecap="square" stroke-opacity=".431" stroke-width=".832" d="M180.964-.403l-.004 362.09" mask="url(#i)" transform="rotate(158 180.962 180.641)"/>
                <path stroke="#0E1225" stroke-linecap="square" stroke-opacity=".431" stroke-width=".832" d="M180.967-.405l-.003 362.09" mask="url(#i)" transform="rotate(159 180.965 180.64)"/>
                <path stroke="#0E1225" stroke-linecap="square" stroke-opacity=".431" stroke-width=".832" d="M180.97-.406l-.003 362.09" mask="url(#i)" transform="rotate(160 180.969 180.639)"/>
                <path stroke="#0E1225" stroke-linecap="square" stroke-opacity=".431" stroke-width=".832" d="M180.974-.407l-.003 362.09" mask="url(#i)" transform="rotate(161 180.972 180.638)"/>
                <path stroke="#0E1225" stroke-linecap="square" stroke-opacity=".431" stroke-width=".832" d="M180.977-.408l-.003 362.09" mask="url(#i)" transform="rotate(162 180.976 180.636)"/>
                <path stroke="#0E1225" stroke-linecap="square" stroke-opacity=".431" stroke-width=".832" d="M180.98-.41l-.002 362.09" mask="url(#i)" transform="rotate(163 180.98 180.635)"/>
                <path stroke="#0E1225" stroke-linecap="square" stroke-opacity=".431" stroke-width=".832" d="M180.984-.41l-.003 362.09" mask="url(#i)" transform="rotate(164 180.983 180.634)"/>
                <path stroke="#0E1225" stroke-linecap="square" stroke-opacity=".431" stroke-width=".832" d="M180.987-.412l-.002 362.09" mask="url(#i)" transform="rotate(165 180.986 180.633)"/>
                <path stroke="#0E1225" stroke-linecap="square" stroke-opacity=".431" stroke-width=".832" d="M180.99-.413l-.001 362.09" mask="url(#i)" transform="rotate(166 180.99 180.632)"/>
                <path stroke="#0E1225" stroke-linecap="square" stroke-opacity=".431" stroke-width=".832" d="M180.994-.413l-.002 362.09" mask="url(#i)" transform="rotate(167 180.993 180.632)"/>
                <path stroke="#0E1225" stroke-linecap="square" stroke-opacity=".431" stroke-width=".832" d="M180.998-.414l-.002 362.09" mask="url(#i)" transform="rotate(168 180.997 180.63)"/>
                <path stroke="#0E1225" stroke-linecap="square" stroke-opacity=".431" stroke-width=".832" d="M181.001-.415L181 361.675" mask="url(#i)" transform="rotate(169 181 180.63)"/>
                <path stroke="#0E1225" stroke-linecap="square" stroke-opacity=".431" stroke-width=".832" d="M181.005-.416l-.002 362.09" mask="url(#i)" transform="rotate(170 181.004 180.63)"/>
                <path stroke="#0E1225" stroke-linecap="square" stroke-opacity=".431" stroke-width=".832" d="M181.008-.416l-.001 362.09" mask="url(#i)" transform="rotate(171 181.008 180.629)"/>
                <path stroke="#0E1225" stroke-linecap="square" stroke-opacity=".431" stroke-width=".832" d="M181.012-.417l-.001 362.09" mask="url(#i)" transform="rotate(172 181.011 180.628)"/>
                <path stroke="#0E1225" stroke-linecap="square" stroke-opacity=".431" stroke-width=".832" d="M181.015-.417v362.09" mask="url(#i)" transform="rotate(173 181.015 180.628)"/>
                <path stroke="#0E1225" stroke-linecap="square" stroke-opacity=".431" stroke-width=".832" d="M181.019-.418l-.001 362.09" mask="url(#i)" transform="rotate(174 181.019 180.627)"/>
                <path stroke="#0E1225" stroke-linecap="square" stroke-opacity=".431" stroke-width=".832" d="M181.023-.418l-.001 362.09" mask="url(#i)" transform="rotate(175 181.022 180.627)"/>
                <path stroke="#0E1225" stroke-linecap="square" stroke-opacity=".431" stroke-width=".832" d="M181.026-.419v362.091" mask="url(#i)" transform="rotate(176 181.026 180.627)"/>
                <path stroke="#0E1225" stroke-linecap="square" stroke-opacity=".431" stroke-width=".832" d="M181.03-.419v362.09" mask="url(#i)" transform="rotate(177 181.03 180.626)"/>
                <path stroke="#0E1225" stroke-linecap="square" stroke-opacity=".431" stroke-width=".832" d="M181.033-.419v362.09" mask="url(#i)" transform="rotate(178 181.033 180.626)"/>
                <path stroke="#0E1225" stroke-linecap="square" stroke-opacity=".431" stroke-width=".832" d="M181.037-.42v362.092" mask="url(#i)" transform="rotate(179 181.037 180.626)"/>
                <path stroke="#0E1225" stroke-linecap="square" stroke-opacity=".431" stroke-width=".832" d="M181.04 0v362.09" mask="url(#i)" transform="rotate(180 181.04 180.836)"/>
                <path stroke="#0E1225" stroke-linecap="square" stroke-opacity=".431" stroke-width=".832" d="M181.044-.42v362.092" mask="url(#i)" transform="rotate(-179 181.044 180.626)"/>
                <path stroke="#0E1225" stroke-linecap="square" stroke-opacity=".431" stroke-width=".832" d="M181.048-.419v362.09" mask="url(#i)" transform="rotate(-178 181.048 180.626)"/>
                <path stroke="#0E1225" stroke-linecap="square" stroke-opacity=".431" stroke-width=".832" d="M181.051-.419v362.09" mask="url(#i)" transform="rotate(-177 181.051 180.626)"/>
                <path stroke="#0E1225" stroke-linecap="square" stroke-opacity=".431" stroke-width=".832" d="M181.055-.419v362.091" mask="url(#i)" transform="rotate(-176 181.055 180.627)"/>
                <path stroke="#0E1225" stroke-linecap="square" stroke-opacity=".431" stroke-width=".832" d="M181.058-.418l.001 362.09" mask="url(#i)" transform="rotate(-175 181.059 180.627)"/>
                <path stroke="#0E1225" stroke-linecap="square" stroke-opacity=".431" stroke-width=".832" d="M181.062-.418v362.09" mask="url(#i)" transform="rotate(-174 181.062 180.627)"/>
                <path stroke="#0E1225" stroke-linecap="square" stroke-opacity=".431" stroke-width=".832" d="M181.065-.417l.002 362.09" mask="url(#i)" transform="rotate(-173 181.066 180.628)"/>
                <path stroke="#0E1225" stroke-linecap="square" stroke-opacity=".431" stroke-width=".832" d="M181.069-.417l.001 362.09" mask="url(#i)" transform="rotate(-172 181.07 180.628)"/>
                <path stroke="#0E1225" stroke-linecap="square" stroke-opacity=".431" stroke-width=".832" d="M181.072-.416l.002 362.09" mask="url(#i)" transform="rotate(-171 181.073 180.629)"/>
                <path stroke="#0E1225" stroke-linecap="square" stroke-opacity=".431" stroke-width=".832" d="M181.076-.416l.002 362.09" mask="url(#i)" transform="rotate(-170 181.077 180.63)"/>
                <path stroke="#0E1225" stroke-linecap="square" stroke-opacity=".431" stroke-width=".832" d="M181.08-.415l.001 362.09" mask="url(#i)" transform="rotate(-169 181.08 180.63)"/>
                <path stroke="#0E1225" stroke-linecap="square" stroke-opacity=".431" stroke-width=".832" d="M181.083-.414l.002 362.09" mask="url(#i)" transform="rotate(-168 181.084 180.63)"/>
                <path stroke="#0E1225" stroke-linecap="square" stroke-opacity=".431" stroke-width=".832" d="M181.086-.413l.003 362.09" mask="url(#i)" transform="rotate(-167 181.088 180.632)"/>
                <path stroke="#0E1225" stroke-linecap="square" stroke-opacity=".431" stroke-width=".832" d="M181.09-.413l.002 362.09" mask="url(#i)" transform="rotate(-166 181.091 180.632)"/>
                <path stroke="#0E1225" stroke-linecap="square" stroke-opacity=".431" stroke-width=".832" d="M181.093-.412l.003 362.09" mask="url(#i)" transform="rotate(-165 181.095 180.633)"/>
                <path stroke="#0E1225" stroke-linecap="square" stroke-opacity=".431" stroke-width=".832" d="M181.097-.41l.002 362.09" mask="url(#i)" transform="rotate(-164 181.098 180.634)"/>
                <path stroke="#0E1225" stroke-linecap="square" stroke-opacity=".431" stroke-width=".832" d="M181.1-.41l.003 362.09" mask="url(#i)" transform="rotate(-163 181.102 180.635)"/>
                <path stroke="#0E1225" stroke-linecap="square" stroke-opacity=".431" stroke-width=".832" d="M181.104-.408l.003 362.09" mask="url(#i)" transform="rotate(-162 181.105 180.636)"/>
                <path stroke="#0E1225" stroke-linecap="square" stroke-opacity=".431" stroke-width=".832" d="M181.107-.407l.003 362.09" mask="url(#i)" transform="rotate(-161 181.109 180.638)"/>
                <path stroke="#0E1225" stroke-linecap="square" stroke-opacity=".431" stroke-width=".832" d="M181.11-.406l.004 362.09" mask="url(#i)" transform="rotate(-160 181.112 180.639)"/>
                <path stroke="#0E1225" stroke-linecap="square" stroke-opacity=".431" stroke-width=".832" d="M181.114-.405l.003 362.09" mask="url(#i)" transform="rotate(-159 181.116 180.64)"/>
                <path stroke="#0E1225" stroke-linecap="square" stroke-opacity=".431" stroke-width=".832" d="M181.117-.403l.004 362.09" mask="url(#i)" transform="rotate(-158 181.119 180.641)"/>
                <path stroke="#0E1225" stroke-linecap="square" stroke-opacity=".431" stroke-width=".832" d="M181.12-.402l.004 362.09" mask="url(#i)" transform="rotate(-157 181.122 180.643)"/>
                <path stroke="#0E1225" stroke-linecap="square" stroke-opacity=".431" stroke-width=".832" d="M181.124-.4l.003 362.089" mask="url(#i)" transform="rotate(-156 181.126 180.644)"/>
                <path stroke="#0E1225" stroke-linecap="square" stroke-opacity=".431" stroke-width=".832" d="M181.127-.399l.004 362.09" mask="url(#i)" transform="rotate(-155 181.129 180.646)"/>
                <path stroke="#0E1225" stroke-linecap="square" stroke-opacity=".431" stroke-width=".832" d="M181.13-.397l.004 362.089" mask="url(#i)" transform="rotate(-154 181.132 180.647)"/>
                <path stroke="#0E1225" stroke-linecap="square" stroke-opacity=".431" stroke-width=".832" d="M181.134-.395l.004 362.088" mask="url(#i)" transform="rotate(-153 181.136 180.649)"/>
                <path stroke="#0E1225" stroke-linecap="square" stroke-opacity=".431" stroke-width=".832" d="M181.137-.393l.004 362.088" mask="url(#i)" transform="rotate(-152 181.139 180.65)"/>
                <path stroke="#0E1225" stroke-linecap="square" stroke-opacity=".431" stroke-width=".832" d="M181.14-.392l.004 362.089" mask="url(#i)" transform="rotate(-151 181.142 180.652)"/>
                <path stroke="#0E1225" stroke-linecap="square" stroke-opacity=".431" stroke-width=".832" d="M181.143-.39l.004 362.088" mask="url(#i)" transform="rotate(-150 181.145 180.654)"/>
                <path stroke="#0E1225" stroke-linecap="square" stroke-opacity=".431" stroke-width=".832" d="M181.146-.388l.004 362.088" mask="url(#i)" transform="rotate(-149 181.148 180.656)"/>
                <path stroke="#0E1225" stroke-linecap="square" stroke-opacity=".431" stroke-width=".832" d="M181.15-.386l.004 362.088" mask="url(#i)" transform="rotate(-148 181.151 180.658)"/>
                <path stroke="#0E1225" stroke-linecap="square" stroke-opacity=".431" stroke-width=".832" d="M181.152-.384l.005 362.088" mask="url(#i)" transform="rotate(-147 181.155 180.66)"/>
                <path stroke="#0E1225" stroke-linecap="square" stroke-opacity=".431" stroke-width=".832" d="M181.155-.382l.005 362.088" mask="url(#i)" transform="rotate(-146 181.158 180.662)"/>
                <path stroke="#0E1225" stroke-linecap="square" stroke-opacity=".431" stroke-width=".832" d="M181.158-.38l.005 362.088" mask="url(#i)" transform="rotate(-145 181.16 180.664)"/>
                <path stroke="#0E1225" stroke-linecap="square" stroke-opacity=".431" stroke-width=".832" d="M181.161-.377l.005 362.087" mask="url(#i)" transform="rotate(-144 181.164 180.666)"/>
                <path stroke="#0E1225" stroke-linecap="square" stroke-opacity=".431" stroke-width=".832" d="M181.164-.375l.005 362.087" mask="url(#i)" transform="rotate(-143 181.167 180.668)"/>
                <path stroke="#0E1225" stroke-linecap="square" stroke-opacity=".431" stroke-width=".832" d="M181.167-.373l.005 362.087" mask="url(#i)" transform="rotate(-142 181.17 180.67)"/>
                <path stroke="#0E1225" stroke-linecap="square" stroke-opacity=".431" stroke-width=".832" d="M181.17-.37l.005 362.086" mask="url(#i)" transform="rotate(-141 181.172 180.673)"/>
                <path stroke="#0E1225" stroke-linecap="square" stroke-opacity=".431" stroke-width=".832" d="M181.173-.368l.005 362.087" mask="url(#i)" transform="rotate(-140 181.175 180.675)"/>
                <path stroke="#0E1225" stroke-linecap="square" stroke-opacity=".431" stroke-width=".832" d="M181.175-.366l.005 362.087" mask="url(#i)" transform="rotate(-139 181.178 180.678)"/>
                <path stroke="#0E1225" stroke-linecap="square" stroke-opacity=".431" stroke-width=".832" d="M181.178-.363l.005 362.086" mask="url(#i)" transform="rotate(-138 181.18 180.68)"/>
                <path stroke="#0E1225" stroke-linecap="square" stroke-opacity=".431" stroke-width=".832" d="M181.18-.36l.006 362.086" mask="url(#i)" transform="rotate(-137 181.183 180.682)"/>
                <path stroke="#0E1225" stroke-linecap="square" stroke-opacity=".431" stroke-width=".832" d="M181.184-.358l.004 362.086" mask="url(#i)" transform="rotate(-136 181.186 180.685)"/>
                <path stroke="#0E1225" stroke-linecap="square" stroke-opacity=".431" stroke-width=".832" d="M181.186-.355l.005 362.085" mask="url(#i)" transform="rotate(-135 181.189 180.688)"/>
                <path stroke="#0E1225" stroke-linecap="square" stroke-opacity=".431" stroke-width=".832" d="M181.189-.353l.005 362.086" mask="url(#i)" transform="rotate(-134 181.191 180.69)"/>
                <path stroke="#0E1225" stroke-linecap="square" stroke-opacity=".431" stroke-width=".832" d="M181.191-.35l.005 362.086" mask="url(#i)" transform="rotate(-133 181.194 180.693)"/>
                <path stroke="#0E1225" stroke-linecap="square" stroke-opacity=".431" stroke-width=".832" d="M181.194-.347l.005 362.085" mask="url(#i)" transform="rotate(-132 181.196 180.696)"/>
                <path stroke="#0E1225" stroke-linecap="square" stroke-opacity=".431" stroke-width=".832" d="M181.196-.344l.005 362.085" mask="url(#i)" transform="rotate(-131 181.199 180.698)"/>
                <path stroke="#0E1225" stroke-linecap="square" stroke-opacity=".431" stroke-width=".832" d="M181.199-.341l.004 362.084" mask="url(#i)" transform="rotate(-130 181.2 180.701)"/>
                <path stroke="#0E1225" stroke-linecap="square" stroke-opacity=".431" stroke-width=".832" d="M181.2-.338l.006 362.084" mask="url(#i)" transform="rotate(-129 181.203 180.704)"/>
                <path stroke="#0E1225" stroke-linecap="square" stroke-opacity=".431" stroke-width=".832" d="M181.203-.336l.005 362.085" mask="url(#i)" transform="rotate(-128 181.206 180.707)"/>
                <path stroke="#0E1225" stroke-linecap="square" stroke-opacity=".431" stroke-width=".832" d="M181.205-.333l.005 362.085" mask="url(#i)" transform="rotate(-127 181.208 180.71)"/>
                <path stroke="#0E1225" stroke-linecap="square" stroke-opacity=".431" stroke-width=".832" d="M181.208-.33l.004 362.085" mask="url(#i)" transform="rotate(-126 181.21 180.713)"/>
                <path stroke="#0E1225" stroke-linecap="square" stroke-opacity=".431" stroke-width=".832" d="M181.21-.326l.004 362.084" mask="url(#i)" transform="rotate(-125 181.212 180.716)"/>
                <path stroke="#0E1225" stroke-linecap="square" stroke-opacity=".431" stroke-width=".832" d="M181.212-.323l.004 362.084" mask="url(#i)" transform="rotate(-124 181.214 180.719)"/>
                <path stroke="#0E1225" stroke-linecap="square" stroke-opacity=".431" stroke-width=".832" d="M181.214-.32l.004 362.083" mask="url(#i)" transform="rotate(-123 181.216 180.722)"/>
                <path stroke="#0E1225" stroke-linecap="square" stroke-opacity=".431" stroke-width=".832" d="M181.216-.317l.004 362.083" mask="url(#i)" transform="rotate(-122 181.218 180.725)"/>
                <path stroke="#0E1225" stroke-linecap="square" stroke-opacity=".431" stroke-width=".832" d="M181.218-.314l.004 362.084" mask="url(#i)" transform="rotate(-121 181.22 180.728)"/>
                <path stroke="#0E1225" stroke-linecap="square" stroke-opacity=".431" stroke-width=".832" d="M181.22-.31l.004 362.083" mask="url(#i)" transform="rotate(-120 181.222 180.731)"/>
                <path stroke="#0E1225" stroke-linecap="square" stroke-opacity=".431" stroke-width=".832" d="M181.222-.307l.004 362.083" mask="url(#i)" transform="rotate(-119 181.224 180.734)"/>
                <path stroke="#0E1225" stroke-linecap="square" stroke-opacity=".431" stroke-width=".832" d="M181.223-.304l.004 362.083" mask="url(#i)" transform="rotate(-118 181.225 180.737)"/>
                <path stroke="#0E1225" stroke-linecap="square" stroke-opacity=".431" stroke-width=".832" d="M181.225-.3l.004 362.082" mask="url(#i)" transform="rotate(-117 181.227 180.74)"/>
                <path stroke="#0E1225" stroke-linecap="square" stroke-opacity=".431" stroke-width=".832" d="M181.227-.297l.004 362.082" mask="url(#i)" transform="rotate(-116 181.229 180.744)"/>
                <path stroke="#0E1225" stroke-linecap="square" stroke-opacity=".431" stroke-width=".832" d="M181.228-.294l.004 362.082" mask="url(#i)" transform="rotate(-115 181.23 180.747)"/>
                <path stroke="#0E1225" stroke-linecap="square" stroke-opacity=".431" stroke-width=".832" d="M181.23-.29l.004 362.082" mask="url(#i)" transform="rotate(-114 181.232 180.75)"/>
                <path stroke="#0E1225" stroke-linecap="square" stroke-opacity=".431" stroke-width=".832" d="M181.232-.287l.003 362.082" mask="url(#i)" transform="rotate(-113 181.233 180.754)"/>
                <path stroke="#0E1225" stroke-linecap="square" stroke-opacity=".431" stroke-width=".832" d="M181.233-.284l.003 362.082" mask="url(#i)" transform="rotate(-112 181.235 180.757)"/>
                <path stroke="#0E1225" stroke-linecap="square" stroke-opacity=".431" stroke-width=".832" d="M181.234-.28l.004 362.082" mask="url(#i)" transform="rotate(-111 181.236 180.76)"/>
                <path stroke="#0E1225" stroke-linecap="square" stroke-opacity=".431" stroke-width=".832" d="M181.236-.277l.003 362.082" mask="url(#i)" transform="rotate(-110 181.237 180.764)"/>
                <path stroke="#0E1225" stroke-linecap="square" stroke-opacity=".431" stroke-width=".832" d="M181.237-.273l.003 362.081" mask="url(#i)" transform="rotate(-109 181.239 180.768)"/>
                <path stroke="#0E1225" stroke-linecap="square" stroke-opacity=".431" stroke-width=".832" d="M181.238-.27l.003 362.082" mask="url(#i)" transform="rotate(-108 181.24 180.771)"/>
                <path stroke="#0E1225" stroke-linecap="square" stroke-opacity=".431" stroke-width=".832" d="M181.24-.266l.002 362.081" mask="url(#i)" transform="rotate(-107 181.24 180.774)"/>
                <path stroke="#0E1225" stroke-linecap="square" stroke-opacity=".431" stroke-width=".832" d="M181.24-.263l.003 362.082" mask="url(#i)" transform="rotate(-106 181.242 180.778)"/>
                <path stroke="#0E1225" stroke-linecap="square" stroke-opacity=".431" stroke-width=".832" d="M181.242-.26l.002 362.082" mask="url(#i)" transform="rotate(-105 181.243 180.782)"/>
                <path stroke="#0E1225" stroke-linecap="square" stroke-opacity=".431" stroke-width=".832" d="M181.243-.256l.002 362.082" mask="url(#i)" transform="rotate(-104 181.244 180.785)"/>
                <path stroke="#0E1225" stroke-linecap="square" stroke-opacity=".431" stroke-width=".832" d="M181.244-.252l.002 362.081" mask="url(#i)" transform="rotate(-103 181.245 180.789)"/>
                <path stroke="#0E1225" stroke-linecap="square" stroke-opacity=".431" stroke-width=".832" d="M181.244-.248l.002 362.08" mask="url(#i)" transform="rotate(-102 181.245 180.792)"/>
                <path stroke="#0E1225" stroke-linecap="square" stroke-opacity=".431" stroke-width=".832" d="M181.245-.245l.002 362.081" mask="url(#i)" transform="rotate(-101 181.246 180.796)"/>
                <path stroke="#0E1225" stroke-linecap="square" stroke-opacity=".431" stroke-width=".832" d="M181.246-.241l.002 362.08" mask="url(#i)" transform="rotate(-100 181.247 180.8)"/>
                <path stroke="#0E1225" stroke-linecap="square" stroke-opacity=".431" stroke-width=".832" d="M181.247-.238l.001 362.082" mask="url(#i)" transform="rotate(-99 181.247 180.803)"/>
                <path stroke="#0E1225" stroke-linecap="square" stroke-opacity=".431" stroke-width=".832" d="M181.247-.234l.002 362.081" mask="url(#i)" transform="rotate(-98 181.248 180.807)"/>
                <path stroke="#0E1225" stroke-linecap="square" stroke-opacity=".431" stroke-width=".832" d="M181.248-.23l.001 362.08" mask="url(#i)" transform="rotate(-97 181.248 180.81)"/>
                <path stroke="#0E1225" stroke-linecap="square" stroke-opacity=".431" stroke-width=".832" d="M181.248-.227l.001 362.081" mask="url(#i)" transform="rotate(-96 181.249 180.814)"/>
                <path stroke="#0E1225" stroke-linecap="square" stroke-opacity=".431" stroke-width=".832" d="M181.249-.223v362.08" mask="url(#i)" transform="rotate(-95 181.25 180.817)"/>
                <path stroke="#0E1225" stroke-linecap="square" stroke-opacity=".431" stroke-width=".832" d="M181.25-.22v362.082" mask="url(#i)" transform="rotate(-94 181.25 180.821)"/>
                <path stroke="#0E1225" stroke-linecap="square" stroke-opacity=".431" stroke-width=".832" d="M181.25-.216v362.081" mask="url(#i)" transform="rotate(-93 181.25 180.825)"/>
                <path stroke="#0E1225" stroke-linecap="square" stroke-opacity=".431" stroke-width=".832" d="M181.25-.212v362.08" mask="url(#i)" transform="rotate(-92 181.25 180.828)"/>
                <path stroke="#0E1225" stroke-linecap="square" stroke-opacity=".431" stroke-width=".832" d="M181.25-.208v362.08" mask="url(#i)" transform="rotate(-91 181.25 180.832)"/>
                <path stroke="#0E1225" stroke-linecap="square" stroke-opacity=".431" stroke-width=".832" d="M181.25-.205v362.081" mask="url(#i)" transform="rotate(-90 181.25 180.836)"/>
                <path stroke="#0E1225" stroke-linecap="square" stroke-opacity=".431" stroke-width=".832" d="M181.25-.201v362.08" mask="url(#i)" transform="rotate(-89 181.25 180.84)"/>
                <path stroke="#0E1225" stroke-linecap="square" stroke-opacity=".431" stroke-width=".832" d="M181.25-.197v362.08" mask="url(#i)" transform="rotate(-88 181.25 180.843)"/>
                <path stroke="#0E1225" stroke-linecap="square" stroke-opacity=".431" stroke-width=".832" d="M181.25-.194v362.081" mask="url(#i)" transform="rotate(-87 181.25 180.847)"/>
                <path stroke="#0E1225" stroke-linecap="square" stroke-opacity=".431" stroke-width=".832" d="M181.25-.19v362.08" mask="url(#i)" transform="rotate(-86 181.25 180.85)"/>
                <path stroke="#0E1225" stroke-linecap="square" stroke-opacity=".431" stroke-width=".832" d="M181.25-.186l-.001 362.08" mask="url(#i)" transform="rotate(-85 181.25 180.854)"/>
                <path stroke="#0E1225" stroke-linecap="square" stroke-opacity=".431" stroke-width=".832" d="M181.25-.183l-.002 362.081" mask="url(#i)" transform="rotate(-84 181.249 180.858)"/>
                <path stroke="#0E1225" stroke-linecap="square" stroke-opacity=".431" stroke-width=".832" d="M181.249-.18l-.001 362.082" mask="url(#i)" transform="rotate(-83 181.248 180.861)"/>
                <path stroke="#0E1225" stroke-linecap="square" stroke-opacity=".431" stroke-width=".832" d="M181.249-.176l-.002 362.081" mask="url(#i)" transform="rotate(-82 181.248 180.865)"/>
                <path stroke="#0E1225" stroke-linecap="square" stroke-opacity=".431" stroke-width=".832" d="M181.248-.172l-.001 362.081" mask="url(#i)" transform="rotate(-81 181.247 180.869)"/>
                <path stroke="#0E1225" stroke-linecap="square" stroke-opacity=".431" stroke-width=".832" d="M181.248-.168l-.002 362.08" mask="url(#i)" transform="rotate(-80 181.247 180.872)"/>
                <path stroke="#0E1225" stroke-linecap="square" stroke-opacity=".431" stroke-width=".832" d="M181.247-.165l-.002 362.081" mask="url(#i)" transform="rotate(-79 181.246 180.876)"/>
                <path stroke="#0E1225" stroke-linecap="square" stroke-opacity=".431" stroke-width=".832" d="M181.246-.161l-.002 362.08" mask="url(#i)" transform="rotate(-78 181.245 180.88)"/>
                <path stroke="#0E1225" stroke-linecap="square" stroke-opacity=".431" stroke-width=".832" d="M181.246-.158l-.002 362.082" mask="url(#i)" transform="rotate(-77 181.245 180.883)"/>
                <path stroke="#0E1225" stroke-linecap="square" stroke-opacity=".431" stroke-width=".832" d="M181.245-.154l-.002 362.081" mask="url(#i)" transform="rotate(-76 181.244 180.886)"/>
                <path stroke="#0E1225" stroke-linecap="square" stroke-opacity=".431" stroke-width=".832" d="M181.244-.15l-.002 362.08" mask="url(#i)" transform="rotate(-75 181.243 180.89)"/>
                <path stroke="#0E1225" stroke-linecap="square" stroke-opacity=".431" stroke-width=".832" d="M181.243-.147l-.002 362.081" mask="url(#i)" transform="rotate(-74 181.242 180.894)"/>
                <path stroke="#0E1225" stroke-linecap="square" stroke-opacity=".431" stroke-width=".832" d="M181.242-.144l-.003 362.082" mask="url(#i)" transform="rotate(-73 181.24 180.897)"/>
                <path stroke="#0E1225" stroke-linecap="square" stroke-opacity=".431" stroke-width=".832" d="M181.241-.14l-.003 362.081" mask="url(#i)" transform="rotate(-72 181.24 180.9)"/>
                <path stroke="#0E1225" stroke-linecap="square" stroke-opacity=".431" stroke-width=".832" d="M181.24-.137l-.003 362.082" mask="url(#i)" transform="rotate(-71 181.239 180.904)"/>
                <path stroke="#0E1225" stroke-linecap="square" stroke-opacity=".431" stroke-width=".832" d="M181.239-.134l-.003 362.082" mask="url(#i)" transform="rotate(-70 181.237 180.907)"/>
                <path stroke="#0E1225" stroke-linecap="square" stroke-opacity=".431" stroke-width=".832" d="M181.238-.13l-.004 362.082" mask="url(#i)" transform="rotate(-69 181.236 180.91)"/>
                <path stroke="#0E1225" stroke-linecap="square" stroke-opacity=".431" stroke-width=".832" d="M181.236-.127l-.003 362.082" mask="url(#i)" transform="rotate(-68 181.235 180.914)"/>
                <path stroke="#0E1225" stroke-linecap="square" stroke-opacity=".431" stroke-width=".832" d="M181.235-.124l-.003 362.083" mask="url(#i)" transform="rotate(-67 181.233 180.918)"/>
                <path stroke="#0E1225" stroke-linecap="square" stroke-opacity=".431" stroke-width=".832" d="M181.234-.12l-.004 362.082" mask="url(#i)" transform="rotate(-66 181.232 180.921)"/>
                <path stroke="#0E1225" stroke-linecap="square" stroke-opacity=".431" stroke-width=".832" d="M181.232-.117l-.004 362.083" mask="url(#i)" transform="rotate(-65 181.23 180.924)"/>
                <path stroke="#0E1225" stroke-linecap="square" stroke-opacity=".431" stroke-width=".832" d="M181.23-.114l-.003 362.083" mask="url(#i)" transform="rotate(-64 181.229 180.928)"/>
                <path stroke="#0E1225" stroke-linecap="square" stroke-opacity=".431" stroke-width=".832" d="M181.23-.11l-.005 362.082" mask="url(#i)" transform="rotate(-63 181.227 180.93)"/>
                <path stroke="#0E1225" stroke-linecap="square" stroke-opacity=".431" stroke-width=".832" d="M181.227-.107l-.004 362.083" mask="url(#i)" transform="rotate(-62 181.225 180.934)"/>
                <path stroke="#0E1225" stroke-linecap="square" stroke-opacity=".431" stroke-width=".832" d="M181.226-.104l-.004 362.083" mask="url(#i)" transform="rotate(-61 181.224 180.937)"/>
                <path stroke="#0E1225" stroke-linecap="square" stroke-opacity=".431" stroke-width=".832" d="M181.224-.101l-.004 362.083" mask="url(#i)" transform="rotate(-60 181.222 180.94)"/>
                <path stroke="#0E1225" stroke-linecap="square" stroke-opacity=".431" stroke-width=".832" d="M181.222-.098l-.004 362.083" mask="url(#i)" transform="rotate(-59 181.22 180.944)"/>
                <path stroke="#0E1225" stroke-linecap="square" stroke-opacity=".431" stroke-width=".832" d="M181.22-.095l-.004 362.084" mask="url(#i)" transform="rotate(-58 181.218 180.947)"/>
                <path stroke="#0E1225" stroke-linecap="square" stroke-opacity=".431" stroke-width=".832" d="M181.218-.092l-.004 362.084" mask="url(#i)" transform="rotate(-57 181.216 180.95)"/>
                <path stroke="#0E1225" stroke-linecap="square" stroke-opacity=".431" stroke-width=".832" d="M181.216-.089l-.004 362.084" mask="url(#i)" transform="rotate(-56 181.214 180.953)"/>
                <path stroke="#0E1225" stroke-linecap="square" stroke-opacity=".431" stroke-width=".832" d="M181.214-.086l-.004 362.084" mask="url(#i)" transform="rotate(-55 181.212 180.956)"/>
                <path stroke="#0E1225" stroke-linecap="square" stroke-opacity=".431" stroke-width=".832" d="M181.212-.083L181.208 362" mask="url(#i)" transform="rotate(-54 181.21 180.959)"/>
                <path stroke="#0E1225" stroke-linecap="square" stroke-opacity=".431" stroke-width=".832" d="M181.21-.08l-.005 362.084" mask="url(#i)" transform="rotate(-53 181.208 180.962)"/>
                <path stroke="#0E1225" stroke-linecap="square" stroke-opacity=".431" stroke-width=".832" d="M181.208-.078l-.005 362.085" mask="url(#i)" transform="rotate(-52 181.206 180.965)"/>
                <path stroke="#0E1225" stroke-linecap="square" stroke-opacity=".431" stroke-width=".832" d="M181.206-.075L181.2 362.01" mask="url(#i)" transform="rotate(-51 181.203 180.968)"/>
                <path stroke="#0E1225" stroke-linecap="square" stroke-opacity=".431" stroke-width=".832" d="M181.203-.072l-.004 362.085" mask="url(#i)" transform="rotate(-50 181.2 180.97)"/>
                <path stroke="#0E1225" stroke-linecap="square" stroke-opacity=".431" stroke-width=".832" d="M181.201-.07l-.005 362.086" mask="url(#i)" transform="rotate(-49 181.199 180.973)"/>
                <path stroke="#0E1225" stroke-linecap="square" stroke-opacity=".431" stroke-width=".832" d="M181.199-.067l-.005 362.086" mask="url(#i)" transform="rotate(-48 181.196 180.976)"/>
                <path stroke="#0E1225" stroke-linecap="square" stroke-opacity=".431" stroke-width=".832" d="M181.196-.064l-.005 362.085" mask="url(#i)" transform="rotate(-47 181.194 180.979)"/>
                <path stroke="#0E1225" stroke-linecap="square" stroke-opacity=".431" stroke-width=".832" d="M181.194-.061l-.005 362.085" mask="url(#i)" transform="rotate(-46 181.191 180.981)"/>
                <path stroke="#0E1225" stroke-linecap="square" stroke-opacity=".431" stroke-width=".832" d="M181.191-.059l-.005 362.086" mask="url(#i)" transform="rotate(-45 181.189 180.984)"/>
                <path stroke="#0E1225" stroke-linecap="square" stroke-opacity=".431" stroke-width=".832" d="M181.188-.056l-.004 362.085" mask="url(#i)" transform="rotate(-44 181.186 180.986)"/>
                <path stroke="#0E1225" stroke-linecap="square" stroke-opacity=".431" stroke-width=".832" d="M181.186-.054l-.005 362.086" mask="url(#i)" transform="rotate(-43 181.183 180.989)"/>
                <path stroke="#0E1225" stroke-linecap="square" stroke-opacity=".431" stroke-width=".832" d="M181.183-.052l-.005 362.087" mask="url(#i)" transform="rotate(-42 181.18 180.991)"/>
                <path stroke="#0E1225" stroke-linecap="square" stroke-opacity=".431" stroke-width=".832" d="M181.18-.05l-.005 362.087" mask="url(#i)" transform="rotate(-41 181.178 180.994)"/>
                <path stroke="#0E1225" stroke-linecap="square" stroke-opacity=".431" stroke-width=".832" d="M181.178-.047l-.005 362.087" mask="url(#i)" transform="rotate(-40 181.175 180.996)"/>
                <path stroke="#0E1225" stroke-linecap="square" stroke-opacity=".431" stroke-width=".832" d="M181.175-.045l-.005 362.087" mask="url(#i)" transform="rotate(-39 181.172 180.999)"/>
                <path stroke="#0E1225" stroke-linecap="square" stroke-opacity=".431" stroke-width=".832" d="M181.172-.043l-.005 362.087" mask="url(#i)" transform="rotate(-38 181.17 181)"/>
                <path stroke="#0E1225" stroke-linecap="square" stroke-opacity=".431" stroke-width=".832" d="M181.169-.04l-.005 362.087" mask="url(#i)" transform="rotate(-37 181.167 181.003)"/>
                <path stroke="#0E1225" stroke-linecap="square" stroke-opacity=".431" stroke-width=".832" d="M181.166-.038l-.005 362.087" mask="url(#i)" transform="rotate(-36 181.164 181.005)"/>
                <path stroke="#0E1225" stroke-linecap="square" stroke-opacity=".431" stroke-width=".832" d="M181.163-.036l-.005 362.087" mask="url(#i)" transform="rotate(-35 181.16 181.007)"/>
                <path stroke="#0E1225" stroke-linecap="square" stroke-opacity=".431" stroke-width=".832" d="M181.16-.034l-.005 362.087" mask="url(#i)" transform="rotate(-34 181.158 181.01)"/>
                <path stroke="#0E1225" stroke-linecap="square" stroke-opacity=".431" stroke-width=".832" d="M181.157-.032l-.005 362.087" mask="url(#i)" transform="rotate(-33 181.155 181.011)"/>
                <path stroke="#0E1225" stroke-linecap="square" stroke-opacity=".431" stroke-width=".832" d="M181.154-.03l-.005 362.087" mask="url(#i)" transform="rotate(-32 181.151 181.013)"/>
                <path stroke="#0E1225" stroke-linecap="square" stroke-opacity=".431" stroke-width=".832" d="M181.15-.029l-.004 362.088" mask="url(#i)" transform="rotate(-31 181.148 181.015)"/>
                <path stroke="#0E1225" stroke-linecap="square" stroke-opacity=".431" stroke-width=".832" d="M181.147-.027l-.004 362.088" mask="url(#i)" transform="rotate(-30 181.145 181.017)"/>
                <path stroke="#0E1225" stroke-linecap="square" stroke-opacity=".431" stroke-width=".832" d="M181.144-.025l-.004 362.088" mask="url(#i)" transform="rotate(-29 181.142 181.019)"/>
                <path stroke="#0E1225" stroke-linecap="square" stroke-opacity=".431" stroke-width=".832" d="M181.14-.023l-.003 362.088" mask="url(#i)" transform="rotate(-28 181.139 181.02)"/>
                <path stroke="#0E1225" stroke-linecap="square" stroke-opacity=".431" stroke-width=".832" d="M181.138-.022l-.004 362.089" mask="url(#i)" transform="rotate(-27 181.136 181.022)"/>
                <path stroke="#0E1225" stroke-linecap="square" stroke-opacity=".431" stroke-width=".832" d="M181.134-.02l-.004 362.088" mask="url(#i)" transform="rotate(-26 181.132 181.024)"/>
                <path stroke="#0E1225" stroke-linecap="square" stroke-opacity=".431" stroke-width=".832" d="M181.13-.019l-.003 362.09" mask="url(#i)" transform="rotate(-25 181.129 181.026)"/>
                <path stroke="#0E1225" stroke-linecap="square" stroke-opacity=".431" stroke-width=".832" d="M181.127-.017l-.003 362.089" mask="url(#i)" transform="rotate(-24 181.126 181.027)"/>
                <path stroke="#0E1225" stroke-linecap="square" stroke-opacity=".431" stroke-width=".832" d="M181.124-.016l-.003 362.09" mask="url(#i)" transform="rotate(-23 181.122 181.029)"/>
                <path stroke="#0E1225" stroke-linecap="square" stroke-opacity=".431" stroke-width=".832" d="M181.12-.015l-.003 362.09" mask="url(#i)" transform="rotate(-22 181.119 181.03)"/>
                <path stroke="#0E1225" stroke-linecap="square" stroke-opacity=".431" stroke-width=".832" d="M181.117-.013l-.003 362.089" mask="url(#i)" transform="rotate(-21 181.116 181.031)"/>
                <path stroke="#0E1225" stroke-linecap="square" stroke-opacity=".431" stroke-width=".832" d="M181.114-.012l-.003 362.09" mask="url(#i)" transform="rotate(-20 181.112 181.033)"/>
                <path stroke="#0E1225" stroke-linecap="square" stroke-opacity=".431" stroke-width=".832" d="M181.11-.01l-.003 362.089" mask="url(#i)" transform="rotate(-19 181.109 181.034)"/>
                <path stroke="#0E1225" stroke-linecap="square" stroke-opacity=".431" stroke-width=".832" d="M181.107-.01l-.003 362.09" mask="url(#i)" transform="rotate(-18 181.105 181.035)"/>
                <path stroke="#0E1225" stroke-linecap="square" stroke-opacity=".431" stroke-width=".832" d="M181.103-.009l-.003 362.09" mask="url(#i)" transform="rotate(-17 181.102 181.036)"/>
                <path stroke="#0E1225" stroke-linecap="square" stroke-opacity=".431" stroke-width=".832" d="M181.1-.008l-.003 362.09" mask="url(#i)" transform="rotate(-16 181.098 181.037)"/>
                <path stroke="#0E1225" stroke-linecap="square" stroke-opacity=".431" stroke-width=".832" d="M181.096-.007l-.003 362.09" mask="url(#i)" transform="rotate(-15 181.095 181.038)"/>
                <path stroke="#0E1225" stroke-linecap="square" stroke-opacity=".431" stroke-width=".832" d="M181.092-.006l-.002 362.09" mask="url(#i)" transform="rotate(-14 181.091 181.04)"/>
                <path stroke="#0E1225" stroke-linecap="square" stroke-opacity=".431" stroke-width=".832" d="M181.089-.005l-.003 362.09" mask="url(#i)" transform="rotate(-13 181.088 181.04)"/>
                <path stroke="#0E1225" stroke-linecap="square" stroke-opacity=".431" stroke-width=".832" d="M181.085-.004l-.002 362.09" mask="url(#i)" transform="rotate(-12 181.084 181.04)"/>
                <path stroke="#0E1225" stroke-linecap="square" stroke-opacity=".431" stroke-width=".832" d="M181.081-.004l-.002 362.09" mask="url(#i)" transform="rotate(-11 181.08 181.041)"/>
                <path stroke="#0E1225" stroke-linecap="square" stroke-opacity=".431" stroke-width=".832" d="M181.078-.003l-.002 362.09" mask="url(#i)" transform="rotate(-10 181.077 181.042)"/>
                <path stroke="#0E1225" stroke-linecap="square" stroke-opacity=".431" stroke-width=".832" d="M181.074-.002l-.002 362.09" mask="url(#i)" transform="rotate(-9 181.073 181.043)"/>
                <path stroke="#0E1225" stroke-linecap="square" stroke-opacity=".431" stroke-width=".832" d="M181.07-.002l-.001 362.09" mask="url(#i)" transform="rotate(-8 181.07 181.043)"/>
                <path stroke="#0E1225" stroke-linecap="square" stroke-opacity=".431" stroke-width=".832" d="M181.067-.001l-.002 362.09" mask="url(#i)" transform="rotate(-7 181.066 181.044)"/>
                <path stroke="#0E1225" stroke-linecap="square" stroke-opacity=".431" stroke-width=".832" d="M181.063-.001l-.001 362.09" mask="url(#i)" transform="rotate(-6 181.062 181.044)"/>
                <path stroke="#0E1225" stroke-linecap="square" stroke-opacity=".431" stroke-width=".832" d="M181.06 0l-.002 362.09" mask="url(#i)" transform="rotate(-5 181.059 181.044)"/>
                <path stroke="#0E1225" stroke-linecap="square" stroke-opacity=".431" stroke-width=".832" d="M181.055 0v362.09" mask="url(#i)" transform="rotate(-4 181.055 181.045)"/>
                <path stroke="#0E1225" stroke-linecap="square" stroke-opacity=".431" stroke-width=".832" d="M181.052 0v362.09" mask="url(#i)" transform="rotate(-3 181.051 181.045)"/>
                <path stroke="#0E1225" stroke-linecap="square" stroke-opacity=".431" stroke-width=".832" d="M181.048 0v362.09" mask="url(#i)" transform="rotate(-2 181.048 181.045)"/>
                <path stroke="#0E1225" stroke-linecap="square" stroke-opacity=".431" stroke-width=".832" d="M181.044 0v362.09" mask="url(#i)" transform="rotate(-1 181.044 181.045)"/>
                <g stroke="#FFF" stroke-linecap="square" stroke-width=".832" mask="url(#i)">
                    <path d="M181.04 0v362.09M196.82.689l-31.558 360.713M212.478 2.75l-62.875 356.59M227.897 6.169l-93.713 349.753M242.96 10.918L119.12 351.172M257.551 16.963L104.53 345.128M271.56 24.255L90.52 337.835M284.88 32.742L77.2 329.349M297.411 42.357L64.67 319.734M309.055 53.027L53.025 309.064M319.725 64.672L42.355 297.419M329.34 77.202L32.74 284.889M337.826 90.523L24.255 271.568M345.119 104.532L16.962 257.558M351.163 119.124L10.918 242.966M355.912 134.187L6.169 227.903M359.33 149.607L2.75 212.483M361.392 165.266L.689 196.824M362.08 181.045H0M361.392 196.824L.689 165.266M359.33 212.483L2.75 149.607M355.912 227.903L6.169 134.187M351.163 242.966L10.918 119.124M345.119 257.558L16.962 104.532M337.826 271.568L24.255 90.523M329.34 284.889L32.74 77.202M319.725 297.419L42.355 64.672M309.055 309.064L53.025 53.027M297.411 319.734L64.67 42.357M284.88 329.349L77.2 32.742M271.56 337.835L90.52 24.255M257.551 345.128L104.53 16.963M242.96 351.172L119.12 10.918M227.897 355.922L134.184 6.169M212.478 359.34L149.603 2.75M196.82 361.402L165.261.689M181.04 362.09V0M165.262 361.402L196.819.689M149.603 359.34L212.478 2.75M134.184 355.922L227.897 6.169M119.121 351.172L242.96 10.918M104.53 345.128L257.55 16.963M90.52 337.835l181.04-313.58M77.2 329.349L284.88 32.742M64.67 319.734L297.41 42.357M53.026 309.064l256.03-256.037M42.355 297.419l277.37-232.747M32.74 284.889l296.6-207.687M24.255 271.568L337.826 90.523M16.962 257.558L345.12 104.532M10.918 242.966l340.245-123.842M6.169 227.903l349.743-93.716M2.75 212.483l356.58-62.876M.689 196.824l360.703-31.558M0 181.045h362.08M.689 165.266l360.703 31.558M2.75 149.607l356.58 62.876M6.169 134.187l349.743 93.716M10.918 119.124l340.245 123.842M16.962 104.532L345.12 257.558M24.255 90.523l313.571 181.045M32.74 77.202l296.6 207.687M42.355 64.672l277.37 232.747M53.026 53.027l256.03 256.037M64.67 42.357L297.41 319.734M77.2 32.742l207.68 296.607M90.52 24.255l181.04 313.58M104.53 16.963L257.55 345.128M119.121 10.918L242.96 351.172M134.184 6.169l93.713 349.753M149.603 2.75l62.875 356.59M165.262.689l31.557 360.713"/>
                </g>
            </g>
            <ellipse cx="246.2" cy="246.348" fill="#FFF" fill-opacity=".114" filter="url(#j)" opacity=".101" rx="149.819" ry="149.823"/>
            <ellipse cx="244.665" cy="244.817" fill="#000" fill-opacity=".106" stroke="#FFF" stroke-width=".832" rx="150.235" ry="150.239"/>
            <path stroke="#57447E" stroke-linecap="square" stroke-width="1.038" d="M27.877 175.603l434.2 140.123M144.764 451.372l203.9-408.51"/>
            <path stroke="#57447E" stroke-linecap="square" stroke-width=".832" d="M406.71 184.724L85.778 307.08M379.466 354.053l-265.693-214.99M320.212 399.704L172.698 93.352M132.63 372.493l226.72-252.709" opacity=".5"/>
        </g>
        <g fill-rule="nonzero">
            <g fill="#28CAB3">
                <path d="M523.265 323.936H506.28c-.402 0-.728-.375-.728-.838 0-.463.326-.838.728-.838h16.984c.402 0 .727.375.727.838 0 .463-.325.838-.727.838zM518.693 319.326h4.572c.402 0 .727.375.727.838 0 .463-.325.839-.727.839h-3.807m-9.006 0h-4.171c-.402 0-.728-.376-.728-.839 0-.463.326-.838.728-.838h4.035"/>
                <path d="M519.494 321.002c-.012 0-.025 0-.038-.002-.394-.022-.697-.386-.676-.813l.006-.092c.002-.042.006-.083.006-.125 0-2.275-1.71-4.126-3.81-4.126-2.101 0-3.81 1.851-3.81 4.126 0 .042.003.083.006.125l.005.092c.021.427-.281.791-.675.813-.393.033-.73-.304-.751-.731l-.004-.07a3.784 3.784 0 0 1-.01-.23c0-3.127 2.351-5.672 5.239-5.672 2.889 0 5.239 2.545 5.239 5.673 0 .077-.005.153-.01.229l-.004.07c-.02.413-.336.733-.713.733z"/>
            </g>
            <g fill="#28CAB3">
                <path d="M212.652 125.543a.707.707 0 0 1-.501-.209l-2.174-2.183-2.174 2.183a.706.706 0 0 1-1.002 0 .714.714 0 0 1 0-1.007l2.675-2.687a.708.708 0 0 1 1.003 0l2.675 2.687a.714.714 0 0 1-.502 1.216z"/>
                <path d="M212.71 125.543a.713.713 0 0 1-.501-1.215l2.675-2.688a.708.708 0 0 1 1.003 0l2.173 2.184 1.257-1.263a.706.706 0 0 1 1.003 0 .714.714 0 0 1 0 1.007l-1.759 1.766a.707.707 0 0 1-1.002 0l-2.173-2.184-2.174 2.184a.705.705 0 0 1-.502.209zM208.993 130.633a.705.705 0 0 1-.501-.209l-2.174-2.183-2.174 2.183a.706.706 0 0 1-1.002 0 .714.714 0 0 1 0-1.006l2.675-2.687a.709.709 0 0 1 1.002 0l2.675 2.687a.714.714 0 0 1-.501 1.215z"/>
                <path d="M214.4 130.633a.707.707 0 0 1-.5-.209l-2.174-2.183-2.174 2.183a.706.706 0 0 1-1.002 0 .713.713 0 0 1 0-1.006l2.675-2.687a.706.706 0 0 1 1.002 0l2.174 2.183 1.257-1.262a.706.706 0 0 1 1.002 0 .714.714 0 0 1 0 1.006l-1.758 1.766a.704.704 0 0 1-.501.209z"/>
            </g>
            <g fill="#FFA844">
                <path d="M317.17 115.243c-1.722 0-3.123-1.38-3.123-3.074 0-.388.32-.702.713-.702.394 0 .713.314.713.702 0 .92.762 1.67 1.697 1.67s1.696-.75 1.696-1.67c0-.921-.76-1.67-1.696-1.67a.708.708 0 0 1-.713-.702c0-.388.319-.702.713-.702 1.722 0 3.122 1.379 3.122 3.074 0 1.695-1.4 3.074-3.122 3.074z"/>
                <path d="M313.856 116.972a.708.708 0 0 1-.713-.702c0-.388.319-.702.713-.702.576 0 1.044-.461 1.044-1.028 0-.387.32-.702.713-.702.394 0 .713.315.713.702 0 1.341-1.108 2.432-2.47 2.432zM314.754 112.69a.708.708 0 0 1-.713-.702v-9.37c0-.762-.63-1.381-1.404-1.381h-2.461c-.773 0-1.402.62-1.402 1.38v9.37c0 .388-.32.703-.714.703a.708.708 0 0 1-.713-.702v-9.37c0-1.536 1.27-2.785 2.829-2.785h2.461c1.56 0 2.83 1.249 2.83 2.785v9.37c0 .387-.32.702-.713.702z"/>
                <path d="M307.989 112.69a.708.708 0 0 1-.713-.702v-9.37c0-.762-.63-1.381-1.403-1.381h-.352c-.774 0-1.403.62-1.403 1.38 0 .388-.319.703-.713.703a.708.708 0 0 1-.713-.702c0-1.536 1.27-2.785 2.829-2.785h.352c1.56 0 2.83 1.249 2.83 2.785v9.37c0 .387-.32.702-.714.702z"/>
            </g>
            <g fill="#FF445B">
                <path d="M413.186 148.562a.738.738 0 0 1-.537-.236.837.837 0 0 1 0-1.137l12.925-13.67a.73.73 0 0 1 1.075 0 .837.837 0 0 1 0 1.137l-12.925 13.67a.736.736 0 0 1-.538.236z"/>
                <path d="M426.213 142.688a.712.712 0 0 1-.702-.721v-7.232h-7.049a.712.712 0 0 1-.702-.721c0-.398.314-.72.702-.72h7.75c.389 0 .703.322.703.72v7.953c0 .398-.314.72-.702.72zM421.66 145.115c-.18 0-.36-.07-.497-.211l-5.616-5.763a.733.733 0 0 1 0-1.02.69.69 0 0 1 .993 0l5.616 5.764a.733.733 0 0 1 0 1.019.689.689 0 0 1-.496.21z"/>
            </g>
            <g fill="#63C1FF">
                <path d="M490.012 225.243a.709.709 0 0 1-.71-.709v-8.956c0-.707-.576-1.282-1.285-1.282h-.332c-.708 0-1.284.575-1.284 1.282v8.957a.709.709 0 0 1-1.42 0v-8.957c0-1.488 1.213-2.699 2.704-2.699h.332a2.705 2.705 0 0 1 2.705 2.7v8.956a.709.709 0 0 1-.71.708z"/>
                <path d="M494.332 225.243a.709.709 0 0 1-.71-.709v-8.956c0-.707-.576-1.282-1.284-1.282h-.333c-.707 0-1.283.575-1.283 1.282v8.957a.709.709 0 0 1-1.42 0v-8.957c0-1.488 1.213-2.699 2.703-2.699h.333a2.705 2.705 0 0 1 2.704 2.7v8.956a.709.709 0 0 1-.71.708z"/>
                <path d="M496.647 227.5h-.332a2.705 2.705 0 0 1-2.704-2.7v-8.955a.709.709 0 0 1 1.42 0v8.956c0 .707.575 1.282 1.284 1.282h.332a.709.709 0 1 1 0 1.417zM485.624 225.243a.709.709 0 0 1-.71-.709v-8.956c0-.707-.576-1.282-1.284-1.282h-.333c-.708 0-1.284.575-1.284 1.282a.709.709 0 0 1-1.42 0c0-1.488 1.213-2.699 2.704-2.699h.333a2.704 2.704 0 0 1 2.704 2.7v8.956a.709.709 0 0 1-.71.708z"/>
                <path d="M496.926 228.377a.707.707 0 0 1-.502-1.209l.444-.442-.444-.443a.707.707 0 0 1 0-1.002.71.71 0 0 1 1.004 0l.945.944a.707.707 0 0 1 0 1.002l-.945.943a.71.71 0 0 1-.502.207z"/>
            </g>
            <g fill="#FFA844">
                <path d="M485.453 423.048a.716.716 0 0 1 0-1.433c.936 0 1.726-1.173 1.726-2.562 0-1.389-.79-2.562-1.726-2.562-.935 0-1.724 1.174-1.724 2.562a.716.716 0 1 1-1.431 0c0-2.203 1.415-3.995 3.155-3.995 1.74 0 3.157 1.792 3.157 3.995 0 2.203-1.416 3.995-3.157 3.995zM479.14 423.696a.716.716 0 0 1-.715-.717v-8.055c0-.592-.482-1.074-1.073-1.074h-.298c-.591 0-1.072.482-1.072 1.074v8.055a.716.716 0 1 1-1.43 0v-8.055a2.508 2.508 0 0 1 2.502-2.507h.298a2.509 2.509 0 0 1 2.504 2.507v8.055c0 .396-.32.717-.716.717z"/>
                <path d="M483.013 423.696a.716.716 0 0 1-.715-.717v-8.055c0-.592-.482-1.074-1.073-1.074h-.298c-.59 0-1.071.482-1.071 1.074v8.055a.716.716 0 1 1-1.431 0v-8.055a2.508 2.508 0 0 1 2.502-2.507h.298a2.508 2.508 0 0 1 2.504 2.507v8.055c0 .396-.32.717-.716.717zM475.206 423.696a.716.716 0 0 1-.715-.717v-8.055c0-.592-.481-1.074-1.072-1.074h-.298c-.591 0-1.072.482-1.072 1.074a.716.716 0 1 1-1.43 0 2.508 2.508 0 0 1 2.502-2.507h.298a2.508 2.508 0 0 1 2.503 2.507v8.055c0 .396-.32.717-.716.717z"/>
            </g>
        </g>
        <g fill="#FFF" font-family="PingFangTC-Semibold, PingFang TC" font-size="10.38" font-weight="500">
            <text transform="translate(146.2 142.022)">
                <tspan x="257.97" y="294.946">5</tspan>
            </text>
            <text transform="translate(146.2 142.022)">
                <tspan x="309.935" y="221.187">6</tspan>
            </text>
            <text transform="translate(146.2 142.022)">
                <tspan x="317.513" y="141.141">7</tspan>
            </text>
            <text transform="translate(146.2 142.022)">
                <tspan x="291.077" y="79.536">8</tspan>
            </text>
            <text transform="translate(146.2 142.022)">
                <tspan x="228.215" y="24.635">9</tspan>
            </text>
            <text transform="translate(146.2 142.022)">
                <tspan x="132.424" y="11.224">10</tspan>
            </text>
            <text transform="translate(146.2 142.022)">
                <tspan x="57.977" y="44.751">11</tspan>
            </text>
        </g>
        <path fill="#FFF" fill-rule="nonzero" d="M311.219 207.574c-2.783 1.226-6.146.182-7.828-2.543-1.833-2.97-.984-6.832 1.916-8.622 2.899-1.789 6.732-.816 8.565 2.155 1.681 2.725 1.106 6.2-1.238 8.137l1.767 2.863-1.415.873-1.767-2.863zm.2-2.032c1.834-1.383 2.32-4.027 1.038-6.105-1.357-2.199-4.17-2.913-6.277-1.612-2.107 1.3-2.73 4.134-1.374 6.333 1.283 2.078 3.864 2.83 5.922 1.81l.69-.426zm87.733 141.364c2.782-1.226 6.146-.182 7.828 2.543 1.833 2.97.983 6.833-1.916 8.622-2.9 1.789-6.732.816-8.565-2.155-1.682-2.725-1.107-6.2 1.237-8.136l-.03-.05 1.415-.874.03.05zm-.2 2.032c-1.835 1.383-2.32 4.027-1.038 6.105 1.357 2.199 4.17 2.913 6.277 1.612 2.107-1.3 2.73-4.134 1.373-6.333-1.282-2.078-3.863-2.83-5.922-1.81l-.69.426zM313.86 211.853l1.416-.874 2.62 4.247-1.416.873-2.62-4.246zm3.494 5.661l1.415-.873 2.62 4.246-1.415.873-2.62-4.246zm3.493 5.662l1.416-.874 2.62 4.247-1.415.873-2.62-4.246zm3.494 5.661l1.415-.873 2.62 4.246-1.415.874-2.62-4.247zm3.494 5.662l1.415-.873 2.62 4.246-1.415.873-2.62-4.246zm3.493 5.661l1.415-.873 2.62 4.246-1.415.874-2.62-4.247zm3.494 5.662l1.415-.873 2.62 4.246-1.415.873-2.62-4.246zm3.493 5.661l1.416-.873 2.62 4.246-1.416.874-2.62-4.247zm3.494 5.662l1.415-.873 2.62 4.246-1.415.873-2.62-4.246zm3.493 5.661l1.416-.873 2.62 4.246-1.415.874-2.62-4.247zm3.494 5.662l1.415-.873 2.62 4.246-1.415.873-2.62-4.246zm3.494 5.662l1.415-.874 2.62 4.246-1.415.874-2.62-4.246zm3.493 5.661l1.416-.873 2.62 4.246-1.416.873-2.62-4.246zm3.494 5.662l1.415-.874 2.62 4.246-1.415.874-2.62-4.246zm3.493 5.661l1.416-.873 2.62 4.246-1.415.873-2.62-4.246zm3.494 5.662l1.415-.874 2.62 4.246-1.415.874-2.62-4.246zm3.494 5.661l1.415-.873 2.62 4.246-1.415.873-2.62-4.246zm3.493 5.662l1.416-.874 2.62 4.246-1.416.874-2.62-4.246zm3.494 5.661l1.415-.873 2.62 4.246-1.415.873-2.62-4.246zm3.493 5.662l1.416-.874 2.62 4.246-1.415.874-2.62-4.246zm3.494 5.661l1.415-.873 2.62 4.246-1.415.873-2.62-4.246zm3.494 5.662l1.415-.874 2.62 4.246-1.415.874-2.62-4.246zm3.493 5.661l1.416-.873 2.62 4.246-1.416.873-2.62-4.246zm3.494 5.662l1.415-.874 2.62 4.246-1.415.874-2.62-4.246z"/>
        <path fill="#FFF" fill-rule="nonzero" d="M224.472 253.913c-2.84 1.087-6.147-.122-7.692-2.927-1.684-3.058-.644-6.873 2.34-8.517 2.985-1.643 6.765-.482 8.449 2.577 1.544 2.804.797 6.246-1.64 8.065l1.626 2.952-1.457.802-1.626-2.952zm.25-1.986c1.94-1.277 2.578-3.922 1.39-6.08-1.246-2.263-4.02-3.115-6.19-1.92-2.168 1.194-2.931 3.993-1.685 6.257 1.188 2.157 3.764 3.033 5.881 2.075l.603-.332zm81.136 146.35c2.84-1.088 6.148.122 7.692 2.927 1.684 3.058.644 6.873-2.34 8.516-2.985 1.643-6.764.482-8.448-2.576-1.545-2.805-.798-6.247 1.64-8.065l-.492-.893 1.457-.802.491.892zm-.249 1.985c-1.94 1.277-2.578 3.922-1.39 6.08 1.246 2.263 4.02 3.116 6.189 1.921 2.169-1.194 2.932-3.993 1.685-6.257-1.188-2.158-3.763-3.033-5.88-2.076l-.604.332zM226.9 258.322l1.457-.802 2.406 4.37-1.456.803-2.407-4.37zm3.209 5.828l1.457-.802 2.406 4.37-1.457.802-2.406-4.37zm3.209 5.827l1.456-.802 2.407 4.371-1.457.802-2.406-4.37zm3.208 5.828l1.457-.802 2.407 4.37-1.457.803-2.407-4.37zm3.209 5.828l1.457-.802 2.407 4.37-1.457.803-2.407-4.371zm3.209 5.827l1.457-.802 2.406 4.371-1.457.802-2.406-4.37zm3.209 5.828l1.456-.802 2.407 4.37-1.457.803-2.406-4.37zm3.208 5.828l1.457-.802 2.407 4.37-1.457.803-2.407-4.371zm3.209 5.827l1.457-.802 2.407 4.371-1.457.802-2.407-4.37zm3.209 5.828l1.457-.802 2.406 4.37-1.457.803-2.406-4.37zm3.209 5.828l1.456-.802 2.407 4.37-1.457.803-2.406-4.371zm3.208 5.828l1.457-.803 2.407 4.371-1.457.802-2.407-4.37zm3.209 5.827l1.457-.802 2.407 4.37-1.457.803-2.407-4.37zm3.209 5.828l1.457-.802 2.406 4.37-1.457.803-2.406-4.371zm3.209 5.828l1.456-.803 2.407 4.371-1.457.802-2.406-4.37zm3.208 5.827l1.457-.802 2.407 4.37-1.457.803-2.407-4.37zm3.209 5.828l1.457-.802 2.407 4.37-1.457.803-2.407-4.371zm3.209 5.828l1.457-.803 2.406 4.371-1.457.802-2.406-4.37zm3.209 5.827l1.456-.802 2.407 4.37-1.457.803-2.406-4.37zm3.208 5.828l1.457-.802 2.407 4.37-1.457.803-2.407-4.371zm3.21 5.828l1.456-.803 2.407 4.371-1.457.802-2.407-4.37zm3.208 5.827l1.457-.802 2.406 4.37-1.457.803-2.406-4.37zm3.209 5.828l1.456-.802 2.407 4.37-1.457.803-2.406-4.371zm3.208 5.828l1.457-.802 2.407 4.37-1.457.802-2.407-4.37z" opacity=".6"/>
        <path fill="#FFF" fill-rule="nonzero" d="M312.094 399.218c2.369 1.906 2.99 5.373 1.345 8.12-1.794 2.995-5.614 4.018-8.536 2.268-2.923-1.751-3.824-5.602-2.03-8.596 1.646-2.747 4.995-3.836 7.794-2.646l1.733-2.894 1.427.855-1.733 2.893zm-1.81.801c-2.086-1.057-4.712-.279-5.984 1.845-1.328 2.217-.667 5.042 1.457 6.315 2.125 1.272 4.927.521 6.255-1.696 1.272-2.123.72-4.806-1.197-6.146l-.531-.318zm87.518-147.13c-2.37-1.906-2.991-5.373-1.346-8.12 1.794-2.994 5.614-4.018 8.537-2.267 2.922 1.75 3.823 5.601 2.029 8.596-1.645 2.747-4.995 3.835-7.794 2.646l-2.504 4.181-1.427-.854 2.505-4.182zm6.336-8.96c-2.124-1.273-4.927-.522-6.255 1.695-1.328 2.217-.667 5.042 1.457 6.315 2.125 1.272 4.927.521 6.255-1.696 1.328-2.217.667-5.042-1.457-6.314zm-89.457 150.97l-1.427-.855 2.564-4.28 1.427.854-2.564 4.28zm3.419-5.708l-1.427-.855 2.564-4.28 1.426.855-2.563 4.28zm3.418-5.707l-1.427-.855 2.564-4.28 1.427.854-2.564 4.28zm3.418-5.707l-1.426-.855 2.564-4.28 1.426.854-2.564 4.28zm3.419-5.708l-1.427-.854 2.564-4.28 1.427.854-2.564 4.28zm3.418-5.707l-1.426-.854 2.563-4.28 1.427.854-2.564 4.28zm3.419-5.707l-1.427-.855 2.564-4.28 1.427.855-2.564 4.28zm3.418-5.707l-1.427-.855 2.564-4.28 1.427.854-2.564 4.28zm3.419-5.707l-1.427-.855 2.564-4.28 1.426.854-2.563 4.28zm3.418-5.708l-1.427-.854 2.564-4.28 1.427.854-2.564 4.28zm3.419-5.707l-1.427-.854 2.564-4.28 1.426.854-2.563 4.28zm3.418-5.707l-1.427-.855 2.564-4.28 1.427.855-2.564 4.28zm3.418-5.707l-1.426-.855 2.563-4.28 1.427.854-2.564 4.28zm3.419-5.707l-1.427-.855 2.564-4.28 1.427.854-2.564 4.28zm3.418-5.708l-1.426-.854 2.563-4.28 1.427.854-2.564 4.28zm3.419-5.707l-1.427-.854 2.564-4.28 1.427.854-2.564 4.28zm3.418-5.707l-1.427-.855 2.564-4.28 1.427.855-2.564 4.28zm3.419-5.707l-1.427-.855 2.564-4.28 1.426.854-2.563 4.28zm3.418-5.707l-1.427-.855 2.564-4.28 1.427.854-2.564 4.28zm3.419-5.708l-1.427-.854 2.564-4.28 1.426.854-2.563 4.28zm3.418-5.707l-1.427-.854 2.564-4.28 1.427.854-2.564 4.28zm3.418-5.707l-1.426-.855 2.563-4.28 1.427.855-2.564 4.28zm3.419-5.707l-1.427-.855 2.564-4.28 1.427.854-2.564 4.28zm3.418-5.707l-1.427-.855 2.564-4.28 1.427.854-2.564 4.28z" opacity=".6"/>
        <path fill="#FFF" fill-rule="nonzero" d="M228.449 248.768c-.42 3.012-3.075 5.325-6.277 5.324-3.491-.002-6.33-2.754-6.329-6.161.002-3.407 2.843-6.157 6.334-6.155 3.202.001 5.856 2.317 6.272 5.329l3.384.001-.001 1.664-3.383-.002zm-1.606-.886c-.03-2.452-2.101-4.442-4.666-4.443-2.585-.001-4.67 2.016-4.67 4.493-.002 2.476 2.081 4.495 4.665 4.496 2.566.002 4.64-1.987 4.67-4.438v-.108zm168.622-.7c.42-3.013 3.075-5.326 6.277-5.324 3.49.001 6.33 2.754 6.329 6.16-.002 3.408-2.844 6.157-6.335 6.156-3.202-.002-5.855-2.317-6.272-5.33h-2.305v-1.664l2.306.001zm1.606.885c.029 2.452 2.1 4.442 4.666 4.443 2.584.002 4.67-2.016 4.67-4.492.002-2.477-2.082-4.496-4.666-4.497-2.565-.001-4.639 1.987-4.67 4.439v.107zm-163.576.703v-1.663l4.99.003v1.663l-4.99-.003zm6.653.003v-1.663l4.99.003v1.663l-4.99-.003zm6.652.003l.001-1.663 4.99.003-.001 1.663-4.99-.003zm6.653.004v-1.664l4.99.003v1.663l-4.99-.002zm6.653.003v-1.664l4.99.003v1.663l-4.99-.002zm6.652.003l.001-1.664 4.99.003-.001 1.663-4.99-.002zm6.653.003v-1.664l4.99.003v1.663l-4.99-.002zm6.653.003v-1.664l4.99.003v1.663l-4.99-.002zm6.652.003l.001-1.663 4.99.002-.001 1.663-4.99-.002zm6.653.003v-1.663l4.99.002v1.663l-4.99-.002zm6.653.003v-1.663l4.99.002v1.663l-4.99-.002zm6.652.003l.001-1.663 4.99.002-.001 1.663-4.99-.002zm6.653.003v-1.663l4.99.002v1.663l-4.99-.002zm6.653.003v-1.663l4.99.002-.001 1.663-4.99-.002zm6.652.003l.001-1.663 4.99.002-.001 1.663-4.99-.002zm6.653.003v-1.663l4.99.002v1.663l-4.99-.002zm6.653.003v-1.663l4.99.002-.001 1.663-4.99-.002zm6.652.003l.001-1.663 4.99.002-.001 1.663-4.99-.002zm6.653.003v-1.663l4.99.002v1.663l-4.99-.002zm6.653.003v-1.663l4.99.002-.001 1.663-4.99-.002zm6.652.003l.001-1.663 4.99.002-.001 1.663-4.99-.002zm6.653.003v-1.663l4.99.002v1.663l-4.99-.002zm6.653.003v-1.663l4.99.002-.001 1.664-4.99-.003zm6.652.003v-1.663l4.99.002v1.664l-4.99-.003z" opacity=".6"/>
        <path fill="#FFF" fill-rule="nonzero" d="M226.07 353.1c-.2 2.054-1.866 3.662-3.897 3.661-2.167 0-3.915-1.832-3.914-4.08 0-2.249 1.75-4.079 3.917-4.078 2.032.001 3.696 1.611 3.894 3.665l3.347.002v.832l-3.347-.002zm-.811-.454c-.02-1.78-1.396-3.21-3.083-3.211-1.699 0-3.085 1.448-3.086 3.246 0 1.798 1.384 3.248 3.083 3.249 1.687 0 3.065-1.428 3.086-3.208v-.076zm180.396.12c-.001 2.249-1.75 4.078-3.918 4.077-2.167 0-3.915-1.832-3.914-4.08.001-2.249 1.75-4.079 3.918-4.078 2.167.001 3.915 1.833 3.914 4.081zm-.832 0c.001-1.798-1.383-3.248-3.082-3.249-1.7 0-3.085 1.448-3.086 3.246-.001 1.798 1.384 3.248 3.083 3.249 1.699 0 3.084-1.449 3.085-3.246zm-172.912.337v-.832l4.158.002v.832l-4.158-.002zm6.653.003v-.832l4.158.002v.832l-4.158-.002zm6.652.003v-.832l4.159.002v.832l-4.159-.002zm6.653.003v-.832l4.158.002v.832l-4.158-.002zm6.653.003v-.832l4.158.002v.832l-4.158-.002zm6.652.003v-.832l4.159.002v.832l-4.159-.002zm6.653.003v-.832l4.158.002v.832l-4.158-.002zm6.653.003v-.832l4.158.002v.832l-4.158-.002zm6.652.003v-.832l4.159.002v.832l-4.159-.002zm6.653.003v-.832l4.158.002v.832l-4.158-.002zm6.653.003v-.832l4.158.002v.832l-4.158-.002zm6.652.003v-.832l4.159.002v.832l-4.159-.002zm6.653.003v-.831l4.158.001v.832l-4.158-.002zm6.653.003v-.831l4.158.001v.832l-4.158-.002zm6.652.003v-.831l4.159.001v.832l-4.159-.002zm6.653.003v-.831l4.158.002v.831l-4.158-.002zm6.653.003v-.831l4.158.002v.831l-4.158-.002zm6.652.003v-.831l4.159.002v.831l-4.159-.002zm6.653.003v-.831l4.158.002v.831l-4.158-.002zm6.653.003v-.831l4.158.002v.831l-4.158-.002zm6.652.003v-.831l4.159.002v.831l-4.159-.002zm6.653.003v-.831l4.158.002v.831l-4.158-.002zm6.653.003v-.831l4.158.002v.831l-4.158-.002zm6.652.004v-.832l4.159.002v.831l-4.159-.001zm6.653.003v-.832l4.158.002v.831l-4.158-.001z"/>
        <path fill="#FFF" fill-rule="nonzero" d="M304.783 206.823c-2.403-1.864-3.086-5.319-1.49-8.095 1.74-3.026 5.541-4.117 8.495-2.42 2.953 1.699 3.922 5.533 2.182 8.56-1.596 2.775-4.926 3.923-7.745 2.784l-1.686 2.932-1.442-.83 1.686-2.931zm1.614-.926c2.134 1.159 4.861.35 6.131-1.859 1.288-2.24.577-5.053-1.57-6.287-2.146-1.235-4.935-.434-6.223 1.806-1.27 2.208-.597 4.973 1.478 6.234l.184.106zm-80.374 141.242c2.403 1.863 3.086 5.318 1.49 8.094-1.74 3.027-5.54 4.118-8.494 2.42-2.954-1.698-3.923-5.532-2.183-8.559 1.596-2.775 4.926-3.923 7.745-2.784l1.418-2.466 1.442.83-1.418 2.465zm-1.614.926c-2.134-1.16-4.861-.35-6.131 1.858-1.288 2.24-.577 5.054 1.57 6.288 2.146 1.234 4.935.433 6.223-1.807 1.27-2.208.597-4.972-1.478-6.233l-.184-.106zm77.86-136.868l1.441.829-2.487 4.325-1.442-.829 2.487-4.325zm-3.317 5.767l1.442.829-2.487 4.325-1.442-.829 2.487-4.325zm-3.316 5.767l1.442.83-2.487 4.325-1.442-.83 2.487-4.325zm-3.316 5.767l1.442.83-2.487 4.325-1.442-.83 2.487-4.325zm-3.316 5.768l1.442.829-2.487 4.325-1.442-.829 2.487-4.325zm-3.316 5.767l1.442.829-2.487 4.325-1.442-.829 2.487-4.325zm-3.316 5.767l1.442.83-2.487 4.325-1.442-.83 2.487-4.325zm-3.316 5.768l1.442.829-2.487 4.325-1.442-.829 2.487-4.325zm-3.316 5.767l1.442.829-2.488 4.325-1.441-.829 2.487-4.325zm-3.316 5.767l1.441.83-2.487 4.325-1.441-.83 2.487-4.325zm-3.316 5.767l1.441.83-2.487 4.325-1.441-.83 2.487-4.325zm-3.316 5.768l1.441.829-2.487 4.325-1.442-.829 2.488-4.325zm-3.317 5.767l1.442.83-2.487 4.325-1.442-.83 2.487-4.325zm-3.316 5.767l1.442.83-2.487 4.325-1.442-.83 2.487-4.325zm-3.316 5.768l1.442.829-2.487 4.325-1.442-.829 2.487-4.325zm-3.316 5.767l1.442.829-2.487 4.325-1.442-.829 2.487-4.325zm-3.316 5.767l1.442.83-2.487 4.325-1.442-.83 2.487-4.325zm-3.316 5.768l1.442.829-2.487 4.325-1.442-.829 2.487-4.325zm-3.316 5.767l1.442.829-2.487 4.325-1.442-.829 2.487-4.325zm-3.316 5.767l1.442.83-2.487 4.325-1.442-.83 2.487-4.325zm-3.316 5.767l1.442.83-2.487 4.325-1.442-.83 2.487-4.325zm-3.316 5.768l1.442.829-2.487 4.325-1.442-.829 2.487-4.325zm-3.316 5.767l1.442.829-2.487 4.325-1.442-.829 2.487-4.325z"/>
        <path fill="#28CAB3" fill-rule="nonzero" d="M211.603 242.547a1.05 1.05 0 0 0 1.046-1.054 1.05 1.05 0 0 0-1.046-1.054c-2.222 0-4.082 1.827-4.507 4.248h-.677v-3.721a1.05 1.05 0 0 0-1.047-1.055 1.05 1.05 0 0 0-1.046 1.055v3.721h-.757c-.425-2.42-2.284-4.248-4.507-4.248a1.05 1.05 0 0 0-1.046 1.054 1.05 1.05 0 0 0 1.046 1.054c1.382 0 2.506 1.433 2.506 3.195 0 1.761-1.124 3.194-2.506 3.194a1.05 1.05 0 0 0-1.046 1.054 1.05 1.05 0 0 0 1.046 1.055c2.223 0 4.082-1.828 4.507-4.25h.757v2.261a3.323 3.323 0 0 0-2.248 3.148c0 1.83 1.478 3.32 3.294 3.32 1.817 0 3.295-1.49 3.295-3.32a3.323 3.323 0 0 0-2.248-3.148v-2.26h.677c.426 2.42 2.285 4.249 4.507 4.249a1.05 1.05 0 0 0 1.046-1.055 1.05 1.05 0 0 0-1.046-1.054c-1.382 0-2.506-1.433-2.506-3.194 0-1.762 1.124-3.195 2.506-3.195zm-6.23 10.868a1.212 1.212 0 1 1 0-2.423 1.212 1.212 0 0 1 0 2.423z"/>
        <path fill="#FFA844" fill-rule="nonzero" d="M312.356 425.42a.89.89 0 0 1 .005.091v.669h2.094a.88.88 0 1 1 0 1.758h-2.094v1.33a.88.88 0 0 1-1.759 0v-1.33h-2.271a.88.88 0 1 1 0-1.758h2.271v-.669c0-.033.002-.067.006-.1a5.619 5.619 0 0 1 .898-11.163 5.617 5.617 0 0 1 .85 11.171zm-.85-1.89a3.663 3.663 0 1 0 0-7.328 3.663 3.663 0 0 0 0 7.327z"/>
        <path fill="#FF445B" fill-rule="nonzero" d="M308.425 191.186a8.304 8.304 0 1 1 0-16.608 8.304 8.304 0 0 1 0 16.608zm0-2.442a5.862 5.862 0 1 0 0-11.723 5.862 5.862 0 0 0 0 11.723zm0-3.175a2.687 2.687 0 1 1 0-5.373 2.687 2.687 0 0 1 0 5.373z"/>
        <path fill="#7163FF" fill-rule="nonzero" d="M417.889 247.727c0-2.71-1.704-5.185-4.24-6.158l-.594-.228.595-.228a7.042 7.042 0 0 1 2.53-.469 7.09 7.09 0 0 1 7.082 7.083 7.09 7.09 0 0 1-7.082 7.083c-.868 0-1.72-.158-2.53-.47l-.594-.227.594-.228a6.638 6.638 0 0 0 4.239-6.158z"/>
        <path fill="#28CAB3" fill-rule="nonzero" d="M423.528 351.022l.646-.947a.977.977 0 0 1 1.614 1.1l-1.069 1.568a5.619 5.619 0 0 1-4.286 7.832.89.89 0 0 1 .005.092v.668h2.095a.88.88 0 1 1 0 1.759h-2.095v1.33a.88.88 0 0 1-1.758 0v-1.33h-2.272a.88.88 0 1 1 0-1.759h2.272v-.668c0-.034.001-.067.005-.1a5.619 5.619 0 0 1-4.13-8.053l-.913-1.338a.977.977 0 0 1 1.613-1.101l.543.795a5.597 5.597 0 0 1 3.785-1.466 5.6 5.6 0 0 1 3.945 1.618zm-3.945 7.663a3.663 3.663 0 1 0 0-7.327 3.663 3.663 0 0 0 0 7.327z"/>
        <path fill="#FF445B" fill-rule="nonzero" d="M209.2 351.358c.591 0 1.073.482 1.073 1.074v3.224c0 .593-.481 1.075-1.074 1.075a1.075 1.075 0 0 1-1.074-1.075v-.64l-.98.98c1.493 2.212 1.217 5.242-.682 7.142a5.6 5.6 0 0 1-3.987 1.653 5.6 5.6 0 0 1-3.987-1.653 5.65 5.65 0 0 1 0-7.979 5.587 5.587 0 0 1 3.979-1.649c1.138 0 2.224.334 3.158.967l.97-.97h-.619a1.075 1.075 0 0 1 0-2.15h3.222zm-6.721 11.28a3.491 3.491 0 0 0 3.49-3.493 3.491 3.491 0 1 0-3.49 3.492z"/>
    </g>
</svg>
