<svg xmlns="http://www.w3.org/2000/svg" width="275" height="68" viewBox="0 0 275 68">
    <defs>
        <linearGradient id="a" x1="88.572%" x2="8.54%" y1="46.735%" y2="52.151%">
            <stop offset="0%" stop-color="#AFE46A"/>
            <stop offset="100%" stop-color="#0FAB5B"/>
        </linearGradient>
        <linearGradient id="b" x1="8.54%" y1="0%" y2="100%">
            <stop offset="0%" stop-color="#AFE46A"/>
            <stop offset="100%" stop-color="#0FAB5B"/>
        </linearGradient>
    </defs>
    <g fill="none" fill-rule="evenodd">
        <rect width="273" height="66" x="1" y="1" stroke="url(#a)" stroke-width="2" rx="32"/>
        <text fill="#FFF" font-family="PingFangTC-Regular, PingFang TC" font-size="24">
            <tspan x="82" y="43">加入 Line 好友</tspan>
        </text>
        <path fill="url(#b)" fill-rule="nonzero" d="M19.436 12.3v5.079c0 .128-.1.228-.229.228h-.814a.236.236 0 0 1-.186-.093l-2.328-3.143v3.015c0 .128-.1.228-.229.228h-.814a.226.226 0 0 1-.229-.228v-5.079c0-.128.1-.228.229-.228h.807c.071 0 .15.035.186.1l2.328 3.142v-3.014c0-.128.1-.228.229-.228h.814c.129-.008.236.1.236.221zm-5.857-.229h-.815c-.128 0-.228.1-.228.229v5.079c0 .128.1.228.228.228h.815c.128 0 .228-.1.228-.228V12.3a.23.23 0 0 0-.228-.229zm-1.965 4.258H9.393V12.3c0-.129-.1-.229-.229-.229H8.35c-.129 0-.229.1-.229.229v5.079a.21.21 0 0 0 .065.157.24.24 0 0 0 .157.064h3.264c.129 0 .229-.1.229-.229v-.814c0-.121-.1-.228-.222-.228zm12.107-4.258h-3.264a.23.23 0 0 0-.228.229v5.079c0 .121.1.228.228.228h3.264c.129 0 .229-.1.229-.228v-.815c0-.128-.1-.228-.229-.228H21.5v-.857h2.221c.129 0 .229-.1.229-.229v-.821c0-.129-.1-.229-.229-.229H21.5v-.857h2.221c.129 0 .229-.1.229-.229V12.3c-.007-.121-.107-.229-.229-.229zM32 5.836v20.378c-.007 3.2-2.629 5.793-5.836 5.786H5.786c-3.2-.007-5.793-2.636-5.786-5.836V5.786C.007 2.586 2.636-.007 5.836 0h20.378c3.2.007 5.793 2.629 5.786 5.836zm-4.4 8.757c0-5.214-5.229-9.457-11.65-9.457S4.3 9.379 4.3 14.593c0 4.671 4.143 8.586 9.743 9.328 1.364.293 1.207.793.9 2.629-.05.293-.236 1.15 1.007.629 1.243-.522 6.707-3.95 9.157-6.765 1.686-1.857 2.493-3.735 2.493-5.821z" transform="translate(34 19)"/>
    </g>
</svg>
