<svg xmlns="http://www.w3.org/2000/svg" xmlns:xlink="http://www.w3.org/1999/xlink" width="375" height="504" viewBox="0 0 375 504">
    <defs>
        <path id="a" d="M0 0h864v480H0z"/>
        <filter id="c" width="158.7%" height="158.8%" x="-29.4%" y="-29.4%" filterUnits="objectBoundingBox">
            <feGaussianBlur in="SourceGraphic" stdDeviation="24.149"/>
        </filter>
        <linearGradient id="d" x1="0%" x2="102%" y1="0%" y2="101%">
            <stop offset="0%" stop-color="#3023AE"/>
            <stop offset="100%" stop-color="#C86DD7"/>
        </linearGradient>
        <filter id="e" width="297%" height="297%" x="-98.5%" y="-98.5%" filterUnits="objectBoundingBox">
            <feGaussianBlur in="SourceGraphic" stdDeviation="17.16"/>
        </filter>
        <rect id="g" width="134.581" height="276.612" rx="19.561"/>
        <filter id="f" width="149%" height="123.9%" x="-28.2%" y="-7.6%" filterUnits="objectBoundingBox">
            <feOffset dx="-5" dy="12" in="SourceAlpha" result="shadowOffsetOuter1"/>
            <feGaussianBlur in="shadowOffsetOuter1" result="shadowBlurOuter1" stdDeviation="9"/>
            <feColorMatrix in="shadowBlurOuter1" values="0 0 0 0 0 0 0 0 0 0 0 0 0 0 0 0 0 0 0.1 0"/>
        </filter>
        <path id="h" d="M28.957 0v2.164a7.39 7.39 0 0 0 7.39 7.39h51.151a7.39 7.39 0 0 0 7.39-7.39V0h15.007c7.202 0 13.04 5.838 13.04 13.04v238.373c0 7.202-5.838 13.04-13.04 13.04H13.58c-7.202 0-13.04-5.838-13.04-13.04V13.04C.54 5.838 6.378 0 13.58 0h15.377z"/>
        <linearGradient id="j" x1="45.379%" x2="55.03%" y1="4.063%" y2="100%">
            <stop offset=".063%" stop-color="#6663FF"/>
            <stop offset="30.221%" stop-color="#B787F4"/>
            <stop offset="67.081%" stop-color="#F891F1"/>
            <stop offset="85.012%" stop-color="#FFB9FE"/>
            <stop offset="100%" stop-color="#FFDFFD"/>
        </linearGradient>
        <filter id="k" width="371.2%" height="186%" x="-135.6%" y="-43%" filterUnits="objectBoundingBox">
            <feGaussianBlur in="SourceGraphic" stdDeviation="4.747"/>
        </filter>
        <linearGradient id="l" x1="4.002%" y1="24.768%" y2="77.427%">
            <stop offset=".063%" stop-color="#6663FF"/>
            <stop offset="30.221%" stop-color="#B787F4"/>
            <stop offset="67.081%" stop-color="#F891F1"/>
            <stop offset="85.012%" stop-color="#FFB9FE"/>
            <stop offset="100%" stop-color="#FFDFFD"/>
        </linearGradient>
        <filter id="m" width="393.1%" height="495.8%" x="-146.6%" y="-197.9%" filterUnits="objectBoundingBox">
            <feGaussianBlur in="SourceGraphic" stdDeviation="4.747"/>
        </filter>
        <linearGradient id="n" x1="4.063%" y1="29.38%" y2="72.444%">
            <stop offset=".063%" stop-color="#6663FF"/>
            <stop offset="30.221%" stop-color="#B787F4"/>
            <stop offset="67.081%" stop-color="#F891F1"/>
            <stop offset="85.012%" stop-color="#FFB9FE"/>
            <stop offset="100%" stop-color="#FFDFFD"/>
        </linearGradient>
        <filter id="o" width="199.1%" height="248%" x="-49.6%" y="-74%" filterUnits="objectBoundingBox">
            <feGaussianBlur in="SourceGraphic" stdDeviation="4.747"/>
        </filter>
        <linearGradient id="p" x1="25.395%" x2="76.745%" y1="4.002%" y2="100%">
            <stop offset=".063%" stop-color="#6663FF"/>
            <stop offset="30.221%" stop-color="#B787F4"/>
            <stop offset="67.081%" stop-color="#F891F1"/>
            <stop offset="85.012%" stop-color="#FFB9FE"/>
            <stop offset="100%" stop-color="#FFDFFD"/>
        </linearGradient>
        <filter id="q" width="664.6%" height="512.9%" x="-282.3%" y="-206.5%" filterUnits="objectBoundingBox">
            <feGaussianBlur in="SourceGraphic" stdDeviation="4.747"/>
        </filter>
        <linearGradient id="r" x1="4.002%" y1="32.097%" y2="69.461%">
            <stop offset=".063%" stop-color="#6663FF"/>
            <stop offset="30.221%" stop-color="#B787F4"/>
            <stop offset="67.081%" stop-color="#F891F1"/>
            <stop offset="85.012%" stop-color="#FFB9FE"/>
            <stop offset="100%" stop-color="#FFDFFD"/>
        </linearGradient>
        <filter id="s" width="185.6%" height="237.2%" x="-42.8%" y="-68.6%" filterUnits="objectBoundingBox">
            <feGaussianBlur in="SourceGraphic" stdDeviation="4.747"/>
        </filter>
        <linearGradient id="t" x1="4.002%" y1="4.72%" y2="99.22%">
            <stop offset=".063%" stop-color="#6663FF"/>
            <stop offset="30.221%" stop-color="#B787F4"/>
            <stop offset="67.081%" stop-color="#F891F1"/>
            <stop offset="85.012%" stop-color="#FFB9FE"/>
            <stop offset="100%" stop-color="#FFDFFD"/>
        </linearGradient>
        <filter id="u" width="1031.8%" height="1039.1%" x="-465.9%" y="-469.6%" filterUnits="objectBoundingBox">
            <feGaussianBlur in="SourceGraphic" stdDeviation="4.747"/>
        </filter>
        <linearGradient id="v" x1="4.002%" y1="38.674%" y2="62.311%">
            <stop offset=".063%" stop-color="#6663FF"/>
            <stop offset="30.221%" stop-color="#B787F4"/>
            <stop offset="67.081%" stop-color="#F891F1"/>
            <stop offset="85.012%" stop-color="#FFB9FE"/>
            <stop offset="100%" stop-color="#FFDFFD"/>
        </linearGradient>
        <linearGradient id="w" x1="4.063%" y1="26.298%" y2="75.799%">
            <stop offset=".063%" stop-color="#6663FF"/>
            <stop offset="30.221%" stop-color="#B787F4"/>
            <stop offset="67.081%" stop-color="#F891F1"/>
            <stop offset="85.012%" stop-color="#FFB9FE"/>
            <stop offset="100%" stop-color="#FFDFFD"/>
        </linearGradient>
        <filter id="x" width="1541.9%" height="2107.3%" x="-720.9%" y="-1003.7%" filterUnits="objectBoundingBox">
            <feGaussianBlur in="SourceGraphic" stdDeviation="4.747"/>
        </filter>
        <linearGradient id="y" x1="4.002%" y1="27.085%" y2="74.909%">
            <stop offset=".063%" stop-color="#6663FF"/>
            <stop offset="30.221%" stop-color="#B787F4"/>
            <stop offset="67.081%" stop-color="#F891F1"/>
            <stop offset="85.012%" stop-color="#FFB9FE"/>
            <stop offset="100%" stop-color="#FFDFFD"/>
        </linearGradient>
        <filter id="z" width="342.9%" height="444.1%" x="-121.4%" y="-172.1%" filterUnits="objectBoundingBox">
            <feGaussianBlur in="SourceGraphic" stdDeviation="4.747"/>
        </filter>
        <linearGradient id="A" x1="4.002%" y1="27.099%" y2="74.894%">
            <stop offset=".063%" stop-color="#6663FF"/>
            <stop offset="30.221%" stop-color="#B787F4"/>
            <stop offset="67.081%" stop-color="#F891F1"/>
            <stop offset="85.012%" stop-color="#FFB9FE"/>
            <stop offset="100%" stop-color="#FFDFFD"/>
        </linearGradient>
        <filter id="B" width="342.9%" height="444.2%" x="-121.4%" y="-172.1%" filterUnits="objectBoundingBox">
            <feGaussianBlur in="SourceGraphic" stdDeviation="4.747"/>
        </filter>
        <linearGradient id="C" x1="28.347%" x2="73.537%" y1="4.002%" y2="100%">
            <stop offset=".063%" stop-color="#6663FF"/>
            <stop offset="30.221%" stop-color="#B787F4"/>
            <stop offset="67.081%" stop-color="#F891F1"/>
            <stop offset="85.012%" stop-color="#FFB9FE"/>
            <stop offset="100%" stop-color="#FFDFFD"/>
        </linearGradient>
        <filter id="D" width="307.8%" height="242.6%" x="-103.9%" y="-71.3%" filterUnits="objectBoundingBox">
            <feGaussianBlur in="SourceGraphic" stdDeviation="4.747"/>
        </filter>
        <linearGradient id="E" x1="4.063%" y1="4.459%" y2="99.569%">
            <stop offset=".063%" stop-color="#6663FF"/>
            <stop offset="30.221%" stop-color="#B787F4"/>
            <stop offset="67.081%" stop-color="#F891F1"/>
            <stop offset="85.012%" stop-color="#FFB9FE"/>
            <stop offset="100%" stop-color="#FFDFFD"/>
        </linearGradient>
        <filter id="F" width="185.6%" height="186%" x="-42.8%" y="-43%" filterUnits="objectBoundingBox">
            <feGaussianBlur in="SourceGraphic" stdDeviation="4.747"/>
        </filter>
        <linearGradient id="G" x1="9.287%" x2="94.313%" y1="4.063%" y2="100%">
            <stop offset=".063%" stop-color="#6663FF"/>
            <stop offset="30.221%" stop-color="#B787F4"/>
            <stop offset="67.081%" stop-color="#F891F1"/>
            <stop offset="85.012%" stop-color="#FFB9FE"/>
            <stop offset="100%" stop-color="#FFDFFD"/>
        </linearGradient>
        <filter id="H" width="246.2%" height="237.6%" x="-73.1%" y="-68.8%" filterUnits="objectBoundingBox">
            <feGaussianBlur in="SourceGraphic" stdDeviation="4.747"/>
        </filter>
        <linearGradient id="I" x1="4.002%" y1="11.329%" y2="92.035%">
            <stop offset=".063%" stop-color="#6663FF"/>
            <stop offset="30.221%" stop-color="#B787F4"/>
            <stop offset="67.081%" stop-color="#F891F1"/>
            <stop offset="85.012%" stop-color="#FFB9FE"/>
            <stop offset="100%" stop-color="#FFDFFD"/>
        </linearGradient>
        <filter id="J" width="352%" height="374.8%" x="-126%" y="-137.4%" filterUnits="objectBoundingBox">
            <feGaussianBlur in="SourceGraphic" stdDeviation="4.747"/>
        </filter>
        <linearGradient id="K" x1="4.002%" y1="11.329%" y2="92.036%">
            <stop offset=".063%" stop-color="#6663FF"/>
            <stop offset="30.221%" stop-color="#B787F4"/>
            <stop offset="67.081%" stop-color="#F891F1"/>
            <stop offset="85.012%" stop-color="#FFB9FE"/>
            <stop offset="100%" stop-color="#FFDFFD"/>
        </linearGradient>
        <filter id="L" width="352%" height="374.8%" x="-126%" y="-137.4%" filterUnits="objectBoundingBox">
            <feGaussianBlur in="SourceGraphic" stdDeviation="4.747"/>
        </filter>
        <linearGradient id="M" x1="40.725%" x2="60.095%" y1="4.063%" y2="100%">
            <stop offset=".063%" stop-color="#6663FF"/>
            <stop offset="30.221%" stop-color="#B787F4"/>
            <stop offset="67.081%" stop-color="#F891F1"/>
            <stop offset="85.012%" stop-color="#FFB9FE"/>
            <stop offset="100%" stop-color="#FFDFFD"/>
        </linearGradient>
        <filter id="N" width="333.1%" height="204.7%" x="-116.5%" y="-52.4%" filterUnits="objectBoundingBox">
            <feGaussianBlur in="SourceGraphic" stdDeviation="4.74"/>
        </filter>
        <linearGradient id="O" x1="41.49%" x2="59.251%" y1="4.002%" y2="100%">
            <stop offset=".063%" stop-color="#6663FF"/>
            <stop offset="30.221%" stop-color="#B787F4"/>
            <stop offset="67.081%" stop-color="#F891F1"/>
            <stop offset="85.012%" stop-color="#FFB9FE"/>
            <stop offset="100%" stop-color="#FFDFFD"/>
        </linearGradient>
        <filter id="P" width="329.8%" height="198.9%" x="-114.9%" y="-49.4%" filterUnits="objectBoundingBox">
            <feGaussianBlur in="SourceGraphic" stdDeviation="4.74"/>
        </filter>
        <linearGradient id="Q" x1="40.713%" x2="60.095%" y1="4.002%" y2="100%">
            <stop offset=".063%" stop-color="#6663FF"/>
            <stop offset="30.221%" stop-color="#B787F4"/>
            <stop offset="67.081%" stop-color="#F891F1"/>
            <stop offset="85.012%" stop-color="#FFB9FE"/>
            <stop offset="100%" stop-color="#FFDFFD"/>
        </linearGradient>
        <filter id="R" width="333.1%" height="204.7%" x="-116.5%" y="-52.4%" filterUnits="objectBoundingBox">
            <feGaussianBlur in="SourceGraphic" stdDeviation="4.74"/>
        </filter>
        <linearGradient id="S" x1="41.492%" x2="59.248%" y1="4.002%" y2="100%">
            <stop offset=".063%" stop-color="#6663FF"/>
            <stop offset="30.221%" stop-color="#B787F4"/>
            <stop offset="67.081%" stop-color="#F891F1"/>
            <stop offset="85.012%" stop-color="#FFB9FE"/>
            <stop offset="100%" stop-color="#FFDFFD"/>
        </linearGradient>
        <filter id="T" width="329.9%" height="198.9%" x="-114.9%" y="-49.4%" filterUnits="objectBoundingBox">
            <feGaussianBlur in="SourceGraphic" stdDeviation="4.74"/>
        </filter>
        <linearGradient id="U" x1="4.063%" y1="44.413%" y2="56.081%">
            <stop offset=".063%" stop-color="#6663FF"/>
            <stop offset="30.221%" stop-color="#B787F4"/>
            <stop offset="67.081%" stop-color="#F891F1"/>
            <stop offset="85.012%" stop-color="#FFB9FE"/>
            <stop offset="100%" stop-color="#FFDFFD"/>
        </linearGradient>
        <filter id="V" width="209.5%" height="414.1%" x="-54.8%" y="-157%" filterUnits="objectBoundingBox">
            <feGaussianBlur in="SourceGraphic" stdDeviation="4.741"/>
        </filter>
        <linearGradient id="W" x1="11.679%" x2="91.656%" y1="4.002%" y2="100%">
            <stop offset=".063%" stop-color="#6663FF"/>
            <stop offset="30.221%" stop-color="#B787F4"/>
            <stop offset="67.081%" stop-color="#F891F1"/>
            <stop offset="85.012%" stop-color="#FFB9FE"/>
            <stop offset="100%" stop-color="#FFDFFD"/>
        </linearGradient>
        <filter id="X" width="1893%" height="1736.6%" x="-896.5%" y="-818.3%" filterUnits="objectBoundingBox">
            <feGaussianBlur in="SourceGraphic" stdDeviation="4.741"/>
        </filter>
        <linearGradient id="Y" x1="30.767%" x2="70.906%" y1="4.002%" y2="100%">
            <stop offset=".063%" stop-color="#6663FF"/>
            <stop offset="30.221%" stop-color="#B787F4"/>
            <stop offset="67.081%" stop-color="#F891F1"/>
            <stop offset="85.012%" stop-color="#FFB9FE"/>
            <stop offset="100%" stop-color="#FFDFFD"/>
        </linearGradient>
        <filter id="Z" width="251.2%" height="197.8%" x="-75.6%" y="-48.9%" filterUnits="objectBoundingBox">
            <feGaussianBlur in="SourceGraphic" stdDeviation="4.741"/>
        </filter>
        <linearGradient id="aa" x1="11.12%" x2="92.263%" y1="4.002%" y2="100%">
            <stop offset=".063%" stop-color="#6663FF"/>
            <stop offset="30.221%" stop-color="#B787F4"/>
            <stop offset="67.081%" stop-color="#F891F1"/>
            <stop offset="85.012%" stop-color="#FFB9FE"/>
            <stop offset="100%" stop-color="#FFDFFD"/>
        </linearGradient>
        <filter id="ab" width="222.8%" height="212.9%" x="-61.4%" y="-56.5%" filterUnits="objectBoundingBox">
            <feGaussianBlur in="SourceGraphic" stdDeviation="4.741"/>
        </filter>
        <linearGradient id="ac" x1="4.002%" y1="23.226%" y2="79.103%">
            <stop offset=".063%" stop-color="#6663FF"/>
            <stop offset="30.221%" stop-color="#B787F4"/>
            <stop offset="67.081%" stop-color="#F891F1"/>
            <stop offset="85.012%" stop-color="#FFB9FE"/>
            <stop offset="100%" stop-color="#FFDFFD"/>
        </linearGradient>
        <filter id="ad" width="263.8%" height="314.6%" x="-81.9%" y="-107.3%" filterUnits="objectBoundingBox">
            <feGaussianBlur in="SourceGraphic" stdDeviation="4.741"/>
        </filter>
        <linearGradient id="ae" x1="4.063%" y1="4.464%" y2="99.563%">
            <stop offset=".063%" stop-color="#6663FF"/>
            <stop offset="30.221%" stop-color="#B787F4"/>
            <stop offset="67.081%" stop-color="#F891F1"/>
            <stop offset="85.012%" stop-color="#FFB9FE"/>
            <stop offset="100%" stop-color="#FFDFFD"/>
        </linearGradient>
        <filter id="af" width="185.7%" height="186%" x="-42.8%" y="-43%" filterUnits="objectBoundingBox">
            <feGaussianBlur in="SourceGraphic" stdDeviation="4.747"/>
        </filter>
        <linearGradient id="ag" x1="4.002%" y1="33.787%" y2="67.623%">
            <stop offset=".063%" stop-color="#6663FF"/>
            <stop offset="30.221%" stop-color="#B787F4"/>
            <stop offset="67.081%" stop-color="#F891F1"/>
            <stop offset="85.012%" stop-color="#FFB9FE"/>
            <stop offset="100%" stop-color="#FFDFFD"/>
        </linearGradient>
        <filter id="ah" width="393.7%" height="594.7%" x="-146.8%" y="-247.3%" filterUnits="objectBoundingBox">
            <feGaussianBlur in="SourceGraphic" stdDeviation="4.747"/>
        </filter>
        <linearGradient id="ai" x1="4.002%" y1="33.786%" y2="67.624%">
            <stop offset=".063%" stop-color="#6663FF"/>
            <stop offset="30.221%" stop-color="#B787F4"/>
            <stop offset="67.081%" stop-color="#F891F1"/>
            <stop offset="85.012%" stop-color="#FFB9FE"/>
            <stop offset="100%" stop-color="#FFDFFD"/>
        </linearGradient>
        <filter id="aj" width="393.7%" height="594.7%" x="-146.8%" y="-247.3%" filterUnits="objectBoundingBox">
            <feGaussianBlur in="SourceGraphic" stdDeviation="4.747"/>
        </filter>
        <linearGradient id="ak" x1="4.063%" y1="20.378%" y2="82.242%">
            <stop offset=".063%" stop-color="#6663FF"/>
            <stop offset="30.221%" stop-color="#B787F4"/>
            <stop offset="67.081%" stop-color="#F891F1"/>
            <stop offset="85.012%" stop-color="#FFB9FE"/>
            <stop offset="100%" stop-color="#FFDFFD"/>
        </linearGradient>
        <filter id="al" width="175.6%" height="194.2%" x="-37.8%" y="-47.1%" filterUnits="objectBoundingBox">
            <feGaussianBlur in="SourceGraphic" stdDeviation="4.738"/>
        </filter>
        <linearGradient id="am" x1="4.063%" y1="14.613%" y2="88.517%">
            <stop offset=".063%" stop-color="#6663FF"/>
            <stop offset="30.221%" stop-color="#B787F4"/>
            <stop offset="67.081%" stop-color="#F891F1"/>
            <stop offset="85.012%" stop-color="#FFB9FE"/>
            <stop offset="100%" stop-color="#FFDFFD"/>
        </linearGradient>
        <filter id="an" width="2298.7%" height="2605.1%" x="-1099.3%" y="-1252.6%" filterUnits="objectBoundingBox">
            <feGaussianBlur in="SourceGraphic" stdDeviation="4.747"/>
        </filter>
        <linearGradient id="ao" x1="20.48%" x2="82.088%" y1="4.002%" y2="100%">
            <stop offset=".063%" stop-color="#6663FF"/>
            <stop offset="30.221%" stop-color="#B787F4"/>
            <stop offset="67.081%" stop-color="#F891F1"/>
            <stop offset="85.012%" stop-color="#FFB9FE"/>
            <stop offset="100%" stop-color="#FFDFFD"/>
        </linearGradient>
        <filter id="ap" width="320.4%" height="276.6%" x="-110.2%" y="-88.3%" filterUnits="objectBoundingBox">
            <feGaussianBlur in="SourceGraphic" stdDeviation="4.747"/>
        </filter>
        <linearGradient id="aq" x1="20.472%" x2="82.097%" y1="4.002%" y2="100%">
            <stop offset=".063%" stop-color="#6663FF"/>
            <stop offset="30.221%" stop-color="#B787F4"/>
            <stop offset="67.081%" stop-color="#F891F1"/>
            <stop offset="85.012%" stop-color="#FFB9FE"/>
            <stop offset="100%" stop-color="#FFDFFD"/>
        </linearGradient>
        <filter id="ar" width="320.4%" height="276.6%" x="-110.2%" y="-88.3%" filterUnits="objectBoundingBox">
            <feGaussianBlur in="SourceGraphic" stdDeviation="4.747"/>
        </filter>
        <linearGradient id="as" x1="10.313%" x2="93.14%" y1="4.002%" y2="100%">
            <stop offset=".063%" stop-color="#6663FF"/>
            <stop offset="30.221%" stop-color="#B787F4"/>
            <stop offset="67.081%" stop-color="#F891F1"/>
            <stop offset="85.012%" stop-color="#FFB9FE"/>
            <stop offset="100%" stop-color="#FFDFFD"/>
        </linearGradient>
        <filter id="at" width="2111.9%" height="1968.8%" x="-1005.9%" y="-934.4%" filterUnits="objectBoundingBox">
            <feGaussianBlur in="SourceGraphic" stdDeviation="4.747"/>
        </filter>
        <linearGradient id="au" x1="19.85%" x2="82.774%" y1="4.002%" y2="100%">
            <stop offset=".063%" stop-color="#6663FF"/>
            <stop offset="30.221%" stop-color="#B787F4"/>
            <stop offset="67.081%" stop-color="#F891F1"/>
            <stop offset="85.012%" stop-color="#FFB9FE"/>
            <stop offset="100%" stop-color="#FFDFFD"/>
        </linearGradient>
        <filter id="av" width="270.7%" height="238.2%" x="-85.3%" y="-69.1%" filterUnits="objectBoundingBox">
            <feGaussianBlur in="SourceGraphic" stdDeviation="4.747"/>
        </filter>
        <linearGradient id="aw" x1="4.002%" y1="18.312%" y2="84.445%">
            <stop offset=".063%" stop-color="#6663FF"/>
            <stop offset="30.221%" stop-color="#B787F4"/>
            <stop offset="67.081%" stop-color="#F891F1"/>
            <stop offset="85.012%" stop-color="#FFB9FE"/>
            <stop offset="100%" stop-color="#FFDFFD"/>
        </linearGradient>
        <filter id="ax" width="393.1%" height="453.1%" x="-146.6%" y="-176.6%" filterUnits="objectBoundingBox">
            <feGaussianBlur in="SourceGraphic" stdDeviation="4.747"/>
        </filter>
        <linearGradient id="ay" x1="8.772%" x2="94.815%" y1="4.002%" y2="100%">
            <stop offset=".063%" stop-color="#6663FF"/>
            <stop offset="30.221%" stop-color="#B787F4"/>
            <stop offset="67.081%" stop-color="#F891F1"/>
            <stop offset="85.012%" stop-color="#FFB9FE"/>
            <stop offset="100%" stop-color="#FFDFFD"/>
        </linearGradient>
        <filter id="az" width="945.3%" height="900.2%" x="-422.6%" y="-400.1%" filterUnits="objectBoundingBox">
            <feGaussianBlur in="SourceGraphic" stdDeviation="4.747"/>
        </filter>
        <linearGradient id="aA" x1="8.775%" x2="94.811%" y1="4.002%" y2="100%">
            <stop offset=".063%" stop-color="#6663FF"/>
            <stop offset="30.221%" stop-color="#B787F4"/>
            <stop offset="67.081%" stop-color="#F891F1"/>
            <stop offset="85.012%" stop-color="#FFB9FE"/>
            <stop offset="100%" stop-color="#FFDFFD"/>
        </linearGradient>
        <filter id="aB" width="945.4%" height="900.3%" x="-422.7%" y="-400.1%" filterUnits="objectBoundingBox">
            <feGaussianBlur in="SourceGraphic" stdDeviation="4.747"/>
        </filter>
        <path id="aC" d="M0 0h171.041v270.179H0z"/>
    </defs>
    <g fill="none" fill-rule="evenodd" transform="translate(-62 24)">
        <mask id="b" fill="#fff">
            <use xlink:href="#a"/>
        </mask>
        <path fill="#FFF" fill-rule="nonzero" d="M219.132 419.627c-15.172 9.808-26.443 27.448-27.82 46.757-1.993 28.096 15.896 53.005 34.962 71.773 19.066 18.768 41.043 35.702 52.156 61.076 12.195 27.897 8.03 63.517-10.195 87.108-7.841 10.155-18.76 20.433-17.277 33.674 1.386 12.352 13.943 20.06 25.23 19.484 11.286-.578 21.507-7.111 31.362-13.2 35.328-21.839 73.827-40.546 114.335-40.898 43.43-.373 84.447 20.255 123.808 40.463l56.587 29.062c11.766 6.043 23.832 12.178 36.76 13.48 12.929 1.303 26.056-2.4 37.537-9.097 12.285-7.152 23.45-18.87 25.963-33.93 3.33-20.015-9.176-39.038-10.869-59.303-1.662-20.05 7.418-39.273 17.986-55.681 10.568-16.409 23.058-31.764 29.904-50.435 14.065-38.375.367-84.483-26.682-113.202-27.05-28.72-64.958-42.15-102.361-46.042-14.024-1.46-28.222-1.706-42.155.598-27.742 4.597-53.191 19.044-79.527 29.628-47.074 18.901-99.684 25.46-147.39 8.557-38.403-13.588-82.592-45.546-122.314-19.872z" mask="url(#b)" opacity=".2"/>
        <path fill="#FFF" fill-rule="nonzero" d="M27.972 430.45C12.8 440.257 1.529 457.897.152 477.206c-1.993 28.097 15.896 53.005 34.962 71.773 19.066 18.768 41.043 35.703 52.156 61.076 12.195 27.897 8.03 63.517-10.195 87.108-7.841 10.155-18.76 20.433-17.277 33.674 1.386 12.352 13.943 20.061 25.23 19.484 11.286-.578 21.507-7.111 31.362-13.2 35.328-21.839 73.827-40.546 114.335-40.898 43.43-.373 84.447 20.255 123.808 40.463l56.587 29.062c11.766 6.043 23.832 12.178 36.76 13.481 12.929 1.303 26.056-2.4 37.537-9.098 12.285-7.152 23.45-18.87 25.963-33.93 3.33-20.014-9.176-39.038-10.869-59.303-1.662-20.05 7.418-39.273 17.986-55.681 10.568-16.408 23.058-31.764 29.904-50.435 14.065-38.374.367-84.483-26.682-113.202-27.05-28.72-64.958-42.15-102.361-46.042-14.024-1.46-28.222-1.706-42.155.598-27.742 4.598-53.191 19.044-79.527 29.629-47.074 18.9-99.684 25.46-147.39 8.556-38.403-13.588-82.592-45.546-122.314-19.872z" mask="url(#b)" opacity=".2"/>
        <g mask="url(#b)">
            <g transform="translate(121.914 75)">
                <ellipse cx="123.321" cy="144.948" fill="#EEA1C9" filter="url(#c)" opacity=".199" rx="123.321" ry="123.296"/>
                <g opacity=".5" transform="translate(21.846)">
                    <circle cx="128.16" cy="128.28" r="127.92" stroke="url(#d)" stroke-width=".78" opacity=".375"/>
                    <circle cx="213.57" cy="118.53" r="26.13" fill="#FFF" filter="url(#e)" opacity=".26"/>
                </g>
                <ellipse cx="312.39" cy="335.899" fill="#EEA1C9" opacity=".5" rx="21.983" ry="21.979"/>
                <path fill="#FFF" d="M286.259 76.02l26.273 26.267-26.273 26.268-26.273-26.268z" opacity=".2"/>
                <path fill="#EE6DAF" d="M30.026 357.768l12.868 12.865L30.026 383.5l-12.868-12.866z" opacity=".7"/>
                <path fill="#7163FF" d="M186.08 76.02l6.435 6.433-6.435 6.433-6.434-6.433z"/>
            </g>
            <g transform="rotate(-2 3674.303 -2737.815)">
                <use fill="#000" filter="url(#f)" xlink:href="#g"/>
                <use fill="#F2F2F2" xlink:href="#g"/>
            </g>
            <g transform="rotate(-2 3840.537 -2894.245)">
                <mask id="i" fill="#fff">
                    <use xlink:href="#h"/>
                </mask>
                <use fill="#19112B" xlink:href="#h"/>
                <g fill-rule="nonzero" mask="url(#i)" opacity=".153">
                    <path fill="url(#j)" d="M25.921 13.808c.308-.855.452-1.818.452-3.012 0-2.25-2.083-4.331-4.099-6.345-1.332-1.33-2.841-2.837-2.841-3.73a.72.72 0 0 0-.429-.666.675.675 0 0 0-.757.156l-2.17 2.25a.743.743 0 0 0-.077.926c.611.896 1.547 1.83 2.536 2.819 1.723 1.721 3.673 3.671 3.673 5.31 0 .81-.076 1.443-.23 1.934a.729.729 0 0 0-.035.224v5.758c0 .076.012.15.035.224.154.491.23 1.124.23 1.935 0 1.638-1.95 3.588-3.673 5.308-.99.989-1.925 1.923-2.536 2.818a.741.741 0 0 0 .077.926l2.17 2.25a.683.683 0 0 0 .757.158.72.72 0 0 0 .429-.665c0-.894 1.509-2.401 2.841-3.731 2.016-2.014 4.1-4.095 4.1-6.345 0-1.194-.145-2.157-.453-3.012v-5.49z" filter="url(#k)" transform="translate(-3.886 19.882)"/>
                    <path fill="url(#l)" d="M9.643 16.23l-1.388-2.878a.693.693 0 0 0-.62-.397H.693a.694.694 0 0 0-.642.444.743.743 0 0 0 .15.785l2.287 2.37-2.285 2.368a.738.738 0 0 0-.15.785c.108.269.36.444.64.444h6.94a.693.693 0 0 0 .62-.397l1.389-2.879a.741.741 0 0 0 0-.644z" filter="url(#m)" transform="translate(-3.886 19.882)"/>
                    <path fill="#FFF" d="M27.345 37.155H5.135a.708.708 0 0 1-.693-.72c0-.397.31-.72.694-.72h22.21c.382 0 .693.323.693.72 0 .398-.31.72-.694.72z"/>
                    <path fill="#FFF" d="M25.957 40.034a.684.684 0 0 1-.491-.21.739.739 0 0 1 0-1.018l2.286-2.37-2.285-2.37a.739.739 0 0 1 0-1.017c.271-.281.711-.281.982 0l2.776 2.878c.27.281.27.737 0 1.018l-2.776 2.879a.684.684 0 0 1-.492.21zM18.752 34.276a.669.669 0 0 1-.217-.036.724.724 0 0 1-.441-.908c.153-.49.229-1.124.229-1.934 0-1.638-1.95-3.589-3.673-5.308-.99-.99-1.925-1.924-2.536-2.819a.74.74 0 0 1 .076-.925l2.171-2.251a.673.673 0 0 1 .757-.156c.26.11.429.373.429.664 0 .894 1.508 2.4 2.841 3.73 2.016 2.014 4.099 4.095 4.099 6.345 0 1.257-.16 2.257-.502 3.146a.685.685 0 0 1-.901.402.728.728 0 0 1-.386-.935c.17-.451.401-1.21.401-2.613 0-1.638-1.952-3.587-3.674-5.308-1.23-1.23-2.343-2.34-2.896-3.414l-.924.958c.533.661 1.253 1.382 2.01 2.138 2.014 2.015 4.096 4.096 4.096 6.346 0 .966-.097 1.746-.301 2.383a.693.693 0 0 1-.658.495zM14.853 52.988a.687.687 0 0 1-.492-.21l-2.17-2.252a.742.742 0 0 1-.077-.925c.61-.895 1.546-1.83 2.536-2.818 1.723-1.722 3.673-3.672 3.673-5.31 0-.81-.076-1.444-.23-1.935a.725.725 0 0 1 .44-.908.689.689 0 0 1 .877.46c.204.637.3 1.417.3 2.383 0 2.25-2.081 4.331-4.095 6.345-.757.755-1.477 1.476-2.01 2.137l.924.959c.553-1.074 1.666-2.185 2.896-3.414 1.722-1.72 3.674-3.67 3.674-5.307 0-1.404-.23-2.162-.403-2.611a.728.728 0 0 1 .386-.936c.356-.15.76.032.901.402.344.888.504 1.888.504 3.145 0 2.25-2.083 4.33-4.099 6.344-1.333 1.33-2.841 2.837-2.841 3.731a.72.72 0 0 1-.43.665.659.659 0 0 1-.264.055z"/>
                    <path fill="#FFF" d="M4.87 31.673a.684.684 0 0 1-.49-.21.739.739 0 0 1 0-1.018l7.81-8.1c.27-.28.71-.28.982 0 .27.281.27.738 0 1.018l-7.811 8.1a.676.676 0 0 1-.49.21zM12.682 50.737a.684.684 0 0 1-.492-.21l-7.81-8.1a.739.739 0 0 1 0-1.017c.27-.281.71-.281.98 0l7.812 8.099c.27.28.27.737 0 1.017a.684.684 0 0 1-.49.21zM3.748 40.034h-6.94a.694.694 0 0 1-.642-.445.744.744 0 0 1 .15-.784l2.286-2.37-2.285-2.369a.741.741 0 0 1-.151-.784.694.694 0 0 1 .641-.445h6.94c.263 0 .503.154.621.397l1.388 2.88a.747.747 0 0 1 0 .642l-1.388 2.879a.692.692 0 0 1-.62.399zm-5.265-1.44h4.836l1.041-2.159-1.041-2.159h-4.836l1.59 1.65c.271.28.271.737 0 1.018l-1.59 1.65z"/>
                    <path fill="url(#n)" d="M25.479 4.349C23.172 1.466 20.433.004 17.336.004c-3.607 0-8.8.375-12.251 3.624-2.572 2.407-5.452 6.33-.775 12.598a.698.698 0 0 0 .773.243.688.688 0 0 0 .477-.653c0-5.725 2.108-8.732 6.269-8.937 5.023-.255 8.175 2.707 8.97 5.59v.185c0 .22.105.426.284.555.256.184.488.401.672.63.094.117.226.2.376.236 2.877.703 5.27 2.349 7.11 4.89a.697.697 0 0 0 1.24-.245c.423-1.81-1.108-9.504-5.002-14.371z" filter="url(#o)" transform="translate(50.713 -7.904)"/>
                    <path fill="url(#p)" d="M28.072 29.654a.69.69 0 0 0-.83.117l-2.385-2.367c.023-.14.037-.28.075-.42a.689.689 0 0 0-.5-.838.695.695 0 0 0-.841.495c-.34 1.31-.21 2.557-.096 3.658.074.7.141 1.36.079 1.94a.686.686 0 0 0 .561.748c.126.024.258.035.392.035 1.302 0 2.986-1.048 3.796-2.427a.685.685 0 0 0-.25-.94z" filter="url(#q)" transform="translate(50.713 -7.904)"/>
                    <path fill="url(#r)" d="M33.243 28.003c-.067-.23-.24-.581-.596-1.29-.442-.882-1.617-3.224-1.507-3.765.386-.953.005-2.002-.331-2.928-.172-.471-.386-1.06-.33-1.295a.688.688 0 0 0-.111-.56c-2.54-3.505-5.701-4.883-7.906-5.42-2.813-.688-4.995-.3-5.007-.294-1.338.094-2.835.543-4.57 1.371-3.24 1.524-7.232 5.63-10.146 8.63C1.726 23.494.851 24.394.25 24.93a.683.683 0 0 0-.093.92.697.697 0 0 0 .912.181c.568-.335 1.705.64 2.904 1.675 1.722 1.485 3.865 3.318 6.467 3.235 1.927-.064 3.638.718 5.02 1.357.937.432 1.726.798 2.406.798.233 0 .453-.043.663-.14.424-.198.715-.585.866-1.154.459-1.765.313-2.854.017-5.073-.114-.846-.065-1.399.144-1.642.141-.166.434-.265.912-.31.824 1.044 2.051 1.98 3.5 2.663.919.43 1.854 1.24 2.759 2.026 1.307 1.134 2.597 2.223 3.793 2.164.834-.026 1.547-.403 2.066-1.09.613-.82.818-1.925.658-2.537z" filter="url(#s)" transform="translate(50.713 -7.904)"/>
                    <path fill="url(#t)" d="M27.909 19.895c-.35-.346-1.19-.56-1.834-.676a.682.682 0 0 0-.614.19.686.686 0 0 0-.193.609c.118.639.332 1.474.682 1.82.27.268.625.401.98.401.354 0 .709-.134.979-.401.54-.535.54-1.408 0-1.943z" filter="url(#u)" transform="translate(50.713 -7.904)"/>
                    <path fill="url(#v)" d="M18.72 14.437c-1.444-.573-.981-1.949-2.771-3.437 1.674.171 6.003.687 6.927 3.437H18.72z" transform="translate(50.713 -7.904)"/>
                    <path fill="#FFF" d="M73.587 7.22a.694.694 0 0 1-.658-.47c-.44-1.317-1.973-2.228-4.559-2.717.169.282.297.548.414.792.291.608.44.884.904 1.068a.685.685 0 0 1 .385.894.694.694 0 0 1-.9.383c-.987-.391-1.32-1.084-1.641-1.754-.273-.57-.556-1.16-1.318-1.794a.688.688 0 0 1 .517-1.211c1.588.163 6.424.658 7.513 3.903a.689.689 0 0 1-.657.906zM75.239 25.116a2.14 2.14 0 0 1-.392-.034.686.686 0 0 1-.561-.748c.062-.58-.006-1.24-.08-1.94-.113-1.1-.243-2.349.096-3.66a.696.696 0 0 1 .843-.494.687.687 0 0 1 .498.837c-.277 1.073-.167 2.142-.06 3.176.05.487.099.955.109 1.417.697-.203 1.639-.808 2.146-1.672a.697.697 0 0 1 .947-.248c.33.191.442.612.25.94-.81 1.38-2.494 2.426-3.796 2.426z"/>
                    <path fill="#FFF" d="M81.16 23.72c-1.23 0-2.447-1.055-3.73-2.17-.904-.781-1.838-1.591-2.754-2.023-2.395-1.129-5.02-3.44-4.541-6.237a.701.701 0 0 1 .8-.562c.376.063.63.418.566.793-.35 2.04 1.812 3.84 3.77 4.763 1.089.513 2.096 1.386 3.07 2.23 1.05.91 2.134 1.87 2.845 1.83.405-.014.73-.187.995-.532.384-.5.482-1.174.438-1.35-.04-.128-.3-.65-.51-1.069-1.319-2.632-1.887-4.033-1.54-4.87.19-.463-.096-1.25-.35-1.942-.271-.744-.528-1.447-.375-2.082.276-1.156-.94-8.438-4.717-13.177-2.036-2.555-4.417-3.85-7.077-3.85-3.367 0-8.199.337-11.3 3.249-2.34 2.199-4.1 4.82-1.75 9.04.552-5.075 3.158-7.952 7.475-8.164 5.837-.274 9.505 3.27 10.403 6.701.01.04.017.08.02.12.656.54 1.11 1.177 1.353 1.897a.693.693 0 1 1-1.315.435c-.184-.55-.555-1.02-1.134-1.439a.682.682 0 0 1-.286-.555V4.56c-.798-2.881-3.91-5.83-8.972-5.59-4.159.203-6.267 3.212-6.267 8.937a.69.69 0 0 1-.475.653.697.697 0 0 1-.775-.243c-4.625-6.18-2.02-9.977.768-12.595 3.46-3.249 8.649-3.625 12.252-3.625 3.106 0 5.854 1.471 8.166 4.372 3.889 4.881 5.405 12.55 4.977 14.349-.055.235.158.823.332 1.296.337.927.721 1.977.328 2.93-.107.535 1.06 2.863 1.499 3.739.364.726.541 1.086.607 1.32.162.588-.035 1.687-.645 2.506-.519.7-1.24 1.083-2.08 1.111h-.071z"/>
                    <path fill="#FFF" d="M68.572 25.185c-.68 0-1.471-.365-2.409-.798-1.381-.638-3.09-1.44-5.016-1.357-2.633.094-4.744-1.747-6.465-3.232-1.2-1.037-2.338-2.015-2.906-1.676a.698.698 0 0 1-.912-.183.684.684 0 0 1 .094-.919c.598-.533 1.468-1.43 2.473-2.466 2.918-3.005 6.914-7.118 10.162-8.644 1.758-.825 3.252-1.27 4.57-1.367a.7.7 0 0 1 .675.389c.26.536.417.788.85.961a.685.685 0 0 1 .385.894.694.694 0 0 1-.9.382c-.728-.289-1.11-.764-1.36-1.206-1.042.144-2.233.536-3.627 1.191-3.019 1.417-7.072 5.592-9.756 8.355-.494.51-.957.986-1.375 1.407.821.366 1.665 1.094 2.536 1.847 1.617 1.395 3.451 2.979 5.502 2.895 2.258-.087 4.217.821 5.655 1.484.629.29 1.68.782 1.9.658 0 0 .059-.047.114-.256.39-1.482.277-2.337.001-4.408l-.019-.141c-.17-1.295-.029-2.13.464-2.707.575-.674 1.474-.794 2.278-.82.365-.045.703.283.717.663a.691.691 0 0 1-.667.71c-.692.024-1.094.131-1.268.336-.21.245-.26.796-.147 1.64l.018.14c.284 2.125.427 3.193-.034 4.935-.149.565-.44.953-.865 1.151a1.552 1.552 0 0 1-.668.142zM77.642 14.337c-.354 0-.709-.135-.979-.402-.35-.346-.564-1.18-.682-1.82a.68.68 0 0 1 .193-.61.683.683 0 0 1 .614-.19c.644.118 1.483.33 1.834.677.54.537.54 1.408 0 1.944-.27.266-.625.4-.98.4zm.021-1.356l.008.015.462.454-.47-.469z"/>
                    <g>
                        <path fill="url(#w)" d="M22.542 4.18c-.445 0-.82-.208-.938-.493a.57.57 0 0 1-.06-.238c0-.38.438-.688.978-.688.445 0 .82.208.938.493a.56.56 0 0 1 .059.236c.002.381-.437.69-.977.69z" filter="url(#x)" transform="translate(106.963 17.37)"/>
                        <path fill="url(#y)" d="M23.501.006c-.395 0-.753.168-.904.425-.151.258-.067.554.211.751 1.752 1.233 2.743 2.04 3.248 2.51-.623.048-1.459.047-2.063-.127-.431-.122-.513-.272-.539-.32-.184-.337-.703-.517-1.19-.414-.49.102-.785.45-.682.802.933 3.124 4.19 4.65 9.952 4.65.264 0 .533-.003.809-.01.528-.013.945-.317.945-.69.003-4.68-1.636-7.577-9.787-7.577z" filter="url(#z)" transform="translate(106.963 17.37)"/>
                        <path fill="url(#A)" d="M11.024 2.815c-.488-.1-1.012.088-1.187.425-.025.05-.105.204-.532.327-.605.175-1.435.176-2.068.126.505-.47 1.498-1.278 3.25-2.512.28-.197.364-.492.214-.75-.151-.257-.51-.425-.905-.425-8.15 0-9.79 2.898-9.79 7.576 0 .372.42.677.947.69.276.006.544.009.81.009 5.776 0 9.036-1.53 9.952-4.665.102-.354-.198-.702-.691-.801z" filter="url(#B)" transform="translate(106.963 17.37)"/>
                        <path fill="url(#C)" d="M20.827 9.368c.466-.536.716-1.152.716-1.79 0-.983-.613-1.926-1.683-2.584a1.303 1.303 0 0 0-1.289 0 3.65 3.65 0 0 1-1.923.518c-.892 0-1.536-.283-1.92-.518a1.306 1.306 0 0 0-1.288 0c-1.073.658-1.686 1.6-1.686 2.584 0 .64.25 1.255.717 1.79-1.798 1.198-2.675 3.328-2.675 6.476 0 5.44 2.69 8.954 6.852 8.954 4.163 0 6.853-3.514 6.853-8.954 0-3.148-.877-5.278-2.674-6.476z" filter="url(#D)" transform="translate(106.963 17.37)"/>
                        <path fill="#FFF" d="M123.612 42.168c-4.162 0-6.852-3.514-6.852-8.955 0-3.147.877-5.277 2.674-6.476-.466-.536-.717-1.152-.717-1.79 0-.983.613-1.925 1.684-2.584.368-.226.922-.227 1.288 0 .386.236 1.03.518 1.923.518s1.537-.282 1.92-.518a1.303 1.303 0 0 1 1.29 0c1.07.66 1.683 1.602 1.683 2.585 0 .639-.25 1.255-.717 1.79 1.798 1.198 2.675 3.328 2.675 6.475.002 5.439-2.689 8.955-6.851 8.955zm-2.426-18.372c-.333.337-.51.733-.51 1.152 0 .534.293 1.042.825 1.43.204.15.302.354.27.559-.035.205-.197.388-.444.5-1.732.781-2.61 2.725-2.61 5.776 0 4.461 2.013 7.577 4.895 7.577 2.882 0 4.895-3.116 4.895-7.577 0-3.051-.877-4.994-2.61-5.776-.247-.112-.41-.295-.445-.5-.033-.205.065-.41.27-.558.533-.39.827-.898.827-1.431 0-.418-.178-.813-.511-1.152-1.48.602-3.371.602-4.852 0z"/>
                        <path fill="#FFF" d="M129.486 32.524c-.54 0-.98-.308-.98-.688 0-.38.44-.69.98-.69 2.895 0 8.145-1.885 8.753-5.5-5.635-.041-8.816-1.58-9.713-4.695-.102-.355.204-.707.703-.802.507-.099 1.018.098 1.183.441.043.09.146.222.528.336.611.18 1.457.184 2.082.137-.53-.495-1.57-1.335-3.249-2.516-.28-.197-.364-.493-.211-.75.153-.258.509-.426.905-.426 8.15 0 9.789 2.898 9.789 7.575v.006c-.006 4.69-6.275 7.572-10.77 7.572zm1.97-10.099c1.235 1.24 3.443 1.827 6.828 1.843-.11-3.256-1.114-4.978-5.358-5.41 3.087 2.343 2.656 2.705 2.206 3.086-.556.469-2.42.593-3.677.481zM117.738 32.524c-4.495 0-10.764-2.882-10.768-7.574v-.005c0-4.677 1.639-7.576 9.79-7.576.395 0 .753.168.904.426.15.258.067.554-.211.75-1.68 1.183-2.718 2.022-3.25 2.516.624.049 1.47.046 2.08-.136.38-.114.485-.247.53-.336.166-.343.679-.542 1.182-.44.5.095.805.447.703.802-.897 3.114-4.078 4.654-9.713 4.695.609 3.614 5.858 5.5 8.753 5.5.541 0 .98.31.98.69 0 .38-.439.688-.98.688zm-3.44-13.667c-4.244.433-5.248 2.155-5.358 5.411 3.385-.016 5.593-.603 6.829-1.843-1.257.11-3.12-.012-3.677-.48-.45-.382-.881-.744 2.207-3.088zM135.36 36.657c-.36 0-.704-.139-.876-.38-.284-.398-2.42-.997-4.998-.997-.54 0-.98-.309-.98-.69 0-.38.44-.688.98-.688 2.21 0 5.832.468 6.749 1.758.24.34.044.753-.44.924-.138.049-.289.073-.436.073zM134.38 39.413c-.358 0-.703-.14-.875-.38-.354-.497-1.733-.998-4.02-.998-.54 0-.978-.309-.978-.689 0-.38.438-.689.979-.689 2.829 0 4.986.657 5.77 1.758.24.34.045.754-.439.924a1.35 1.35 0 0 1-.437.074zM133.401 42.168c-.358 0-.703-.14-.875-.38-.284-.399-2.42-.998-4.998-.998-.54 0-.98-.308-.98-.689 0-.38.44-.688.98-.688 2.21 0 5.832.468 6.748 1.757.241.34.046.754-.438.925-.14.048-.29.073-.437.073zM111.865 36.657c-.147 0-.298-.023-.439-.073-.483-.17-.677-.584-.436-.925.916-1.29 4.538-1.757 6.748-1.757.541 0 .98.309.98.689 0 .38-.439.689-.98.689-2.576 0-4.714.6-4.998.997-.172.241-.517.38-.875.38zM112.844 39.413c-.147 0-.298-.024-.439-.074-.483-.17-.677-.584-.436-.925.783-1.1 2.94-1.758 5.77-1.758.54 0 .978.309.978.689 0 .38-.438.689-.979.689-2.286 0-3.665.501-4.02.997-.171.242-.516.382-.874.382zM113.823 42.168a1.33 1.33 0 0 1-.439-.073c-.484-.171-.677-.584-.436-.926.918-1.29 4.538-1.758 6.748-1.758.54 0 .98.309.98.689 0 .38-.44.689-.98.689-2.576 0-4.714.6-4.998.997-.172.243-.517.382-.875.382zM121.997 50.442c-.133 0-.272-.003-.413-.011-2.773-.144-3.984-1.127-4.503-1.549-.355-.286-.353-.752.053-1.003.407-.25.979-.254 1.339.03.534.435 1.286 1.045 3.252 1.147 1.558.077 2.208-.446 2.9-2.249.741-1.93.183-3.514-1.706-4.843-.382-.269-.382-.705 0-.974s1.002-.269 1.384 0c2.395 1.685 3.139 3.762 2.21 6.177-.442 1.159-1.255 3.275-4.516 3.275z"/>
                        <path fill="#FFF" d="M116.76 49.056c-1.62 0-2.937-.927-2.937-2.067 0-.5.39-1.415.834-2.397.008-.205.082-.424.243-.658.225-.327.873-.588 1.337-.453.756.212.673.638.442 1.183.092.214.558.47 1.308.832.877.424 1.71.827 1.71 1.493 0 1.14-1.318 2.067-2.937 2.067zm-.745-2.866c-.133.345-.234.65-.234.8 0 .38.44.688.979.688.493 0 .904-.259.969-.594-.163-.12-.57-.315-.854-.451-.258-.127-.564-.273-.86-.443z"/>
                    </g>
                    <g>
                        <path fill="url(#E)" d="M32.879 8.297a.704.704 0 0 0-.79.149c-1.012 1.047-1.773 1.888-2.356 2.533-.537.595-1.046 1.16-1.296 1.35-.455-.229-1.614-1.062-2.335-1.579a52.508 52.508 0 0 0-1.456-1.023c-.075-.05-.163-.05-.247-.066 1.336-.663 2.523-1.64 3.266-3.2a.689.689 0 0 0 .055-.417c-.448-2.452-5.822-5.453-11.657-4.602l-.076-.152C15.383.092 13.74-.173 12.385.096 11.02.369 10.03 1.567 10.038 3.05l.166 1.081c-3.442 2.816-5.734 7.28-6.006 11.73-.05.16-.436.631-.747 1.01C2.296 18.274.365 20.624.03 24.125a.687.687 0 0 0 .692.753.696.696 0 0 0 .5-.212c1.013-1.047 1.773-1.889 2.356-2.534.538-.595 1.047-1.16 1.297-1.35.455.23 1.614 1.063 2.335 1.58.542.389 1.063.762 1.456 1.023.075.05.162.05.247.067-1.337.663-2.524 1.64-3.266 3.199a.689.689 0 0 0-.056.417c.449 2.451 5.82 5.452 11.657 4.603l.077.152c.463.92 1.539 1.29 2.629 1.29.329 0 .66-.033.974-.096 1.365-.271 2.354-1.47 2.346-2.955l-.166-1.081c3.442-2.816 5.734-7.28 6.006-11.73.05-.16.436-.632.747-1.01 1.154-1.403 3.085-3.753 3.421-7.254a.688.688 0 0 0-.402-.691zM9.684 22.53c-.157-.346-.435-.807-.787-1.393-.762-1.264-2.037-3.383-1.933-4.456.096-.98 1.917-2.886 6.497-4.344a2.054 2.054 0 0 0 1.999 1.522h.78c.99 0 1.849-.698 2.041-1.66l.209-1.037.375-.065c1.472-.209 3.213-.458 4.806-1.092-.091.182-.131.384-.044.579.157.345.434.807.787 1.392.762 1.265 2.036 3.384 1.932 4.457-.096.98-1.917 2.886-6.496 4.344a2.054 2.054 0 0 0-1.999-1.522h-.78c-.99 0-1.849.698-2.042 1.66l-.208 1.037-.375.064c-1.473.21-3.213.459-4.807 1.093.093-.18.132-.384.045-.579z" filter="url(#F)" transform="translate(107.12 89.93)"/>
                        <path fill="#FFF" d="M124.002 118.862a.691.691 0 0 1-.684-.58.69.69 0 0 1 .576-.79c2.391-.378 4.786-2.23 6.406-4.952a.7.7 0 0 1 .95-.242c.33.194.44.616.245.943-1.827 3.071-4.587 5.168-7.382 5.611a.623.623 0 0 1-.111.01z"/>
                        <path fill="#FFF" d="M127.072 123.044c-1.09 0-2.165-.37-2.629-1.29l-.076-.152c-5.837.847-11.209-2.152-11.657-4.602a.678.678 0 0 1 .055-.418c1.731-3.633 5.816-4.211 8.8-4.634l.374-.065.208-1.036a2.084 2.084 0 0 1 2.042-1.661h.78c.658 0 1.26.297 1.654.818.16.212.277.452.345.704 4.578-1.458 6.4-3.364 6.496-4.343.104-1.075-1.17-3.192-1.932-4.457-.351-.586-.63-1.047-.787-1.393a.686.686 0 0 1 .185-.807.7.7 0 0 1 .834-.048c.394.26.913.633 1.456 1.023.72.517 1.88 1.35 2.335 1.579.248-.19.76-.755 1.296-1.35a92.703 92.703 0 0 1 2.356-2.534.702.702 0 0 1 .79-.148c.268.122.43.4.4.691-.335 3.5-2.266 5.85-3.42 7.255-.312.377-.698.848-.747 1.008-.271 4.451-2.563 8.915-6.007 11.73l.167 1.082c.008 1.483-.983 2.682-2.346 2.955-.311.06-.643.093-.972.093zm-2.318-2.906c.26 0 .501.144.62.38l.313.62c.247.49 1.273.62 2.089.459a1.537 1.537 0 0 0 1.238-1.5l-.22-1.37a.686.686 0 0 1 .26-.647c3.317-2.561 5.539-6.778 5.8-11.003-.002-.495.394-.976 1.05-1.775.803-.975 1.898-2.309 2.567-4.116l-.583.643c-1.259 1.395-1.725 1.922-2.418 1.84-.355-.04-.835-.308-1.913-1.059.739 1.323 1.402 2.778 1.294 3.885-.158 1.623-2.443 4.114-8.36 5.796a.699.699 0 0 1-.683-.175.683.683 0 0 1-.175-.678.68.68 0 0 0-.115-.607.669.669 0 0 0-.545-.268h-.78a.693.693 0 0 0-.68.553l-.301 1.497a.691.691 0 0 1-.56.543l-.256.045a26.89 26.89 0 0 1-.62.108c-3.378.48-6.28 1.087-7.638 3.638.602 1.516 5.026 4.092 10.197 3.268l.29-.065a.657.657 0 0 1 .13-.012zM116.655 100.771a.688.688 0 0 1-.597-1.04c1.827-3.07 4.586-5.167 7.382-5.61a.69.69 0 1 1 .219 1.36c-2.392.38-4.786 2.23-6.406 4.953a.696.696 0 0 1-.598.337z"/>
                        <path fill="#FFF" d="M107.842 114.81a.688.688 0 0 1-.691-.753c.335-3.5 2.266-5.85 3.421-7.255.311-.377.697-.848.747-1.008.27-4.451 2.562-8.915 6.006-11.73l-.166-1.082c-.009-1.485.981-2.683 2.345-2.956 1.358-.269 2.999-.004 3.602 1.194l.077.152c5.834-.851 11.209 2.152 11.657 4.602a.678.678 0 0 1-.055.418c-1.732 3.633-5.817 4.211-8.8 4.634l-.374.065-.209 1.036a2.084 2.084 0 0 1-2.041 1.661h-.78c-.659 0-1.26-.297-1.654-.818a2.052 2.052 0 0 1-.346-.704c-4.579 1.459-6.401 3.365-6.496 4.345-.104 1.075 1.17 3.192 1.932 4.456.352.586.63 1.048.788 1.393a.685.685 0 0 1-.185.808.699.699 0 0 1-.834.048c-.395-.26-.914-.634-1.457-1.024-.72-.516-1.879-1.35-2.334-1.578-.249.19-.76.754-1.297 1.35a93.627 93.627 0 0 1-2.355 2.533.698.698 0 0 1-.501.214zm12.615-23.499c-.23 0-.463.022-.68.066a1.535 1.535 0 0 0-1.239 1.5l.22 1.37a.686.686 0 0 1-.26.647c-3.316 2.561-5.538 6.778-5.8 11.003.002.495-.394.976-1.05 1.775-.803.975-1.898 2.309-2.567 4.116.213-.233.406-.448.583-.643 1.26-1.395 1.724-1.915 2.418-1.84.356.04.836.308 1.913 1.059-.738-1.323-1.402-2.778-1.294-3.885.159-1.623 2.443-4.114 8.36-5.796a.703.703 0 0 1 .684.175.683.683 0 0 1 .175.678.68.68 0 0 0 .115.607c.075.1.247.268.544.268h.78c.33 0 .616-.233.68-.553l.302-1.497a.691.691 0 0 1 .559-.543l.257-.045c.202-.038.405-.073.619-.108 3.378-.48 6.28-1.087 7.638-3.638-.602-1.516-5.025-4.093-10.197-3.268l-.29.065a.692.692 0 0 1-.752-.368l-.312-.62c-.18-.36-.779-.525-1.406-.525z"/>
                    </g>
                    <g>
                        <path fill="url(#G)" d="M24.212 19.029l-2.237-1.811c.348-.366.552-.84.552-1.345 0-1.141-1.01-2.07-2.249-2.07-.657 0-1.25.262-1.66.696l-2.346-1.9a.798.798 0 0 0-.99 0l-2.343 1.897a2.27 2.27 0 0 0-1.657-.693c-1.24 0-2.25.929-2.25 2.07 0 .502.203.975.55 1.34l-2.24 1.813c-.765.605-1.225 1.45-1.298 2.376-.072.926.254 1.819.91 2.509l8.252 8.968c.142.154.35.244.57.244a.77.77 0 0 0 .572-.244l8.244-8.96c.662-.698.99-1.591.917-2.517-.073-.925-.534-1.767-1.297-2.373z" filter="url(#H)" transform="translate(58.336 188.67)"/>
                        <path fill="url(#I)" d="M10.791 3.338c-.383-.097-.778.093-.907.437-.03.079-.12.318-.596.496-.675.252-1.62.216-2.22.13.438-.572 1.43-1.646 3.154-3.221a.65.65 0 0 0 .165-.752A.754.754 0 0 0 9.692 0C5.467 0 2.34 1.16.887 3.267.092 4.421-.548 6.4.918 9.266c.077.15.208.27.372.337 1.236.506 2.397.76 3.476.76.93 0 1.799-.189 2.6-.567 1.944-.916 3.35-2.925 3.96-5.655.08-.355-.154-.707-.535-.803z" filter="url(#J)" transform="translate(58.336 188.67)"/>
                        <path fill="url(#K)" d="M30.673 3.267C29.22 1.161 26.093 0 21.867 0a.75.75 0 0 0-.692.428.65.65 0 0 0 .164.752c1.723 1.575 2.714 2.649 3.154 3.22-.6.087-1.543.123-2.22-.13-.476-.177-.566-.416-.596-.495-.13-.344-.526-.531-.907-.437-.382.096-.616.448-.537.803.61 2.729 2.017 4.737 3.961 5.655.803.378 1.67.567 2.6.567 1.078 0 2.24-.254 3.476-.762a.724.724 0 0 0 .372-.337c1.466-2.865.826-4.843.031-5.997z" filter="url(#L)" transform="translate(58.336 188.67)"/>
                        <path fill="#FFF" d="M65.12 210.065a.777.777 0 0 1-.555-.226l-6.1-6.178c-1.044-1.058-1.27-2.622-.565-3.893l1.194-2.146c-1.264-2.701-.642-4.577.124-5.688 1.453-2.104 4.58-3.264 8.805-3.264a.75.75 0 0 1 .69.427.65.65 0 0 1-.161.752c-1.717 1.58-2.707 2.653-3.149 3.225.6.087 1.538.123 2.216-.13.476-.178.564-.417.594-.494.128-.344.522-.541.906-.442.38.095.616.447.538.803-.601 2.726-2.003 4.735-3.948 5.655-1.568.742-3.393.758-5.43.054l-1.043 1.877c-.424.764-.288 1.701.338 2.336l6.1 6.18a.652.652 0 0 1-.05.974.788.788 0 0 1-.504.178zm-4.632-12.952c1.763.674 3.286.717 4.534.125 1.063-.502 1.95-1.502 2.557-2.843a6.878 6.878 0 0 1-.203.038c-1.064.18-3.015.076-3.53-.491-.35-.388-.746-.823 2.304-3.8-2.705.276-4.722 1.165-5.665 2.531-.815 1.182-.812 2.713.003 4.44zM69.618 213.516a.768.768 0 0 1-.618-.298l-1.144-1.527c-.74-.796-.639-2.092.268-2.832l1.755-1.387a.794.794 0 0 1 1.057.073c.27.29.234.724-.081.973l-1.745 1.38a.653.653 0 0 0-.065.954l1.19 1.582c.235.314.15.744-.193.96a.773.773 0 0 1-.424.122zM74.116 221.798h-.007a.753.753 0 0 1-.693-.427.65.65 0 0 1 .162-.752.827.827 0 0 1 .565-.203.78.78 0 0 1 .544.246.653.653 0 0 1 .105.737.753.753 0 0 1-.676.399zM74.11 202.475a.789.789 0 0 1-.478-.159.659.659 0 0 1-.227-.767.747.747 0 0 1 .704-.456h.007c.303 0 .577.169.693.427a.65.65 0 0 1-.162.752.798.798 0 0 1-.537.203z"/>
                        <path fill="#FFF" d="M74.113 221.794a.77.77 0 0 1-.571-.245l-8.251-8.967a3.246 3.246 0 0 1-.91-2.51c.072-.926.532-1.77 1.298-2.375l2.239-1.813a1.95 1.95 0 0 1-.55-1.34c0-1.142 1.01-2.07 2.25-2.07.655 0 1.248.26 1.655.692l2.344-1.897a.798.798 0 0 1 .99 0l2.346 1.9a2.277 2.277 0 0 1 1.661-.696c1.24 0 2.25.93 2.25 2.07 0 .505-.205.978-.553 1.345l2.237 1.811c.764.605 1.224 1.448 1.296 2.373.072.926-.253 1.82-.918 2.518l-8.243 8.96a.766.766 0 0 1-.57.244zm-4.495-17.94c-.414 0-.75.309-.75.69 0 .287.197.537.503.638a.71.71 0 0 1 .484.52.66.66 0 0 1-.242.647l-2.95 2.39c-.467.37-.744.875-.786 1.431a1.958 1.958 0 0 0 .55 1.512l7.686 8.354 7.678-8.346a1.96 1.96 0 0 0 .558-1.52 2 2 0 0 0-.78-1.424c-.001-.003-.004-.005-.006-.007l-2.949-2.388a.66.66 0 0 1-.241-.65.712.712 0 0 1 .486-.52c.307-.099.505-.35.505-.637 0-.381-.336-.69-.75-.69-.34 0-.63.229-.705.556a.717.717 0 0 1-.497.513.795.795 0 0 1-.732-.136l-2.569-2.08-2.56 2.074a.812.812 0 0 1-.73.138.716.716 0 0 1-.498-.51.718.718 0 0 0-.705-.555z"/>
                        <path fill="#FFF" d="M59.122 220.418c-.414 0-.75-.31-.75-.69 0-2.651 1.365-4.438 2.51-5.472 1.456-1.316 3.4-2.137 5.002-2.12.414.008.744.321.735.704-.007.38-.298.651-.764.676-.973.022-2.576.508-3.924 1.725-.939.848-2.059 2.316-2.059 4.486 0 .381-.336.69-.75.69z"/>
                        <path fill="#FFF" d="M63.62 221.798a.788.788 0 0 1-.53-.202c-1.987-1.829-1.905-3.32-1.486-4.253.979-2.172 4.567-3.137 5.765-3.137.414 0 .75.31.75.69 0 .381-.336.69-.75.69-.996 0-3.75.888-4.378 2.285-.356.788.036 1.713 1.16 2.748a.652.652 0 0 1 0 .976.782.782 0 0 1-.53.203z"/>
                        <path fill="#FFF" d="M68.119 221.798a.788.788 0 0 1-.531-.202c-1.93-1.776-1.904-3.18-1.542-4.044.512-1.222 1.945-1.927 2.785-1.964.387-.051.764.273.785.654.021.38-.298.705-.712.723-.238.013-1.162.372-1.46 1.083-.366.873.453 1.88 1.202 2.57a.652.652 0 0 1 0 .977.77.77 0 0 1-.527.203zM83.112 210.065a.782.782 0 0 1-.503-.18.653.653 0 0 1-.052-.974l6.101-6.18c.627-.633.764-1.572.34-2.334l-1.043-1.877c-2.039.704-3.864.688-5.43-.054-1.945-.92-3.347-2.93-3.948-5.657-.078-.356.157-.707.538-.804.38-.1.778.098.906.442.03.079.118.316.593.494.676.254 1.617.218 2.216.13-.44-.571-1.431-1.644-3.148-3.224a.649.649 0 0 1-.162-.753.749.749 0 0 1 .69-.424c4.225 0 7.351 1.16 8.802 3.264.767 1.11 1.389 2.987.125 5.688l1.193 2.148c.706 1.27.48 2.835-.564 3.892l-6.099 6.178a.781.781 0 0 1-.555.225zm-2.459-15.67c.606 1.341 1.494 2.34 2.557 2.843 1.249.59 2.772.548 4.534-.125.816-1.727.819-3.258.003-4.44-.943-1.367-2.961-2.256-5.665-2.531 3.049 2.976 2.654 3.41 2.302 3.8-.513.567-2.465.67-3.528.491a4.302 4.302 0 0 1-.203-.038zM89.11 220.418c-.414 0-.75-.31-.75-.69 0-2.17-1.12-3.64-2.06-4.487-1.347-1.217-2.964-1.699-3.924-1.725h-.015c-.408 0-.742-.301-.75-.676-.007-.381.321-.696.735-.704 1.6-.009 3.546.804 5.004 2.12 1.145 1.034 2.51 2.821 2.51 5.471 0 .381-.336.69-.75.69z"/>
                        <path fill="#FFF" d="M84.612 221.798a.788.788 0 0 1-.531-.202.653.653 0 0 1 0-.976c1.124-1.035 1.516-1.96 1.16-2.748-.628-1.398-3.384-2.284-4.378-2.284-.413 0-.75-.31-.75-.69 0-.381.337-.69.75-.69 1.198 0 4.786.964 5.764 3.135.418.932.5 2.424-1.486 4.253a.782.782 0 0 1-.53.202z"/>
                        <path fill="#FFF" d="M80.113 221.798a.788.788 0 0 1-.53-.202.653.653 0 0 1 0-.976c.75-.691 1.568-1.697 1.202-2.571-.298-.712-1.22-1.07-1.46-1.082-.414-.02-.732-.343-.712-.724a.715.715 0 0 1 .785-.654c.84.037 2.274.743 2.785 1.964.361.864.388 2.268-1.542 4.045a.781.781 0 0 1-.528.2z"/>
                    </g>
                    <g>
                        <path fill="url(#M)" d="M10.707 15.174c-3.28-4.595-5.45-7.97-5.715-12.806a.77.77 0 0 0-.446-.67.683.683 0 0 0-.758.138c-.32.307-.57.627-.761.977-1.992 2.446-1.803 5.748-1.56 6.823.072.311-.438 1.234-.713 1.729C.35 12.097 0 12.729 0 13.322c0 .483.275.89.624 1.405.343.508.77 1.14.828 1.763.233 2.633.569 3.781 1.282 4.388.726.616 1.636.486 2.787.317l.538-.076c.617 1.853.82 5.42-.056 6.355a.812.812 0 0 0-.157.844c.11.29.375.478.668.478h4.342c.356 0 .66-.277.715-.655.883-6.03 1.045-10.304-.864-12.967z" filter="url(#N)" transform="translate(-28.875 184.347)"/>
                        <path fill="url(#O)" d="M15.922 7.868c-.01-.21-.272-5.167-3.284-6.838-3.206-1.783-7.022-.995-8.856.797a.837.837 0 0 0-.234.631c.31 5.67 3.207 9.729 6.01 13.656 1.59 2.22 1.383 6.318.583 11.789a.814.814 0 0 0 .165.622c.138.172.339.27.55.27h4.342c.4 0 .724-.346.724-.773V7.906v-.038z" filter="url(#P)" transform="translate(-28.875 184.347)"/>
                        <path fill="url(#Q)" d="M22.585 15.174c3.28-4.595 5.45-7.97 5.714-12.806a.774.774 0 0 1 .446-.67.68.68 0 0 1 .758.138c.322.307.572.627.762.977 1.992 2.446 1.802 5.748 1.559 6.823-.071.311.439 1.234.713 1.729.406.733.755 1.366.755 1.959 0 .483-.275.89-.624 1.405-.343.507-.77 1.139-.828 1.762-.233 2.634-.569 3.782-1.283 4.388-.725.616-1.635.486-2.786.318l-.538-.076c-.617 1.852-.82 5.419.056 6.355a.812.812 0 0 1 .156.843.722.722 0 0 1-.667.477h-4.342c-.357 0-.66-.277-.715-.655-.883-6.03-1.045-10.304.864-12.967z" filter="url(#R)" transform="translate(-28.875 184.347)"/>
                        <path fill="url(#S)" d="M17.37 7.868c.01-.21.272-5.167 3.284-6.838 3.206-1.783 7.022-.995 8.854.797.16.158.248.4.234.631-.31 5.67-3.207 9.729-6.01 13.656-1.59 2.22-1.383 6.318-.583 11.789a.815.815 0 0 1-.165.622.701.701 0 0 1-.548.27h-4.343c-.4 0-.723-.346-.723-.773V7.906v-.038z" filter="url(#T)" transform="translate(-28.875 184.347)"/>
                        <path fill="#FFF" d="M-2.097 213.136a.706.706 0 0 1-.579-.31c-1.303-1.856-.854-6.798-.074-8.534a.715.715 0 0 1 .725-.435c.412.045.782.097 1.116.147.841.122 1.446.206 1.69.003.434-.368.632-2.072.744-3.322.09-1.037.668-1.891 1.09-2.513.14-.206.331-.49.361-.591-.024-.108-.346-.694-.56-1.08-.53-.966-1.082-1.964-.877-2.885.18-.807.331-3.554-1.284-5.496a.81.81 0 0 1 .061-1.092.688.688 0 0 1 1.022.065c2.034 2.446 1.853 5.798 1.61 6.882-.069.315.442 1.243.717 1.741.403.732.752 1.363.752 1.948 0 .488-.277.898-.629 1.416-.341.506-.767 1.134-.822 1.752-.234 2.633-.57 3.782-1.285 4.387-.725.614-1.634.482-2.782.317l-.523-.073c-.516 1.76-.663 5.338.106 6.437a.809.809 0 0 1-.145 1.083.692.692 0 0 1-.434.153z"/>
                        <path fill="#FFF" d="M.798 196.115H-.65c-.399 0-.723-.346-.723-.773 0-.427.324-.774.723-.774H.798c.4 0 .724.347.724.774 0 .427-.324.773-.724.773zM-10.782 213.136c-.4 0-.723-.346-.723-.773v-20.116c.01-.248.269-5.207 3.285-6.877 3.732-2.064 8.327-.671 9.65 1.857.196.373.07.843-.279 1.053-.349.207-.789.074-.984-.3-.9-1.72-4.538-2.998-7.72-1.237-1.895 1.05-2.45 4.354-2.503 5.541v20.079c-.002.428-.326.773-.726.773z"/>
                        <path fill="#FFF" d="M-6.44 213.136c-.35 0-.658-.272-.714-.653-.886-6.019-1.051-10.286.864-12.968 3.113-4.36 5.188-7.551 5.645-11.994.043-.424.39-.735.799-.684.396.047.684.43.64.854-.536 5.203-3.28 9.046-5.935 12.765-1.596 2.236-1.388 6.33-.583 11.79.06.42-.209.818-.604.884a1.371 1.371 0 0 1-.111.006zM-22.361 213.136a.703.703 0 0 1-.513-.226.812.812 0 0 1 0-1.094c.876-.936.672-4.504.057-6.355l-.54.076c-1.148.166-2.057.297-2.782-.317-.715-.606-1.051-1.755-1.286-4.387-.055-.617-.48-1.247-.822-1.751-.352-.519-.628-.929-.628-1.416 0-.585.348-1.218.751-1.948.275-.499.786-1.427.717-1.741-.242-1.088-.424-4.44 1.61-6.886a.69.69 0 0 1 1.021-.065c.3.283.326.774.061 1.093-1.615 1.942-1.465 4.688-1.284 5.496.206.92-.346 1.919-.877 2.884-.213.387-.536.972-.55 1.17.023.014.213.295.353.503.421.622.999 1.476 1.09 2.513.111 1.25.31 2.954.744 3.322.243.203.848.118 1.69-.003.334-.048.704-.102 1.115-.147a.731.731 0 0 1 .721.424c.785 1.679 1.566 6.811-.136 8.63a.698.698 0 0 1-.512.225z"/>
                        <path fill="#FFF" d="M-23.809 196.115h-1.447c-.4 0-.724-.346-.724-.773 0-.427.324-.774.724-.774h1.447c.4 0 .724.347.724.774 0 .427-.324.773-.724.773zM-13.677 213.136c-.399 0-.723-.346-.723-.773v-20.116c-.002-.005-.23-4.243-2.505-5.503-3.184-1.76-6.82-.482-7.719 1.238-.197.373-.637.505-.984.299-.349-.209-.475-.68-.28-1.052 1.324-2.53 5.92-3.923 9.65-1.857 3.017 1.67 3.276 6.629 3.287 6.838v20.153c-.002.428-.326.773-.726.773z"/>
                        <path fill="#FFF" d="M-18.019 213.136a.69.69 0 0 1-.113-.009c-.395-.066-.664-.463-.603-.885.804-5.46 1.011-9.553-.584-11.79-2.653-3.716-5.398-7.56-5.934-12.763-.042-.423.244-.805.64-.853.4-.048.755.26.8.684.457 4.442 2.533 7.633 5.645 11.993 1.913 2.68 1.748 6.95.864 12.969-.056.384-.363.654-.715.654z"/>
                    </g>
                    <g>
                        <path fill="url(#U)" d="M30.065 5.896C21.03-3.196 12.082.209 9.1 3.312c-1.652.15-3.806.78-4.718 3.848a.93.93 0 0 0 .079.72c.121.212.322.35.542.372.254.025.604.034 1.027.042h.065c.366.485 1.046.788 1.867.788.818 0 1.485-.288 1.854-.762 1.588-.001 3.266-.023 4.558-.038l.832-.01a.646.646 0 0 0 .391-.14c2.874-1.45 9.707-4.302 13.518-.927.288.256.696.227.956-.07l.028-.033a.895.895 0 0 0 .212-.612.885.885 0 0 0-.245-.594z" filter="url(#V)" transform="translate(27.255 238.665)"/>
                        <path fill="url(#W)" d="M29.7 7.427a.712.712 0 0 1-.52-.234c-.295-.23-.406-.668-.241-1.04.18-.41.627-.582 1-.38.075.04.232.176.29.242a.89.89 0 0 1 0 1.17.711.711 0 0 1-.528.242zm-.104-.692l-.015.022.164-.158-.15.136z" filter="url(#X)" transform="translate(27.255 238.665)"/>
                        <path fill="url(#Y)" d="M30 5.896c-4.476-3.967-12.049-.78-15.097.774-.26.133-.428.447-.428.773 0 .457.324.828.723.828.24 0 .458-.002.646-.003.038.34.284.661.573.77.204.077.407.156.641.262 3.117 1.241 6.06 2.413 6.1 9.717.023 3.716-1.893 5.253-4.11 7.036-1.73 1.39-3.52 2.827-4.382 5.407a.93.93 0 0 0 .063.738c.122.22.329.363.556.383l5.645.496.055.001a.626.626 0 0 0 .226-.04C25.388 31.47 33.289 25.83 33.289 15.7c.003-4.603-1.106-7.902-3.289-9.804z" filter="url(#Z)" transform="translate(27.255 238.665)"/>
                        <path fill="url(#aa)" d="M17.566 7.751c-.231-.106-.461-.193-.778-.314a.632.632 0 0 0-.58.06.823.823 0 0 0-.353.53c-.234 1.108-1.1 1.882-2.104 1.882h-.724c-.4 0-.724.371-.724.828 0 .245-.011.475-.043.827 0 .227.09.432.23.583.893 1.688 1.197 3.1.928 4.311-.48 2.158-2.772 3.646-5.197 5.22-3.175 2.061-6.774 4.398-6.774 8.92 0 .431.291.792.668.825l13.172 1.159a.702.702 0 0 0 .056.002c.298 0 .569-.21.676-.532.705-2.107 2.24-3.34 3.862-4.644 2.227-1.79 4.753-3.82 4.726-8.4-.048-8.475-3.943-10.026-7.04-11.257z" filter="url(#ab)" transform="translate(27.255 238.665)"/>
                        <path fill="url(#ac)" d="M17.15 6.834a.676.676 0 0 0-.523-.235c-.004 0-.562.017-1.436.017l-.834.01c-1.4.016-3.26.04-4.963.04-.358 0-.606.15-.662.552-.056.066-.328.209-.771.209-.384 0-.641-.113-.74-.186-.086-.339-.357-.584-.677-.592l-.49-.012c-.381-.007-.695-.011-.949-.036-1.644-.104-3.176.43-4.096 1.427C.349 8.742 0 9.679 0 10.737a.97.97 0 0 0 .033.25s.338 1.223.549 2.284c.054.268.22.488.444.587.223.1.478.066.675-.092.333-.264 1.012-.547 1.918-.547 1.473 0 2.17.664 2.17.828 0 .164-.697.827-2.17.827-1 0-1.701-.316-2.021-.61a.651.651 0 0 0-.669-.146.784.784 0 0 0-.479.553c-.352 1.34-.25 2.808.316 4.62.104.333.38.549.681.549.04 0 .083-.004.125-.012.346-.07.6-.414.6-.816 0-.726 1.454-.827 1.447-.827h3.618c3.276 0 6.054-2.802 6.465-6.533l.008-.088h.041c1.676 0 3.12-1.294 3.51-3.143a4.64 4.64 0 0 0 .109-.994.892.892 0 0 0-.22-.593z" filter="url(#ad)" transform="translate(27.255 238.665)"/>
                        <path fill="#FFF" d="M28.703 258.508c-.301 0-.576-.215-.68-.55-.567-1.808-.666-3.326-.306-4.637a.78.78 0 0 1 .483-.546.658.658 0 0 1 .666.156c.3.281 1.005.612 2.008.612 1.401 0 2.171-.62 2.171-.828 0-.206-.77-.827-2.171-.827-.774 0-1.494.202-1.925.538a.648.648 0 0 1-.672.088.806.806 0 0 1-.443-.585c-.212-1.056-.544-2.269-.545-2.277a.937.937 0 0 1-.034-.247c0-1.059.35-1.997 1.015-2.714.924-.996 2.445-1.537 4.093-1.422.32.022.827.035 1.432.045.324.005.6.253.686.6.097.072.352.181.735.181.438 0 .707-.144.763-.21.054-.404.306-.554.663-.556 3.35-.003 7.249-.061 7.25-.061.208-.013.381.083.517.238.138.157.216.37.216.59 0 2.28-1.624 4.137-3.619 4.137h-.04c-.362 3.719-3.127 6.62-6.473 6.62h-3.62c.008 0-1.446.103-1.446.828 0 .402-.254.746-.601.816a.628.628 0 0 1-.123.011zm.25-3.67c-.006.29.01.592.052.915.588-.386 1.312-.536 1.849-.553h3.639c2.793 0 5.066-2.599 5.066-5.793 0-.457.324-.827.723-.827h.724c.94 0 1.743-.687 2.044-1.644a596.75 596.75 0 0 1-5.99.048c-.373.472-1.043.766-1.844.766-.82 0-1.5-.303-1.865-.79-.445-.007-.815-.02-1.072-.039-1.215-.076-2.384.293-3.015.973-.353.383-.537.84-.56 1.397.061.225.188.715.322 1.273a5.14 5.14 0 0 1 1.848-.331c2.063 0 3.619 1.067 3.619 2.482 0 1.416-1.556 2.483-3.62 2.483a5.096 5.096 0 0 1-1.92-.36z"/>
                        <path fill="#FFF" d="M32.322 246.923a.613.613 0 0 1-.234-.045c-.377-.145-.581-.615-.451-1.05.915-3.073 3.067-3.7 4.717-3.849 3-3.121 12-6.528 21.055 2.67.3.304.325.827.06 1.168-.267.341-.723.371-1.021.07-9.348-9.495-17.704-4.308-19.272-2.516a.68.68 0 0 1-.472.24c-2.084.134-3.155.93-3.698 2.75-.103.347-.383.562-.684.562z"/>
                        <path fill="#FFF" d="M48.243 271.749c-.304 0-.587-.22-.687-.57-.124-.433.082-.901.462-1.044 3.833-1.443 11.081-6.595 11.081-15.764 0-4.32-1.04-7.284-3.091-8.807-3.94-2.924-10.586-.075-13.26 1.288-.364.19-.792 0-.956-.42-.162-.416.002-.904.366-1.091 2.89-1.473 10.102-4.532 14.637-1.164 2.49 1.847 3.75 5.278 3.75 10.195 0 10.116-7.9 15.765-12.077 17.337a.624.624 0 0 1-.225.04zM29.427 270.094c-.4 0-.724-.371-.724-.828 0-4.523 3.598-6.86 6.774-8.922 2.426-1.576 4.717-3.064 5.196-5.222.277-1.246-.052-2.703-1.004-4.452-.212-.387-.109-.897.231-1.139.339-.242.785-.124.996.265 1.173 2.151 1.558 4.029 1.178 5.735-.63 2.841-3.301 4.576-5.883 6.253-3.107 2.017-6.04 3.924-6.04 7.482 0 .459-.325.828-.724.828z"/>
                        <path fill="#FFF" d="M42.454 271.749a.667.667 0 0 1-.21-.035c-.382-.132-.6-.592-.484-1.03.773-2.932 2.691-4.471 4.545-5.963 2.216-1.78 4.131-3.318 4.108-7.034-.045-7.323-3.078-8.526-6.293-9.8l-.46-.183c-.378-.15-.577-.622-.444-1.054.132-.434.545-.662.922-.507l.458.18c3.381 1.34 7.214 2.86 7.266 11.353.028 4.583-2.497 6.612-4.724 8.401-1.73 1.389-3.363 2.701-3.992 5.084-.093.358-.381.588-.692.588z"/>
                    </g>
                    <g>
                        <path fill="url(#ae)" d="M32.891 5.847a.676.676 0 0 0-.873.18c-1.407 1.807-7.579-.168-11.267-1.348a158.26 158.26 0 0 0-1.646-.52c.19-.393.291-.829.291-1.28 0-1.587-1.243-2.878-2.77-2.878-1.528 0-2.771 1.29-2.771 2.879 0 .45.101.886.292 1.28-.501.152-1.057.33-1.647.519C8.812 5.859 2.64 7.834 1.233 6.026a.675.675 0 0 0-.873-.179.73.73 0 0 0-.322.863C.89 9.305 2.296 11.9 6.302 11.51c1.447-.14 2.931-.718 4.242-1.228.933-.362 2.345-.912 2.653-.699.677 2.11 1.492 16.66.79 18.06-.311.444-1.21.815-2.465 1.02-1.056.17-1.823 1.097-1.823 2.21 0 1.23.962 2.232 2.147 2.232h9.56c1.182 0 2.146-1 2.146-2.238 0-1.107-.767-2.034-1.821-2.204-1.257-.205-2.157-.575-2.454-.996-.716-1.422.098-15.972.782-18.11.306-.183 1.713.364 2.65.728 1.309.51 2.794 1.086 4.242 1.228 4.002.379 5.41-2.208 6.263-4.803a.734.734 0 0 0-.323-.864z" filter="url(#af)" transform="translate(-4.883 92.994)"/>
                        <path fill="url(#ag)" d="M32.557 21.59h-8.312a.707.707 0 0 0-.693.72c0 2.779 2.175 5.038 4.85 5.038 2.673 0 4.848-2.26 4.848-5.037 0-.398-.31-.72-.693-.72z" filter="url(#ah)" transform="translate(-4.883 92.994)"/>
                        <path fill="url(#ai)" d="M9.006 21.59H.694a.707.707 0 0 0-.693.72c0 2.779 2.175 5.038 4.849 5.038 2.674 0 4.849-2.26 4.849-5.037 0-.398-.31-.72-.693-.72z" filter="url(#aj)" transform="translate(-4.883 92.994)"/>
                        <path fill="#FFF" d="M16.523 126.1h-9.56c-1.184 0-2.147-1-2.147-2.232 0-1.114.767-2.04 1.823-2.212 1.255-.204 2.156-.574 2.465-1.019.702-1.4-.112-15.95-.79-18.06-.308-.212-1.72.338-2.656.702-1.309.51-2.793 1.085-4.24 1.227-4.006.39-5.41-2.207-6.264-4.802a.733.733 0 0 1 .322-.863.674.674 0 0 1 .873.179c1.41 1.808 7.58-.167 11.268-1.347.59-.19 1.145-.366 1.646-.52a2.938 2.938 0 0 1-.29-1.28c0-1.587 1.242-2.878 2.77-2.878s2.77 1.29 2.77 2.878c0 .451-.1.887-.292 1.28.502.152 1.057.33 1.646.52 3.688 1.18 9.86 3.155 11.269 1.348a.676.676 0 0 1 .873-.178.73.73 0 0 1 .321.862c-.852 2.595-2.26 5.181-6.263 4.803-1.448-.143-2.932-.72-4.242-1.228-.937-.362-2.344-.91-2.65-.728-.683 2.137-1.498 16.687-.782 18.11.297.421 1.196.793 2.454.996 1.055.17 1.823 1.096 1.823 2.203 0 1.238-.963 2.238-2.147 2.238zm-8.388-25.012c.283 0 .54.049.77.164.347.171.598.474.725.87.561 1.751 1.835 17.596.596 19.364-.549.783-1.683 1.32-3.373 1.594a.78.78 0 0 0-.652.781c0 .444.343.8.762.8h9.56c.42 0 .762-.356.762-.793 0-.4-.273-.728-.65-.788-1.692-.274-2.827-.81-3.375-1.595-1.24-1.77.033-17.612.596-19.362.129-.399.378-.7.724-.87.873-.435 2.134.058 3.731.679 1.229.477 2.623 1.019 3.886 1.142 2.109.205 3.272-.574 4.072-2.029-2.727.593-7.12-.813-10.81-1.996-1-.321-1.894-.608-2.602-.796a.708.708 0 0 1-.504-.547.737.737 0 0 1 .246-.714c.337-.278.53-.685.53-1.119 0-.793-.621-1.439-1.386-1.439-.765 0-1.385.646-1.385 1.44 0 .433.192.84.527 1.118.205.17.301.446.247.714a.71.71 0 0 1-.504.547c-.708.188-1.602.476-2.602.796-3.692 1.181-8.085 2.587-10.81 1.994.8 1.456 1.95 2.242 4.071 2.03 1.264-.122 2.658-.665 3.886-1.143 1.177-.456 2.171-.842 2.962-.842z"/>
                        <path fill="#FFF" d="M27.675 116.024h-8.312a.69.69 0 0 1-.57-.31.748.748 0 0 1-.079-.662l4.156-11.514c.203-.561 1.093-.561 1.297 0l4.156 11.514c.08.222.05.47-.079.663a.69.69 0 0 1-.57.31zm-7.312-1.44h6.313l-3.157-8.745-3.156 8.746z"/>
                        <path fill="#FFF" d="M23.519 120.342c-2.674 0-4.85-2.26-4.85-5.038 0-.397.311-.72.694-.72.382 0 .692.323.692.72 0 1.984 1.553 3.599 3.464 3.599 1.91 0 3.463-1.615 3.463-3.599 0-.397.31-.72.693-.72.382 0 .693.323.693.72 0 2.778-2.176 5.038-4.85 5.038zM4.123 116.024h-8.312a.69.69 0 0 1-.57-.31.748.748 0 0 1-.078-.662l4.156-11.514c.202-.561 1.093-.561 1.297 0l4.156 11.514c.08.222.05.47-.08.663a.69.69 0 0 1-.569.31zm-7.312-1.44h6.314l-3.158-8.745-3.156 8.746z"/>
                        <path fill="#FFF" d="M-.033 120.342c-2.674 0-4.849-2.26-4.849-5.038 0-.397.31-.72.693-.72.383 0 .693.323.693.72 0 1.984 1.553 3.599 3.463 3.599 1.91 0 3.464-1.615 3.464-3.599 0-.397.31-.72.692-.72.383 0 .693.323.693.72 0 2.778-2.175 5.038-4.849 5.038z"/>
                    </g>
                    <g>
                        <path fill="url(#ak)" d="M34.96 2.31c-1.659-2.296-5.714-3.567-12.116-.252-4.39 2.276-8.205 8.865-10.99 13.676-1.132 1.957-2.203 3.805-2.741 4.269-1.136.98-2.61 1.388-3.496.97-.46-.217-.735-.647-.837-1.32-.069-.45-.419-.7-.798-.771-.39.005-.718.343-.778.796a6.95 6.95 0 0 0 .545 3.685c-.719-.488-1.492-1.211-2.368-2.308-.263-.33-.69-.39-1.013-.149-.324.245-.453.725-.31 1.143 1.859 5.394 6.633 8.181 13.099 8.181 4.384 0 9.547-1.283 15.102-3.906.233-.111.444-.233.655-.354l.318-.18c.395-.212.53-.871.36-1.34a1.575 1.575 0 0 1-.063-.187c-1.03-4.356-4.461-3.77-5.749-3.552-.078.013-.15.027-.206.04-.179-.692-.3-2.337-.363-3.184l-.047-.656c-.088-1.091-.42-1.685-.64-2.077-.175-.314-.185-.344-.164-.52.035-.299.38-.895.657-1.372.479-.826.974-1.682.949-2.552-.024-.706-.02-2.307.402-3.535 1.222.695 2.51 2.975 2.809 4.698l.06.306c.085.434.43.734.795.73.316-.007.593-.233.716-.561.006.086.01.178.01.278 0 .167-.01.388-.02.618-.034.711-.046 1.15.035 1.482.37 3.443 3.627 5.623 5.206 6.238l.482-.744-.342.854c.346.239.793.136 1.036-.242 4.33-6.677 2.01-15.15-.195-18.203z" filter="url(#al)" transform="translate(99.587 228.973)"/>
                        <path fill="#FFF" d="M112.743 259.207c-6.466 0-11.24-2.787-13.098-8.182-.144-.419-.014-.9.31-1.142.323-.244.75-.184 1.013.149.877 1.095 1.649 1.818 2.368 2.308a6.985 6.985 0 0 1-.545-3.686c.06-.452.388-.788.778-.796.379.071.729.322.797.772.103.673.377 1.103.838 1.319.886.419 2.36.011 3.496-.97.538-.463 1.609-2.312 2.741-4.269 2.785-4.812 6.6-11.4 10.99-13.676 6.402-3.315 10.457-2.043 12.116.252 2.205 3.052 4.525 11.525.196 18.205-.243.377-.692.48-1.035.242l.343-.859-.484.748c-1.578-.614-4.835-2.795-5.205-6.238-.083-.332-.069-.77-.035-1.482.01-.229.02-.449.02-.618 0-.1-.005-.191-.01-.278-.124.329-.4.554-.717.562-.366.004-.709-.297-.794-.731l-.06-.306c-.3-1.723-1.587-4.003-2.81-4.698-.421 1.229-.426 2.829-.402 3.535.027.87-.47 1.727-.949 2.553-.276.477-.622 1.072-.657 1.37-.022.178-.013.206.165.521.22.393.553.986.639 2.078l.048.655c.062.847.182 2.493.363 3.184.056-.013.127-.026.206-.04 1.288-.22 4.718-.805 5.748 3.552.018.074.04.13.063.188.17.468.035 1.127-.36 1.34l-.318.18c-.21.122-.421.244-.655.353-5.558 2.622-10.72 3.905-15.104 3.905zm-8.555-4.39c5.143 4.178 14.58 2.747 23.062-1.26.086-.04.166-.083.244-.126-.658-2.237-2.216-2.173-3.897-1.886-.495.085-.82.141-1.123.006-.852-.376-1.04-1.766-1.266-4.848l-.047-.64c-.05-.624-.205-.9-.384-1.22-.219-.39-.52-.927-.41-1.818.089-.728.51-1.457.918-2.162.237-.407.678-1.168.671-1.425-.04-1.255.027-3.607.927-5.24.17-.309.475-.474.783-.42 1.807.305 3.427 2.637 4.224 4.79.144-.067.297-.103.457-.103.926 0 1.598 1.185 1.598 2.817 0 .196-.011.453-.024.718-.014.317-.037.652-.022.85.022.07.033.143.04.217.206 2.387 2.662 4.068 3.9 4.678 3.226-5.668 1.28-12.766-.51-15.246-.987-1.367-4.258-2.857-10.253.252-3.972 2.059-7.789 8.651-10.315 13.015-1.368 2.365-2.358 4.072-3.115 4.727-1.248 1.075-3.151 1.858-4.724 1.325.048.092.101.18.157.268.499.791 1.16 1.307 1.81 1.417.433.073.737.543.68 1.052-.056.51-.482.867-.886.81-.813-.117-1.631-.23-2.495-.548z"/>
                        <path fill="#FFF" d="M106.776 255.368c-.441 0-.8-.421-.8-.94 0-.518.359-.939.8-.939 4.453 0 7.546-1.168 8.946-3.379.267-.417.767-.497 1.118-.191.355.31.429.897.165 1.315-1.738 2.744-5.18 4.134-10.23 4.134z"/>
                    </g>
                    <g>
                        <path fill="url(#am)" d="M20.462 10.377a2.009 2.009 0 0 1-.04-.1c-.14-.365.01-.806.348-.968a.656.656 0 0 1 .895.315l-.58.432-.623.32z" filter="url(#an)" transform="translate(55.095 47.24)"/>
                        <path fill="url(#ao)" d="M31.295 1.833c-.345-.457-.64-.85-.804-1.294-.138-.373-.532-.56-.889-.421-.355.139-.538.554-.412.932 1.534 4.582-.039 6.944-.384 7.183-.823.497-3.46.834-5.204 1.059-.749.095-1.426.183-1.93.271a4.107 4.107 0 0 0-.276-.16.664.664 0 0 0-.795.13.764.764 0 0 0-.145.838c.38.855.653 1.561.882 2.157.652 1.693 1.045 2.715 2.631 3.59.1.055.21.084.321.084 5.818 0 9.023-2.864 9.023-8.064.001-3.617-1.119-5.109-2.018-6.305z" filter="url(#ap)" transform="translate(55.095 47.24)"/>
                        <path fill="url(#aq)" d="M11.918 9.4a4.59 4.59 0 0 0-.276.16c-.504-.088-1.183-.175-1.93-.271-1.744-.223-4.38-.56-5.195-1.053-.354-.243-1.927-2.605-.393-7.187C4.25.67 4.067.256 3.712.116s-.751.049-.889.42c-.163.447-.459.84-.803 1.297C1.12 3.03 0 4.521 0 8.135c0 5.2 3.205 8.064 9.023 8.064.113 0 .224-.03.325-.085 1.58-.885 1.973-1.902 2.624-3.588.23-.595.502-1.302.885-2.157a.762.762 0 0 0-.144-.837.663.663 0 0 0-.795-.132z" filter="url(#ar)" transform="translate(55.095 47.24)"/>
                        <path fill="url(#as)" d="M12.229 10.789a.674.674 0 0 1-.479-.203.766.766 0 0 1-.133-.88.913.913 0 0 1 .16-.24.669.669 0 0 1 .982.027.766.766 0 0 1 .104.86.905.905 0 0 1-.132.21.678.678 0 0 1-.502.226z" filter="url(#at)" transform="translate(55.095 47.24)"/>
                        <path fill="url(#au)" d="M24.984 15.415a.735.735 0 0 0-.37-.599c-1.136-.626-1.368-1.23-1.988-2.842a45.413 45.413 0 0 0-.912-2.23.723.723 0 0 0-.328-.35c-1.092-.554-2.995-.727-4.729.119-1.732-.846-3.634-.673-4.728-.119a.718.718 0 0 0-.327.348c-.396.885-.678 1.616-.917 2.232-.62 1.608-.852 2.21-1.987 2.844a.736.736 0 0 0-.368.597c-.149 2.236.7 4.793 1.52 7.266.555 1.675 1.081 3.257 1.26 4.617.11.83.428 1.518.943 2.04.186.189.46.252.704.165a.72.72 0 0 0 .462-.583c.155-1.085.797-2.3 2.074-2.459.126.007.356.073.578.13.76.193.808.193 1.568 0 .222-.058.454-.123.526-.133 1.33.16 1.97 1.377 2.126 2.462a.72.72 0 0 0 .462.583.667.667 0 0 0 .704-.167c.516-.522.833-1.21.943-2.04.179-1.361.705-2.942 1.26-4.616.825-2.472 1.673-5.03 1.524-7.265z" filter="url(#av)" transform="translate(55.095 47.24)"/>
                        <path fill="url(#aw)" d="M18.122 25c-.235-.024-.517.04-1 .162-.196.05-.383.1-.443.11-.102-.01-.29-.062-.487-.11-.484-.122-.765-.182-1-.161-2.227.264-3.393 2.409-3.393 4.394 0 2.056 2.135 3.665 4.858 3.665s4.858-1.61 4.858-3.665c0-1.985-1.166-4.13-3.393-4.394z" filter="url(#ax)" transform="translate(55.095 47.24)"/>
                        <path fill="url(#ay)" d="M11.624 16.296a.714.714 0 0 0-.426.45c-.242.731-.002 1.62.61 2.268.454.48 1.036.744 1.587.744.193 0 .382-.033.56-.099.2-.073.358-.24.427-.45.242-.731.001-1.62-.61-2.268-.613-.648-1.456-.899-2.148-.645z" filter="url(#az)" transform="translate(55.095 47.24)"/>
                        <path fill="url(#aA)" d="M22.118 16.748a.714.714 0 0 0-.426-.45c-.691-.254-1.534-.002-2.148.644-.613.647-.852 1.537-.61 2.269.07.21.227.376.426.45.179.066.367.098.56.098.552 0 1.133-.264 1.587-.743.612-.649.851-1.539.61-2.268z" filter="url(#aB)" transform="translate(55.095 47.24)"/>
                        <path fill="#FFF" d="M79.386 63.438c-.383 0-.694-.328-.694-.733 0-.405.311-.733.694-.733 3.483 0 7.635-1.145 7.635-6.598 0-1.752-.29-2.902-.69-3.764.111 2.91-.987 4.676-1.74 5.133-.994.603-3.095.908-5.739 1.245-.858.11-1.62.205-2.11.305a.658.658 0 0 1-.568-.15c-.67-.57-2.55-.817-4.088.073a.678.678 0 0 1-.942-.291.755.755 0 0 1 .275-.995c1.885-1.093 4.14-.917 5.354-.132.5-.087 1.172-.172 1.914-.267 1.746-.223 4.386-.559 5.214-1.062.35-.24 1.922-2.593.385-7.184-.126-.377.057-.792.413-.931.356-.14.75.048.888.42.164.445.46.84.804 1.295.898 1.2 2.018 2.69 2.018 6.305 0 5.2-3.205 8.064-9.023 8.064z"/>
                        <path fill="#FFF" d="M79.386 63.438a.659.659 0 0 1-.322-.085c-1.585-.881-1.98-1.906-2.636-3.604-.133-.344-.28-.727-.454-1.152-.15-.371.01-.804.363-.964.351-.163.759.01.912.383.177.435.329.827.465 1.18.624 1.622.859 2.23 1.996 2.861.338.188.47.632.29.99a.688.688 0 0 1-.614.391zM64.117 63.438c-5.817 0-9.022-2.863-9.022-8.064 0-3.616 1.12-5.106 2.021-6.303.343-.456.638-.85.804-1.295.137-.372.533-.562.888-.42.354.139.537.553.41.932-1.536 4.59.037 6.944.39 7.186.824.5 3.463.835 5.209 1.058.741.094 1.413.18 1.914.267 1.215-.786 3.47-.96 5.354.132.336.195.46.64.275.996a.676.676 0 0 1-.943.29c-1.536-.891-3.417-.644-4.088-.073a.665.665 0 0 1-.567.15c-.492-.1-1.252-.196-2.11-.306-2.645-.337-4.745-.643-5.739-1.245-.753-.457-1.851-2.224-1.74-5.133-.4.862-.69 2.012-.69 3.764 0 5.453 4.152 6.598 7.634 6.598.384 0 .694.328.694.733 0 .405-.31.733-.694.733z"/>
                        <path fill="#FFF" d="M64.117 63.438a.689.689 0 0 1-.615-.391c-.179-.36-.048-.802.29-.99 1.138-.632 1.372-1.239 1.997-2.86.136-.354.287-.744.465-1.181.154-.372.562-.544.915-.383.352.16.513.593.362.964-.174.425-.32.806-.454 1.152-.655 1.698-1.051 2.723-2.636 3.604a.664.664 0 0 1-.324.085z"/>
                        <path fill="#FFF" d="M75.872 76.776a.664.664 0 0 1-.227-.04.728.728 0 0 1-.46-.586c-.152-1.082-.789-2.294-2.123-2.451-.072.01-.302.074-.526.13-.76.19-.809.19-1.57 0-.223-.056-.454-.12-.58-.128-1.28.155-1.917 1.369-2.068 2.45a.724.724 0 0 1-.461.587.661.661 0 0 1-.704-.161c-.519-.52-.837-1.205-.948-2.038-.18-1.364-.705-2.946-1.262-4.622-.819-2.472-1.665-5.027-1.52-7.26a.726.726 0 0 1 .74-.682c.383.028.67.378.646.781-.127 1.933.672 4.343 1.445 6.676.552 1.667 1.075 3.246 1.296 4.698.535-.946 1.42-1.733 2.735-1.889.236-.02.516.04 1 .162.196.05.384.1.488.11.06-.01.247-.062.443-.11.483-.122.764-.185.999-.162 1.314.156 2.2.943 2.736 1.889.22-1.452.744-3.03 1.296-4.698.773-2.331 1.572-4.743 1.445-6.676-.026-.403.263-.753.646-.781a.712.712 0 0 1 .74.682c.144 2.233-.701 4.788-1.52 7.26-.556 1.676-1.08 3.258-1.262 4.622-.111.833-.429 1.517-.948 2.038a.674.674 0 0 1-.476.2z"/>
                        <path fill="#FFF" d="M71.752 80.3c-2.723 0-4.858-1.61-4.858-3.666 0-1.985 1.166-4.13 3.392-4.394.236-.02.516.04 1 .161.197.05.384.1.488.11.06-.01.247-.062.443-.11.483-.122.765-.185 1-.161 2.227.264 3.393 2.41 3.393 4.394 0 2.056-2.135 3.665-4.858 3.665zm-1.364-6.6c-1.532.185-2.106 1.856-2.106 2.934 0 1.192 1.59 2.2 3.47 2.2 1.88 0 3.47-1.008 3.47-2.2 0-1.078-.575-2.75-2.16-2.937-.072.01-.302.075-.526.13-.76.191-.809.191-1.57 0-.222-.055-.454-.12-.578-.127z"/>
                        <path fill="#FFF" d="M71.058 76.634c0 .405-.31.733-.694.733-.383 0-.694-.328-.694-.733 0-.405.31-.733.694-.733.383 0 .694.328.694.733zM73.834 76.634c0 .405-.31.733-.694.733-.383 0-.694-.328-.694-.733 0-.405.31-.733.694-.733.383 0 .694.328.694.733zM68.488 66.997c-.55 0-1.132-.264-1.586-.744-.612-.646-.852-1.536-.61-2.268a.715.715 0 0 1 .425-.45c.693-.254 1.534-.002 2.148.645.613.647.852 1.537.61 2.268a.714.714 0 0 1-.426.45c-.179.066-.367.099-.56.099zm.37-.746h.033-.034zM75.015 66.997c-.193 0-.381-.033-.56-.099a.715.715 0 0 1-.427-.45c-.241-.731-.001-1.62.611-2.268.612-.648 1.456-.899 2.147-.645.2.073.357.24.427.45.241.732.001 1.62-.611 2.268-.454.481-1.036.744-1.587.744z"/>
                    </g>
                </g>
            </g>
            <g transform="rotate(-2 3677.462 -2877.4)">
                <mask id="aD" fill="#fff">
                    <use xlink:href="#aC"/>
                </mask>
                <g mask="url(#aD)">
                    <path fill="#D4A181" d="M122.967 52.87c.6-6.467 2.95-12.72 8.147-17.073 14.973-12.541 30.906 10.128 27.532 20.789-3.375 10.66-21.756 27.532-27.8 23.802-2.412-1.487-5.238-6.885-6.815-13.634l-16.237 20.872-15.32-15.865 30.493-18.892z"/>
                    <path fill="#191847" d="M135.345 50.455a4.45 4.45 0 0 0-1.174-2.353c-1.763-1.825-4.805-1.748-6.466-.143-1.73 1.67-2.27 3.785-1.7 5.509-1.825.547-3.319.768-4.194.183-2.473-3.133.938-13.68 6.714-19.258 6.322-6.106 16.691-6.306 25.83 3.159 8.215 8.506 7.855 15.087 4.942 18.222-4.513-2.687-11.046-8.687-19.821-17.905l-.655.633 7.005 8.564-2.653 5.117c-1.875-2.254-4.756-2.377-7.828-1.728z"/>
                    <path fill="#AFB9C5" d="M27.566 129.706L42.07 253.712l9.145 91.014 17.09 4.262 7.888-207.159z"/>
                    <path fill="#C5CFD6" d="M16.997 127.07C6.836 165.845-5.883 218.29-7.57 220.444c-1.125 1.436-28.174 14.25-81.148 38.443l5.068 17.202c60.92-20.811 93.284-33.14 97.092-36.987 5.713-5.77 41.469-63.06 61.263-97.644L16.997 127.07z"/>
                    <path fill="#191847" d="M-107.75 265.63l18.245-7.886 8.384 17.188c-1.974 11.052-1.6 24.041 1.122 38.968l-3.4 1.658-15.17-31.103-3.49-11.47-1.7.83-3.991-8.186zM45.366 361.428l5.687-19.045 18.556 4.626c7.197 8.616 17.388 16.679 30.572 24.189l-.915 3.67-33.577-8.372-11.03-4.7-.457 1.836-8.836-2.204z"/>
                    <g>
                        <path fill="#B28B67" d="M114.563 171.966l6.815 35.73c4.364 6.995 7.413 13.479 9.147 19.452.14 1.699-.327 4.436-3.883.575-3.556-3.862-7.47-7.764-9.212-6.955-1.743.809-.878 4.524-3.585 5.285-1.804.507-2.43-5.563-1.875-18.209L98.9 179.236l15.663-7.27zM17.701 108.51l15.714 11.095c-31.653 24.499-48.539 37.434-50.656 38.807-4.763 3.09-5.667 12.24-6.559 16.873-6.749-1.307-.252-9.419-8.846-10.953-7.844-1.4-15.833.423-19.727-8.576-.48-1.106-.037-3.7 3.256-3.662 8.204.092 20.846-.947 23.456-2.375 3.56-1.948 18.013-15.684 43.362-41.209z"/>
                        <path fill="#191847" d="M108.635 73.95l7.301 3.45c-8.349 35.817-6.536 74.942 5.439 117.375l-39.063 10.8c-5.19-52.116 1.07-97.75 26.323-131.625z"/>
                        <path fill="#DDE3E9" d="M23.015 135.733l58.061 40.655c9.379-42.024 22.047-74.43 38.005-97.22l-15.693-14.866c-29.217 12.431-52.13 36.88-80.373 71.43z"/>
                        <path fill="#2F3676" d="M103.009 64.055l.015-.007 1.144.8a900.535 900.535 0 0 1 6.073 4.63l-4.21 15.02c-9.846 15.014-27.974 46.469-54.387 94.365l-38.06-26.65a280.565 280.565 0 0 0-6.03 9.662l-28.3-19.815c37.57-44.646 78.82-70.655 123.75-78.027l.005.022z"/>
                        <path fill="#000" fill-opacity=".1" d="M43.664 114.605c-12.346 19.938-18.892 35.058-19.638 45.361l-10.64-7.45c9.197-14.125 19.29-26.762 30.278-37.911z"/>
                        <path fill="#FFF" fill-opacity=".2" d="M38.165 135.138l24.857 4.444-6.09 8.697z"/>
                    </g>
                </g>
            </g>
            <g>
                <path fill="#D4A181" d="M295.714 250.6c3.521-1.464 6.627-3.874 8.188-7.552 4.495-10.599-10.896-15.606-16.298-11.853-5.402 3.753-11.748 17.021-8.637 19.769 1.24 1.095 4.742 1.744 8.79 1.455l-8.95 12.76 11.476 5.847 5.431-20.427z"/>
                <path fill="#191847" d="M297.178 228.576c1.639.522 5.798 2.427 6.549 2.81.48.244.944.619 1.453.323.416-.243.642-.896.925-1.28.328-.445.688-.867 1.048-1.287a16.497 16.497 0 0 1 3.501-3.1c2.473-1.616 5.303-2.428 8.255-2.235 3.26.213 6.42 1.491 9.177 3.19 2.951 1.818 5.22 4.253 7.639 6.69 2.305 2.323 5.023 4.16 8.146 5.19 3.147 1.039 6.158.58 9.384.334 3.303-.253 6.695.209 9.557 1.958 2.67 1.633 4.648 4.087 6.166 6.792 1.42 2.531 2.316 5.162 2.08 8.103-.254 3.164-1.717 6.032-4.667 7.44-4.276 2.038-9.488.473-13.413-1.635a24.252 24.252 0 0 1-6.091-4.654c-2.373-2.49-3.993-5.486-5.985-8.262a23.636 23.636 0 0 0-3.149-3.599c-1.142-1.057-2.368-1.9-3.987-1.709-1.713.202-3.285.456-5.019.245-1.663-.203-3.295-.673-4.783-1.446-2.897-1.504-5.301-3.87-7.816-5.916-2.05-1.668-4.263-3.416-6.853-4.137-1.08-.3-2.72-.62-3.593.218 5.405 4.113 3.992 12.67-.442 17.22-2.393 2.457-9.578 3.093-10.914.48-.846-1.655.618-2.516 1.575-3.09 1.831-1.099 3.232-2.995 1.936-5.07-1.117-1.789-3.983-.352-4.014-.37-.425-.261-3.149-4.375-4.176-8.876-2.68-1.171-2.2-3.087-.865-4.173 1.336-1.086 6.111-.876 8.376-.154z"/>
                <path fill="#FF4133" d="M299.514 363.024c-12.873 3.6-23.98 5.401-33.32 5.401-9.341 0-18.017-2.773-26.028-8.318 12.598-3.696 22.973-5.543 31.125-5.543 8.152 0 17.56 2.82 28.223 8.46z"/>
                <path fill="#D4A181" d="M255.049 373.615c.124-.187.229-.39.312-.61 1.72-4.55 29.283-53.644 32.03-62.62h-31.032c-2.088 6.825-11.485 49.65-12.807 58.195-4.173 13.478-12.764 57.127-13.86 60.151-1.154 3.181 5.337 6.495 7.067 2.584 2.753-6.222 9.31-23.44 12.231-33.954 2.738-9.856 4.967-18.723 6.059-23.746z"/>
                <path fill="#D4A181" d="M280.437 379.609c12.601 3.185 58.694 8.943 61.857 9.846 3.254.929 6.107-5.778 2.085-7.231-6.4-2.312-24.033-7.653-34.724-9.833-8.6-1.753-16.447-3.183-21.715-4.021.446-14.799 2.486-50.314 1.149-57.984h-27.457c1.282 7.355 12.122 61.025 14.137 66.398.64 1.917 2.547 2.765 4.668 2.825z"/>
                <path fill="#E4E4E4" d="M344.087 380.438c1.683-.313 2.916-.4 3.7-.262.952.168 2.315.572 4.087 1.212l-5.256 29.808c-2.697.323-4-.368-3.91-2.073.09-1.705.15-3.124.18-4.257l-3.734-14.943a.537.537 0 0 1 .406-.654l2.317-.51c.993-1.418 1.575-2.61 1.745-3.576.139-.784.013-1.924-.377-3.419a1.073 1.073 0 0 1 .842-1.326zM238.729 430.809c.6 1.603.9 2.802.9 3.597 0 .968-.16 2.38-.483 4.237h-30.268c-.786-2.6-.332-4.004 1.362-4.212 1.695-.207 3.103-.394 4.224-.561l14.068-6.272a.537.537 0 0 1 .714.286l.905 2.193c1.568.732 2.843 1.098 3.824 1.098.797 0 1.897-.322 3.302-.965a1.073 1.073 0 0 1 1.452.599z"/>
                <path fill="#C12575" d="M289 310.386c-12.1-3.462-23.548-3.462-34.345 0-3.756 17.139-12.884 23.941-14.489 50.218 18.246 9.066 40.785-6.466 59.567 2.375 5.367-12.366-2.146-42.148-10.733-52.593z"/>
                <g>
                    <path fill="#B28B67" d="M242.504 289.376l-16.801-12.99c-2.484-4.118-5.052-7.417-7.702-9.897-.848-.523-2.398-1.003-1.331 1.865 1.066 2.87 2.06 5.934 1.175 6.626-.885.692-2.59-.74-3.706.465-.743.804 2.252 2.733 8.987 5.79l11.43 14.356 7.948-6.215zm75.71 21.3l-11.198-.543c5.744 22.673 8.856 34.706 9.336 36.1 1.078 3.137-1.79 7.677-3.043 10.132 3.568 1.826 3.496-4.248 7.992-1.862 4.105 2.178 7.12 5.891 12.137 3.148.617-.338 1.345-1.691-.18-2.859-3.801-2.91-9.234-7.936-9.92-9.533-.935-2.178-2.644-13.706-5.125-34.583z"/>
                    <path fill="#EE6DAF" d="M288.496 260.864l-4.31-1.895c-12.178 7.068-21.879 28.926-29.169 30.322-6.892 1.32-14.962-3.633-24.442-9.966l-4.965 6.33c6.909 12.593 24.907 26.265 34.307 23.365 15.029-4.635 25.072-32.072 28.58-48.156z"/>
                    <path fill="#DDE3E9" d="M294.016 322.341l-39.84-9.933c-1.82-.454-.821-2.997-.227-4.258 6.854-14.551 22.824-28.097 28.258-49.889l11.94 1.063c5.694 17.657 4.288 37.298-.13 63.017z"/>
                    <path fill="#EE6DAF" d="M301.854 307.832c4.47 16.675 8.666 28.924 12.591 36.748l8.759.446c2.938-34.701-6.5-63.207-28.315-85.517l-2.074-.517-2.476-.617c-19.085 32.594-27.77 55.316-26.059 68.167l35.862 8.941c1.566-8.7 2.004-18.204 1.712-27.65z"/>
                </g>
            </g>
        </g>
    </g>
</svg>
