<svg xmlns="http://www.w3.org/2000/svg" xmlns:xlink="http://www.w3.org/1999/xlink" width="1434" height="776" viewBox="0 0 1434 776">
    <defs>
        <path id="a" d="M0 0h1440v800H0z"/>
        <linearGradient id="b" x1="2.263%" x2="88.311%" y1="32.664%" y2="60.264%">
            <stop offset="0%" stop-color="#FA71CD"/>
            <stop offset="100%" stop-color="#C471F5"/>
        </linearGradient>
        <filter id="c" width="147.2%" height="178.4%" x="-23.6%" y="-39.2%" filterUnits="objectBoundingBox">
            <feGaussianBlur in="SourceGraphic" stdDeviation="45.5"/>
        </filter>
        <linearGradient id="e" x1=".687%" x2="99.313%" y1="0%" y2="100%">
            <stop offset="0%" stop-color="#139DDB"/>
            <stop offset="100%" stop-color="#2041F7"/>
        </linearGradient>
        <linearGradient id="f" x1="0%" y1="38.319%" y2="61.681%">
            <stop offset="0%" stop-color="#139DDB"/>
            <stop offset="100%" stop-color="#2041F7"/>
        </linearGradient>
        <linearGradient id="g" x1="0%" y1="49.97%" y2="50.03%">
            <stop offset="0%" stop-color="#139DDB"/>
            <stop offset="100%" stop-color="#2041F7"/>
        </linearGradient>
        <linearGradient id="h" x1="45.654%" x2="53.564%" y1="18.087%" y2="0%">
            <stop offset="0%" stop-color="#139DDB"/>
            <stop offset="100%" stop-color="#2041F7"/>
        </linearGradient>
        <linearGradient id="i" x1="4.245%" y1="4.245%" y2="100%">
            <stop offset=".063%" stop-color="#F66F97"/>
            <stop offset="53.429%" stop-color="#FB98A8"/>
            <stop offset="100%" stop-color="#FFB4B4"/>
        </linearGradient>
        <linearGradient id="j" x1="4.184%" y1="4.184%" y2="100%">
            <stop offset=".063%" stop-color="#F66F97"/>
            <stop offset="53.429%" stop-color="#FB98A8"/>
            <stop offset="100%" stop-color="#FFB4B4"/>
        </linearGradient>
        <linearGradient id="k" x1="100%" x2="3.208%" y1="100%" y2="3.208%">
            <stop offset="0%" stop-color="#1FA975"/>
            <stop offset="100%" stop-color="#1BFCCD"/>
        </linearGradient>
        <linearGradient id="l" x1="100%" x2="3.208%" y1="50.296%" y2="49.723%">
            <stop offset="0%" stop-color="#1FA975"/>
            <stop offset="100%" stop-color="#1BFCCD"/>
        </linearGradient>
        <linearGradient id="m" x1="59.07%" x2="34.75%" y1="-71.899%" y2="177.197%">
            <stop offset="0%" stop-color="#1FA975"/>
            <stop offset="100%" stop-color="#1BFCCD"/>
        </linearGradient>
        <linearGradient id="n" x1="19.753%" x2="80.247%" y1="-177.474%" y2="100%">
            <stop offset="0%" stop-color="#1FA975"/>
            <stop offset="100%" stop-color="#1BFCCD"/>
        </linearGradient>
        <linearGradient id="o" x1="-47.459%" x2="346.865%" y1="-128.993%" y2="246.354%">
            <stop offset="0%" stop-color="#1FA975"/>
            <stop offset="100%" stop-color="#1BFCCD"/>
        </linearGradient>
        <linearGradient id="p" x1="7.352%" x2="96.605%" y1="4.245%" y2="100%">
            <stop offset=".063%" stop-color="#F66F97"/>
            <stop offset="53.429%" stop-color="#FB98A8"/>
            <stop offset="100%" stop-color="#FFB4B4"/>
        </linearGradient>
        <linearGradient id="q" x1="98.365%" x2="4.739%" y1="100%" y2="3.208%">
            <stop offset="0%" stop-color="#1FA975"/>
            <stop offset="100%" stop-color="#1BFCCD"/>
        </linearGradient>
        <linearGradient id="r" x1="72.525%" x2="49.219%" y1="50%" y2="-54.785%">
            <stop offset="0%" stop-color="#FA9A70"/>
            <stop offset="100%" stop-color="#FEE140"/>
        </linearGradient>
        <linearGradient id="s" x1="-56.04%" y1="0%" y2="0%">
            <stop offset="0%" stop-color="#FA9A70"/>
            <stop offset="100%" stop-color="#FEE140"/>
        </linearGradient>
        <linearGradient id="t" x1="0%" y1="0%" y2="100%">
            <stop offset="0%" stop-color="#FA9A70"/>
            <stop offset="100%" stop-color="#FEE140"/>
        </linearGradient>
        <linearGradient id="u" x1="24.04%" x2="75.133%" y1="0%" y2="98.408%">
            <stop offset="0%" stop-color="#13A3DB"/>
            <stop offset="100%" stop-color="#06F"/>
        </linearGradient>
        <linearGradient id="v" x1="21.942%" x2="78.058%" y1="0%" y2="100%">
            <stop offset="0%" stop-color="#FA9A70"/>
            <stop offset="100%" stop-color="#FEE140"/>
        </linearGradient>
        <linearGradient id="w" x1="2.263%" x2="88.311%" y1="2.01%" y2="78.412%">
            <stop offset="0%" stop-color="#FA71CD"/>
            <stop offset="100%" stop-color="#C471F5"/>
        </linearGradient>
        <filter id="x" width="150.6%" height="150.6%" x="-25.3%" y="-25.3%" filterUnits="objectBoundingBox">
            <feGaussianBlur in="SourceGraphic" stdDeviation="35"/>
        </filter>
        <linearGradient id="y" x1="0%" x2="102%" y1="0%" y2="101%">
            <stop offset="0%" stop-color="#3023AE"/>
            <stop offset="100%" stop-color="#C86DD7"/>
        </linearGradient>
        <filter id="z" width="297%" height="297%" x="-98.5%" y="-98.5%" filterUnits="objectBoundingBox">
            <feGaussianBlur in="SourceGraphic" stdDeviation="22"/>
        </filter>
    </defs>
    <g fill="none" fill-rule="evenodd" transform="translate(-1 -24)">
        <mask id="d" fill="#fff">
            <use xlink:href="#a"/>
        </mask>
        <ellipse cx="1035.25" cy="312" fill="url(#b)" filter="url(#c)" mask="url(#d)" opacity=".24" rx="289.5" ry="174"/>
        <g mask="url(#d)">
            <g opacity=".3">
                <path fill="#89C5CC" d="M1322.38 318.81c-.448-.327-1.51-.442-2.005-.54-2.056-.405-4.174-.581-6.27-.581-6.462.01-13.029.644-19.384 1.742-4.035.696-8.913 3.042-12.926 1.768-6.993-2.22-14.06-2.11-20.694 1.058-6.065 2.898-10.67 8.4-13.357 14.346-.405.898-2.05 4.201-2.516 6.428-.199.455-.39.914-.562 1.38a69.691 69.691 0 0 0-1.336 4.011c-.174.575-.612 1.844-.092 2.089a38.187 38.187 0 0 0-2.182 4.748c-1.785 4.747-3.737 9.955-4.364 14.986a23.446 23.446 0 0 0-.025 5.605c.106.922.062 2.778.688 3.48 1.327 1.488 2.009-.596 1.86-1.589-1.144-7.565 1.063-14.67 3.679-21.781 1.69-4.599 4.47-8.806 7.583-12.616 2.519-3.084 5.221-5.512 8.675-7.557 4.223-2.5 8.738-4.522 13.211-6.55 2.943-1.334 5.888-2.632 8.913-3.781.672-.256 1.73-.912 2.476-.914 1.577-.006 3.811 1.158 5.335 1.59 5.01 1.425 10.083 3.248 15.261 3.976 3.321.467 6.432-.059 9.538-1.165.318-.113.85-.404 1.502-.818 2.305-.887 4.487-2.004 6.386-3.614 1.094-.928 2.087-2.128 2.993-3.225.27-.328.39-.705.395-1.062.205-.107.341-.233.372-.379.226-1.08-1.835-1.1-3.154-1.036"/>
                <path fill="#DDE3E9" d="M679.9 419.594a94.417 94.417 0 0 0-3.724 3.166c-.925.832-2.56 1.827-2.893 3.088-.345 1.308.744 2.534 1.605 3.326 4.55 4.186 9.674 7.016 15.98 7.487 9.708.725 18.157-1.754 26.58-6.633 5.917-3.426 9.837-8.495 10.693-15.34 7.047 2.929 13.862 6.966 19.654 11.92 2.857 2.445 5.318 5.153 7.595 8.155 1.458 1.923 2.868 3.877 4.177 5.907.57.881 1.148 2.445 2.087 2.952 1.103.597 2.435-.338 2.38-1.564-.045-1.02-1.147-2.204-1.662-3.038a113.522 113.522 0 0 0-2.639-4.109c-1.48-2.18-3.01-4.33-4.677-6.372-3.75-4.586-8.52-8.374-13.465-11.604-9.487-6.198-19.899-10.102-31.443-10.433-7.097-.203-13.069 2.222-19.138 5.843-3.78 2.255-7.68 4.472-11.11 7.249"/>
                <path fill="#C1DEE2" d="M768.508 376.458c-7.397-7.617-14.82-15.14-23.083-21.847-4.87-3.953-10.003-7.547-15.03-11.295.58.508 1.149 1.031 1.704 1.567-1.57-1.065-3.623-1.667-5.287-2.653-1.855-1.1-3.629-2.358-5.369-3.626-3.396-2.474-6.74-4.996-10.232-7.342-3.889-2.613-7.92-5.027-11.875-7.542-3.357-2.134-6.755-4.47-10.347-6.214-1.957-.95-3.919-2.078-5.884-3.07-.658-.331-7.332-4.546-7.316-4.559.37-.278 3.728 1.3 4.247 1.513 1.518.62 2.969 1.36 4.428 2.1-.801-1.58-1.435-3.239-1.78-4.985-.107-.54-.96-4.464-.524-4.793.219-.165 2.348 6.857 2.457 7.532.089.548.076 1.338.255 1.857.29.839.275.586.914 1.058 1.17.866 2.723 1.407 3.99 2.13.683.382 2.797 1.894 4.07 2.325 3.854 1.872 7.76 4.751 11.421 7.142a26.926 26.926 0 0 1-2.225-5.674c-.127-.47-1.495-4.684-1.163-4.934.373-.282 2.98 6.155 3.135 6.765.287 1.131.347 2.391.706 3.493.394 1.209 1.625 1.637 2.734 2.342 4.08 2.592 8.02 5.347 11.894 8.228 4.228-7.519-.647-16.598-4.755-22.906-2.96-4.547-6.947-8.445-11.157-11.848-5.617-4.541-12.044-8.17-18.463-11.488-7.48-3.867-15.564-6.263-23.969-7.37-4.395-.579-8.892-.563-13.333-.377-2.169.09-4.25.378-6.33 1.085-.936.32-1.841.722-2.724 1.172-.67.342-2.292.704-2.677 1.214-3.173 4.13-4.796 8.245-4.549 13.434.235 4.913 1.786 9.828 3.892 14.21 2.345 4.879 5.36 9.307 9.305 13.024 3.009 2.836 6.373 5.304 9.715 7.74 11.887 8.663 26.958 16.197 42.353 14.261 4.984-.626 9.724-2.369 14.154-4.737 1.043-.558 2.08-1.123 3.066-1.782.664-.444 2.44-2.445 3.108-2.518.916-.1 2.89 1.763 3.748 2.33 6.53 4.31 12.89 8.855 19.115 13.583 6.623 5.03 12.922 10.402 19.035 16.027 2.6 2.393 5.184 4.79 7.709 7.263.587.576 2.025 2.694 3.09 2.79.674.06 1.129-.515 1.033-1.138-.168-1.084-2.449-2.707-3.206-3.487"/>
                <path fill="#69A1AC" d="M1314.17 357.63c-2.864-.626-6.028-.578-8.947-.526-15.652.212-31.022 7.623-41.025 19.464-8.516 10.08-10.858 22.613-12.54 35.282-.167 1.257-.238 2.507-.332 3.768-.02.27-.05.512-.083.739-.662.591-1.009 1.28-.617 2.038a84.22 84.22 0 0 0-3.749 9.834c-3.113 9.929-6.28 20.046-4.33 30.487.456-5.746 1.415-11.621 2.562-17.272.066-.325.137-.646.211-.967l.022-.101a37.77 37.77 0 0 1 1.576-5.062l.02-.054c.085-.217.175-.433.264-.65.183-.448.372-.894.572-1.34.068-.15.133-.303.196-.457.934-2.29 1.328-4.87 2.165-7.24a50.974 50.974 0 0 1 .668-1.703 70.15 70.15 0 0 1 1.94-4.26c.377-.282.578-.984.903-1.622.067-.125.591-.963.748-1.446.407-.789.814-1.578 1.224-2.365l-.037.013c.411-.756.824-1.509 1.233-2.259l.271-.495.44-.788a148.628 148.628 0 0 1 4.335-7.232c.539-.848 1.826-2.063 2.073-3.014.009-.036.01-.068.016-.103 3.276-4.6 7.047-8.844 11.57-12.207-.547.591-1.709 2.596-2.016 2.993-.94 1.216-1.96 2.348-2.985 3.493-1.835 2.052-3.626 4.17-5.218 6.408-2.911 4.094-5.423 8.403-7.796 12.798-.023.026-.048.05-.069.076-1.193 1.471-1.944 3.694-2.803 5.377 3.399-1.575 7.157-2.6 10.646-3.998 3.479-1.394 6.863-2.946 10.13-4.768 4.342-2.422 8.847-5.157 12.95-8.251 4.701-2.917 8.652-6.931 12.14-11.144 4.126-4.984 7.908-10.012 10.246-16.064 1.15-2.974 2.053-6.075 2.589-9.212.023-.136.053-.285.086-.439a30.178 30.178 0 0 0 1.45-3.325c.652-1.797 2.195-3.774-.698-4.406"/>
                <path fill="#89C5CC" d="M708.262 374.919c-.898-.972-1.906-1.85-3.09-2.475-.299-.158-2.528-1.217-2.673-.984-.338.54 5.493 3.148 5.763 3.459m10.568-6.493c-.007.041.766 1.353.976 1.756.448.857.861 1.732 1.25 2.607-.575-1.547-1.167-2.981-2.226-4.363m-54.05 10.676c-.744.24-1.639-.705-.673-.938.781-.187.743-.23 1.094-.86.284-.511.46-1.134.71-1.67.53-1.138 1.131-2.223 1.87-3.24 1.582-2.178 3.51-4.056 5.672-5.638 3.773-2.76 8.004-5.284 12.492-6.552 7.136-2.016 15.258-2.14 22.405-.743 4.426.866 8.471 2.37 11.41 5.934 1.47 1.781 2.623 3.868 3.127 6.166.131.6.107 1.268.271 1.856.254.904.142.663 1.2.84 1.154.191 2.307.387 3.46.587 3.02.522 6.058 1.077 9 1.924.968.28 1.915.62 2.84 1.016.7.3 3.487 1.239 3.825 2.148.564 1.512-1.324.827-1.911.497a22.68 22.68 0 0 0-1.577-.805 25.838 25.838 0 0 0-4.19-1.49c-1.551-.416-3.135-.726-4.713-1.036-1.471-.29-2.948-.552-4.427-.804-.821-.14-1.643-.275-2.466-.411-.28-.047-.776-.29-.738.075-1.729-.333-3.598-.285-5.359-.377-2.157-.112-4.321-.204-6.485-.137-1.56.049-3.122.151-4.675.36-.907.123-1.8.303-2.69.53-.49.124-2.417.389-2.684.815.115-.183 2.243-.005 2.513-.016 1.084-.04 2.159-.148 3.238-.268a50.29 50.29 0 0 1 6.016-.324c-.008.353-1.38.981-1.715 1.215a19.36 19.36 0 0 0-2.142 1.723c-1.182 1.105-2.598 2.473-3.416 3.782.241-.385 1.43-.887 1.852-1.182a24.845 24.845 0 0 0 1.965-1.515 24.897 24.897 0 0 0 1.649-1.583c.53-.549 1.251-1.69 1.949-2.056.042-.022.346.218.519.137.174-.083.39-.494.435-.51.65-.251 1.882.06 2.565.092 1.77.081 3.538.188 5.307.285.548.03 1.014-.094 1.22.31.221.431-.183 1.564-.298 2.034-.426 1.744-1.184 3.308-2.376 4.659-2.233 2.53-4.987 4.218-8.098 5.346-11.915 4.323-24.59 6.054-36.502 1.558-4.931-1.862-12.358-5.189-11.468-11.734"/>
                <path fill="#DDE3E9" d="M1344.438 615.723c10.247 63.841-238.261 105.483-452.158 76.422C678.383 663.085 580.257 549.6 682.325 489.13c102.068-60.47 651.866 62.751 662.113 126.593z" opacity=".6"/>
                <g transform="translate(764.539 218.02)">
                    <rect width="133.56" height="253.68" fill="#F2F2F2" rx="6.72"/>
                    <circle cx="66.36" cy="225.12" r="12.6" fill="#FFF"/>
                    <g fill="#FFF" transform="translate(53.76 13.44)">
                        <circle cx="1.68" cy="1.68" r="1.68"/>
                        <rect width="17.64" height="3.36" x="7.56" rx="1.68"/>
                    </g>
                    <g transform="translate(11.76 23.52)">
                        <rect width="110" height="46" fill="#FFF" rx="3.36"/>
                        <g fill="#DDE3E9" transform="translate(32.76 13.8)">
                            <rect width="61.28" height="6.9" rx="2.52"/>
                            <rect width="41.133" height="6.9" y="11.5" rx="2.52"/>
                        </g>
                        <circle cx="17.64" cy="23" r="10.08" fill="#C5CFD6"/>
                    </g>
                    <g transform="translate(11.76 77.52)">
                        <rect width="110" height="35" fill="#FFF" rx="3.36"/>
                        <g fill="#DDE3E9" transform="translate(32.76 10.5)">
                            <rect width="61.28" height="5.25" rx="2.52"/>
                            <rect width="41.133" height="5.25" y="8.75" rx="2.52"/>
                        </g>
                        <circle cx="17.64" cy="17.5" r="10.08" fill="#C5CFD6"/>
                    </g>
                    <g transform="translate(11.76 120.52)">
                        <rect width="110" height="35" fill="#FFF" rx="3.36"/>
                        <g fill="#DDE3E9" transform="translate(32.76 10.5)">
                            <rect width="61.28" height="5.25" rx="2.52"/>
                            <rect width="41.133" height="5.25" y="8.75" rx="2.52"/>
                        </g>
                        <circle cx="17.64" cy="17.5" r="10.08" fill="#AFB9C5"/>
                    </g>
                    <g transform="translate(11.76 163.52)">
                        <rect width="110" height="35" fill="#FFF" rx="3.36"/>
                        <g fill="#DDE3E9" transform="translate(32.76 10.5)">
                            <rect width="61.28" height="5.25" rx="2.52"/>
                            <rect width="41.133" height="5.25" y="8.75" rx="2.52"/>
                        </g>
                        <circle cx="17.64" cy="17.5" r="10.08" fill="#C5CFD6"/>
                    </g>
                </g>
                <g transform="translate(788.978 243.43)">
                    <g fill="#89C5CC">
                        <path d="M10.197 183.12c-1.112 0-2.222.022-3.333.08-.848.044-2.142-.131-2.86.397-.744.548-.693 1.671-.576 2.464.615 4.193 2.116 7.911 5.257 10.882 4.835 4.574 10.379 6.898 16.939 7.933 4.607.727 8.861-.282 12.253-3.56 2.479 4.6 4.359 9.691 5.302 14.829.466 2.535.608 5.04.526 7.62a65.71 65.71 0 0 1-.321 4.95c-.077.714-.442 1.797-.162 2.472.329.794 1.437.87 1.934.194.414-.563.338-1.67.423-2.336a78.18 78.18 0 0 0 .365-3.327c.152-1.8.264-3.605.256-5.412-.02-4.06-.922-8.137-2.157-11.99-2.369-7.395-6.212-13.966-12.19-19.122-3.675-3.17-7.882-4.454-12.654-5.143-2.972-.43-5.991-.931-9.002-.931"/>
                        <path d="M27.36 212.52c-12.011 0-20.1 9.68-23.926 19.741-1.441 3.793-1.78 7.957-2.335 11.94-.178 1.277-.112 3.224-.63 4.363-.19.413-.62.561-.414 1.123.125.341.37.55.738.617.755.14 1.823-.683 2.471-1.008 5.373-2.695 8.903-6.86 11.782-11.958 1.786-3.16 3.597-6.44 4.657-9.908.648-2.119 1.025-4.35 1.246-6.549.088-.865.172-1.752.167-2.622-.005-.865-.407-1.321-.696-2.073 4.007-1.518 8.531-1.931 12.59-.359 3.756 1.454 6.875 4.264 8.621 7.794a14.87 14.87 0 0 1 1.059 2.873c.167.647.175 1.486.484 2.07.75 1.418 2.327.47 2.176-.85-.422-3.68-2.528-7.375-5.219-9.933-3.394-3.228-7.995-5.261-12.771-5.261"/>
                    </g>
                    <rect width="133.56" height="253.68" x="40.32" fill="#DDE3E9" rx="6.72"/>
                    <circle cx="106.68" cy="225.12" r="12.6" fill="#FFF"/>
                    <g fill="#FFF" transform="translate(94.08 13.44)">
                        <circle cx="1.68" cy="1.68" r="1.68"/>
                        <rect width="17.64" height="3.36" x="7.56" rx="1.68"/>
                    </g>
                    <g transform="translate(52.08 23.52)">
                        <rect width="110" height="46" fill="#FFF" rx="3.36"/>
                        <g fill="#DDE3E9" transform="translate(7.56 13.8)">
                            <rect width="61.28" height="6.9" rx="2.52"/>
                            <rect width="41.133" height="6.9" y="11.5" rx="2.52"/>
                        </g>
                        <g transform="translate(92.364 17.12)">
                            <circle cx="5.88" cy="5.88" r="5.88" fill="#DDE3E9"/>
                            <circle cx="5.88" cy="5.88" r="2.52" fill="#F2F2F2"/>
                        </g>
                    </g>
                    <g transform="translate(52.08 77.52)">
                        <rect width="110" height="35" fill="#FFF" rx="3.36"/>
                        <g fill="#DDE3E9" transform="translate(32.76 10.5)">
                            <rect width="61.28" height="5.25" rx="2.52"/>
                            <rect width="41.133" height="5.25" y="8.75" rx="2.52"/>
                        </g>
                        <circle cx="17.64" cy="17.5" r="10.08" fill="#C5CFD6"/>
                    </g>
                    <g transform="translate(52.08 120.52)">
                        <rect width="110" height="35" fill="#FFF" rx="3.36"/>
                        <g transform="translate(7.56 10.5)">
                            <rect width="61.28" height="5.25" fill="#DDE3E9" rx="2.52"/>
                            <rect width="41.133" height="5.25" y="8.75" fill="#AFB9C5" rx="2.52"/>
                        </g>
                        <g transform="translate(92.364 11.62)">
                            <circle cx="5.88" cy="5.88" r="5.88" fill="#DDE3E9"/>
                            <circle cx="5.88" cy="5.88" r="2.52" fill="#F2F2F2"/>
                        </g>
                    </g>
                    <g transform="translate(52.08 163.52)">
                        <rect width="110" height="35" fill="#FFF" rx="3.36"/>
                        <g fill="#DDE3E9" transform="translate(32.76 10.5)">
                            <rect width="61.28" height="5.25" rx="2.52"/>
                            <rect width="41.133" height="5.25" y="8.75" rx="2.52"/>
                        </g>
                        <circle cx="17.64" cy="17.5" r="10.08" fill="#C5CFD6"/>
                    </g>
                </g>
                <g transform="translate(924.235 270.883)">
                    <rect width="281.4" height="290.64" fill="#F2F2F2" rx="6.72"/>
                    <rect width="58.8" height="68.04" x="209.16" y="36.12" fill="#FFF" rx="6.72"/>
                    <g fill="#DDE3E9" transform="translate(217.56 48.72)">
                        <circle cx="21" cy="13.44" r="13.44"/>
                        <rect width="42" height="5.04" y="30.24" rx="2.52"/>
                        <rect width="28.56" height="5.04" x="6.72" y="38.64" rx="2.52"/>
                    </g>
                    <path fill="#C5CFD6" d="M6.72 0h267.96a6.72 6.72 0 0 1 6.72 6.72v15.96H0V6.72A6.72 6.72 0 0 1 6.72 0z"/>
                    <g fill="#F2F2F2" transform="translate(7.56 8.4)">
                        <circle cx="3.36" cy="3.36" r="3.36"/>
                        <circle cx="13.44" cy="3.36" r="3.36"/>
                        <circle cx="23.52" cy="3.36" r="3.36"/>
                    </g>
                    <g transform="translate(209.16 110.88)">
                        <rect width="58.8" height="162.96" fill="#FFF" rx="6.72"/>
                        <g transform="translate(15.12 15.12)">
                            <rect width="29" height="22" fill="#DDE3E9" rx="3.36"/>
                            <rect width="29" height="22" y="30" fill="#AFB9C5" rx="3.36"/>
                            <rect width="29" height="22" y="60" fill="#DDE3E9" rx="3.36"/>
                            <rect width="29" height="22" y="120" fill="#DDE3E9" rx="3.36"/>
                            <rect width="29" height="22" y="90" fill="#C5CFD6" rx="3.36"/>
                        </g>
                    </g>
                    <g transform="translate(13.44 36.96)">
                        <rect width="190" height="40" fill="#FFF" rx="3.36"/>
                        <g fill="#DDE3E9" transform="translate(7.56 12)">
                            <rect width="141.28" height="6" rx="2.52"/>
                            <rect width="94.832" height="6" y="10" rx="2.52"/>
                        </g>
                        <g transform="translate(163.815 14.12)">
                            <circle cx="5.88" cy="5.88" r="5.88" fill="#DDE3E9"/>
                            <circle cx="5.88" cy="5.88" r="2.52" fill="#F2F2F2"/>
                        </g>
                    </g>
                    <g transform="translate(13.44 84.96)">
                        <rect width="190" height="32" fill="#FFF" rx="3.36"/>
                        <g fill="#DDE3E9" transform="translate(7.56 9.6)">
                            <rect width="141.28" height="4.8" rx="2.4"/>
                            <rect width="94.832" height="4.8" y="8" rx="2.4"/>
                        </g>
                        <g transform="translate(163.815 10.12)">
                            <circle cx="5.88" cy="5.88" r="5.88" fill="#DDE3E9"/>
                            <circle cx="5.88" cy="5.88" r="2.52" fill="#F2F2F2"/>
                        </g>
                    </g>
                    <g transform="translate(13.44 124.96)">
                        <rect width="190" height="32" fill="#FFF" rx="3.36"/>
                        <g fill="#DDE3E9" transform="translate(7.56 9.6)">
                            <rect width="141.28" height="4.8" rx="2.4"/>
                            <rect width="94.832" height="4.8" y="8" rx="2.4"/>
                        </g>
                        <g transform="translate(163.815 10.12)">
                            <circle cx="5.88" cy="5.88" r="5.88" fill="#DDE3E9"/>
                            <circle cx="5.88" cy="5.88" r="2.52" fill="#AFB9C5"/>
                        </g>
                    </g>
                    <g transform="translate(13.44 244.96)">
                        <rect width="190" height="32" fill="#FFF" rx="3.36"/>
                        <g fill="#DDE3E9" transform="translate(7.56 9.6)">
                            <rect width="141.28" height="4.8" rx="2.4"/>
                            <rect width="94.832" height="4.8" y="8" rx="2.4"/>
                        </g>
                        <g transform="translate(163.815 10.12)">
                            <circle cx="5.88" cy="5.88" r="5.88" fill="#DDE3E9"/>
                            <circle cx="5.88" cy="5.88" r="2.52" fill="#F2F2F2"/>
                        </g>
                    </g>
                    <g transform="translate(13.44 204.96)">
                        <rect width="190" height="32" fill="#FFF" rx="3.36"/>
                        <g fill="#DDE3E9" transform="translate(7.56 9.6)">
                            <rect width="141.28" height="4.8" rx="2.4"/>
                            <rect width="94.832" height="4.8" y="8" rx="2.4"/>
                        </g>
                        <g transform="translate(163.815 10.12)">
                            <circle cx="5.88" cy="5.88" r="5.88" fill="#DDE3E9"/>
                            <circle cx="5.88" cy="5.88" r="2.52" fill="#F2F2F2"/>
                        </g>
                    </g>
                    <g transform="translate(13.44 164.96)">
                        <rect width="190" height="32" fill="#FFF" rx="3.36"/>
                        <g fill="#DDE3E9" transform="translate(7.56 9.6)">
                            <rect width="141.28" height="4.8" rx="2.4"/>
                            <rect width="94.832" height="4.8" y="8" rx="2.4"/>
                        </g>
                        <g transform="translate(163.815 10.12)">
                            <circle cx="5.88" cy="5.88" r="5.88" fill="#DDE3E9"/>
                            <circle cx="5.88" cy="5.88" r="2.52" fill="#F2F2F2"/>
                        </g>
                    </g>
                </g>
                <path fill="#C1DEE2" d="M1316.949 428.278c-3.314-2.246-7.72-2.835-11.684-2.835-15.487 0-30.043 5.746-42.618 14.307-6.89 4.69-13.054 10.664-18.496 16.884-3.141 3.59-5.942 7.475-7.925 11.794-1.338 2.916-2.256 5.954-2.879 9.087-.759 3.819-1.361 7.715-1.634 11.597-.107 1.53-.995 9.641 1.546 9.779-.014.2-.018.39-.002.561-5.52 8.63-8.93 18.744-12.091 28.333-2.752 8.344-5.203 16.759-6.795 25.39a276.688 276.688 0 0 0-4.126 34.43c-.14 2.477-.237 4.956-.32 7.437l-.21 6.348c-.078 2.371-.496 5.101-.119 7.459.328 2.053 2.105 1.742 2.184-.301.095-2.467.08-4.94.187-7.408.144-3.277.292-6.554.452-9.83 1.116-22.757 5.304-45.18 13.033-66.676 3.128-8.7 6.712-16.934 11.318-24.981 4.05-7.076 8.922-13.925 13.901-20.305 4.84-6.2 9.872-12.255 15.802-17.508 4.812-4.262 10.106-7.975 15.547-11.43 6.911-4.389 13.809-8.67 21.295-12.039 3.891-1.75 7.856-3.318 11.778-4.998.706-.302 1.462-.595 2.14-.945 2.265-1.168 1.52-2.926-.284-4.15"/>
                <path fill="#89C5CC" d="M1253.76 510.234c6.281 0 11.87.817 17.657 3.313 4.996 2.154 9.548 5.006 13.968 8.11 6.218 4.368 11.115 9.45 14.543 16.184 2.048 4.023 3.55 9.716 2.175 14.104-1.62 5.168-6.069 9.478-11.928 8.567-3.622-.562-6.944-2.96-9.697-5.217-3.294-2.7-5.93-5.948-8.108-9.554-3.552-5.882-5.639-12.532-8.656-18.678-1.431-2.918-2.815-5.856-4.53-8.628-.848-1.373-1.752-2.733-3.04-3.753-.689-.546-3.594-1.49-2.483-2.716-16.288.213-30.717 12.723-33.844 28.207-.291 1.443-.519 2.898-.76 4.35-.151.917-.09 4.298-.91 4.884-1.807 1.292-1.047-2.633-.97-3.198.2-1.461.415-2.92.64-4.378 1.22-7.924 4.748-15.291 10.631-20.943 6.728-6.462 15.806-10.654 25.312-10.654"/>
                <path fill="#DDE3E9" d="M663.3 526.139c15.679 26.305 33.941 51.775 44.908 80.536-.442-3.39-.91-6.777-1.435-10.158-2.783-17.927-6.241-35.722-9.876-53.496-1.85-9.05-3.808-18.066-5.815-27.082-1.08-4.842-2.147-9.688-3.249-14.525-.267-1.173-.496-3.22-.83-5.294 10.658 34.975 20.936 69.976 28.454 105.792.986 4.7 1.826 9.392 2.514 14.076.236-1.069.467-2.137.72-3.203 3.042-12.774 7.605-25.446 13.039-37.39 2.597-5.712 5.58-11.3 9.093-16.505 2.19-3.245 7.356-7.102 9.354-10.426-10.928 20.044-14.874 45.123-21.184 66.914-1.54 5.317-3.09 10.626-4.608 15.945 9.516-19.084 24.28-34.763 44.806-41.558-24.847 16.418-39.75 45.168-49.793 74.573-.033.349-.073.698-.107 1.047 2.956-5.609 6.678-10.682 11.724-14.235 10.798-7.606 22.777-5.39 33.251 1.134-8.22-5.225-23.078-.467-29.995 4.844-4.952 3.803-9.184 8.903-12.859 13.88-.88 1.193-2.082 2.584-3.351 4.07a183.46 183.46 0 0 1-8.785 34.402c.678-3.267.188-8.49.376-10.926.02-.263.037-.527.057-.79a736.866 736.866 0 0 0-1.807 7.379c1.154-4.625 1.78-9.453 2.27-14.331.126-2.096.25-4.193.38-6.289a203.812 203.812 0 0 0-.483-11.973c-.983-3.888-2.083-7.555-2.99-10.605-3.275-11.004-8.075-21.547-13.983-31.382-5.39-8.976-11.842-17.105-19.291-24.458-4.016-3.962-8.218-7.736-12.361-11.563-1.499-1.383-4.177-4.784-6.493-6.557 16.868 9.3 34.23 19.36 46.534 34.343a373.442 373.442 0 0 0-4.667-16.353c-8.409-27.153-19.026-55.295-33.519-79.836z"/>
                <path fill="#C5CFD6" d="M680.151 675.04c0 30.155 2.388 54.6 34.44 54.6s34.44-24.445 34.44-54.6"/>
                <path fill="#F2F2F2" d="M634.528 473.102c0-9.357 7.561-17.015 16.8-17.015v17.015l-11.481 12.385c-3.266-3.028-5.32-7.47-5.32-12.385z"/>
                <path fill="#AFB9C5" d="M650.883 472.887h16.966c0 4.385-1.79 8.495-4.617 11.48-3.111 3.267-7.54 5.32-12.349 5.32-4.429 0-8.483-1.772-11.594-4.572l11.594-12.228z"/>
                <path fill="#C5CFD6" d="M668.128 472.887c0-9.239-7.562-16.8-16.8-16.8v16.8h16.8zm-25.2-16.8l6.72 15.12-15.12-6.72c1.495-3.92 4.852-6.905 8.4-8.4z"/>
                <g fill="#C5CFD6">
                    <path d="M731.927 226.705l-.012.027c.005-.009.012-.042.012-.027"/>
                    <path d="M731.919 226.717l-.002.009c0-.009.015-.034.002-.009M731.977 226.575c-.012.034-.027.066-.04.1.006-.017.013-.03.02-.048a9.24 9.24 0 0 1 .02-.052"/>
                    <path d="M731.94 226.676l-.02.048c-.05.094.02-.048.02-.048M731.92 226.717v-.002zM731.92 226.718l.001-.004-.001.004M731.912 226.73c-.01.02.047-.077 0 0"/>
                    <path d="M731.919 226.718l.003-.004c-.001.002-.001.004-.003.004"/>
                </g>
            </g>
            <path fill="#191847" d="M918.653 293.89c5.592 13.365 14.136 41.722 10.004 47.03l-30.97 4.353a82.043 82.043 0 0 1-.005-.024l-2.531.356c-9.878 1.388-19.01-5.494-20.398-15.371l-4.502-32.03c-1.388-9.877 5.494-19.01 15.371-20.398l12.29-1.727c9.877-1.388 19.01 5.493 20.398 15.37l.343 2.441z"/>
            <path fill="#E2BA99" d="M885.496 319.404c-5.726-5.038-10.044-11.592-10.593-19.539-1.583-22.896 30.933-22.38 38.73-11.807 7.797 10.572 11.14 39.7 3.43 42.869-3.075 1.264-10.151.22-17.648-2.942l8.622 29.852-25.631 3.603 3.09-42.036z"/>
            <path fill="#191847" d="M891.886 314.6c2.95 12.417 4.496 26.853 1.456 30.759l-30.971 4.353c-5.905-29.498 12.39-20.325 8.455-48.326.898-1.154 1.74-2.29 2.592-3.286l-.15-.819c3.832-11.644 9.87-18.046 18.116-19.204 12.367-1.738 17.072 3.421 21.077 7.8-1.296 8.809-10.765 11.418-18.594 17.896a5.937 5.937 0 0 0-3.884-.782c-3.244.456-5.508 3.434-5.055 6.652.452 3.218 3.448 5.457 6.692 5 .09-.012.179-.026.266-.043z"/>
            <g>
                <ellipse cx="83.087" cy="79.468" fill="#EEA1C9" opacity=".756" rx="83.025" ry="78.744" transform="translate(804.305 474.166)"/>
                <path fill="#E2BA99" d="M1043.589 620.403c-13.783-30.514-23.75-57.085-27.752-71.104-6.85-24.003-12.062-45.125-13.38-53.013-3.14-18.81 24.163-19.905 27.772-10.557 5.463 14.149 14.999 60.635 26.457 130.852l-13.097 3.822zM883.713 524.64c12.646-5 56.932-20.647 78.29-25.074a1156.71 1156.71 0 0 1 17.68-3.522c16.624-3.174 25.237 26.825 9.226 29.13-39.874 5.74-96.402 11.668-101.24 12.333-6.78.933-11.903-9.724-3.956-12.867z"/>
                <path fill="#4E41D7" d="M989.886 487.789l-68.402-34.83v-7.583h8.135c66.176 16.867 99.992 27.677 101.448 32.43.015.05.03.101.043.153.033.043.066.087.098.132 13.115 18.041 20.97 106.122 23.547 112.717l-25.13 3.75c-9.614-35.657-40.37-60.498-39.553-103.204a13.995 13.995 0 0 1-.186-3.565z"/>
                <path fill="#7163FF" d="M927.167 508.475c-6.259-1.253-12.022-2.372-16.954-3.237-31.856-5.59-41.145-22.646-35.653-59.862h58.694c9.588 2.755 59.415 23.656 85.268 34.773 17.11 7.358 11.716 33.883 2.027 40.785-.053.424-.227.711-.538.84-52.124 21.61-93.358 10.271-107.133 13.894l-6.371-20.104 20.66-7.09z"/>
                <path fill="#E4E4E4" d="M888.89 521.283c-3.665.292-6.241.8-7.73 1.527-1.721.84-4.09 2.358-7.108 4.557l26.878 55.106c5.325-.824 7.42-2.869 6.283-6.134a347.047 347.047 0 0 1-2.75-8.177l-1.345-31.32a.84.84 0 0 0-.885-.802l-4.953.27c-2.695-2.22-4.478-4.224-5.35-6.01-.746-1.532-1.156-3.99-1.227-7.378a1.68 1.68 0 0 0-1.813-1.64zM1037.538 613.904c-1.344 3.421-2.016 5.96-2.016 7.616 0 1.916.327 4.711.98 8.386h61.312c1.593-5.147.674-7.926-2.76-8.337-3.432-.41-6.283-.78-8.554-1.112l-28.74-12.52a.84.84 0 0 0-1.109.443l-1.928 4.57c-3.178 1.449-5.76 2.173-7.747 2.173-1.704 0-4.094-.71-7.17-2.13a1.68 1.68 0 0 0-2.268.91z"/>
            </g>
            <g>
                <path fill="#E2BA99" d="M973.009 395.589l41.387-11.638c7.785-5.844 15.106-10.087 21.963-12.732 1.987-.338 5.261-.065 1.083 4.51-4.178 4.573-8.366 9.572-7.23 11.54 1.135 1.969 5.422.574 6.601 3.681.787 2.071-6.3 3.422-21.258 4.051l-32.341 18.276-10.205-17.688zm-131.172 28.314l23.411-3.201c-17.607 60.884-26.77 92.754-27.49 95.61-1.618 6.427 4.916 14.95 7.852 19.61-6.833 4.26-7.74-7.83-16.337-2.295-7.846 5.052-13.243 12.966-23.772 8.394-1.294-.562-2.987-3.125-.133-5.715 7.111-6.453 17.125-17.406 18.223-20.702 1.497-4.495 7.58-35.062 18.246-91.701z"/>
                <path fill="#AFB9C5" d="M895.582 341.275l18.49-1.364c10.204 39.861 38.375 61.986 92.183 45.593l14.64 51.122c-50.503 13.821-98.477-.266-115.494-54.271-4.405-13.98-8.388-28.614-9.819-41.08z"/>
                <path fill="#C5CFD6" d="M885.801 337.262l28.644 2.406c6.656 47.362 26.111 75.442 38.806 109.168l-74.966 10.536c.635 12.181 1.724 24.64 3.172 37.389l-56.132 7.889c3.284-68.927 22.83-124.643 58.641-167.147l1.818-.256.017.015z"/>
                <path fill="#000" fill-opacity=".1" d="M880.616 390.141c2.216 29.785 6.518 52.148 12.905 67.09l-15.236 2.141c-1.258-24.13-.732-47.172 2.331-69.23z"/>
            </g>
            <g>
                <path fill="#B28B67" d="M1176.397 231.615c4.24-6.414 6.72-13.94 5.18-21.843-4.434-22.772-35.84-13.786-40.647-1.428-4.806 12.358-.455 41.674 7.85 42.757 3.313.432 9.905-2.432 16.352-7.476l-.58 31.4 25.802-3.168-13.957-40.242z"/>
                <path fill="#191847" d="M1191.888 200.745c.732-.927 1.042-2.16 1.298-3.326.266-1.21.519-2.432.642-3.674.245-2.48-.09-5.257-2.046-6.92-1.568-1.333-3.726-1.753-5.66-1.664a9.967 9.967 0 0 0-3.752.95c-1.165.548-2.114 1.47-3.23 2.107-.365-2.596-1.145-5.263-2.74-7.322-1.535-1.981-3.71-2.932-6.059-2.965-2.41-.035-4.684.806-6.666 2.213-.496.352-.985.717-1.447 1.12-.387.336-.783.733-1.264.91-.536.197-.849-.088-1.257-.445a9.06 9.06 0 0 0-1.549-1.083c-2.416-1.355-5.407-1.666-7.855-.376-1.128.594-2.185 1.499-2.858 2.648-.6 1.025-.929 2.574-1.836 3.349-.385.328-.726-.003-1.141-.227-.623-.338-1.225-.72-1.854-1.046-.883-.457-1.816-.766-2.788-.868-1.422-.15-3.324.16-3.498 2.017-.065.697.138 1.41.27 2.088.182.932.366 1.863.563 2.791.15.705.312 1.384.533 2.067.117.364.428 1.032.313 1.425-.143.491-1.1.34-1.492.404-.776.128-1.542.36-2.222.782-.527.326-1.068.777-1.225 1.446-.097.41-.009.809.11 1.204.14.475.078.744.077 1.24-1.11-.386-4.88-1.084-5.106.846-.075.642.358 1.305.686 1.798.577.866 1.288 1.635 2.007 2.363 1.501 1.52 3.225 2.777 5.04 3.81-1.842 1.104-2.038 3.718-.164 5.031.828.58 1.848.606 2.782.448.342-.058.822-.251 1.1-.224.15.014.32.118.524.107 1.337-.072 2.795-.575 4.056-1.028 2.246-.807 4.298-2.168 5.88-4.052.406-.483.754-.775 1.372-.845.54-.06 1.09.022 1.63-.03 1.434-.14 2.636-.995 3.905-1.622.301 1.78 1.054 3.687 1.984 5.207.76 1.239 2.03 1.276 3.272 1.24 3.967-.112 7.853-1.007 11.781-1.484-3.696 1.325-7.581 2.161-11.226 3.633-1.647.666-.205 1.652.62 2.357 1.36 1.161 2.45 2.673 3.28 4.305 1.562-2.65 4.653-4.648 7.657-4.262 3.319.427 6.118 4.493 4.444 7.87-.972 1.959-3.044 2.924-4.743 3.923 1.579 1.282 2.181 3.387 3.246 5.092.525.84 1.233 1.777 2.2 1.974.358.073.763.033 1.069.28.378.305.506.683.972.928 1.859.978 4.523.558 5.85-1.18 1.201-1.571.572-3.748-.75-5.03 1.732-.983 4.938-2.369 3.864-5.119 3.923-.747 12.74-8.33 6.856-12.358 2.712-2.002 4.895-6.348 2.589-9.66-1.776-2.549-5.277-3.356-8.044-3.163"/>
                <path fill="#997659" d="M1208.875 361.728l-39.405 135.824-18.534 101.98h-18.602l18.57-237.804z"/>
                <path fill="#B28B67" d="M1226.584 361.728c-2.75 70.56-1.665 109.045-1.05 115.456.616 6.41 4.11 49.345 27.916 124.5H1234.1c-31.527-72.098-42.533-115.033-46.149-124.5-3.616-9.467-14.295-47.953-29.887-115.456h68.52z"/>
                <path fill="#AFB9C5" d="M1209.721 361.728c-10.25 46.737-27.977 121.342-53.183 223.815h-27.209c-2.01-105.178 6.54-174.403 21.344-223.815h59.048z"/>
                <path fill="#C5CFD6" d="M1226.722 361.728c-2.693 70.56 4.285 140.075 25.903 224.913h-29.03c-31.586-71.021-54.224-140.193-69.695-224.913h72.822z"/>
                <path fill="#8A8CA4" d="M1253.53 603.389c1.325 3.47 1.987 6.046 1.987 7.726 0 1.947-.323 4.788-.968 8.523h-60.584c-1.574-5.231-.665-8.055 2.727-8.472 3.392-.418 6.21-.794 8.453-1.13l28.377-12.715a.84.84 0 0 1 1.12.448l1.902 4.637c3.14 1.473 5.692 2.209 7.655 2.209 1.676 0 4.024-.715 7.042-2.145a1.68 1.68 0 0 1 2.29.919zM1151.556 603.389c1.324 3.47 1.987 6.046 1.987 7.726 0 1.947-.323 4.788-.968 8.523h-60.584c-1.574-5.231-.666-8.055 2.726-8.472 3.392-.418 6.21-.794 8.454-1.13l28.376-12.715a.84.84 0 0 1 1.12.448l1.903 4.637c3.14 1.473 5.692 2.209 7.655 2.209 1.676 0 4.023-.715 7.042-2.145a1.68 1.68 0 0 1 2.289.919z"/>
                <g>
                    <path fill="#B28B67" d="M1113.141 353.109l-26.734 33.087c-8.369 4.82-15.096 9.832-20.18 15.039-1.081 1.673-2.105 4.75 3.701 2.716s12.005-3.914 13.363-2.127c1.357 1.787-1.584 5.142.797 7.407 1.588 1.51 5.578-4.402 11.97-17.736l29.284-22.326-12.2-16.06zm135.174-12.394l-22.37 2.835c19.253 42.56 29.597 65.126 31.031 67.699 3.226 5.789-.879 15.712-2.509 20.974 7.702 2.346 5.45-9.567 15.186-6.446 8.887 2.85 16.148 9.097 25.135 1.956 1.105-.878 2.076-3.792-1.351-5.555-8.539-4.393-21.046-12.38-22.96-15.28-2.61-3.954-9.997-26.015-22.162-66.183z"/>
                    <path fill="#69A1AC" d="M1173.272 255.357l-9.455-.439c-11.093 41.472-34.523 80.794-70.289 117.966l34.466 32.498c34.08-50.859 52.743-101.306 45.278-150.025z"/>
                    <path fill="#DDE3E9" d="M1227.82 365.859l-82.468 10.125c13.447-48.43 18.193-88.753 14.238-120.965l24.425-6.732c23.38 28.793 33.618 66.52 43.805 117.572z"/>
                    <path fill="#89C5CC" d="M1184.544 248.24l-.012-.016-1.624.2c-1.935.304-4.88.787-8.834 1.448l-3.919 17.78c1.915 20.855 3.344 63.184 4.284 126.985l54.06-6.638c.392 4.366.697 8.784.916 13.255l40.196-4.936c-14.276-66.555-42.625-115.921-85.05-148.098l-.017.02z"/>
                    <path fill="#000" fill-opacity=".1" d="M1218.096 332.792c1.79 27.298.232 46.459-4.673 57.483l15.113-1.856c-1.733-19.585-5.213-38.128-10.44-55.627z"/>
                    <path fill="#FFF" fill-opacity=".2" d="M1212.473 356.958l-28.166-9.02 1.51 12.293z"/>
                </g>
            </g>
        </g>
        <g mask="url(#d)" opacity=".499">
            <g stroke-width="4.5" transform="translate(942.25 160.5)">
                <ellipse cx="14.063" cy="6.797" stroke="url(#e)" rx="9" ry="9.047"/>
                <path stroke="url(#f)" stroke-linecap="round" d="M0 7.93c0 7.82 6.296 13.593 14.063 13.593 7.766 0 14.062-5.773 14.062-13.593"/>
                <path stroke="url(#g)" stroke-linecap="round" d="M2.813 27.47h23.062"/>
                <path stroke="url(#h)" stroke-linecap="round" d="M14.063 21.523v14.512"/>
            </g>
        </g>
        <g mask="url(#d)" opacity=".499">
            <g transform="translate(1040 262)">
                <circle cx="25" cy="25" r="18.125" stroke="url(#i)" stroke-width="6.25"/>
                <circle cx="25" cy="25" r="6.875" fill="url(#j)"/>
            </g>
        </g>
        <g mask="url(#d)" opacity=".499">
            <g transform="translate(1277 187.375)">
                <circle cx="9.375" cy="9.375" r="11.875" stroke="url(#k)" stroke-width="5"/>
                <path stroke="url(#l)" stroke-linecap="round" stroke-width="4.5" d="M1.25 27.783h15.673"/>
                <path stroke="url(#m)" stroke-linecap="round" stroke-width="4.5" d="M9.313 23.822v9.616"/>
            </g>
            <path stroke="url(#n)" stroke-linecap="round" stroke-width="5" d="M11.235 7.5l3.204 4.696" transform="translate(1262 178)"/>
            <path stroke="url(#o)" stroke-linecap="round" stroke-width="5" d="M34.985 7.5l3.204 4.696" transform="matrix(-1 0 0 1 1335.125 178)"/>
        </g>
        <g mask="url(#d)" opacity=".499">
            <path fill="url(#p)" fill-rule="nonzero" d="M31.932 25.265h-5.147V2.657a2.403 2.403 0 0 0-4.804 0v22.608h-9.565c2.781-2.87 6.19-7.414 6.64-12.754.023-.246.54-6.077-2.73-9.705C14.697.996 12.407.026 9.697 0 2.82 0 .372 5.32.038 8.133a2.74 2.74 0 0 0 2.368 3.028c1.503.215 2.875-.877 3.08-2.352.14-1.001.825-3.328 4.18-3.328 1.172.011 1.965.315 2.572.984 1.632 1.8 1.352 5.516 1.349 5.553-.63 7.481-8.79 12.941-8.869 12.992a2.763 2.763 0 0 0-1.203 1.727 2.72 2.72 0 0 0 .372 2.067c.506.787 1.41 1.257 2.417 1.257H21.98v3.083a2.403 2.403 0 0 0 4.804 0V30.06h5.147a2.403 2.403 0 0 0 2.402-2.398 2.402 2.402 0 0 0-2.401-2.398z" transform="translate(1353.125 342.5)"/>
        </g>
        <g mask="url(#d)" opacity=".499">
            <path fill="url(#q)" fill-rule="nonzero" d="M36.542 4.276L32.512.244a.88.88 0 0 0-1.217 0l-4.049 4.025a2.188 2.188 0 0 0-.551 2.167c.235.798.901 1.388 1.782 1.578.381.082.785.065 1.165-.043-.413 5.402-3.847 9.619-8.709 10.65V8.03c.26.099.526.148.797.148.971 0 1.606-.64 1.664-.702a2.191 2.191 0 0 0 0-3.093L19.362.351A.881.881 0 0 0 18.146.35l-4.05 4.027a2.192 2.192 0 0 0 0 3.094c.368.366.924.568 1.568.568.305 0 .61-.046.894-.129v10.712c-4.861-1.031-8.295-5.248-8.708-10.65.377.109.784.125 1.164.043.881-.19 1.548-.78 1.783-1.578a2.19 2.19 0 0 0-.553-2.168L6.198.244a.88.88 0 0 0-1.217 0L.95 4.276a2.19 2.19 0 0 0 0 3.094c.376.376.965.582 1.658.582.292 0 .578-.036.844-.104.333 8.998 5.275 14.965 13.107 15.793v5.102h-1.875a2.19 2.19 0 0 0-2.187 2.187 2.19 2.19 0 0 0 2.187 2.188h1.875v2.187a2.19 2.19 0 0 0 2.188 2.188 2.19 2.19 0 0 0 2.187-2.188v-2.188h1.875a2.19 2.19 0 0 0 2.188-2.187 2.19 2.19 0 0 0-2.188-2.188h-1.875v-5.177c7.703-1.09 12.748-7.159 13.105-15.717.266.068.553.105.846.105h.001c.694 0 1.283-.207 1.657-.583.414-.413.641-.962.641-1.547 0-.584-.227-1.134-.64-1.547z" transform="translate(701.25 259.25)"/>
        </g>
        <g mask="url(#d)" opacity=".499">
            <g transform="translate(686 500.375)">
                <path stroke="url(#r)" stroke-linecap="round" stroke-width="4.5" d="M9.313 23.822v9.616"/>
                <path stroke="url(#s)" stroke-linecap="round" stroke-width="4.5" d="M1.25 27.783h15.673"/>
                <circle cx="9.375" cy="9.375" r="11.875" stroke="url(#t)" stroke-width="5"/>
            </g>
        </g>
        <g mask="url(#d)" opacity=".499">
            <path fill="url(#u)" fill-rule="nonzero" d="M13.816 18.125c0-6.936 4.36-13.268 10.848-15.759l1.521-.584-1.52-.583A18.02 18.02 0 0 0 18.19 0C8.196 0 .065 8.131.065 18.125S8.195 36.25 18.19 36.25c2.221 0 4.4-.404 6.474-1.2l1.52-.583-1.52-.584c-6.488-2.49-10.848-8.822-10.848-15.758z" transform="translate(967.875 686.875)"/>
        </g>
        <g mask="url(#d)" opacity=".499">
            <path fill="url(#v)" fill-rule="nonzero" d="M22.78 16.67c-2.927-.756-5.805.092-8.34 2.33v-5.258h6.424c1.473 0 2.667-1.183 2.667-2.643 0-1.46-1.194-2.644-2.667-2.644H14.44V2.643C14.44 1.183 13.246 0 11.773 0S9.106 1.184 9.106 2.643v5.813H2.682C1.21 8.456.015 9.639.015 11.099c0 1.46 1.194 2.643 2.667 2.643h6.424v13.873a2.65 2.65 0 0 0 2.134 2.59c1.243.25 2.492-.4 2.988-1.556.541-1.262 1.699-3.631 3.364-5.32 1.785-1.811 3.047-1.748 3.84-1.543 1.212.314 2.345 1.385 2.888 2.73.256.632.584 1.853-.088 2.928-.768 1.231-2.255 2.407-4.188 3.312a2.645 2.645 0 0 0-1.502 2.015c-.056.393-.434 3.91 3.671 6.734.464.32.994.473 1.52.473.844 0 1.674-.397 2.193-1.136.84-1.2.54-2.847-.67-3.68a4.723 4.723 0 0 1-.866-.746c1.578-.985 3.234-2.355 4.38-4.19 1.39-2.228 1.574-5.025.504-7.675-1.17-2.893-3.658-5.147-6.494-5.88z" transform="translate(1322 598)"/>
        </g>
        <g mask="url(#d)">
            <g transform="translate(-165 385)">
                <circle cx="207.5" cy="207.5" r="207.5" fill="url(#w)" filter="url(#x)" opacity=".167"/>
                <circle cx="222" cy="186" r="164" stroke="url(#y)" opacity=".375"/>
                <circle cx="331.5" cy="173.5" r="33.5" fill="#FFF" filter="url(#z)" opacity=".26"/>
            </g>
        </g>
    </g>
</svg>
