<svg xmlns="http://www.w3.org/2000/svg" xmlns:xlink="http://www.w3.org/1999/xlink" width="375" height="504" viewBox="0 0 375 504">
    <defs>
        <path id="a" d="M0 0h864v480H0z"/>
        <linearGradient id="b" x1="2.263%" x2="88.311%" y1="32.664%" y2="60.264%">
            <stop offset="0%" stop-color="#FA71CD"/>
            <stop offset="100%" stop-color="#C471F5"/>
        </linearGradient>
        <filter id="c" width="147.2%" height="178.4%" x="-23.6%" y="-39.2%" filterUnits="objectBoundingBox">
            <feGaussianBlur in="SourceGraphic" stdDeviation="27.3"/>
        </filter>
        <linearGradient id="e" x1=".687%" x2="99.313%" y1="0%" y2="100%">
            <stop offset="0%" stop-color="#139DDB"/>
            <stop offset="100%" stop-color="#2041F7"/>
        </linearGradient>
        <linearGradient id="f" x1="0%" y1="38.319%" y2="61.681%">
            <stop offset="0%" stop-color="#139DDB"/>
            <stop offset="100%" stop-color="#2041F7"/>
        </linearGradient>
        <linearGradient id="g" x1="0%" y1="49.97%" y2="50.03%">
            <stop offset="0%" stop-color="#139DDB"/>
            <stop offset="100%" stop-color="#2041F7"/>
        </linearGradient>
        <linearGradient id="h" x1="45.654%" x2="53.564%" y1="18.087%" y2="0%">
            <stop offset="0%" stop-color="#139DDB"/>
            <stop offset="100%" stop-color="#2041F7"/>
        </linearGradient>
        <linearGradient id="i" x1="4.245%" y1="4.245%" y2="100%">
            <stop offset=".063%" stop-color="#F66F97"/>
            <stop offset="53.429%" stop-color="#FB98A8"/>
            <stop offset="100%" stop-color="#FFB4B4"/>
        </linearGradient>
        <linearGradient id="j" x1="4.184%" y1="4.184%" y2="100%">
            <stop offset=".063%" stop-color="#F66F97"/>
            <stop offset="53.429%" stop-color="#FB98A8"/>
            <stop offset="100%" stop-color="#FFB4B4"/>
        </linearGradient>
        <linearGradient id="k" x1="100%" x2="3.208%" y1="100%" y2="3.208%">
            <stop offset="0%" stop-color="#1FA975"/>
            <stop offset="100%" stop-color="#1BFCCD"/>
        </linearGradient>
        <linearGradient id="l" x1="100%" x2="3.208%" y1="50.296%" y2="49.723%">
            <stop offset="0%" stop-color="#1FA975"/>
            <stop offset="100%" stop-color="#1BFCCD"/>
        </linearGradient>
        <linearGradient id="m" x1="59.07%" x2="34.75%" y1="-71.899%" y2="177.197%">
            <stop offset="0%" stop-color="#1FA975"/>
            <stop offset="100%" stop-color="#1BFCCD"/>
        </linearGradient>
        <linearGradient id="n" x1="19.753%" x2="80.247%" y1="-177.474%" y2="100%">
            <stop offset="0%" stop-color="#1FA975"/>
            <stop offset="100%" stop-color="#1BFCCD"/>
        </linearGradient>
        <linearGradient id="o" x1="-47.459%" x2="346.865%" y1="-128.993%" y2="246.354%">
            <stop offset="0%" stop-color="#1FA975"/>
            <stop offset="100%" stop-color="#1BFCCD"/>
        </linearGradient>
        <linearGradient id="p" x1="98.365%" x2="4.739%" y1="100%" y2="3.208%">
            <stop offset="0%" stop-color="#1FA975"/>
            <stop offset="100%" stop-color="#1BFCCD"/>
        </linearGradient>
        <linearGradient id="q" x1="72.525%" x2="49.219%" y1="50%" y2="-54.785%">
            <stop offset="0%" stop-color="#FA9A70"/>
            <stop offset="100%" stop-color="#FEE140"/>
        </linearGradient>
        <linearGradient id="r" x1="-56.04%" y1="0%" y2="0%">
            <stop offset="0%" stop-color="#FA9A70"/>
            <stop offset="100%" stop-color="#FEE140"/>
        </linearGradient>
        <linearGradient id="s" x1="0%" y1="0%" y2="100%">
            <stop offset="0%" stop-color="#FA9A70"/>
            <stop offset="100%" stop-color="#FEE140"/>
        </linearGradient>
        <linearGradient id="t" x1="24.04%" x2="75.133%" y1="0%" y2="98.408%">
            <stop offset="0%" stop-color="#13A3DB"/>
            <stop offset="100%" stop-color="#06F"/>
        </linearGradient>
        <linearGradient id="u" x1="21.942%" x2="78.058%" y1="0%" y2="100%">
            <stop offset="0%" stop-color="#FA9A70"/>
            <stop offset="100%" stop-color="#FEE140"/>
        </linearGradient>
    </defs>
    <g fill="none" fill-rule="evenodd" transform="translate(-426 24)">
        <mask id="d" fill="#fff">
            <use xlink:href="#a"/>
        </mask>
        <ellipse cx="621.15" cy="187.2" fill="url(#b)" filter="url(#c)" mask="url(#d)" opacity=".24" rx="173.7" ry="104.4"/>
        <g mask="url(#d)">
            <g opacity=".3">
                <path fill="#89C5CC" d="M793.428 191.286c-.269-.196-.906-.265-1.203-.324a19.515 19.515 0 0 0-3.762-.349c-3.877.006-7.817.387-11.63 1.045-2.421.418-5.348 1.826-7.756 1.062-4.196-1.332-8.436-1.267-12.416.634-3.64 1.739-6.402 5.04-8.014 8.608-.244.538-1.23 2.52-1.51 3.857-.12.273-.234.548-.338.827-.293.793-.556 1.6-.801 2.407-.105.345-.367 1.106-.055 1.254-.499.92-.941 1.869-1.31 2.848-1.07 2.849-2.241 5.973-2.618 8.992a14.068 14.068 0 0 0-.015 3.363c.064.553.037 1.667.413 2.087.796.894 1.205-.357 1.116-.952-.686-4.54.638-8.802 2.207-13.069 1.015-2.76 2.682-5.283 4.55-7.57 1.511-1.85 3.133-3.307 5.205-4.534 2.534-1.5 5.243-2.713 7.927-3.93 1.765-.8 3.533-1.579 5.347-2.269.404-.153 1.039-.546 1.486-.548.946-.003 2.287.695 3.2.954 3.007.855 6.051 1.95 9.158 2.386 1.992.28 3.86-.035 5.723-.7.19-.067.51-.241.9-.49 1.384-.532 2.693-1.202 3.832-2.169.657-.556 1.253-1.276 1.796-1.935.163-.196.235-.422.237-.637.123-.064.205-.14.223-.227.136-.648-1.1-.66-1.892-.621"/>
                <path fill="#DDE3E9" d="M407.94 251.756a56.65 56.65 0 0 0-2.234 1.9c-.555.5-1.537 1.096-1.736 1.853-.207.785.446 1.52.963 1.995 2.73 2.512 5.804 4.21 9.587 4.493 5.825.434 10.895-1.053 15.95-3.98 3.55-2.056 5.9-5.097 6.415-9.204 4.228 1.757 8.317 4.18 11.792 7.152 1.714 1.467 3.191 3.092 4.557 4.893a57.243 57.243 0 0 1 2.506 3.544c.342.529.689 1.467 1.252 1.771.662.358 1.462-.203 1.429-.938-.027-.612-.689-1.323-.998-1.823a68.113 68.113 0 0 0-1.583-2.465c-.888-1.309-1.806-2.599-2.806-3.824-2.25-2.751-5.113-5.024-8.08-6.962-5.692-3.719-11.939-6.061-18.865-6.26-4.259-.122-7.841 1.333-11.483 3.506-2.268 1.353-4.608 2.683-6.666 4.35"/>
                <path fill="#C1DEE2" d="M461.105 225.875c-4.438-4.57-8.892-9.084-13.85-13.109-2.922-2.371-6.002-4.528-9.018-6.776.348.305.69.618 1.022.94-.941-.64-2.174-1-3.172-1.592-1.113-.66-2.177-1.415-3.221-2.176-2.038-1.484-4.045-2.997-6.14-4.405-2.333-1.567-4.751-3.016-7.124-4.525-2.015-1.28-4.054-2.682-6.208-3.728-1.175-.57-2.352-1.247-3.531-1.842-.395-.2-4.4-2.728-4.39-2.736.222-.166 2.237.78 2.549.908.91.372 1.78.817 2.656 1.26-.48-.948-.86-1.943-1.068-2.991-.064-.324-.576-2.679-.314-2.876.131-.099 1.409 4.114 1.474 4.52.053.328.046.802.153 1.114.174.503.165.351.549.634.702.52 1.634.845 2.393 1.279.41.229 1.679 1.136 2.443 1.394 2.312 1.123 4.656 2.851 6.852 4.285a16.156 16.156 0 0 1-1.335-3.404c-.076-.281-.897-2.81-.698-2.96.224-.17 1.789 3.693 1.882 4.059.172.679.207 1.435.423 2.095.237.726.975.983 1.64 1.406a118.114 118.114 0 0 1 7.137 4.936c2.536-4.51-.388-9.958-2.853-13.743-1.777-2.728-4.169-5.067-6.694-7.109-3.37-2.725-7.227-4.901-11.078-6.893-4.488-2.32-9.339-3.757-14.381-4.422-2.638-.347-5.336-.337-8-.226-1.302.055-2.55.227-3.798.651-.562.192-1.105.433-1.635.703-.402.206-1.375.423-1.606.729-1.904 2.477-2.878 4.947-2.73 8.06.141 2.948 1.072 5.897 2.336 8.526 1.407 2.928 3.216 5.585 5.583 7.815 1.805 1.701 3.824 3.182 5.829 4.643 7.132 5.198 16.174 9.719 25.412 8.557 2.99-.375 5.834-1.421 8.492-2.842.626-.335 1.249-.674 1.84-1.069.398-.266 1.464-1.467 1.865-1.511.55-.06 1.733 1.058 2.248 1.398a213 213 0 0 1 11.47 8.15c3.973 3.018 7.752 6.241 11.42 9.616 1.56 1.436 3.11 2.874 4.625 4.358.353.345 1.215 1.616 1.855 1.674.404.036.677-.309.62-.683-.101-.65-1.47-1.624-1.924-2.092"/>
                <path fill="#69A1AC" d="M788.503 214.578c-1.72-.376-3.618-.347-5.369-.316-9.391.128-18.613 4.574-24.615 11.679-5.11 6.048-6.515 13.567-7.524 21.169-.1.754-.143 1.504-.2 2.26-.012.163-.03.308-.05.444-.396.355-.604.769-.37 1.223a50.532 50.532 0 0 0-2.249 5.9c-1.868 5.958-3.768 12.028-2.598 18.292.274-3.447.85-6.972 1.537-10.363.04-.194.083-.387.127-.58l.013-.06c.244-1.039.56-2.046.946-3.038l.012-.032c.05-.13.105-.26.158-.39.11-.269.224-.537.344-.803.04-.091.08-.183.117-.275.56-1.374.797-2.922 1.3-4.344a30.586 30.586 0 0 1 .4-1.022 42.09 42.09 0 0 1 1.164-2.556c.226-.17.347-.59.541-.973.04-.075.355-.578.45-.868.244-.473.488-.947.734-1.419l-.022.008c.246-.453.494-.905.74-1.355l.162-.297.264-.473a89.176 89.176 0 0 1 2.6-4.34c.324-.508 1.096-1.237 1.245-1.808.005-.021.006-.04.01-.061 1.965-2.76 4.228-5.307 6.941-7.325-.328.355-1.025 1.558-1.21 1.796-.563.73-1.176 1.409-1.79 2.096-1.101 1.231-2.176 2.501-3.131 3.845-1.747 2.456-3.254 5.041-4.678 7.678l-.041.046c-.716.883-1.166 2.216-1.682 3.226 2.04-.945 4.295-1.56 6.388-2.399 2.087-.836 4.117-1.767 6.078-2.86 2.605-1.454 5.308-3.094 7.77-4.951 2.82-1.75 5.191-4.159 7.284-6.686 2.475-2.99 4.744-6.007 6.148-9.639.689-1.784 1.231-3.645 1.553-5.527.014-.082.032-.17.051-.263.33-.65.623-1.315.87-1.995.392-1.079 1.317-2.265-.418-2.644"/>
                <path fill="#89C5CC" d="M424.957 224.951c-.538-.583-1.143-1.11-1.854-1.484-.18-.095-1.516-.73-1.604-.591-.202.325 3.296 1.889 3.458 2.075m6.341-3.895c-.004.024.46.811.586 1.053.268.515.516 1.04.75 1.564-.346-.928-.7-1.788-1.336-2.617m-32.43 6.405c-.446.144-.983-.423-.404-.563.469-.112.446-.138.656-.516.171-.306.277-.68.426-1.002.319-.682.68-1.333 1.122-1.943a15.47 15.47 0 0 1 3.404-3.383c2.264-1.657 4.802-3.171 7.495-3.932 4.282-1.21 9.155-1.284 13.443-.445 2.656.519 5.083 1.422 6.846 3.56.882 1.069 1.574 2.32 1.876 3.7.079.36.064.76.163 1.113.152.543.085.398.72.504.692.115 1.384.233 2.076.352 1.812.314 3.634.646 5.4 1.155.58.167 1.15.372 1.704.61.42.179 2.092.743 2.295 1.288.338.908-.795.496-1.147.299a13.608 13.608 0 0 0-.946-.484 15.503 15.503 0 0 0-2.514-.894c-.93-.25-1.881-.435-2.828-.621a105.37 105.37 0 0 0-2.656-.482c-.493-.084-.986-.166-1.48-.247-.168-.028-.465-.174-.443.045-1.037-.2-2.158-.171-3.215-.226-1.294-.068-2.592-.123-3.89-.083-.937.03-1.874.091-2.806.217a14.24 14.24 0 0 0-1.614.317c-.293.075-1.45.234-1.61.49.069-.11 1.345-.004 1.508-.01.65-.024 1.295-.089 1.942-.161a30.174 30.174 0 0 1 3.61-.194c-.005.211-.828.588-1.029.728-.45.315-.882.658-1.285 1.035-.71.662-1.56 1.483-2.05 2.269.145-.232.858-.533 1.111-.71.406-.283.803-.585 1.18-.909.346-.298.67-.62.989-.95.318-.329.75-1.014 1.17-1.233.024-.013.207.131.31.082.105-.05.235-.296.261-.306.39-.15 1.13.036 1.54.055 1.062.05 2.123.113 3.184.172.329.018.608-.057.732.185.133.26-.11.94-.179 1.22-.256 1.047-.71 1.985-1.426 2.796-1.34 1.519-2.992 2.53-4.858 3.208-7.15 2.594-14.755 3.632-21.902.934-2.958-1.117-7.414-3.113-6.88-7.04"/>
                <path fill="#DDE3E9" d="M806.663 369.434c6.148 38.305-142.957 63.29-271.295 45.853-128.338-17.436-187.214-85.528-125.973-121.81 61.24-36.28 391.12 37.652 397.268 75.957z" opacity=".6"/>
                <g transform="translate(458.723 130.812)">
                    <rect width="80.136" height="152.208" fill="#F2F2F2" rx="4.032"/>
                    <circle cx="39.816" cy="135.072" r="7.56" fill="#FFF"/>
                    <g fill="#FFF" transform="translate(32.256 8.064)">
                        <circle cx="1.008" cy="1.008" r="1.008"/>
                        <rect width="10.584" height="2.016" x="4.536" rx="1.008"/>
                    </g>
                    <g transform="translate(7.056 14.112)">
                        <rect width="66" height="27.6" fill="#FFF" rx="2.016"/>
                        <g fill="#DDE3E9" transform="translate(19.656 8.28)">
                            <rect width="36.768" height="4.14" rx="1.512"/>
                            <rect width="24.68" height="4.14" y="6.9" rx="1.512"/>
                        </g>
                        <circle cx="10.584" cy="13.8" r="6.048" fill="#C5CFD6"/>
                    </g>
                    <g transform="translate(7.056 50.112)">
                        <rect width="66" height="21" fill="#FFF" rx="2.016"/>
                        <g fill="#DDE3E9" transform="translate(19.656 6.3)">
                            <rect width="36.768" height="3.15" rx="1.512"/>
                            <rect width="24.68" height="3.15" y="5.25" rx="1.512"/>
                        </g>
                        <circle cx="10.584" cy="10.5" r="6.048" fill="#C5CFD6"/>
                    </g>
                    <g transform="translate(7.056 79.112)">
                        <rect width="66" height="21" fill="#FFF" rx="2.016"/>
                        <g fill="#DDE3E9" transform="translate(19.656 6.3)">
                            <rect width="36.768" height="3.15" rx="1.512"/>
                            <rect width="24.68" height="3.15" y="5.25" rx="1.512"/>
                        </g>
                        <circle cx="10.584" cy="10.5" r="6.048" fill="#AFB9C5"/>
                    </g>
                    <g transform="translate(7.056 108.112)">
                        <rect width="66" height="21" fill="#FFF" rx="2.016"/>
                        <g fill="#DDE3E9" transform="translate(19.656 6.3)">
                            <rect width="36.768" height="3.15" rx="1.512"/>
                            <rect width="24.68" height="3.15" y="5.25" rx="1.512"/>
                        </g>
                        <circle cx="10.584" cy="10.5" r="6.048" fill="#C5CFD6"/>
                    </g>
                </g>
                <g transform="translate(473.387 146.058)">
                    <g fill="#89C5CC">
                        <path d="M6.118 109.872c-.667 0-1.333.013-2 .048-.508.027-1.285-.079-1.715.238-.447.33-.416 1.003-.346 1.479.369 2.515 1.27 4.746 3.154 6.529 2.901 2.744 6.227 4.139 10.163 4.76 2.765.436 5.317-.17 7.352-2.136 1.487 2.76 2.616 5.814 3.182 8.897.279 1.52.364 3.024.315 4.572a39.426 39.426 0 0 1-.193 2.97c-.046.428-.265 1.078-.097 1.483.198.476.862.523 1.16.117.25-.338.203-1.002.254-1.402.085-.664.163-1.329.22-1.996.09-1.08.158-2.163.153-3.248-.012-2.436-.553-4.881-1.294-7.194-1.421-4.436-3.728-8.379-7.314-11.472-2.205-1.903-4.73-2.673-7.593-3.086-1.783-.258-3.594-.559-5.4-.559"/>
                        <path d="M16.416 127.512c-7.207 0-12.06 5.808-14.355 11.845-.865 2.275-1.068 4.774-1.402 7.163-.107.767-.067 1.935-.378 2.618-.113.248-.372.337-.248.674.075.205.222.33.443.37.453.084 1.094-.41 1.482-.605 3.224-1.616 5.342-4.116 7.07-7.174 1.07-1.896 2.158-3.864 2.794-5.945.389-1.271.615-2.61.748-3.93.052-.519.103-1.05.1-1.573-.004-.518-.245-.792-.418-1.244 2.404-.91 5.119-1.158 7.555-.215 2.252.873 4.124 2.559 5.172 4.677.272.55.482 1.131.635 1.723.1.388.105.892.29 1.243.45.85 1.397.281 1.306-.51-.253-2.208-1.517-4.425-3.131-5.96-2.037-1.937-4.797-3.157-7.663-3.157"/>
                    </g>
                    <rect width="80.136" height="152.208" x="24.192" fill="#DDE3E9" rx="4.032"/>
                    <circle cx="64.008" cy="135.072" r="7.56" fill="#FFF"/>
                    <g fill="#FFF" transform="translate(56.448 8.064)">
                        <circle cx="1.008" cy="1.008" r="1.008"/>
                        <rect width="10.584" height="2.016" x="4.536" rx="1.008"/>
                    </g>
                    <g transform="translate(31.248 14.112)">
                        <rect width="66" height="27.6" fill="#FFF" rx="2.016"/>
                        <g fill="#DDE3E9" transform="translate(4.536 8.28)">
                            <rect width="36.768" height="4.14" rx="1.512"/>
                            <rect width="24.68" height="4.14" y="6.9" rx="1.512"/>
                        </g>
                        <g transform="translate(55.419 10.272)">
                            <circle cx="3.528" cy="3.528" r="3.528" fill="#DDE3E9"/>
                            <circle cx="3.528" cy="3.528" r="1.512" fill="#F2F2F2"/>
                        </g>
                    </g>
                    <g transform="translate(31.248 50.112)">
                        <rect width="66" height="21" fill="#FFF" rx="2.016"/>
                        <g fill="#DDE3E9" transform="translate(19.656 6.3)">
                            <rect width="36.768" height="3.15" rx="1.512"/>
                            <rect width="24.68" height="3.15" y="5.25" rx="1.512"/>
                        </g>
                        <circle cx="10.584" cy="10.5" r="6.048" fill="#C5CFD6"/>
                    </g>
                    <g transform="translate(31.248 79.112)">
                        <rect width="66" height="21" fill="#FFF" rx="2.016"/>
                        <g transform="translate(4.536 6.3)">
                            <rect width="36.768" height="3.15" fill="#DDE3E9" rx="1.512"/>
                            <rect width="24.68" height="3.15" y="5.25" fill="#AFB9C5" rx="1.512"/>
                        </g>
                        <g transform="translate(55.419 6.972)">
                            <circle cx="3.528" cy="3.528" r="3.528" fill="#DDE3E9"/>
                            <circle cx="3.528" cy="3.528" r="1.512" fill="#F2F2F2"/>
                        </g>
                    </g>
                    <g transform="translate(31.248 108.112)">
                        <rect width="66" height="21" fill="#FFF" rx="2.016"/>
                        <g fill="#DDE3E9" transform="translate(19.656 6.3)">
                            <rect width="36.768" height="3.15" rx="1.512"/>
                            <rect width="24.68" height="3.15" y="5.25" rx="1.512"/>
                        </g>
                        <circle cx="10.584" cy="10.5" r="6.048" fill="#C5CFD6"/>
                    </g>
                </g>
                <g transform="translate(554.541 162.53)">
                    <rect width="168.84" height="174.384" fill="#F2F2F2" rx="4.032"/>
                    <rect width="35.28" height="40.824" x="125.496" y="21.672" fill="#FFF" rx="4.032"/>
                    <g fill="#DDE3E9" transform="translate(130.536 29.232)">
                        <circle cx="12.6" cy="8.064" r="8.064"/>
                        <rect width="25.2" height="3.024" y="18.144" rx="1.512"/>
                        <rect width="17.136" height="3.024" x="4.032" y="23.184" rx="1.512"/>
                    </g>
                    <path fill="#C5CFD6" d="M4.032 0h160.776a4.032 4.032 0 0 1 4.032 4.032v9.576H0V4.032A4.032 4.032 0 0 1 4.032 0z"/>
                    <g fill="#F2F2F2" transform="translate(4.536 5.04)">
                        <circle cx="2.016" cy="2.016" r="2.016"/>
                        <circle cx="8.064" cy="2.016" r="2.016"/>
                        <circle cx="14.112" cy="2.016" r="2.016"/>
                    </g>
                    <g transform="translate(125.496 66.528)">
                        <rect width="35.28" height="97.776" fill="#FFF" rx="4.032"/>
                        <g transform="translate(9.072 9.072)">
                            <rect width="17" height="13" fill="#DDE3E9" rx="2.016"/>
                            <rect width="17" height="13" y="21" fill="#AFB9C5" rx="2.016"/>
                            <rect width="17" height="13" y="42" fill="#DDE3E9" rx="2.016"/>
                            <rect width="17" height="13" y="84" fill="#DDE3E9" rx="2.016"/>
                            <rect width="17" height="13" y="63" fill="#C5CFD6" rx="2.016"/>
                        </g>
                    </g>
                    <g transform="translate(8.064 22.176)">
                        <rect width="114" height="24" fill="#FFF" rx="2.016"/>
                        <g fill="#DDE3E9" transform="translate(4.536 7.2)">
                            <rect width="84.768" height="3.6" rx="1.512"/>
                            <rect width="56.899" height="3.6" y="6" rx="1.512"/>
                        </g>
                        <g transform="translate(98.289 8.472)">
                            <circle cx="3.528" cy="3.528" r="3.528" fill="#DDE3E9"/>
                            <circle cx="3.528" cy="3.528" r="1.512" fill="#F2F2F2"/>
                        </g>
                    </g>
                    <g transform="translate(8.064 54.176)">
                        <rect width="114" height="19.2" fill="#FFF" rx="2.016"/>
                        <g fill="#DDE3E9" transform="translate(4.536 5.76)">
                            <rect width="84.768" height="2.88" rx="1.44"/>
                            <rect width="56.899" height="2.88" y="4.8" rx="1.44"/>
                        </g>
                        <g transform="translate(98.289 6.072)">
                            <circle cx="3.528" cy="3.528" r="3.528" fill="#DDE3E9"/>
                            <circle cx="3.528" cy="3.528" r="1.512" fill="#F2F2F2"/>
                        </g>
                    </g>
                    <g transform="translate(8.064 82.176)">
                        <rect width="114" height="19.2" fill="#FFF" rx="2.016"/>
                        <g fill="#DDE3E9" transform="translate(4.536 5.76)">
                            <rect width="84.768" height="2.88" rx="1.44"/>
                            <rect width="56.899" height="2.88" y="4.8" rx="1.44"/>
                        </g>
                        <g transform="translate(98.289 6.072)">
                            <circle cx="3.528" cy="3.528" r="3.528" fill="#DDE3E9"/>
                            <circle cx="3.528" cy="3.528" r="1.512" fill="#AFB9C5"/>
                        </g>
                    </g>
                    <g transform="translate(8.064 166.176)">
                        <rect width="114" height="19.2" fill="#FFF" rx="2.016"/>
                        <g fill="#DDE3E9" transform="translate(4.536 5.76)">
                            <rect width="84.768" height="2.88" rx="1.44"/>
                            <rect width="56.899" height="2.88" y="4.8" rx="1.44"/>
                        </g>
                        <g transform="translate(98.289 6.072)">
                            <circle cx="3.528" cy="3.528" r="3.528" fill="#DDE3E9"/>
                            <circle cx="3.528" cy="3.528" r="1.512" fill="#F2F2F2"/>
                        </g>
                    </g>
                    <g transform="translate(8.064 138.176)">
                        <rect width="114" height="19.2" fill="#FFF" rx="2.016"/>
                        <g fill="#DDE3E9" transform="translate(4.536 5.76)">
                            <rect width="84.768" height="2.88" rx="1.44"/>
                            <rect width="56.899" height="2.88" y="4.8" rx="1.44"/>
                        </g>
                        <g transform="translate(98.289 6.072)">
                            <circle cx="3.528" cy="3.528" r="3.528" fill="#DDE3E9"/>
                            <circle cx="3.528" cy="3.528" r="1.512" fill="#F2F2F2"/>
                        </g>
                    </g>
                    <g transform="translate(8.064 110.176)">
                        <rect width="114" height="19.2" fill="#FFF" rx="2.016"/>
                        <g fill="#DDE3E9" transform="translate(4.536 5.76)">
                            <rect width="84.768" height="2.88" rx="1.44"/>
                            <rect width="56.899" height="2.88" y="4.8" rx="1.44"/>
                        </g>
                        <g transform="translate(98.289 6.072)">
                            <circle cx="3.528" cy="3.528" r="3.528" fill="#DDE3E9"/>
                            <circle cx="3.528" cy="3.528" r="1.512" fill="#F2F2F2"/>
                        </g>
                    </g>
                </g>
                <path fill="#C1DEE2" d="M790.17 256.967c-1.989-1.348-4.632-1.701-7.011-1.701-9.292 0-18.026 3.447-25.57 8.584-4.135 2.814-7.833 6.399-11.098 10.13-1.885 2.155-3.566 4.485-4.755 7.077-.803 1.75-1.354 3.572-1.728 5.452-.455 2.291-.817 4.63-.98 6.958-.064.918-.597 5.785.928 5.867-.01.12-.011.235-.002.337-3.311 5.178-5.357 11.246-7.255 17-1.65 5.006-3.121 10.055-4.076 15.234a166.013 166.013 0 0 0-2.476 20.658 192.846 192.846 0 0 0-.192 4.462l-.127 3.809c-.046 1.423-.297 3.06-.07 4.475.197 1.232 1.263 1.046 1.31-.18.057-1.48.048-2.964.112-4.445.086-1.966.175-3.933.271-5.898.67-13.654 3.183-27.108 7.82-40.006 1.877-5.22 4.027-10.16 6.791-14.988 2.43-4.246 5.353-8.355 8.34-12.183 2.905-3.72 5.924-7.353 9.482-10.505 2.887-2.557 6.063-4.785 9.328-6.858 4.147-2.633 8.285-5.202 12.777-7.223 2.335-1.05 4.714-1.991 7.067-3 .423-.18.877-.356 1.284-.566 1.359-.701.912-1.756-.17-2.49"/>
                <path fill="#89C5CC" d="M752.256 306.14c3.769 0 7.122.49 10.594 1.988 2.998 1.293 5.73 3.004 8.381 4.867 3.73 2.62 6.669 5.67 8.726 9.71 1.228 2.413 2.13 5.829 1.305 8.462-.973 3.1-3.642 5.687-7.157 5.14-2.173-.337-4.166-1.776-5.818-3.13-1.977-1.62-3.559-3.569-4.865-5.732-2.131-3.53-3.383-7.52-5.193-11.207-.86-1.75-1.69-3.514-2.718-5.177-.51-.824-1.052-1.64-1.824-2.252-.414-.328-2.157-.894-1.49-1.63-9.773.129-18.43 7.634-20.307 16.925-.175.866-.311 1.738-.455 2.61-.091.55-.055 2.579-.546 2.93-1.085.775-.63-1.58-.583-1.919.12-.876.249-1.752.384-2.626.732-4.755 2.849-9.175 6.38-12.566 4.036-3.877 9.482-6.392 15.186-6.392"/>
                <g fill="#C5CFD6">
                    <path d="M439.156 136.023l-.007.016c.003-.005.007-.025.007-.016"/>
                    <path d="M439.151 136.03v.005c0-.005.008-.02 0-.005"/>
                    <path d="M439.186 135.945l-.024.06.012-.029c-.105.263-.038.092.012-.03"/>
                    <path d="M439.164 136.006l-.012.028c-.03.057.012-.028.012-.028M439.152 136.03zM439.152 136.03v-.001.002M439.147 136.038c-.006.012.028-.046 0 0"/>
                    <path d="M439.151 136.03l.002-.001s0 .002-.002.002"/>
                </g>
            </g>
            <path fill="#191847" d="M551.192 176.334c3.355 8.02 8.482 25.033 6.002 28.218l-18.582 2.612-.003-.015-1.519.214c-5.926.833-11.405-3.296-12.238-9.223l-2.701-19.218c-.833-5.926 3.296-11.405 9.222-12.238l7.374-1.037c5.927-.833 11.406 3.296 12.239 9.223l.206 1.464z"/>
            <path fill="#E2BA99" d="M531.298 191.642c-3.436-3.023-6.027-6.955-6.356-11.723-.95-13.737 18.56-13.428 23.238-7.084 4.678 6.343 6.684 23.82 2.058 25.721-1.845.758-6.091.133-10.59-1.765l5.174 17.911-15.379 2.162 1.855-25.222z"/>
            <path fill="#191847" d="M535.132 188.76c1.77 7.45 2.697 16.112.873 18.455l-18.582 2.612c-3.544-17.698 7.434-12.195 5.073-28.995.539-.693 1.044-1.374 1.555-1.972l-.09-.491c2.3-6.987 5.922-10.828 10.87-11.523 7.42-1.043 10.243 2.053 12.646 4.68-.778 5.285-6.46 6.851-11.157 10.738a3.562 3.562 0 0 0-2.33-.47c-1.947.274-3.305 2.06-3.033 3.992.27 1.93 2.069 3.274 4.015 3 .054-.007.107-.016.16-.026z"/>
            <g>
                <ellipse cx="49.852" cy="47.681" fill="#EEA1C9" opacity=".756" rx="49.815" ry="47.247" transform="translate(482.583 284.5)"/>
                <path fill="#E2BA99" d="M626.153 372.242c-8.27-18.309-14.25-34.251-16.65-42.663-4.111-14.402-7.238-27.075-8.029-31.807-1.884-11.286 14.498-11.943 16.664-6.335 3.277 8.49 8.999 36.382 15.874 78.511l-7.859 2.294zm-95.925-57.458c7.587-3 34.159-12.388 46.974-15.044a694.026 694.026 0 0 1 10.608-2.113c9.974-1.905 15.142 16.094 5.535 17.477-23.924 3.445-57.841 7.001-60.744 7.4-4.068.56-7.142-5.834-2.373-7.72z"/>
                <path fill="#4E41D7" d="M593.932 292.673l-41.042-20.898v-4.55h4.881c39.706 10.121 59.996 16.607 60.87 19.458a2 2 0 0 1 .025.092l.059.08c7.869 10.824 12.581 63.673 14.128 67.63l-15.078 2.25c-5.768-21.394-24.222-36.299-23.732-61.923a8.397 8.397 0 0 1-.111-2.139z"/>
                <path fill="#7163FF" d="M556.3 305.085c-3.755-.752-7.213-1.423-10.172-1.942-19.114-3.354-24.687-13.588-21.392-35.918h35.216c5.753 1.653 35.65 14.194 51.161 20.865 10.266 4.414 7.03 20.329 1.216 24.47-.031.255-.136.427-.322.504-31.275 12.966-56.015 6.163-64.28 8.337l-3.823-12.063 12.396-4.253z"/>
                <path fill="#E4E4E4" d="M532.89 312.92c-2.228.22-3.8.554-4.715 1-1.062.518-2.528 1.445-4.398 2.78l15.677 32.144c3.26-.557 4.566-1.79 3.916-3.7-.65-1.911-1.174-3.507-1.571-4.786l-.408-18.422a.504.504 0 0 0-.54-.491l-3.016.224c-1.616-1.274-2.678-2.432-3.186-3.474-.43-.884-.648-2.309-.652-4.274a1.008 1.008 0 0 0-1.107-1.001zM622.463 368.807c-.778 2.1-1.168 3.658-1.168 4.676 0 1.181.19 2.906.572 5.172h35.762c.93-3.174.393-4.888-1.61-5.142a192.013 192.013 0 0 1-4.99-.685l-16.735-7.71a.504.504 0 0 0-.679.271l-1.12 2.808c-1.854.894-3.36 1.341-4.519 1.341-.984 0-2.36-.43-4.127-1.287a1.008 1.008 0 0 0-1.386.556z"/>
            </g>
            <g>
                <path fill="#E2BA99" d="M583.805 237.353l24.833-6.983c4.67-3.506 9.063-6.052 13.178-7.639 1.192-.202 3.156-.038.65 2.706-2.507 2.744-5.02 5.744-4.34 6.925.682 1.18 3.254.344 3.962 2.208.472 1.243-3.78 2.053-12.755 2.43l-19.405 10.966-6.123-10.613zm-78.703 16.989l14.047-1.921c-10.565 36.53-16.062 55.653-16.494 57.367-.97 3.855 2.95 8.969 4.711 11.765-4.1 2.556-4.644-4.698-9.802-1.377-4.708 3.031-7.946 7.78-14.263 5.037-.777-.337-1.792-1.876-.08-3.43 4.266-3.871 10.275-10.443 10.934-12.42.898-2.697 4.547-21.038 10.947-55.021z"/>
                <path fill="#AFB9C5" d="M537.35 204.765l11.094-.818c6.121 23.916 23.024 37.191 55.309 27.356l8.784 30.672c-30.302 8.293-59.086-.159-69.296-32.562-2.643-8.388-5.033-17.168-5.892-24.648z"/>
                <path fill="#C5CFD6" d="M531.48 202.357l17.187 1.444c3.994 28.417 15.667 45.265 23.283 65.5l-44.98 6.322c.382 7.309 1.036 14.784 1.904 22.434l-33.68 4.733c1.971-41.356 13.7-74.786 35.186-100.288l1.09-.154.01.01z"/>
                <path fill="#000" fill-opacity=".1" d="M528.37 234.085c1.33 17.87 3.91 31.289 7.743 40.253l-9.142 1.285c-.755-14.478-.44-28.303 1.399-41.538z"/>
            </g>
            <g>
                <path fill="#B28B67" d="M706.282 138.951c2.512-3.847 3.977-8.364 3.057-13.11-2.652-13.676-21.285-8.308-24.128-.892-2.842 7.415-.234 25.02 4.697 25.678 1.966.262 5.876-1.451 9.699-4.474l-.318 18.852 15.312-1.88-8.32-24.174z"/>
                <path fill="#191847" d="M715.45 120.43c.434-.556.617-1.296.768-1.996.157-.727.306-1.46.378-2.205.143-1.49-.059-3.157-1.22-4.157-.932-.802-2.214-1.056-3.362-1.004a5.85 5.85 0 0 0-2.226.567c-.69.328-1.253.881-1.915 1.263-.219-1.56-.684-3.161-1.633-4.399-.912-1.19-2.204-1.763-3.598-1.786-1.431-.022-2.78.48-3.955 1.324-.294.21-.584.43-.858.67-.23.202-.464.44-.75.546-.317.118-.503-.053-.746-.268a5.398 5.398 0 0 0-.92-.652c-1.435-.815-3.21-1.005-4.663-.232-.669.356-1.295.898-1.694 1.588-.355.614-.549 1.544-1.087 2.008-.228.197-.43-.002-.677-.137-.37-.203-.728-.433-1.101-.63a4.632 4.632 0 0 0-1.656-.523c-.844-.09-1.973.093-2.074 1.208-.038.419.083.847.162 1.254.108.56.218 1.119.336 1.676.09.424.187.831.318 1.242.07.218.255.62.188.855-.085.295-.653.203-.886.242-.46.076-.915.215-1.318.467-.312.196-.633.466-.726.867-.057.247-.004.486.066.724.084.285.048.446.047.745-.659-.233-2.897-.656-3.03.503-.044.385.214.783.41 1.08.342.52.765.983 1.192 1.42.893.914 1.917 1.67 2.995 2.292a1.792 1.792 0 0 0-.093 3.02c.492.35 1.097.366 1.652.272.203-.034.487-.15.652-.134.089.009.19.072.311.065.794-.042 1.66-.343 2.407-.614a8.095 8.095 0 0 0 3.487-2.427c.24-.29.446-.465.813-.506.321-.036.647.014.968-.017.85-.083 1.563-.595 2.316-.97.18 1.068.628 2.214 1.182 3.127.452.745 1.206.768 1.943.748 2.355-.064 4.66-.598 6.991-.881-2.192.792-4.498 1.29-6.66 2.172-.977.398-.12.991.37 1.415.809.699 1.457 1.607 1.95 2.587.926-1.588 2.759-2.786 4.542-2.551 1.97.258 3.635 2.702 2.644 4.728-.575 1.176-1.804 1.753-2.811 2.352.938.77 1.297 2.035 1.93 3.06.313.505.734 1.068 1.308 1.187.213.044.453.02.635.169.225.183.3.41.577.558 1.105.589 2.686.339 3.472-.703.711-.943.336-2.25-.45-3.021 1.028-.59 2.929-1.418 2.29-3.07 2.327-.446 7.553-4.991 4.058-7.415 1.608-1.199 2.9-3.806 1.528-5.797-1.056-1.532-3.134-2.02-4.777-1.906"/>
                <path fill="#997659" d="M725.325 217.037l-23.643 81.494-11.12 61.188H679.4l11.142-142.682z"/>
                <path fill="#B28B67" d="M735.95 217.037c-1.65 42.336-.999 65.427-.63 69.273.37 3.847 2.466 29.607 16.75 74.7h-11.61c-18.916-43.259-25.52-69.02-27.689-74.7-2.17-5.68-8.577-28.771-17.932-69.273h41.112z"/>
                <path fill="#AFB9C5" d="M725.833 217.037c-6.15 28.042-16.787 72.805-31.91 134.289h-16.325c-1.206-63.107 3.923-104.642 12.806-134.29h35.429z"/>
                <path fill="#C5CFD6" d="M736.033 217.037c-1.616 42.336 2.572 84.045 15.542 134.948h-17.418c-18.951-42.613-32.534-84.116-41.817-134.948h43.693z"/>
                <path fill="#8A8CA4" d="M752.118 362.033c.795 2.083 1.192 3.628 1.192 4.636 0 1.168-.193 2.873-.58 5.114h-36.35c-.946-3.139-.4-4.833 1.635-5.084 2.035-.25 3.726-.476 5.072-.678l17.026-7.629a.504.504 0 0 1 .672.27l1.142 2.782c1.884.883 3.415 1.325 4.592 1.325 1.006 0 2.415-.43 4.226-1.287a1.008 1.008 0 0 1 1.373.551zM690.933 362.033c.795 2.083 1.193 3.628 1.193 4.636 0 1.168-.194 2.873-.581 5.114h-36.35c-.945-3.139-.4-4.833 1.635-5.084 2.036-.25 3.726-.476 5.072-.678l17.026-7.629a.504.504 0 0 1 .673.27l1.141 2.782c1.884.883 3.415 1.325 4.593 1.325 1.006 0 2.414-.43 4.225-1.287a1.008 1.008 0 0 1 1.373.551z"/>
                <g>
                    <path fill="#B28B67" d="M667.885 211.865l-16.04 19.853c-5.022 2.891-9.058 5.899-12.109 9.023-.649 1.004-1.263 2.85 2.221 1.63 3.484-1.22 7.203-2.349 8.017-1.276.815 1.072-.95 3.085.479 4.444.952.905 3.347-2.642 7.182-10.642l17.57-13.396-7.32-9.636zm81.104-7.436l-13.422 1.701c11.552 25.536 17.758 39.076 18.619 40.62 1.935 3.473-.528 9.427-1.506 12.584 4.622 1.407 3.27-5.74 9.112-3.868 5.332 1.71 9.689 5.458 15.08 1.174.664-.527 1.246-2.275-.81-3.333-5.123-2.636-12.628-7.428-13.776-9.168-1.565-2.373-5.998-15.61-13.297-39.71z"/>
                    <path fill="#69A1AC" d="M703.963 153.214l-5.673-.263c-6.656 24.883-20.713 48.476-42.173 70.78l20.68 19.498c20.448-30.515 31.645-60.783 27.166-90.015z"/>
                    <path fill="#DDE3E9" d="M736.692 219.515l-49.48 6.076c8.068-29.06 10.915-53.252 8.542-72.58l14.655-4.039c14.029 17.276 20.17 39.912 26.283 70.543z"/>
                    <path fill="#89C5CC" d="M710.726 148.944l-.007-.01-.974.12c-1.161.183-2.928.473-5.3.87l-2.352 10.667c1.15 12.513 2.006 37.91 2.57 76.191l32.436-3.983c.236 2.62.419 5.271.55 7.953l24.117-2.961c-8.565-39.933-25.575-69.553-51.029-88.859l-.01.012z"/>
                    <path fill="#000" fill-opacity=".1" d="M730.857 199.675c1.074 16.379.14 27.876-2.803 34.49l9.068-1.113c-1.04-11.752-3.128-22.877-6.265-33.377z"/>
                    <path fill="#FFF" fill-opacity=".2" d="M727.484 214.175l-16.9-5.413.906 7.377z"/>
                </g>
            </g>
        </g>
        <g mask="url(#d)" opacity=".499">
            <g stroke-width="2.7" transform="translate(565.35 96.3)">
                <ellipse cx="8.438" cy="4.078" stroke="url(#e)" rx="5.4" ry="5.428"/>
                <path stroke="url(#f)" stroke-linecap="round" d="M0 4.758c0 4.692 3.778 8.156 8.438 8.156s8.437-3.464 8.437-8.156"/>
                <path stroke="url(#g)" stroke-linecap="round" d="M1.688 16.482h13.837"/>
                <path stroke="url(#h)" stroke-linecap="round" d="M8.438 12.914v8.707"/>
            </g>
        </g>
        <g mask="url(#d)" opacity=".499">
            <g transform="translate(624 157.2)">
                <circle cx="15" cy="15" r="10.875" stroke="url(#i)" stroke-width="3.75"/>
                <circle cx="15" cy="15" r="4.125" fill="url(#j)"/>
            </g>
        </g>
        <g mask="url(#d)" opacity=".499">
            <g transform="translate(766.2 112.425)">
                <circle cx="5.625" cy="5.625" r="7.125" stroke="url(#k)" stroke-width="3"/>
                <path stroke="url(#l)" stroke-linecap="round" stroke-width="2.7" d="M.75 16.67h9.404"/>
                <path stroke="url(#m)" stroke-linecap="round" stroke-width="2.7" d="M5.588 14.293v5.77"/>
            </g>
            <path stroke="url(#n)" stroke-linecap="round" stroke-width="3" d="M6.741 4.5l1.922 2.818" transform="translate(757.2 106.8)"/>
            <path stroke="url(#o)" stroke-linecap="round" stroke-width="3" d="M20.991 4.5l1.922 2.818" transform="matrix(-1 0 0 1 801.075 106.8)"/>
        </g>
        <g mask="url(#d)" opacity=".499">
            <path fill="url(#p)" fill-rule="nonzero" d="M21.925 2.566L19.508.146a.528.528 0 0 0-.73 0l-2.43 2.416c-.34.34-.466.838-.33 1.3.141.478.54.833 1.07.946.228.05.47.04.698-.026-.248 3.242-2.308 5.772-5.225 6.39V4.819c.155.06.315.089.478.089.583 0 .964-.385.998-.421a1.315 1.315 0 0 0 0-1.856L11.617.21a.529.529 0 0 0-.73 0L8.458 2.626a1.315 1.315 0 0 0 0 1.856c.22.22.554.34.94.34.184 0 .367-.027.537-.076v6.427c-2.917-.619-4.977-3.15-5.225-6.39.226.065.47.075.698.025.529-.114.93-.468 1.07-.946.136-.462.01-.96-.332-1.301L3.72.147a.528.528 0 0 0-.73 0L.569 2.566a1.314 1.314 0 0 0 0 1.856c.226.225.58.35.995.35.175 0 .347-.023.506-.063.2 5.398 3.165 8.979 7.865 9.475v3.062H8.81c-.724 0-1.313.588-1.313 1.312 0 .724.59 1.313 1.313 1.313h1.125v1.312c0 .724.589 1.313 1.312 1.313.724 0 1.313-.59 1.313-1.313V19.87h1.125c.724 0 1.312-.588 1.312-1.312 0-.724-.588-1.313-1.312-1.313H12.56V14.14c4.621-.654 7.648-4.295 7.863-9.43.16.04.332.063.508.063.416 0 .77-.124.994-.35.248-.247.385-.577.385-.928 0-.35-.137-.68-.384-.928z" transform="translate(420.75 155.55)"/>
        </g>
        <g mask="url(#d)" opacity=".499">
            <g transform="translate(440 361.625)">
                <path stroke="url(#q)" stroke-linecap="round" stroke-width="2.7" d="M5.588 14.293v5.77"/>
                <path stroke="url(#r)" stroke-linecap="round" stroke-width="2.7" d="M.75 16.67h9.404"/>
                <circle cx="5.625" cy="5.625" r="7.125" stroke="url(#s)" stroke-width="3"/>
            </g>
        </g>
        <g mask="url(#d)" opacity=".499">
            <path fill="url(#t)" fill-rule="nonzero" d="M8.29 10.875c0-4.161 2.615-7.96 6.509-9.455l.912-.35-.912-.35A10.812 10.812 0 0 0 10.914 0C4.917 0 .039 4.879.039 10.875S4.917 21.75 10.914 21.75c1.333 0 2.64-.242 3.884-.72l.913-.35-.913-.35c-3.893-1.494-6.509-5.294-6.509-9.455z" transform="translate(606.125 396.125)"/>
        </g>
        <g mask="url(#d)" opacity=".499">
            <path fill="url(#u)" fill-rule="nonzero" d="M13.668 10.002c-1.756-.454-3.483.055-5.004 1.399V8.245h3.854c.884 0 1.6-.71 1.6-1.586 0-.876-.716-1.586-1.6-1.586H8.664V1.586C8.664.71 7.948 0 7.064 0c-.884 0-1.6.71-1.6 1.586v3.487H1.608c-.883 0-1.6.71-1.6 1.586 0 .876.717 1.586 1.6 1.586h3.854v8.324a1.59 1.59 0 0 0 1.281 1.554c.746.15 1.495-.24 1.793-.933.325-.758 1.019-2.18 2.018-3.193 1.071-1.086 1.828-1.048 2.304-.925.727.188 1.407.83 1.733 1.638.153.379.35 1.111-.053 1.756-.46.74-1.353 1.445-2.513 1.987a1.587 1.587 0 0 0-.9 1.21c-.035.235-.261 2.346 2.202 4.04a1.603 1.603 0 0 0 2.228-.398 1.577 1.577 0 0 0-.402-2.207 2.834 2.834 0 0 1-.52-.448c.947-.591 1.94-1.414 2.628-2.515.834-1.336.944-3.015.302-4.604-.701-1.736-2.194-3.088-3.896-3.529z" transform="translate(771 380)"/>
        </g>
    </g>
</svg>
