<svg xmlns="http://www.w3.org/2000/svg" width="172" height="172" viewBox="0 0 172 172">
    <defs>
        <linearGradient id="a" x1="-3.811%" x2="98.756%" y1="-7.498%" y2="100%">
            <stop offset="0%" stop-color="#7163FF"/>
            <stop offset="100%" stop-color="#CFCCF0"/>
        </linearGradient>
    </defs>
    <g fill="none" fill-rule="evenodd">
        <circle cx="86" cy="86" r="83" fill="#7163FF" fill-opacity=".3" stroke="#7163FF" stroke-opacity=".146" stroke-width="6"/>
        <g fill-rule="nonzero" transform="translate(17 17)">
            <circle cx="69.296" cy="69.296" r="70.296" fill="#19112B" stroke="url(#a)" stroke-width="2"/>
            <path fill="#7163FF" d="M99.896 36.876c0 6.176-4.988 11.182-11.142 11.182-6.154 0-11.143-5.006-11.143-11.182s4.99-11.183 11.143-11.183c6.154 0 11.142 5.007 11.142 11.183z"/>
            <path fill="#584DCE" d="M99.896 36.876c0 6.176-4.989 11.181-11.143 11.181a11.1 11.1 0 0 1-2.54-.292 11.178 11.178 0 0 0 8.599-10.89 11.18 11.18 0 0 0-8.6-10.89 11.1 11.1 0 0 1 2.541-.292c6.154 0 11.143 5.006 11.143 11.183z"/>
            <path fill="#EE6DAF" d="M106.218 70.506c0 20.064-16.205 36.329-36.197 36.329-11.121 0-21.07-5.033-27.71-12.953a36.249 36.249 0 0 1-8.305-19.712 36.315 36.315 0 0 1-.183-3.664c0-2.02.163-4 .48-5.927.146-.898.325-1.783.538-2.658 3.842-15.918 18.135-27.742 35.18-27.742a35.98 35.98 0 0 1 18.081 4.85 36.383 36.383 0 0 1 9.49 7.937 36.233 36.233 0 0 1 8.026 16.917c.394 2.147.6 4.362.6 6.623z"/>
            <path fill="#E83F96" d="M97.592 46.966a1.35 1.35 0 0 1-.825.36c-.02.003-2.58.22-6.753 1.956-3.86 1.606-9.929 4.878-16.917 11.343a1.34 1.34 0 0 1-1.905-.078 1.357 1.357 0 0 1 .077-1.91c11.818-10.933 21.257-13.355 24.292-13.873.707.705 1.384 1.44 2.031 2.202zM65.945 67.373c-.32 0-.64-.113-.896-.343a1.356 1.356 0 0 1-.11-1.91c.873-.982 1.764-1.947 2.648-2.867a1.344 1.344 0 0 1 1.906-.034c.535.519.55 1.375.033 1.913a94.57 94.57 0 0 0-2.574 2.789c-.267.299-.636.452-1.007.452z"/>
            <path fill="#E83F96" d="M106.218 70.507c0 20.063-16.205 36.328-36.197 36.328-1.064 0-2.119-.046-3.159-.137 18.51-1.608 33.034-17.198 33.034-36.191a36.77 36.77 0 0 0-.6-6.624C96.38 48 83.169 35.733 66.862 34.316c1.04-.09 2.095-.137 3.159-.137 17.738 0 32.496 12.806 35.597 29.704.394 2.148.6 4.362.6 6.624zM51.977 75.676c-4.353 1.264-8.577 1.62-11.948 1.62-2.397 0-4.363-.18-5.637-.338a35.741 35.741 0 0 1-.386-2.788c1.05.152 3.23.406 6.036.406 3.175 0 7.148-.326 11.185-1.498a1.349 1.349 0 0 1 1.67.925 1.351 1.351 0 0 1-.92 1.673z"/>
            <path fill="#7163FF" d="M106.218 70.507a36.46 36.46 0 0 1-1.31 9.723c-4.236 15.342-18.252 26.605-34.887 26.605a36.04 36.04 0 0 1-3.159-.137 35.865 35.865 0 0 1-7.49-1.462c-6.736-2.076-12.634-6.073-17.061-11.354C50.48 82.983 62.653 73.767 80.22 73.455c8.084-.145 14.526-2.309 19.599-5.32a37.242 37.242 0 0 0 5.8-4.252c.393 2.148.6 4.362.6 6.624z"/>
            <path fill="#7163FF" d="M106.218 70.507a36.46 36.46 0 0 1-1.31 9.723c-4.236 15.342-18.252 26.605-34.887 26.605a36.04 36.04 0 0 1-3.159-.137c18.51-1.608 33.034-17.198 33.034-36.191 0-.798-.026-1.587-.077-2.372a37.242 37.242 0 0 0 5.8-4.252c.393 2.148.6 4.362.6 6.624z"/>
            <path fill="#EE6DAF" d="M104.907 80.23a36.26 36.26 0 0 1-2.505 6.524c-5.939 11.907-18.21 20.081-32.381 20.081a36.04 36.04 0 0 1-10.648-1.6c3.73-1.602 7.77-4.426 10.648-9.401 5.38-9.302 15.776-14.757 28.554-15.572a54.44 54.44 0 0 1 6.332-.032z"/>
            <path fill="#E83F96" d="M104.907 80.23c-4.235 15.342-18.25 26.605-34.886 26.605a36.04 36.04 0 0 1-3.159-.137c15.216-1.322 27.738-12.093 31.713-26.436a54.44 54.44 0 0 1 6.332-.032z"/>
            <path fill="#FFF" d="M108.66 38.653c-1.155 2.79-3.223 6.32-6.145 10.493-5.935 8.476-14.793 18.754-24.942 28.94-10.149 10.187-20.391 19.075-28.838 25.033-4.158 2.932-7.674 5.006-10.455 6.165-1.737.725-3.187 1.087-4.367 1.087-1.118 0-1.993-.324-2.642-.975-2.517-2.526-.097-8.784 7.398-19.133.17-.236.404-.4.66-.485.463.74.95 1.459 1.46 2.16-7.967 11.019-8.197 14.957-7.613 15.544.539.54 4.102.41 14.01-6.576 8.323-5.871 18.438-14.654 28.48-24.732 10.043-10.078 18.796-20.23 24.645-28.584 6.962-9.941 7.092-13.519 6.555-14.058-.59-.592-4.521-.35-15.491 7.638a34.696 34.696 0 0 0-2.298-1.554c.087-.135.201-.256.337-.357 10.483-7.691 16.816-10.19 19.357-7.64 1.333 1.338 1.297 3.639-.11 7.034z"/>
            <path fill="#FFF" d="M108.77 109.396c-.649.651-1.523.975-2.641.975-1.181 0-2.631-.362-4.366-1.087-2.782-1.16-6.298-3.233-10.456-6.165-8.448-5.958-18.688-14.846-28.839-25.034C52.32 67.9 43.461 57.622 37.526 49.146c-2.921-4.173-4.99-7.703-6.145-10.493-1.408-3.395-1.443-5.696-.11-7.034 2.508-2.52 8.722-.109 18.99 7.371.26.192.433.457.51.747-.719.453-1.422.933-2.104 1.435-10.983-7.999-14.905-8.228-15.491-7.64-.537.54-.406 4.117 6.555 14.058 5.849 8.353 14.601 18.506 24.644 28.584 10.042 10.078 20.157 18.86 28.48 24.732 9.908 6.986 13.472 7.116 14.01 6.576.59-.59.35-4.537-7.614-15.546a35.663 35.663 0 0 0 1.55-2.304c.135.085.257.198.357.337 7.665 10.522 10.155 16.875 7.613 19.427z"/>
            <path fill="#7163FF" d="M41.181 75.388c0 3.445-2.783 6.238-6.216 6.238-3.433 0-6.216-2.793-6.216-6.238 0-3.446 2.783-6.239 6.216-6.239 3.433 0 6.216 2.793 6.216 6.239z"/>
            <path fill="#584DCE" d="M41.18 75.388c0 3.444-2.782 6.238-6.215 6.238-.645 0-1.268-.1-1.854-.282a6.24 6.24 0 0 0 4.36-5.956 6.242 6.242 0 0 0-4.36-5.958 6.255 6.255 0 0 1 1.854-.281c3.433 0 6.216 2.793 6.216 6.24z"/>
            <path fill="#FFF" d="M53.4 28.177h-.007a1.35 1.35 0 0 1-1.341-1.359l.002-.472A1.35 1.35 0 0 1 53.408 25a1.35 1.35 0 0 1 1.341 1.359l-.002.472a1.35 1.35 0 0 1-1.348 1.346zM53.385 32.98h-.007a1.35 1.35 0 0 1-1.342-1.359l.003-.472a1.344 1.344 0 0 1 1.354-1.346 1.35 1.35 0 0 1 1.342 1.36l-.003.472a1.35 1.35 0 0 1-1.347 1.345zM56.021 30.351h-.006l-.47-.002a1.35 1.35 0 0 1-1.342-1.359 1.35 1.35 0 0 1 1.348-1.346h.006l.47.002a1.35 1.35 0 0 1 1.342 1.36 1.35 1.35 0 0 1-1.348 1.345zM51.235 30.337h-.007l-.47-.003a1.35 1.35 0 0 1-1.341-1.359 1.35 1.35 0 0 1 1.348-1.346h.006l.47.003a1.35 1.35 0 0 1 1.341 1.358 1.35 1.35 0 0 1-1.347 1.347zM26.983 86.088h-.007a1.352 1.352 0 0 1-1.342-1.36l.003-.471a1.35 1.35 0 0 1 1.348-1.346h.006a1.35 1.35 0 0 1 1.341 1.36l-.002.471a1.35 1.35 0 0 1-1.347 1.346zM26.968 90.892h-.006a1.35 1.35 0 0 1-1.342-1.36l.002-.471a1.35 1.35 0 0 1 1.347-1.346h.007a1.35 1.35 0 0 1 1.342 1.358l-.002.472a1.35 1.35 0 0 1-1.348 1.347zM29.604 88.262h-.006l-.47-.002a1.35 1.35 0 0 1-1.342-1.359 1.348 1.348 0 0 1 1.354-1.346l.47.002a1.35 1.35 0 0 1 1.342 1.359 1.35 1.35 0 0 1-1.348 1.346zM24.818 88.247h-.006l-.47-.002A1.35 1.35 0 0 1 23 86.885a1.35 1.35 0 0 1 1.348-1.345h.006l.47.002a1.35 1.35 0 0 1 1.342 1.36 1.35 1.35 0 0 1-1.348 1.345zM111.03 88.725h-.006a1.351 1.351 0 0 1-1.342-1.358l.003-.472a1.349 1.349 0 0 1 1.354-1.346 1.35 1.35 0 0 1 1.342 1.358l-.003.472a1.35 1.35 0 0 1-1.347 1.346zM111.016 93.529h-.007a1.35 1.35 0 0 1-1.341-1.359l.002-.472a1.349 1.349 0 0 1 1.354-1.346 1.35 1.35 0 0 1 1.342 1.36l-.003.471a1.35 1.35 0 0 1-1.347 1.346zM113.652 90.9h-.006l-.47-.002a1.351 1.351 0 0 1-1.342-1.359 1.35 1.35 0 0 1 1.348-1.346h.006l.47.002A1.35 1.35 0 0 1 115 89.554a1.35 1.35 0 0 1-1.348 1.346zM108.866 90.885h-.006l-.47-.003a1.35 1.35 0 0 1-1.342-1.358 1.35 1.35 0 0 1 1.348-1.347h.006l.47.003a1.35 1.35 0 0 1 1.342 1.36 1.35 1.35 0 0 1-1.348 1.345zM48.659 110.372H48.634a1.35 1.35 0 0 1-1.342-1.359 1.35 1.35 0 0 1 1.348-1.346H48.666a1.35 1.35 0 0 1 1.34 1.359 1.35 1.35 0 0 1-1.347 1.346zM55.076 112.867h-.02a1.35 1.35 0 0 1-1.347-1.353 1.35 1.35 0 0 1 1.348-1.352h.019a1.35 1.35 0 0 1 1.347 1.352 1.35 1.35 0 0 1-1.347 1.353zM72.989 30.544H72.963a1.35 1.35 0 0 1-1.34-1.358 1.347 1.347 0 0 1 1.353-1.347h.02a1.35 1.35 0 0 1 1.34 1.36 1.35 1.35 0 0 1-1.347 1.345zM105.535 27.705H105.509a1.35 1.35 0 0 1-1.34-1.359A1.35 1.35 0 0 1 105.515 25H105.542a1.35 1.35 0 0 1 1.34 1.359 1.35 1.35 0 0 1-1.347 1.346zM108.876 29.703H108.85a1.35 1.35 0 0 1-1.34-1.36 1.35 1.35 0 0 1 1.346-1.345h.027a1.35 1.35 0 0 1 1.34 1.358 1.35 1.35 0 0 1-1.347 1.347zM29.957 66.073h-.026a1.35 1.35 0 0 1-1.341-1.359 1.35 1.35 0 0 1 1.348-1.346h.025a1.35 1.35 0 0 1 1.341 1.36 1.35 1.35 0 0 1-1.347 1.345z"/>
            <path fill="#7163FF" d="M67.144 50.922c0-2.73-3.48-4.944-7.771-4.944-4.292 0-7.772 2.213-7.772 4.944 0 2.73 3.48 4.944 7.772 4.944 4.291 0 7.771-2.214 7.771-4.944z"/>
            <path fill="#5100CB" d="M51.601 50.923c0-2.733 3.479-4.945 7.772-4.945 4.235 0 7.681 2.155 7.77 4.838-1.418-1.2-3.673-1.974-6.214-1.974-4.29 0-7.772 2.213-7.772 4.944 0 .035 0 .07.002.105-.977-.826-1.558-1.854-1.558-2.968z"/>
            <path fill="#E83F96" d="M88.102 39.028c-.199.177-.45.296-.735.328-8.863 1.02-15.232 5.843-15.294 5.891a1.342 1.342 0 0 1-.82.279c-.404 0-.805-.18-1.07-.529a1.357 1.357 0 0 1 .247-1.895c.254-.195 5.727-4.36 13.856-5.994a36.085 36.085 0 0 1 3.816 1.92zM43.734 64.666a1.35 1.35 0 0 1-1.344 1.26c-.03 0-.061-.002-.092-.004-3.895-.264-7.006-1.065-7.996-1.343.147-.898.326-1.783.54-2.658.233.069 1.016.289 2.177.536 1.384.291 3.303.622 5.46.768.743.05 1.306.694 1.255 1.44zM103.592 84.116a35.358 35.358 0 0 1-1.19 2.638c-2.068.139-8.021.631-10.752 1.854a1.323 1.323 0 0 1-.548.119 1.355 1.355 0 0 1-.548-2.59c3.78-1.691 12.092-2.111 12.443-2.13.21-.009.413.03.595.109z"/>
        </g>
    </g>
</svg>
