<svg xmlns="http://www.w3.org/2000/svg" xmlns:xlink="http://www.w3.org/1999/xlink" width="172" height="172" viewBox="0 0 172 172">
    <defs>
        <circle id="a" cx="80" cy="80" r="80"/>
        <linearGradient id="c" x1="-3.811%" x2="98.756%" y1="-7.498%" y2="100%">
            <stop offset="0%" stop-color="#7163FF"/>
            <stop offset="100%" stop-color="#CFCCF0"/>
        </linearGradient>
    </defs>
    <g fill="none" fill-rule="evenodd" transform="translate(6 6)">
        <mask id="b" fill="#fff">
            <use xlink:href="#a"/>
        </mask>
        <circle cx="80" cy="80" r="83" stroke="#7163FF" stroke-opacity=".146" stroke-width="6"/>
        <g mask="url(#b)">
            <circle cx="68.866" cy="68.866" r="69.866" fill="#19112B" fill-rule="nonzero" stroke="url(#c)" stroke-width="2" transform="translate(11 11)"/>
            <path fill="#382B73" fill-rule="nonzero" d="M117.43 63.955C110.485 50.335 96.337 41 80 41c-23.196 0-42 18.804-42 42s18.804 42 42 42 42-18.804 42-42a41.803 41.803 0 0 0-4.57-19.045z"/>
            <g fill-rule="nonzero" transform="translate(38 38)">
                <circle cx="42" cy="42.333" r="42" fill="#D1D3D4"/>
                <ellipse cx="42" cy="42.333" fill="#E6E7E8" rx="30.291" ry="42"/>
                <ellipse cx="42" cy="42.333" fill="#FFF" rx="13.226" ry="42"/>
                <path fill="#BCBEC0" d="M79.43 23.289a42.086 42.086 0 0 0-5.727-8.487 10.239 10.239 0 0 0 5.727 8.487z"/>
                <path fill="#D1D3D4" d="M71.693 33.999a10.249 10.249 0 0 0-2.56 6.779c0 2.773 1.101 5.285 2.884 7.136a57.901 57.901 0 0 0-.324-13.915z"/>
                <g transform="translate(64 26.667)">
                    <ellipse cx="8.291" cy="12.459" fill="#BCBEC0" rx="8.085" ry="12.055"/>
                    <ellipse cx="3.731" cy="12.459" fill="#D1D3D4" rx="3.525" ry="9.952"/>
                    <path fill="#E6E7E8" d="M8.291.403c-.436 0-.86.066-1.278.165 3.857.915 6.808 5.883 6.808 11.89 0 6.009-2.951 10.976-6.808 11.891.418.1.842.165 1.278.165 4.466 0 8.086-5.397 8.086-12.055C16.377 5.8 12.757.403 8.29.403z"/>
                </g>
                <g transform="translate(9.333 15.333)">
                    <ellipse cx="6.662" cy="7.956" fill="#BCBEC0" rx="6.469" ry="4.339" transform="rotate(-66.527 6.662 7.956)"/>
                    <path fill="#D1D3D4" d="M10.647 9.683c-.884 2.036-2.351 3.532-3.862 4.146-.584-1.524-.492-3.617.392-5.652.884-2.036 2.35-3.532 3.862-4.146.583 1.524.492 3.618-.392 5.652z"/>
                    <path fill="#E6E7E8" d="M9.244 2.021c.215.094.41.217.594.355-2.094-.374-4.609 1.44-5.893 4.398-1.284 2.957-.893 6.033.81 7.308a2.963 2.963 0 0 1-.664-.192c-2.198-.955-2.827-4.385-1.404-7.663C4.11 2.95 7.046 1.067 9.244 2.021z"/>
                </g>
                <g transform="translate(6 38)">
                    <ellipse cx="5.708" cy="7.569" fill="#BCBEC0" rx="4.339" ry="6.469" transform="rotate(-7.071 5.708 7.569)"/>
                    <path fill="#D1D3D4" d="M10.015 7.034c.273 2.202-.23 4.236-1.22 5.533C7.518 11.55 6.533 9.7 6.26 7.499c-.273-2.202.23-4.236 1.22-5.532 1.277 1.016 2.261 2.865 2.535 5.067z"/>
                    <path fill="#E6E7E8" d="M4.912 1.148a2.96 2.96 0 0 1 .691.003c-1.993.743-3.236 3.583-2.84 6.782.397 3.2 2.297 5.65 4.412 5.883-.216.08-.438.143-.67.172-2.378.295-4.663-2.34-5.103-5.886-.44-3.546 1.132-6.66 3.51-6.954z"/>
                </g>
                <path fill="#BCBEC0" d="M72.91 65.587c-1.757 3.111-4.874 4.677-6.96 3.498-2.086-1.18-2.353-4.657-.595-7.768 1.758-3.11 4.875-4.676 6.961-3.497 2.087 1.18 2.353 4.657.595 7.767z"/>
                <path fill="#D1D3D4" d="M65.355 61.317c-1.091 1.932-1.401 4.004-.98 5.58 1.567-.452 3.182-1.787 4.274-3.718 1.092-1.932 1.402-4.004.981-5.58-1.567.452-3.183 1.787-4.275 3.718z"/>
                <path fill="#E6E7E8" d="M72.316 57.82a2.923 2.923 0 0 0-.64-.26c1.56 1.446 1.627 4.546.04 7.353-1.587 2.806-4.277 4.348-6.32 3.758.169.156.35.299.553.414 2.087 1.18 5.203-.386 6.961-3.497 1.759-3.111 1.493-6.589-.594-7.768z"/>
                <g transform="translate(21.333 45.333)">
                    <ellipse cx="10.794" cy="14.623" fill="#D1D3D4" rx="8.55" ry="12.748" transform="rotate(-10.726 10.794 14.623)"/>
                    <path fill="#E6E7E8" d="M19.2 13.031c.814 4.296.08 8.359-1.703 11.034-2.638-1.838-4.808-5.351-5.622-9.646-.814-4.296-.079-8.359 1.704-11.034 2.638 1.838 4.807 5.35 5.621 9.646z"/>
                    <path fill="#FFF" d="M8.426 2.097a5.83 5.83 0 0 1 1.36-.08C5.959 3.727 3.871 9.469 5.053 15.71c1.183 6.242 5.226 10.822 9.414 11.014a5.79 5.79 0 0 1-1.296.422c-4.64.879-9.463-4.016-10.774-10.934C1.088 9.296 3.787 2.976 8.426 2.097z"/>
                </g>
                <path fill="#D1D3D4" d="M55.261 14.005c.657 3.526-.728 6.742-3.094 7.182-2.365.441-4.814-2.061-5.471-5.588-.657-3.526.729-6.742 3.094-7.182 2.365-.441 4.815 2.062 5.471 5.588z"/>
                <path fill="#E6E7E8" d="M46.696 15.6c.407 2.19 1.507 3.983 2.848 4.923.913-1.36 1.293-3.429.885-5.619-.407-2.19-1.507-3.983-2.848-4.923-.912 1.36-1.293 3.428-.885 5.618z"/>
                <path fill="#FFF" d="M49.79 8.417c-.23.043-.45.12-.66.213 2.132.105 4.185 2.445 4.777 5.627.593 3.182-.48 6.104-2.433 6.969.23.011.462.005.693-.039 2.366-.44 3.751-3.656 3.094-7.182-.656-3.526-3.106-6.028-5.471-5.588z"/>
                <path fill="#BCBEC0" d="M1.135 52.016a41.816 41.816 0 0 0 7.55 15.88c1.655-2.398 1.874-6.14.284-9.663-1.663-3.686-4.816-6.049-7.834-6.217z"/>
                <ellipse cx="31.708" cy="28.476" fill="#E6E7E8" rx="8.226" ry="9.111"/>
                <ellipse cx="54.446" cy="60.446" fill="#FFF" rx="9.112" ry="6.672" transform="rotate(-78.428 54.446 60.446)"/>
                <ellipse cx="64.955" cy="19.05" fill="#E6E7E8" rx="6.173" ry="6.837" transform="rotate(-25.258 64.955 19.05)"/>
                <ellipse cx="17.664" cy="64.906" fill="#D1D3D4" rx="4.338" ry="4.804" transform="rotate(-25.263 17.664 64.906)"/>
                <path fill="#E6E7E8" d="M23.653 12.506c-1.23 1.5-2.983 2.097-3.915 1.332-.932-.765-.69-2.6.54-4.1 1.23-1.5 2.982-2.097 3.915-1.332.932.765.691 2.6-.54 4.1z"/>
            </g>
        </g>
    </g>
</svg>
