<svg xmlns="http://www.w3.org/2000/svg" width="172" height="172" viewBox="0 0 172 172">
    <defs>
        <linearGradient id="a" x1="-3.811%" x2="98.756%" y1="-7.498%" y2="100%">
            <stop offset="0%" stop-color="#7163FF"/>
            <stop offset="100%" stop-color="#CFCCF0"/>
        </linearGradient>
    </defs>
    <g fill="none" fill-rule="evenodd">
        <circle cx="86" cy="86" r="83" fill="#7163FF" fill-opacity=".3" stroke="#7163FF" stroke-opacity=".146" stroke-width="6"/>
        <g fill-rule="nonzero">
            <circle cx="71.448" cy="71.448" r="72.448" fill="#19112B" stroke="url(#a)" stroke-width="2" transform="translate(15 15)"/>
            <g fill="#382B73">
                <path d="M93.133 92.551a6.703 6.703 0 0 0-13.106-.785 6.65 6.65 0 0 0-.16.785l-.016.104c-.035.278-.06.558-.06.845 0 3.7 3.004 6.698 6.709 6.698 3.705 0 6.708-2.999 6.708-6.698 0-.287-.025-.567-.06-.845-.004-.035-.01-.07-.015-.104z"/>
                <path d="M128.906 127.312a2.072 2.072 0 0 0-1.451-.562c-.014 0-.028.004-.041.004a2.136 2.136 0 0 0-.346.037c-.038.008-.075.024-.113.033-.089.024-.178.045-.263.08-.066.028-.127.067-.19.1-.055.03-.113.053-.166.089a2.098 2.098 0 0 0-.323.263 51.984 51.984 0 0 1-1.797 1.71c-.226.204-.461.397-.691.598-.387.34-.773.682-1.169 1.008-.296.243-.6.474-.901.71-.338.267-.674.538-1.019.795-.344.256-.697.5-1.047.747-.308.219-.614.442-.926.653-.387.26-.782.509-1.175.759-.283.18-.563.364-.85.538-.427.26-.861.506-1.295.753-.258.147-.515.297-.776.439-.467.254-.94.495-1.414.734-.233.118-.465.24-.7.353-.506.245-1.017.477-1.53.705-.208.093-.417.188-.627.278-.543.232-1.09.452-1.64.664-.185.072-.368.144-.553.213-.579.216-1.163.42-1.75.615l-.477.158a50.608 50.608 0 0 1-4.222 1.153c-.106.025-.212.048-.319.072a50.49 50.49 0 0 1-2.069.412l-.24.041c-.72.125-1.443.234-2.17.328-.054.007-.107.012-.16.02-.752.094-1.509.173-2.27.234l-.079.005c-.784.062-1.572.108-2.364.134-.573.025-1.147.041-1.724.041-3.057 0-6.069-.281-9.016-.805v-.002a5.987 5.987 0 0 0-5.907-5.007c-1.778 0-3.37.778-4.468 2.006-6.12-2.52-11.74-6.246-16.563-11.06-6.791-6.782-10.848-15.562-11.639-25.011a6 6 0 0 0 1.898-1.28 5.96 5.96 0 0 0 1.755-4.23 6.016 6.016 0 0 0-.087-.978 5.988 5.988 0 0 0-3.04-4.28c1.461-7.936 5.276-15.242 11.113-21.071 6.004-5.996 13.988-9.297 22.48-9.297 8.49 0 16.474 3.302 22.48 9.297a24.832 24.832 0 0 1 7.067 14.162c-3.441-7.502-11.027-12.728-19.816-12.728-5.9 0-11.257 2.357-15.184 6.173-.057.045-.116.085-.168.137-5.512 5.504-8.548 12.821-8.548 20.605 0 7.784 3.036 15.102 8.548 20.605 6.792 6.782 15.822 10.517 25.427 10.517s18.636-3.735 25.427-10.516c6.49-6.479 10.711-14.612 12.298-23.444a5.989 5.989 0 0 0 4.688-5.05c.036-.263.06-.53.06-.803a5.987 5.987 0 0 0-4.191-5.708c-.846-10.477-5.328-20.216-12.854-27.73-5.23-5.223-11.33-9.262-17.97-11.988.001-.045.007-.089.007-.135a5.989 5.989 0 0 0-11.122-3.085 55.721 55.721 0 0 0-9.816-.882c-14.695 0-28.51 5.714-38.9 16.09a2.076 2.076 0 0 0-.029 2.907c.01.011.017.025.029.035a2.086 2.086 0 0 0 2.947 0 52.14 52.14 0 0 1 1.844-1.753c.11-.1.226-.192.338-.29.52-.464 1.044-.922 1.58-1.362.095-.078.195-.15.29-.226.56-.452 1.123-.897 1.7-1.323.037-.028.076-.052.113-.08l.04-.028c.625-.46 1.257-.907 1.9-1.336l.046-.029a50.317 50.317 0 0 1 8.737-4.643l.073-.028h.003a50.35 50.35 0 0 1 2.284-.871l.157-.052c.699-.244 1.4-.478 2.11-.69l.098-.028a50.799 50.799 0 0 1 2.475-.67c.112-.026.225-.048.337-.074a50.334 50.334 0 0 1 2.637-.549c.005 0 .01-.001.014-.003h.002a53.302 53.302 0 0 1 2.26-.359l.01-.001c.74-.102 1.484-.186 2.23-.255.163-.015.325-.022.488-.035.6-.05 1.2-.096 1.803-.125a52.342 52.342 0 0 1 2.384-.058c3.066 0 6.086.283 9.042.81a5.988 5.988 0 0 0 5.902 4.98 5.975 5.975 0 0 0 4.446-1.981c6.12 2.519 11.741 6.246 16.564 11.061 6.788 6.778 10.843 15.552 11.638 24.995a6.005 6.005 0 0 0-1.876 1.269 5.962 5.962 0 0 0-1.756 4.232 6.016 6.016 0 0 0 .087.977 5.984 5.984 0 0 0 3.026 4.271c-1.457 7.95-5.273 15.269-11.12 21.106-6.005 5.995-13.987 9.297-22.48 9.297-8.491 0-16.474-3.302-22.479-9.297-3.496-3.49-5.826-7.835-6.803-12.56 3.677 6.835 10.907 11.495 19.208 11.495 6.139 0 11.688-2.552 15.653-6.645.013-.012.029-.021.042-.034 5.513-5.504 8.548-12.821 8.548-20.605 0-7.783-3.035-15.102-8.548-20.605-14.02-14-36.833-14-50.854 0a44.079 44.079 0 0 0-12.269 23.416 5.99 5.99 0 0 0-4.696 5.052c-.035.263-.06.53-.06.803a5.987 5.987 0 0 0 4.19 5.708c.82 10.127 5.091 20.025 12.834 27.756a54.72 54.72 0 0 0 17.992 11.962c-.001.045-.007.089-.007.135a5.989 5.989 0 0 0 11.122 3.084c3.237.58 6.515.883 9.794.883 14.088 0 28.177-5.354 38.9-16.063a2.078 2.078 0 0 0 0-2.943c-.014-.021-.035-.033-.052-.049zM68.697 93.697c0-9.701 7.904-17.593 17.62-17.593 9.716 0 17.62 7.892 17.62 17.593s-7.904 17.594-17.62 17.594c-9.716 0-17.62-7.893-17.62-17.594z"/>
                <path d="M61.555 110.281A3.793 3.793 0 0 0 57.797 107a3.796 3.796 0 0 0-3.634 2.692 3.778 3.778 0 0 0-.125.589 3.73 3.73 0 0 0-.038.509c0 .84.278 1.616.742 2.244.113.154.235.301.37.437.135.134.283.256.437.37.238.174.494.326.77.442.455.192.954.298 1.478.298.787 0 1.517-.239 2.123-.648a3.786 3.786 0 0 0 1.674-3.143c-.001-.173-.017-.341-.04-.509zM33.151 67.713a3.843 3.843 0 0 0-.038.51 3.79 3.79 0 0 0 3.797 3.79 3.79 3.79 0 0 0 3.796-3.79 3.73 3.73 0 0 0-.055-.62 3.778 3.778 0 0 0-.109-.479 3.796 3.796 0 0 0-3.633-2.691 3.796 3.796 0 0 0-3.633 2.691 3.778 3.778 0 0 0-.109.48c-.004.036-.01.073-.016.11zM109.039 65.3a3.793 3.793 0 0 0 3.758 3.281 3.796 3.796 0 0 0 3.633-2.692 3.778 3.778 0 0 0 .125-.59 3.73 3.73 0 0 0 .039-.508c0-.841-.278-1.616-.743-2.245a3.761 3.761 0 0 0-.37-.436 3.845 3.845 0 0 0-.437-.37 3.76 3.76 0 0 0-.77-.442 3.795 3.795 0 0 0-1.478-.298c-.786 0-1.516.239-2.122.647A3.786 3.786 0 0 0 109 64.791c0 .172.017.342.039.508zM138.429 115.889a3.778 3.778 0 0 0 .125-.59c.022-.166.038-.335.038-.508a3.79 3.79 0 0 0-3.796-3.791 3.79 3.79 0 0 0-3.796 3.79 3.738 3.738 0 0 0 .055.62c.027.163.061.323.108.479a3.796 3.796 0 0 0 7.266 0z"/>
            </g>
            <ellipse cx="6.948" cy="6.914" fill="#FEDE3A" rx="6.708" ry="6.675" transform="translate(78.552 79.778)"/>
            <path fill="#FFF" d="M125.013 120.431c-9.604 9.556-22.372 14.819-35.954 14.819-13.58 0-26.35-5.263-35.953-14.819-7.604-7.566-11.791-17.626-11.791-28.326 0-10.701 4.187-20.76 11.791-28.327 6.005-5.975 13.988-9.265 22.48-9.265 8.491 0 16.474 3.29 22.48 9.265a24.713 24.713 0 0 1 7.067 14.098c-3.444-7.469-11.031-12.67-19.816-12.67a21.772 21.772 0 0 0-15.15 6.113c-.07.054-.138.113-.202.176-5.513 5.485-8.548 12.777-8.548 20.534s3.035 15.05 8.548 20.534c6.792 6.758 15.822 10.48 25.427 10.48s18.635-3.72 25.427-10.479c8.392-8.35 13.013-19.451 13.013-31.26 0-11.808-4.621-22.91-13.013-31.26-10.39-10.339-24.206-16.033-38.9-16.033-14.696 0-28.511 5.694-38.901 16.034a2.066 2.066 0 0 0 0 2.932 2.09 2.09 0 0 0 2.947 0c9.603-9.556 22.372-14.818 35.953-14.818 13.582 0 26.35 5.262 35.954 14.818 7.604 7.567 11.791 17.626 11.791 28.327 0 10.7-4.187 20.76-11.792 28.326-6.005 5.975-13.987 9.265-22.48 9.265-8.491 0-16.474-3.29-22.479-9.265-3.497-3.48-5.831-7.81-6.807-12.521 3.676 6.815 10.909 11.46 19.212 11.46a21.78 21.78 0 0 0 15.676-6.638l.02-.019c5.512-5.484 8.547-12.777 8.547-20.534 0-7.756-3.035-15.05-8.548-20.534-14.02-13.951-36.833-13.95-50.854 0-17.323 17.236-17.323 45.283 0 62.52 10.725 10.67 24.813 16.007 38.9 16.007 14.089 0 28.177-5.336 38.902-16.008a2.066 2.066 0 0 0 0-2.933 2.09 2.09 0 0 0-2.947.001zM67.697 86.888c0-9.668 7.904-17.533 17.62-17.533 9.716 0 17.62 7.865 17.62 17.533 0 9.668-7.904 17.533-17.62 17.533-9.716 0-17.62-7.865-17.62-17.533z"/>
            <path fill="#E6E7E8" d="M125.013 120.431c-9.196 9.15-21.295 14.35-34.229 14.776-.573.025-1.147.042-1.725.042-13.58 0-26.35-5.263-35.953-14.819-7.604-7.566-11.791-17.626-11.791-28.326s4.187-20.76 11.791-28.327c6.005-5.975 13.988-9.265 22.48-9.265 8.491 0 16.474 3.291 22.48 9.265 6.002 5.973 8.31 14.251 6.925 21.997-.58-10.311-9.166-18.494-19.674-18.494a19.69 19.69 0 0 0-13.806 5.618l-.072.063c-10.583 10.53-10.583 27.605 0 38.135 13.23 13.164 34.678 13.164 47.907 0 16.536-16.454 16.536-43.131 0-59.586-20.67-20.568-54.184-20.568-74.854 0l-1.502 1.432c.01.011.017.024.028.035a2.09 2.09 0 0 0 2.948 0c.602-.6 1.217-1.183 1.844-1.747.11-.1.226-.191.337-.29.52-.462 1.045-.919 1.581-1.357.093-.076.191-.146.285-.222a51.68 51.68 0 0 1 1.703-1.322c.05-.037.103-.07.154-.107a50.063 50.063 0 0 1 1.901-1.33l.046-.03a50.376 50.376 0 0 1 8.737-4.627l.069-.026.006-.002a49.645 49.645 0 0 1 2.284-.868c.05-.016.098-.03.147-.048l.01-.004c.698-.243 1.4-.476 2.109-.688.032-.01.064-.018.097-.027a50.422 50.422 0 0 1 2.476-.667c.11-.024.218-.047.327-.073l.01-.002a50.65 50.65 0 0 1 2.522-.527l.13-.022h.002c2.998-.541 6.064-.83 9.176-.83 13.581 0 26.35 5.262 35.953 14.818 7.604 7.566 11.792 17.626 11.792 28.326s-4.188 20.76-11.792 28.326c-6.005 5.975-13.987 9.265-22.48 9.265-8.491 0-16.475-3.29-22.48-9.265-4.724-4.7-7.326-10.952-7.326-17.601 0-.956.054-1.904.16-2.84 1.145 9.744 9.47 17.305 19.571 17.305 4.845 0 9.281-1.74 12.712-4.625l.006.006.108-.102a19.872 19.872 0 0 0 1.645-1.578c10.334-10.55 10.251-27.437-.249-37.884-13.229-13.163-34.677-13.163-47.907 0-16.536 16.454-16.536 43.132 0 59.586 20.67 20.568 54.184 20.568 74.855 0l1.419-1.51a2.087 2.087 0 0 0-2.893.043zm-39.696-16.01c-9.716 0-17.62-7.865-17.62-17.533 0-9.667 7.904-17.532 17.62-17.532 9.716 0 17.62 7.864 17.62 17.532s-7.904 17.533-17.62 17.533z"/>
            <g>
                <g transform="translate(32.695 83.926)">
                    <path fill="#BCBEC0" d="M8.62 8.179c0-1.823.131-3.626.37-5.403A5.984 5.984 0 0 0 6.433 2.2c-.546 0-1.072.079-1.575.215a44.344 44.344 0 0 0-.003 11.497 6.002 6.002 0 0 0 1.578.215c.915 0 1.778-.21 2.554-.574a40.545 40.545 0 0 1-.367-5.374z"/>
                    <ellipse cx="6.433" cy="6.089" fill="#EE6DAF" rx="5.993" ry="5.964"/>
                    <path fill="#E43D91" d="M6.433 8.596A5.991 5.991 0 0 1 .697 4.361 5.943 5.943 0 0 0 .439 6.09c0 3.294 2.683 5.964 5.994 5.964 3.31 0 5.993-2.67 5.993-5.964 0-.601-.092-1.18-.258-1.728a5.991 5.991 0 0 1-5.735 4.235z"/>
                </g>
                <g transform="translate(68.13 128.864)">
                    <path fill="#BCBEC0" d="M.388 6.57a55.207 55.207 0 0 0 11.503 3.184 5.908 5.908 0 0 0-.827-4.318 50.516 50.516 0 0 1-7.708-2.15A5.978 5.978 0 0 0 .388 6.569z"/>
                    <ellipse cx="6.007" cy="6.554" fill="#7163FF" rx="5.993" ry="5.964"/>
                    <path fill="#7163FF" d="M6.007 9.06A5.991 5.991 0 0 1 .272 4.827a5.92 5.92 0 0 0-.258 1.728c0 3.294 2.683 5.964 5.993 5.964 3.31 0 5.994-2.67 5.994-5.964 0-.601-.092-1.18-.258-1.728A5.99 5.99 0 0 1 6.007 9.06z"/>
                </g>
                <ellipse cx="4.322" cy="3.824" fill="#FFF" fill-opacity=".578" rx="3.796" ry="3.778" transform="translate(53.539 106.74)"/>
                <ellipse cx="3.91" cy="3.847" fill="#FFF" fill-opacity=".578" rx="3.796" ry="3.778" transform="translate(32 57.654)"/>
                <g>
                    <g transform="translate(125.799 77.012)">
                        <path fill="#BCBEC0" d="M3.831 2.902c.016.462.034.925.034 1.39 0 3.115-.365 6.174-1.057 9.135.94.609 2.06.966 3.265.966.273 0 .54-.025.803-.06a44.314 44.314 0 0 0 1.157-10.04c0-.504-.02-1.006-.036-1.507a5.986 5.986 0 0 0-4.165.115z"/>
                        <ellipse cx="6.074" cy="6.356" fill="#EE6DAF" rx="5.993" ry="5.964"/>
                        <path fill="#E43D91" d="M6.074 8.863A5.991 5.991 0 0 1 .338 4.627a5.943 5.943 0 0 0-.257 1.729c0 3.293 2.683 5.963 5.993 5.963 3.31 0 5.993-2.67 5.993-5.963 0-.602-.091-1.181-.257-1.729a5.992 5.992 0 0 1-5.736 4.236z"/>
                    </g>
                    <g transform="translate(88.974 30)">
                        <path fill="#BCBEC0" d="M13.385 12.413c.319-.728.497-1.53.497-2.375a5.91 5.91 0 0 0-.383-2.084A54.69 54.69 0 0 0 4.39 5.202a5.954 5.954 0 0 0-2.394 3.766 50.513 50.513 0 0 1 11.388 3.445z"/>
                        <ellipse cx="7.892" cy="7.964" fill="#7163FF" rx="5.989" ry="5.968" transform="rotate(-22.5 7.892 7.964)"/>
                        <path fill="#7163FF" d="M7.889 10.471a5.991 5.991 0 0 1-5.736-4.235 5.92 5.92 0 0 0-.258 1.728c0 3.294 2.684 5.964 5.994 5.964 3.31 0 5.993-2.67 5.993-5.964 0-.601-.092-1.18-.258-1.728a5.991 5.991 0 0 1-5.735 4.235z"/>
                    </g>
                    <path fill="#FFF" fill-opacity=".578" d="M116.936 62.818c0 2.087-1.7 3.778-3.797 3.778-2.097 0-3.796-1.691-3.796-3.778 0-2.086 1.7-3.778 3.796-3.778 2.097 0 3.797 1.692 3.797 3.778z"/>
                    <ellipse cx="4.427" cy="4.45" fill="#FEDE3A" rx="3.796" ry="3.778" transform="translate(130.662 107.432)"/>
                </g>
            </g>
        </g>
    </g>
</svg>
