<svg xmlns="http://www.w3.org/2000/svg" width="216" height="203" viewBox="0 0 216 203">
    <g fill="none" fill-rule="evenodd">
        <path fill="#7163FF" fill-rule="nonzero" d="M125.478 99.533l6.075-12.422 20.285 9.92-6.076 12.422z"/>
        <path fill="#EE6DAF" fill-rule="nonzero" d="M166.164 27.848l-30.056 61.485 11.181 5.462 30.058-61.484"/>
        <path fill="#FFF" fill-opacity=".334" fill-rule="nonzero" d="M144.253 150.66l16.561-33.868-50.381-24.61-17.544 35.876"/>
        <path fill="#7163FF" fill-opacity=".1" fill-rule="nonzero" d="M7.419 182.098A39.148 39.148 0 0 0 4 198.15h196.517a44.29 44.29 0 0 0-1.122-16.052M93.056 182.098h106.34c-4.929-19.07-22.257-33.157-42.877-33.157-5.361 0-10.499.953-15.255 2.696-9.836-13.543-25.794-22.36-43.819-22.36-21.218 0-39.575 12.21-48.443 29.98a39.527 39.527 0 0 0-5.675-.413c-15.999 0-29.766 9.548-35.908 23.254h33.784"/>
        <path fill="#19112B" fill-rule="nonzero" d="M203.269 181.098c-5.502-21.289-24.727-36.157-46.75-36.157-1.728 0-3.447.09-5.149.272l11.282-23.072.017.009a4 4 0 0 0 3.51-7.188l-15.059-7.357 4.316-8.827a4 4 0 0 0-1.838-5.351l-.957-.468 27.53-56.314a23.6 23.6 0 0 0 2.012-.108c6.353-.615 12.042-4.559 14.845-10.292l.486-.995a3.997 3.997 0 0 0 4.333-2.177 4 4 0 0 0-1.838-5.35L167.197 1.695l-.003-.001-2.635-1.288a4.001 4.001 0 0 0-4.404 6.592l-.486.993c-2.805 5.734-2.422 12.643.995 18.034.36.566.74 1.11 1.14 1.638L134.27 83.983l-.96-.47a4 4 0 0 0-5.35 1.838l-4.318 8.83-15.064-7.359a4.002 4.002 0 0 0-5.35 1.84 4.002 4.002 0 0 0 1.84 5.35l.013.006-15.548 31.793a57.836 57.836 0 0 0-23.077 8.408 58.307 58.307 0 0 0-19.715 20.761 42.584 42.584 0 0 0-3.414-.137c-17.057 0-32.585 10.056-39.56 25.619C1.267 186.043 0 191.993 0 198.15a4 4 0 0 0 4 4h196.517a3.999 3.999 0 0 0 3.975-3.556c.205-1.833.308-3.647.308-5.396 0-4.096-.516-8.167-1.531-12.1zM189.84 22.73a10.582 10.582 0 0 1-8.43 5.843 14.798 14.798 0 0 1-13.99-6.832 10.564 10.564 0 0 1-.566-10.236l.423-.866 22.984 11.228-.421.863zm-21.87 10.53a22.757 22.757 0 0 0 3.993 1.954l-26.51 54.233-3.996-1.952 26.514-54.234zm-34.58 59.198l13.101 6.4-2.56 5.236-13.1-6.4 2.559-5.236zm22.073 26.172l-13.44 27.484c-10.729-12.798-26.583-20.46-43.329-20.825l13.575-27.76 43.194 21.1zm41.323 75.52H8.222c.31-2.756.94-5.448 1.887-8.052h31.094a4 4 0 0 0 0-8h-26.96c7.457-10.778 20.55-16.853 34.187-14.88a4 4 0 0 0 4.15-2.174c8.55-17.127 25.74-27.767 44.865-27.767 15.994 0 31.164 7.743 40.582 20.712a4 4 0 0 0 4.614 1.405 40.85 40.85 0 0 1 2.676-.877l.09-.025a40.273 40.273 0 0 1 11.112-1.551c16.597 0 31.287 10.117 37.358 25.159H93.057a4 4 0 1 0 0 8h103.118a40.48 40.48 0 0 1 .612 8.05z"/>
        <path fill="#19112B" fill-rule="nonzero" d="M128.486 164.91a3.993 3.993 0 0 1-3.24-1.65c-6.457-8.891-16.85-14.2-27.8-14.2a4 4 0 1 1 0-8c13.506 0 26.317 6.542 34.273 17.498a4 4 0 0 1-3.233 6.351zM79.5 186.1a4.02 4.02 0 0 1-1.528-.31 3.958 3.958 0 0 1-1.3-.862A4.035 4.035 0 0 1 75.5 182.1a4.036 4.036 0 0 1 1.172-2.83 3.958 3.958 0 0 1 1.3-.867 4.27 4.27 0 0 1 .748-.228c1.3-.26 2.68.169 3.608 1.095.184.185.352.39.495.61.146.215.27.447.37.687a3.914 3.914 0 0 1 .308 1.533 4.035 4.035 0 0 1-1.173 2.828A4.032 4.032 0 0 1 79.5 186.1z"/>
        <g fill="#19112B" transform="translate(47 55)">
            <rect width="2.88" height="7.2" x="9" rx="1.44"/>
            <rect width="2.88" height="7.2" x="9" y="10.44" rx="1.44"/>
            <rect width="2.88" height="7.2" x="15.84" y="4.68" rx="1.44" transform="rotate(90 17.28 8.28)"/>
            <rect width="2.88" height="7.2" x="2.16" y="4.68" rx="1.44" transform="rotate(90 3.6 8.28)"/>
        </g>
        <g fill="#19112B" transform="translate(195 125)">
            <rect width="2.88" height="7.2" x="9" rx="1.44"/>
            <rect width="2.88" height="7.2" x="9" y="10.44" rx="1.44"/>
            <rect width="2.88" height="7.2" x="15.84" y="4.68" rx="1.44" transform="rotate(90 17.28 8.28)"/>
            <rect width="2.88" height="7.2" x="2.16" y="4.68" rx="1.44" transform="rotate(90 3.6 8.28)"/>
        </g>
    </g>
</svg>
