<svg xmlns="http://www.w3.org/2000/svg" width="573" height="78" viewBox="0 0 573 78">
    <defs>
        <linearGradient id="a" x1="-3.811%" x2="98.756%" y1="49.641%" y2="50.312%">
            <stop offset="0%" stop-color="#7163FF"/>
            <stop offset="100%" stop-color="#CFCCF0"/>
        </linearGradient>
        <filter id="b" width="103.7%" height="137.7%" x="-1.8%" y="-19%" filterUnits="objectBoundingBox">
            <feGaussianBlur in="SourceGraphic" stdDeviation="2.304"/>
        </filter>
        <linearGradient id="c" x1="-3.811%" x2="98.756%" y1="-7.498%" y2="100%">
            <stop offset="0%" stop-color="#7163FF"/>
            <stop offset="100%" stop-color="#CFCCF0"/>
        </linearGradient>
    </defs>
    <g fill="none" fill-rule="evenodd" transform="translate(0 10)">
        <g stroke-linecap="round" stroke-linejoin="bevel">
            <path stroke="#FFF" stroke-width="1.2" d="M0 42.5h443.8l5.985-20.5 5.247 35 7.886-30 2.76 22 8.092-14.912 5.39 19.412 8.21-31.5 2.764 40 4.891-20H506" opacity=".621"/>
            <path stroke="url(#a)" stroke-width="4.8" d="M0 20.5h443.8L449.785 0l5.247 35 7.886-30 2.76 22 8.092-14.912 5.39 19.412L487.37 0l2.764 40 4.891-20H506" filter="url(#b)" opacity=".544" transform="translate(0 22)"/>
        </g>
        <circle cx="534.5" cy="38.5" r="14.5" fill="url(#c)" opacity=".567"/>
        <circle cx="549" cy="23" r="23" stroke="#FFF" stroke-opacity=".633" opacity=".567"/>
    </g>
</svg>
