<svg xmlns="http://www.w3.org/2000/svg" width="18" height="22" viewBox="0 0 18 22">
    <g fill="none" fill-rule="nonzero">
        <path fill="#5AAAE7" d="M17.17 8.585a8.584 8.584 0 0 1-3.835 7.154H3.842A8.553 8.553 0 0 1 0 8.585c0-1.016.172-1.982.5-2.883A8.569 8.569 0 0 1 8.586 0a8.57 8.57 0 0 1 8.084 5.702c.329.901.5 1.867.5 2.883z"/>
        <path fill="#E3EDEC" d="M15.023 17.17v1.43H2.146v-1.43c0-.787.644-1.431 1.431-1.431h10.016c.787 0 1.43.644 1.43 1.43zM16.454 21.462H.715v-1.43c0-.79.641-1.432 1.431-1.432h12.877c.79 0 1.431.641 1.431 1.431v1.431z"/>
        <path fill="#A7D9F2" d="M13.593 7.154a6.35 6.35 0 0 1-.759 3.026 1.435 1.435 0 0 0-2.103 1.266c0 .315.1.616.286.852a6.372 6.372 0 0 1-3.863 1.295 6.44 6.44 0 1 1 6.439-6.439z"/>
        <path fill="#FFF" d="M13.593 11.446c0 .787-.644 1.431-1.431 1.431-.472 0-.887-.229-1.145-.58a1.372 1.372 0 0 1-.286-.85 1.435 1.435 0 0 1 2.103-1.267c.45.244.759.723.759 1.266zM5.008 3.577a1.43 1.43 0 1 1-2.862 0 1.43 1.43 0 0 1 2.862 0z"/>
    </g>
</svg>
